<?xml version="1.0" encoding="UTF-8"?>
<svg id="_레이어_1" data-name="레이어_1" xmlns="http://www.w3.org/2000/svg" version="1.1" viewBox="0 0 1166 1129">
  <!-- Generator: Adobe Illustrator 29.8.3, SVG Export Plug-In . SVG Version: 2.1.1 Build 3)  -->
  <defs>
    <style>
      .st0 {
        fill: #eada4b;
      }

      .st1 {
        fill: #323332;
      }
    </style>
  </defs>
  <path class="st1" d="M639.01,666.99l9.59.9c2.12,1.72.81,4.47,1.62,5.89.51.88,3.1.45,3.76,3.74,2.96,14.84-7.36,44.86-14.81,58.15-10.77,19.21-24.81,33.47-48.58,30.24-10.75-1.46-19.3-17.8-23.09-26.92-1.58,4.35-.19,11.34-3.44,14.57-1.91,1.89-18.54,7.67-21.79,8.2-11.07,1.79-6.73-3.14-12.76-8.74-2.89,3.21-.06,5.96-3.98,9-3.64,2.81-24.32,10.3-28.12,7.09-1.67-1.4-.92-3.63-1.67-4.84-1.11-1.79-6.64-2.59-4.73-8.27-6.99,1.03-16.22,7.92-23.29,5.79-3.74-1.12-1.95-4.9-2.92-6.58-.33-.57-2.22-.78-2.85-1.61-3.77-4.99,3.07-27.41,2.06-34.6l-11.48,15.01c-9.48,11.42-35.67,30.97-50.99,27.95-4.89-.96-2.59-4.73-3.75-6.75-.4-.7-2.92-.71-3.6-2.9-1.62-5.24,2.91-26.04,1.81-27.31-3.67.99-5.96,6.25-8.48,9.01-10.69,11.7-28.81,26.19-45.12,27.87-6.21.64-10.21.52-9.39-6.89-6.26-1.53-28,12.43-31.51,5.01-.81-1.72-.25-7.46-4.82-6.83-4.13.57-18.87,17.26-24.78,9.44-1.38-1.82-.41-4.17-1.12-5.39-.35-.6-2.47-.73-3.27-2.21-.75-1.4-1.01-8.02-2.01-8.01-1.13,2.97.6,5.28-2.55,7.46-.97.67-18,6.7-19.89,7.1-2.52.53-7.45,1.32-9.17-.95-1.38-1.82-.41-4.15-1.12-5.39-.4-.7-2.92-.71-3.6-2.9,2.72-42.67,11.29-85.02,16.04-127.59.2-1.02.7-1.87,1.3-2.7,2.76-3.87,27.07-8.67,31.48-6.53,3.31,1.61.75,7.65,3.48,6.5,11.31-18.95,19.56-2.56,31.5,5.01-1.85-9.57,27.54-13.29,32.32-11.81,2.33.72,2.32,3.75,3.32,3.9,1.13.17,17.51-5.51,21.99-5.96,13.02-1.32,22.87-.05,31.36,10.4,2.69,3.31,4.15,7.48,7.01,10.48-.22-11.91,1.26-14.06,12-17.51,8.64-2.77,19.36-4.43,28.4-3.38,14.08,1.64,20.23,13.65,26.11,24.9.96-.03.27-13.75,3.97-17.04,3.3-2.92,25.45-7.12,29.83-5.78,3.03.93,2.25,4.76,3.25,4.87,4.02.42,17.68-5.13,23.2-5.8,2.49-.3,6.4-1.04,7.75,1.74,1.09,2.26-.71,6.57,2.01,6.03,5.13-3.06,31.13-10.26,34.59-5.62,1.09,1.46.74,3.73,1.46,5.54.35.89,1.88,1.55,2.24,2.76,1.4,4.63-1.06,9.72-.3,14.29,10.09-16.27,27.73-35.01,48.89-25.88,9.11,3.93,22.34,25.36,19.06,34.85-1,2.9-14.26,17.25-12.45,19.04ZM621.99,703c-.81,7-7.22,20.21-14.72,21.76-24.6,5.1-13.73-33.52-9.3-45.29,4.18-11.11,15.71-35.22,29.53-21.49l15.25-20.65c-9.23-31.24-34.11-23.15-49.56-1.65-18.22,25.34-30.05,68.08-20.9,98.53,2.19,7.3,7.6,17.63,15.66,19.34,29.38,6.21,48.29-35.34,53.98-58.13.51-2.04,5.03-23.48,2.56-23.44l-36.29,10.22-4.19,25.79,17.98-4.99ZM308.85,631.16l-16.22-12.09-21.63,22.93,2.99-21.99-22.91,5.08-17.08,124.92,21.89-7.1,6.11-53.89c2.5-.18,1.71-.24,1.97,1.5,2.99,20.15,5.18,40.42,8.5,60.52,1.2,1.53,1.11.6,2.18.15,7.14-2.98,15.57-11.6,22.9-15.18l-14.58-71.44c.21-1.51,3.34-5.08,4.51-6.56,5.51-6.97,15.4-15.08,19.96-22.03.79-1.2,2.21-3.41,1.41-4.79ZM334.01,750c41.9-6.2,75.86-60.18,71.87-100.37-3.35-33.82-28.84-36.16-55.75-24.49l-16.12,124.87ZM399.01,750c41.9-6.2,75.86-60.18,71.87-100.37-3.35-33.82-28.84-36.16-55.75-24.49l-16.12,124.87ZM343,620.01l-23.86,5.13-17.13,124.86,21.89-7.1c3.96-41.3,10.61-82.33,19.1-122.89ZM507,620.01l-23.86,5.13-17.13,124.86,21.89-7.1c3.96-41.3,10.61-82.33,19.1-122.89ZM538.99,620c-.79-.83-21.3,4.65-22.32,5.18-.72.37-1.32.61-1.49,1.51l-18.18,131.31,21.54-7.95,4.47-39.04,11,39,22.86-8.63,18.12-121.37-23.02,5.7-9.47,67.31c-5.34-23.82-2.94-48.7-3.51-73.01ZM301.99,713l7-57.99c-3.5,3.12-15.61,14.72-15.98,18.59-.46,4.74,5.03,26.2,6.48,32.43.43,1.86.83,6.09,2.5,6.98ZM628,670.99c-2.54-9.41-10.54-2.7-13,3l13-3ZM637.5,667v1c.65-.33.65-.67,0-1ZM396.99,723.99v-1.99h-.98v1.99h.98Z"/>
  <path class="st1" d="M340.22,456.78c.33.57,2.22.78,2.85,1.61,1.71,2.26.33,27.36-.09,32.09-.93,10.54-3.21,9.47-12.98,10.53,2.42,1.84,1.42,5.37,2.22,6.77.35.61,2.61.81,3.3,2.19,2.29,4.57-2.12,22.95-.72,29.33-.76,2.57-3.44,2.86-5.81,2.71.12,4.5,4.8,6.95,5.1,10.48l-2.12,33.99-1.4,2.6-54.09,13.02c-7.45-.27-4.12-4.18-5.7-6.88-.45-.77-4.43-1.65-4.28-5.21-5.39,3.68-6.44,11.4-13.97,9.98-4.68-.89-5.19-8.41-8.74-11.28l-3.78-9.7c-.82,3.99-.1,11.1-2.43,14.07s-24.81,10.32-28.59,8.42l-2.48-5.49c-7.2,1.72-27.64,10.62-33.81,8.79-2.96-.88-2.9-4.19-2.71-6.8-1.72,1.03-2.4,2.21-4.51,2.98-4.8,1.76-27.53,5.85-31.96,4.99-4.88-.95-2.6-4.75-3.75-6.75-.4-.7-2.9-.7-3.59-2.9-.61-1.92-.25-4.58.06-6.58,2.72-17.37,12.7-42.3,17.47-60.52,5-19.11,8.46-44.9,14.55-62.45,2.03-5.84,5.51-5.9,10.73-7.27,6.12-1.61,34.2-8.24,38.46-7.49,5.41.95,3.64,5.82,4.77,7.78.65,1.12,3.32.13,3.84,4.68-2.18,14.41-2.18,30.06-4.84,44.27-.36,1.93.09,1.21,1.78,1.26l6.25-47.25c1.63-4.01,17.85-8.5,22.53-9.47,13.82-2.86,31.57-5.05,40.86,7.66,2.46-1.17,3.48-2.51,6.33-3.47,7.4-2.47,31.51-6.82,39.54-7.45,2.36-.19,7.57-.48,9.49.47,2.87,1.42,1.34,4.77,2.22,6.29ZM334.99,455l-46.57,8.93-16.42,126.07,50.98-12.01,1.01-31.99-24.49,4.02.61-13.89c3.83-2.06,24.8-4.97,25.74-7.76l1.13-22.36c-1.21-1.22-17.36,4.58-20.56,4.95-2.31.27-1.59-1.63-1.42-3.43.51-5.39,2.21-11.06,3.08-16.42l24.9-3.1,1.99-33ZM249.01,587c1.17,1.05,6.4-4.83,7.51-5.98,1.91-2,14.38-16.41,14.5-17.54l-15.1-41c.02-2.88,7.29-9.49,9.5-12.57,13.79-19.25,27.17-55.97-10.9-52.9-4.44.36-28.43,5.84-29.86,9.21l-16.65,119.29.47,4.47,21.06-7.94,5.44-42.04,14.02,46.99ZM207,458.01l-42.52,8.97-32.47,127.02,28.02-5.47,3.13-15.36,9.86-1.65-2.01,20.49,28.54-7.96c.99-42.1,1.11-84.39,7.46-126.03ZM272.99,544.99l3-26.99-9.94,12.45c-.04.72,4.06,12.07,4.71,13.28s-.02,1.68,2.23,1.27Z"/>
  <path class="st1" d="M431,541l-22.43,57.07c-4.07,2.6-21.17-1.45-26.86-1.28-3.76-1.11-1.96-4.87-2.93-6.57-.4-.7-2.91-.71-3.59-2.9-2.26-7.24,8.38-27.5,10.83-35.81,5.17-17.54-6.27-50.59-7.88-70.14-.43-5.26-1.41-9.34,2.94-12.8,2.36-1.88,21.69-13.44,23.88-14.11,3.07-.94,8.71-1.37,9.84,2.29.98,3.18-.68,4.02,3.72,6.23,4.85-11.57,12.42-7.82,22.32-5.3,5.27,1.34,13.47,1.77,13.21,8.68l1.96.63c8.37-15.32,27.43-28.73,45.26-20.73,9.48,4.25,16.44,20.12,18.77,29.73l4.42-17.07c6.56-2.17,25.77-8.39,31.59-5.45,2.18,1.1,1.61,4.54,2.53,4.54,8.41-1.21,21.55-7.25,29.76-4.82.95.28,1.75.92,2.19,1.81l3.59,10.44c-6.87,38.6-13.43,77.09-18.07,116.05-.51,4.31,1.64,8.08-3.08,10.92-2.72,1.64-19.46,7.45-22.45,7.62-9.26.52-6.62-8.45-10.08-9.01-5.07,3.07-6.95,6.3-13.69,4.75-2.18-.5-14.61-9.36-15.77-11.24-.96-1.56-.62-3.37-1.21-4.28-.49-.77-2.59-.92-3.25-2.24-1.16-2.3.67-6.09-1.47-7.02-3.92,10.9-20.02,30.79-31.75,32.75-9.06,1.52-19.02.98-25.8-5.73-8.24-8.17-16.46-29.06-16.46-40.54v-16.5ZM485.76,450.26c-23.82,3.39-42.52,50.71-46.49,71.51s-6.82,73.65,25.12,70.11c27.89-3.09,47.83-62.57,49.59-86.4,1.41-19-.63-59.15-28.23-55.22ZM551.99,458c-3.68,1.13-23.03,4.12-23.85,6.64l-16.22,105.85c-.84,6.57,9.24,9.78,13.73,13.34l21.33-14.83-2.99,18.99,22.86-8.63c2.72-40.41,10.18-80.27,18.15-119.87.1-1.63.2-1.65-1.46-1.46-2.54.3-21.47,4.96-22.09,5.93l-9.68,69.32-13.77,9.72,13.99-84.99ZM410,502v-43l-27.08,15.61,11.13,70.94-14.05,39.44,21.49,1.03,46.54-119.53c.08-2.29-.21-1.12-1.51-1.53-2.34-.74-19.69-4.61-20.47-3.92l-16.05,40.95Z"/>
  <path class="st1" d="M847.22,615.78c.33.57,2.22.78,2.85,1.61,1.46,1.93.27,26.73-.08,31.09-.88,10.95-2.27,10.61-12.99,11.52,2.42,1.84,1.42,5.37,2.22,6.77.35.61,2.61.81,3.3,2.19,2.29,4.57-2.12,22.95-.72,29.33-.76,2.57-3.44,2.86-5.81,2.71.12,4.5,4.8,6.95,5.1,10.48l-2.12,33.98-1.4,2.6-53.07,13c-5.65.16-6.67-1.45-6.65-6.92-2.07-3.45-28.64,8.09-32.96,2.45-1.33-1.74,0-4.5-1.89-4.6l-3.41,14.09c-4.68,1.47-19.74,4.93-23.2,2.01-1.5-1.26-1.12-3.63-1.97-5.03-1.19-1.99-3.98-2.95-3.44-6.08-8.33.75-23.77,6.48-31.46,4.98-4.88-.95-2.6-4.76-3.75-6.75-.4-.7-2.91-.71-3.59-2.9-2.16-6.94,6.4-28.85,8.53-37.1,2.68-10.35,5.42-20.78,7.8-31.2,4.08-17.88,6.06-40.39,10.93-57.07.51-1.76,1.4-4,2.99-5.01,1.9-1.21,29.43-6.67,33.08-6.92,4.54-.31,8.5-.57,8.5,5,9.63-1.21,27.44-8.73,36.46-6.98,5.38,1.04,1.47,7.1,7.04,8.94l1.47,9.02c.06-6.83-.29-12.2,6.98-14.53,7.92-2.54,34.29-7.34,42.49-7.52,2.11-.05,5.48-.4,7.14.95,2.04,1.33.83,4.51,1.62,5.89ZM841.99,614l-46.57,8.93-16.42,126.07,50.98-12.01,1.01-31.99-24.49,4.02.61-13.89c3.83-2.06,24.8-4.97,25.74-7.76l1.13-22.36c-1.21-1.22-17.36,4.58-20.56,4.95-1.92.22-1.31.08-1.47-1.47-.2-1.91,2.43-17.81,3.21-18.32l24.83-3.16,1.99-33ZM778.99,618l-31.82,7.17-11.18,52.82-1.03-9.54,4.03-48.46-33.86,7.13c-5.92,41.7-16.57,82.49-28.13,122.86l28.81-5.18,17.2-84.81c1.75-.23.93,2.26.98,3.48,1.06,25.09-5.5,57.11-6.99,83.02-.2,3.48.1,7.02,0,10.49l14.92-2.09,16.09-77.91.99,3.48-3.99,65.51,28.86-6.13.09-57.41,5.03-64.46Z"/>
  <path class="st1" d="M973.17,621.83l2.82,1.17c2.26-11.59.12-15.03,13.5-13.98,3.08.24,24.66,4.55,26.49,5.51,3.31,1.73,1.23,5.51,2.23,7.28.29.51,2.22.74,2.86,1.59,1.97,2.61.81,6.28-.01,9.16-4.26,14.95-14.23,32.56-19.51,48.48-3.64,10.98-6.27,22.28-9.66,33.34-.49.76-1.06,1.74-1.87,2.13-2.95,1.41-20.56.49-24.27-.73-3.37-1.1-1.98-3.85-3-5.5-.62-1-3.74-1.39-4.52-3.98,1.23-19.65,9-38.67,11.29-58.3-9.99,21.47-16.31,44.33-23.01,67-.42.55-.86,1.22-1.49,1.51-2.78,1.32-22,.55-25.01-1-2.42-1.24-1.4-3.83-2.27-5.23-2.02-3.26-5.53-.38-4.62-9.67l20.44-89.56c1.68-2.97,7.8-2.27,10.94-2.03,4.05.32,22.42,3.89,25.76,5.24,4.49,1.81,1.81,5.84,2.92,7.57ZM968,620.01l-28.96-5.99-20.05,89.97,18.87.87c6.9-29.35,17.97-57.38,30.13-84.86ZM1013,620.01l-28.96-5.99-20.05,89.97,18.87.87c6.9-29.35,17.97-57.38,30.13-84.86Z"/>
  <path class="st1" d="M870.01,717.01c.46,1.79,4.03.82,6.02,1.46,9.54,3.07,14.93,17.62,13.85,26.92-1.77,15.3-21.01,28.73-35.24,20.46-3.2-1.86-10.02-11.76-10.58-15.42-2.23-14.38,5.77-28.02,19.93-31.45.44-.42-2.01-2.16-2.46-3.07-4.03-8.03-6.64-13.07-7.52-23.44-1.48-17.38,4-14.08,15.98-22.99-2.52-1.2-4.73,1.36-7.5,1.57-8.26.61-5.04-3.84-6.72-6.84-.42-.76-3.8-1.32-4.56-3.93-2.52-8.58,1.59-25.2,1-34.58,1.55-5.33,21.24-9.55,26.61-10.39,11.06-1.74,28.13-3.83,35.62,6.75,1.48,2.09,5.92,11.3,6.33,13.67,5.89,34.45-25.23,63.65-50.75,81.27ZM857,628.5v29.5c6.76-1.46,32.73-12.51,29.78,2.26-1.74,8.71-19.92,19.09-27.62,22.89l3.33,22.84c21.17-15.39,54.29-44.9,49.27-74.25-3.61-21.14-42.24-9.56-54.76-3.24ZM865.72,724.23c-14.37,2.99-24.64,29.58-6.96,31.58,20.87,2.37,33.2-37.04,6.96-31.58Z"/>
  <path class="st1" d="M945.01,735.99l4.02-6.46c7.77-11.34,26.47-17.56,35.54-4.59.56.8,5.1,9.23,5.23,9.77,4.25,18.53-11.05,36.31-30.05,33.05-8.79-1.51-11.15-10.12-15.23-16.75-5.45,12.6-26.51,24.4-37.54,12.54-.91-.98-6.59-9.83-7.04-10.96-6.31-15.84,9.2-34.64,25.57-34.63,12.08,0,15.09,8.58,19.51,18.05ZM920.72,724.23c-16.75,3.52-23.57,34.3-3.5,31.57,20.31-2.76,28.05-36.72,3.5-31.57ZM965.72,724.23c-16.75,3.52-23.57,34.3-3.5,31.57,20.31-2.76,28.05-36.72,3.5-31.57Z"/>
  <path class="st0" d="M538.99,620c.56,24.31-1.83,49.18,3.51,73.01l9.47-67.31,23.02-5.7-18.12,121.37-22.86,8.63-11-39-4.47,39.04-21.54,7.95,18.18-131.31c.17-.9.78-1.13,1.49-1.51,1.02-.53,21.53-6.01,22.32-5.18Z"/>
  <path class="st0" d="M621.99,703l-17.98,4.99,4.19-25.79,36.29-10.22c2.47-.04-2.05,21.4-2.56,23.44-5.69,22.79-24.6,64.34-53.98,58.13-8.06-1.71-13.47-12.04-15.66-19.34-9.15-30.45,2.68-73.19,20.9-98.53,15.46-21.5,40.33-29.59,49.56,1.65l-15.25,20.65c-13.81-13.72-25.34,10.39-29.53,21.49-4.43,11.77-15.3,50.4,9.3,45.29,7.5-1.56,13.91-14.76,14.72-21.76Z"/>
  <path class="st0" d="M308.85,631.16c.8,1.38-.62,3.59-1.41,4.79-4.56,6.95-14.45,15.06-19.96,22.03-1.17,1.48-4.31,5.05-4.51,6.56l14.58,71.44c-7.33,3.58-15.76,12.21-22.9,15.18-1.08.45-.99,1.38-2.18-.15-3.31-20.1-5.5-40.38-8.5-60.52-.26-1.74.53-1.68-1.97-1.5l-6.11,53.89-21.89,7.1,17.08-124.92,22.91-5.08-2.99,21.99,21.63-22.93,16.22,12.09Z"/>
  <path class="st0" d="M334.01,750l16.12-124.87c26.91-11.67,52.4-9.33,55.75,24.49,3.98,40.19-29.97,94.17-71.87,100.37ZM380.69,657.3c-2.07-2.27-7.63-3.64-10.69-3.31l-8.99,65c4.7-4.93,8.89-11.34,12.16-17.33,5.35-9.78,16.29-34.74,7.52-44.37Z"/>
  <path class="st0" d="M399.01,750l16.12-124.87c26.91-11.67,52.4-9.33,55.75,24.49,3.98,40.19-29.97,94.17-71.87,100.37ZM445.69,657.3c-2.07-2.27-7.63-3.64-10.69-3.31l-8.99,65c4.7-4.93,8.89-11.34,12.16-17.33,5.35-9.78,16.29-34.74,7.52-44.37Z"/>
  <path class="st0" d="M343,620.01c-8.49,40.56-15.14,81.59-19.1,122.89l-21.89,7.1,17.13-124.86,23.86-5.13Z"/>
  <path class="st0" d="M507,620.01c-8.49,40.56-15.14,81.59-19.1,122.89l-21.89,7.1,17.13-124.86,23.86-5.13Z"/>
  <path class="st0" d="M207,458.01c-6.34,41.64-6.47,83.93-7.46,126.03l-28.54,7.96,2.01-20.49-9.86,1.65-3.13,15.36-28.02,5.47,32.47-127.02,42.52-8.97ZM168.01,549c4.7-.87,6.79-.59,7.75-5.74,2.21-11.81,3.52-31.4,4.23-43.77.16-2.82-.06-5.67,0-8.49l-11.98,57.99Z"/>
  <path class="st0" d="M249.01,587l-14.02-46.99-5.44,42.04-21.06,7.94-.47-4.47,16.65-119.29c1.43-3.37,25.41-8.85,29.86-9.21,38.07-3.07,24.69,33.65,10.9,52.9-2.21,3.08-9.48,9.69-9.5,12.57l15.1,41c-.12,1.13-12.59,15.54-14.5,17.54-1.1,1.16-6.34,7.03-7.51,5.98ZM238,515.99c3.5,3.56,35.66-36.36,4.52-22.97l-4.52,22.97Z"/>
  <path class="st0" d="M334.99,455l-1.99,33-24.9,3.1c-.88,5.36-2.58,11.03-3.08,16.42-.17,1.8-.89,3.7,1.42,3.43,3.2-.37,19.35-6.17,20.56-4.95l-1.13,22.36c-.94,2.8-21.91,5.71-25.74,7.76l-.61,13.89,24.49-4.02-1.01,31.99-50.98,12.01,16.42-126.07,46.57-8.93Z"/>
  <path class="st0" d="M485.76,450.26c27.6-3.93,29.63,36.22,28.23,55.22-1.76,23.83-21.7,83.31-49.59,86.4-31.94,3.54-28.91-50.25-25.12-70.11s22.67-68.11,46.49-71.51ZM482.72,494.2c-10.83,2.46-20.62,30.61-22.42,40.6-1.59,8.8-2.69,27.27,10.36,27.91,14.85.73,22.68-28.88,23.39-40.16.48-7.65,1.24-31.21-11.33-28.35Z"/>
  <path class="st0" d="M551.99,458l-13.99,84.99,13.77-9.72,9.68-69.32c.62-.96,19.55-5.62,22.09-5.93,1.65-.2,1.56-.18,1.46,1.46-7.97,39.6-15.43,79.47-18.15,119.87l-22.86,8.63,2.99-18.99-21.33,14.83c-4.49-3.56-14.58-6.77-13.73-13.34l16.22-105.85c.82-2.52,20.17-5.51,23.85-6.64Z"/>
  <path class="st0" d="M410,502l16.05-40.95c.78-.69,18.13,3.19,20.47,3.92,1.3.41,1.59-.77,1.51,1.53l-46.54,119.53-21.49-1.03,14.05-39.44-11.13-70.94,27.08-15.61v43Z"/>
  <path class="st0" d="M778.99,618l-5.03,64.46-.09,57.41-28.86,6.13,3.99-65.51-.99-3.48-16.09,77.91-14.92,2.09c.11-3.48-.19-7.01,0-10.49,1.49-25.91,8.05-57.93,6.99-83.02-.05-1.22.76-3.71-.98-3.48l-17.2,84.81-28.81,5.18c11.56-40.37,22.21-81.16,28.13-122.86l33.86-7.13-4.03,48.46,1.03,9.54,11.18-52.82,31.82-7.17ZM749.99,675v-2.99h-.98v2.99h.98Z"/>
  <path class="st0" d="M841.99,614l-1.99,33-24.83,3.16c-.78.51-3.41,16.41-3.21,18.32.16,1.55-.45,1.7,1.47,1.47,3.2-.37,19.35-6.17,20.56-4.95l-1.13,22.36c-.94,2.8-21.91,5.71-25.74,7.76l-.61,13.89,24.49-4.02-1.01,31.99-50.98,12.01,16.42-126.07,46.57-8.93Z"/>
  <path class="st0" d="M968,620.01c-12.16,27.47-23.23,55.5-30.13,84.86l-18.87-.87,20.05-89.97,28.96,5.99Z"/>
  <path class="st0" d="M1013,620.01c-12.16,27.47-23.23,55.5-30.13,84.86l-18.87-.87,20.05-89.97,28.96,5.99Z"/>
  <path class="st0" d="M857,628.5c12.52-6.32,51.14-17.9,54.76,3.24,5.02,29.35-28.1,58.87-49.27,74.25l-3.33-22.84c7.7-3.8,25.88-14.18,27.62-22.89,2.95-14.77-23.02-3.72-29.78-2.26v-29.5Z"/>
  <path class="st0" d="M865.72,724.23c26.24-5.45,13.91,33.95-6.96,31.58-17.68-2-7.41-28.6,6.96-31.58Z"/>
  <path class="st0" d="M920.72,724.23c24.55-5.15,16.81,28.82-3.5,31.57-20.07,2.72-13.26-28.06,3.5-31.57Z"/>
  <path class="st0" d="M965.72,724.23c24.55-5.15,16.81,28.82-3.5,31.57-20.07,2.72-13.26-28.06,3.5-31.57Z"/>
  <path class="st1" d="M380.69,657.3c8.76,9.63-2.17,34.59-7.52,44.37-3.28,5.99-7.46,12.4-12.16,17.33l8.99-65c3.06-.33,8.62,1.03,10.69,3.31Z"/>
  <path class="st1" d="M445.69,657.3c8.76,9.63-2.17,34.59-7.52,44.37-3.28,5.99-7.46,12.4-12.16,17.33l8.99-65c3.06-.33,8.62,1.03,10.69,3.31Z"/>
  <path class="st1" d="M168.01,549l11.98-57.99c-.06,2.81.16,5.66,0,8.49-.71,12.37-2.02,31.95-4.23,43.77-.96,5.15-3.05,4.87-7.75,5.74Z"/>
  <path class="st1" d="M238,515.99l4.52-22.97c31.15-13.38-1.02,26.53-4.52,22.97Z"/>
  <path class="st1" d="M482.72,494.2c12.57-2.86,11.81,20.69,11.33,28.35-.71,11.28-8.54,40.89-23.39,40.16-13.05-.64-11.95-19.11-10.36-27.91,1.8-9.99,11.59-38.13,22.42-40.6ZM476.65,553.65c9.36-8.81,14.29-34.34,11.33-46.65-7.07,4.55-11.89,15.74-14.73,23.76-1.96,5.51-11.3,36.73,3.4,22.9Z"/>
  <rect class="st1" x="749.01" y="672" width=".98" height="2.99"/>
</svg>