<?xml version="1.0" encoding="UTF-8"?>
<svg id="_레이어_1" data-name="레이어_1" xmlns="http://www.w3.org/2000/svg" version="1.1" viewBox="0 0 1166 1129">
  <!-- Generator: Adobe Illustrator 29.8.3, SVG Export Plug-In . SVG Version: 2.1.1 Build 3)  -->
  <defs>
    <style>
      .st0 {
        fill: #43433f;
      }

      .st1 {
        fill: #e9da4b;
      }
    </style>
  </defs>
  <path class="st0" d="M817,506c2.44,1.54-1.58,24.99-2.24,29.26-.2,1.3-1.4,2.59-1.67,4.33-2.41,15.45-4.57,30.92-6.08,46.41,2.99-2.74,17.68-2.83,18.86.63l-.83,32.92-1.45,3.55c-8.33,1.98-16.78,3.69-25.03,5.97s-16.2,7.74-25.57,5.93l.04,13.33c-.6,2.48-17.56,4.26-21.06,5.15-10.98,2.82-21.75,8.95-33.34,7.38-2.51-.82-1.88-12.53-1.62-15.34,1.33-14.35,6.56-30.98,6.97-46.03l-.98-8.49-9,42.51c-12.71,3.93-25.67,7.68-39.08,7.92-2.19,1.53-.1,9.9-1.1,12.9s-12.87,3.58-16.49,4.51c-12.7,3.24-25.06,10.32-38.41,7.72-3.17-2.21.96-22.92,1.06-27.56-13.2,1.66-25,10.18-38.5,9l-2.36-1.64c-1.08-18.85,3.47-37.4,5.73-55.99,1.22-10.03,2.79-20.1,4.05-29.95,1.36-10.64,1.14-23.61,3.1-33.9.2-1.06.47-1.95,1.4-2.6,9.02-2.36,20.74-7.63,30.08-5.92,1.14.21,2.02.35,2.36,1.64l-10.88,76.86c-.22,3.62,8.03-.39,9.98.46l6.93-54.57,42.53-9.28,2.17-14.23c10.4-2.56,23.91-9.45,34.73-6.87.86.21.3,2.06,2.11,2.06,7.02,0,17.56-5.62,25.93-2.94l1.5,1.5c1.57,7.37-2.17,13.28-2.86,20.35,15.18-1.08,29.49-8.42,44.97-5.02l3.01-17.49c.57-.58,14.71-4.49,15.51-4.49h15.5ZM810,510.01c-3.61,1.21-19.94,3.73-20.84,6.65l-14.15,113.34c13.48-4.22,26.74-9.54,40.95-11.04l2.04-29.95-20.99,3.99,12.99-82.99ZM731.99,516c-3.84.74-19.49,2.74-20.8,5.68l-15.19,94.31c-3.1.92-2.11-3.5-1.98-5.49.8-12.64,3.68-25.41,4.98-38.02,1.9-18.46,2.87-37.05,5-55.49l-23.86,7.63-.02,8.75c4.79,2.41,4.3,2.54,3.92,8.16-.65,9.58-.97,19.32-2.12,28.87-1.61,13.39-1.99,26.36-2.93,40.07-.6,8.83-2.19,17.7-2.98,26.51,5.19-2.59,29.34-5.44,31.46-9.03l24.53-111.96ZM616.99,523c-3.47,1.74-18.9,3.8-19.83,6.66l-14.16,113.33,41.06-11.6.93-29.39-19.99,3.99,11.99-82.99ZM767,599.5v-20.5l-17.99,4c.63-3.6.83-16.3,3.68-17.81,3.41-1.81,19.58-2.47,20.31-3.19l2-29.99-39.11,7.57c-1.48,7.94-2.71,16.03-3.75,24.05-3.5,26.83-9.16,60.41-10.18,86.82-.05,1.42-.81,6.28,1.43,5.44l41.13-11.88,1.48-29.01-21.99,4c-.02-.83-.06-1.67-.04-2.51.06-1.84,1.04-9.06,2-10.03,2.62-2.67,20.08-3.99,21.04-6.96ZM676,539.01l-39.5,7.99-6.51,50.5,3.08,1.06-1.02,36.8-6.89,3.31-2.15,23.35,42.56-10.93,1.43-29.07-21.49,4.02.62-12.88,21.73-6.77.67-20.41c-.92-1.29-1.42-.77-2.57-.56-4.96.94-10.34,3.88-15.46,4.61-1.55-.1,1.34-15.87,2.46-17.54,4-3.04,18.89-2.16,20.96-5.04,3.16-4.4-.69-22.16,2.07-28.42ZM777,578c.19-1.73,2.67-11.35,2-11.99l-19.92,3.07c-3.09,11.87,1.8,5.06,8.47,4.89,2.51-.07,4.9,1.12,7.4,1.1.27.96-.02,1.96.06,2.93.14,1.76-.48,13.02.5,13.01,2.02-4.08,1.04-8.78,1.5-13.01ZM675.99,573c-6.85,2.05-17.57-1.08-16.99,8.99l17-.99v-8ZM774,605c-.69-.71-17.63,3.36-19.28,4.21-2.03,1.05-1.9,1.63-1.71,3.78,3.77-.64,7.65-1.77,11.48-2.07,5.64-.44,10.05,3.87,9.51-5.92ZM674,612c-1.01-1.04-15.34,2.81-17.56,3.94-1.44.73-2.84.93-2.43,3.06l18.36-1.13c2.31-.76,1.61-3.91,1.64-5.86Z"/>
  <path class="st0" d="M493.5,570c3.02.45,7.22,4.55,8.53,3.53,6.43-13.53,17.82-36.2,30.63-44.37,5.49-3.5,17.85-4.74,23.61-1.93,9.11,4.44,7.1,32.65,5.49,41.53-9.37,5.35-17.41,11.19-28.74,7.23-.04,1.79-2.71,4.1.49,4.04,7.54-.13,24.87-3.94,27.27,6.67,2.44,10.8-.14,27.68-4.91,37.67-8.63,18.06-26.24,36.23-48.1,30.35-7.64-2.06-9.46-4.19-8.66-12.12.22-2.15,7.18-23.95,7.97-25.02,4-5.38,13.05-.16,16.3-.82.36-.07,5.48-3.07,4.61-4.75-8.24,2.04-21.18,4.64-27.98-1-9,19.25-22.27,38.73-46.41,35.89-8.85-1.04-14.21-4.6-12.37-14.16,1.09-5.66,8.85-21.14,8.75-25.3-.06-2.49-3.13-2.45-4.98-3.43-4.49,17.66-18.53,55-39.46,57.06-3.4.33-12.75.43-15.84-.26-14.39-3.22-17.59-31.79-16.72-43.78l-10.34,13.64c-12.75,13.1-31.49,19.16-49.51,15.21l12.37-118.85,26.96-8.04c10.65.37,28.85-3.36,30.53,11.53,1.82,16.12-1.78,32.29-11.95,45.01l6.95,4.48c2.98-15.44,15.35-44.28,29.74-51.77,6.16-3.21,23.31-3.6,29.22.32,3.98,2.64,5.21,7.46,7.79,11.21l4.25,16.23c8.12-17.53,24.78-46.81,48.48-37.96,11.27,4.2,6.53,31.67,7.57,41.3-9.85,5.66-17.89,11.77-30.04,9.67-.48,3.89,1.62.99,2.49.99,4.74,0,11.65-.64,16,0ZM496.79,555.8c1.08-11.85,2.19-44.91-18.11-30.62-14.8,10.41-34.78,45.2-34.75,63.32.04,23.45,24.21,6.21,32.07,10.01,7.27,3.51-5.94,15.22-14.49,14.57-2.82-.21-4.66-2.33-7.48-2.06l-7.93,26.33c19.05,15.9,41.18-16.09,46.66-32.09,3.39-9.91,7.41-30.69-8.35-31.16-4.44-.13-15.73,5.4-18.48,1.22-3.35-5.09,6.62-20.89,12.14-16.89,2.13,1.54-.49,7.73,2.42,6.57l16.3-9.19ZM357,579.99c10.24-13.3,20.44-28.58,17.91-46.4-2.78-19.56-34.4-5.2-45.78-2.45l-11.18,110.42c24.51,4.14,53.33-25.37,52.67-48.88-.25-8.79-4.28-14.23-13.62-12.68ZM417.74,530.24c-24.96,4.24-40.09,62.06-40.72,83.26-.48,16.3,3.29,48.61,26.71,41.71,19.61-5.78,34.1-52.4,36.27-70.73,1.77-14.99,1.92-58.35-22.25-54.25ZM537,573c.6.65,15.34-6.81,15.99-7.51,4.04-4.31,2.47-32.16-4.7-34.28-10.94-3.24-21.63,11.67-27.11,19.47-8.53,12.15-22.4,37.16-18.5,52.13.46,1.78,1.41,3.95,2.79,5.21,7.86,7.18,29.34-8.12,30.32,2.63-1.4,6.3-10.96,12.11-17.2,11.32-2.93-.37-3.89-2.86-6.58-2.98.09,5.32-9.62,24.68-7.55,28,13.78,9.98,26.6-2.53,34.94-13.1s17.66-29.81,13.31-43.12c-5.13-15.72-23.99-1.48-28.47-6.03-6.01-6.1,12.86-29.55,12.75-11.75Z"/>
  <path class="st1" d="M731.99,516l-24.53,111.96c-2.11,3.6-26.27,6.44-31.46,9.03.79-8.81,2.38-17.68,2.98-26.51.93-13.71,1.31-26.68,2.93-40.07,1.15-9.56,1.47-19.29,2.12-28.87.38-5.62.87-5.75-3.92-8.16l.02-8.75,23.86-7.63c-2.13,18.43-3.1,37.02-5,55.49-1.3,12.61-4.18,25.38-4.98,38.02-.13,1.99-1.12,6.41,1.98,5.49l15.19-94.31c1.32-2.94,16.96-4.95,20.8-5.68Z"/>
  <path class="st1" d="M767,599.5c-.95,2.97-18.41,4.3-21.04,6.96-.96.98-1.94,8.19-2,10.03-.03.84.02,1.68.04,2.51l21.99-4-1.48,29.01-41.13,11.88c-2.24.84-1.48-4.03-1.43-5.44,1.01-26.41,6.67-59.99,10.18-86.82,1.05-8.01,2.28-16.11,3.75-24.05l39.11-7.57-2,29.99c-.74.72-16.9,1.38-20.31,3.19-2.85,1.51-3.05,14.22-3.68,17.81l17.99-4v20.5Z"/>
  <path class="st1" d="M676,539.01c-2.76,6.26,1.09,24.03-2.07,28.42-2.07,2.88-16.96,2-20.96,5.04-1.11,1.68-4.01,17.44-2.46,17.54,5.12-.73,10.5-3.67,15.46-4.61,1.14-.22,1.64-.74,2.57.56l-.67,20.41-21.73,6.77-.62,12.88,21.49-4.02-1.43,29.07-42.56,10.93,2.15-23.35,6.89-3.31,1.02-36.8-3.08-1.06,6.51-50.5,39.5-7.99Z"/>
  <path class="st1" d="M810,510.01l-12.99,82.99,20.99-3.99-2.04,29.95c-14.21,1.49-27.47,6.81-40.95,11.04l14.15-113.34c.9-2.92,17.23-5.44,20.84-6.65Z"/>
  <path class="st1" d="M616.99,523l-11.99,82.99,19.99-3.99-.93,29.39-41.06,11.6,14.16-113.33c.93-2.86,16.37-4.91,19.83-6.66Z"/>
  <path class="st1" d="M777,578c-.46,4.23.52,8.93-1.5,13.01-.98,0-.36-11.25-.5-13.01h2Z"/>
  <path class="st1" d="M417.74,530.24c24.17-4.11,24.02,39.25,22.25,54.25-2.17,18.33-16.66,64.96-36.27,70.73-23.42,6.9-27.19-25.41-26.71-41.71.63-21.2,15.76-79.02,40.72-83.26ZM415.74,569.15c-9.62,1.89-18.5,29.97-19.46,38.63-.69,6.18-.96,20.65,7.26,22.21,10.94,2.08,17.54-16.39,19.17-24.79,1.31-6.74,4.04-33.74-4.43-36.06-.86-.31-1.67-.17-2.54,0Z"/>
  <path class="st1" d="M357,579.99c9.34-1.55,13.37,3.89,13.62,12.68.66,23.51-28.15,53.02-52.67,48.88l11.18-110.42c11.37-2.74,42.99-17.11,45.78,2.45,2.53,17.82-7.67,33.1-17.91,46.4ZM344.01,574c1.54,1.73,8.49-8.13,9.19-9.3,4.87-8.22,6.76-14.76-5.99-10.48l-3.2,19.78ZM339.01,612c14.48-1.7,26.75-25.04,2.22-15.77l-2.22,15.77Z"/>
  <path class="st1" d="M496.79,555.8l-16.3,9.19c-2.9,1.16-.29-5.03-2.42-6.57-5.52-3.99-15.5,11.8-12.14,16.89,2.75,4.18,14.04-1.35,18.48-1.22,15.77.47,11.75,21.25,8.35,31.16-5.48,15.99-27.61,47.99-46.66,32.09l7.93-26.33c2.82-.27,4.66,1.84,7.48,2.06,8.55.65,21.76-11.05,14.49-14.57-7.86-3.8-32.03,13.44-32.07-10.01-.03-18.12,19.95-52.91,34.75-63.32,20.31-14.29,19.19,18.77,18.11,30.62Z"/>
  <path class="st1" d="M537,573c.11-17.8-18.76,5.65-12.75,11.75,4.48,4.55,23.33-9.69,28.47,6.03,4.35,13.31-5.08,32.68-13.31,43.12s-21.16,23.08-34.94,13.1c-2.08-3.33,7.64-22.68,7.55-28,2.69.12,3.65,2.61,6.58,2.98,6.23.79,15.8-5.02,17.2-11.32-.97-10.75-22.45,4.55-30.32-2.63-1.38-1.26-2.32-3.43-2.79-5.21-3.9-14.96,9.97-39.98,18.5-52.13,5.48-7.8,16.17-22.71,27.11-19.47,7.17,2.12,8.74,29.98,4.7,34.28-.65.7-15.39,8.16-15.99,7.51Z"/>
  <path class="st0" d="M415.74,569.15c.86-.17,1.68-.31,2.54,0,8.46,2.31,5.73,29.31,4.43,36.06-1.63,8.4-8.23,26.87-19.17,24.79-8.22-1.56-7.95-16.03-7.26-22.21.97-8.66,9.84-36.74,19.46-38.63ZM418.99,578c-2.69-2.29-7.84,8.82-8.72,10.77-4.06,9.02-11.02,27.58-2.77,35.21,11.46-11.31,14.76-30.59,11.49-45.98Z"/>
  <path class="st0" d="M339.01,612l2.22-15.77c24.53-9.27,12.26,14.07-2.22,15.77Z"/>
  <path class="st0" d="M344.01,574l3.2-19.78c12.75-4.28,10.86,2.25,5.99,10.48-.7,1.17-7.65,11.03-9.19,9.3Z"/>
</svg>