<?xml version="1.0" encoding="UTF-8"?>
<svg id="_레이어_1" data-name="레이어_1" xmlns="http://www.w3.org/2000/svg" version="1.1" viewBox="0 0 3000 3000">
  <!-- Generator: Adobe Illustrator 29.8.3, SVG Export Plug-In . SVG Version: 2.1.1 Build 3)  -->
  <defs>
    <style>
      .st0 {
        fill: #fff;
      }

      .st1 {
        fill: #070505;
      }

      .st2 {
        fill: #fe5501;
      }
    </style>
  </defs>
  <path class="st0" d="M1488.21,1463.35c6.4-1.78,10.15-6.22,14-11.31,4.15-5.49,8.77-8.38,15.42-10.31,6.54-1.9,12.26-3.7,17.6-8.08,5.46-4.47,10.18-8.77,16.28-12.43,6.32-3.79,12.37-8.09,18.24-12.55,11.07-8.41,22.32-17.09,31.51-27.58,3.54-4.04,7.39-7.79,10.9-11.85.56-.65,1.08-1.17,1.59-1.59,15.15,18.79,24.56,45.01,24.56,74.03,0,57.16-36.5,103.49-81.52,103.49-38.66,0-71.03-34.17-79.41-80.02,3.39-.82,7.08-.78,10.82-1.82Z"/>
  <path class="st0" d="M1317.83,1473.64c-6.4-1.78-10.15-6.22-14-11.31-4.15-5.49-8.77-8.38-15.42-10.31-6.54-1.9-12.26-3.7-17.6-8.08-5.46-4.47-10.18-8.77-16.28-12.43-6.32-3.79-12.37-8.09-18.24-12.55-11.07-8.41-22.32-17.09-31.51-27.58-3.54-4.04-7.39-7.79-10.9-11.85-.56-.65-1.08-1.17-1.59-1.59-15.15,18.79-24.56,45.01-24.56,74.03,0,57.16,36.5,103.49,81.52,103.49,38.66,0,71.03-34.17,79.41-80.02-3.39-.82-7.08-.78-10.82-1.82Z"/>
  <path class="st2" d="M1541.21,1220.79c32.49,22.01,45.32,64.72,26.83,100.25-4.43,8.51-11.74,13.48-16.04,19.96-11.53,17.35-50.94,77.83-53.6,94.5-.99,6.24,2.37,12.59.68,16.42-3.06,6.91-18.14,13.35-18.79,14.36-1.52,2.37,3.36,21.7,4.71,25.72,2.76,8.21,13.56,23.65,14.69,29.48,1.03,5.26-1,16.09.45,23.38,5.69,28.45,19.73,56.06,28.76,83.22,33.09,99.47,42.42,234.38-31.89,317.94-68.18,76.67-177.31,2.75-142.42-86.42,4.61-11.79,15.64-23.69,20.88-35.12,18.84-41.08,5.69-105.56-8.13-146.84-15.86-47.35-31.06-87.01-39.25-136.75-16.15-98.06,10.14-207.23,83.87-277.93,23.71-22.74,66.34-59.87,100.99-52.95,4.42.88,5.98,5.13,8.25,5.53,8.46,1.5,8.37-2.64,20,5.24Z"/>
  <path class="st2" d="M1105.09,1383.91c4.03-.24,8.44,2.53,11.54,1.8,6.61-1.55,13.49-31.43,17.01-39.07,18.28-39.62,52.42-81.21,86.25-107.75,19.75-15.49,49.42-32.86,75-28.78,1.72.27,27.3,9.61,28.58,10.42s18.83,18.27,20.53,20.47c8.31,10.76,17.99,34.66,16.1,48.11-3.19,22.7-12.5,36.36-25.17,54.87-21.27,31.07-39,52.28-51.39,88.56-1.27,3.72-6.94,5.82-5.54,11.46-.7-.49-5.65-.15-8.71-2.24-8.89-6.07-22.07-20.53-31.41-24.8-3.59-1.64-4.86-.55-7.88,1.04.86-5.44-1.17-5.76-4.59-8.42-3.97-3.09-29.33-22.97-31.37-21.57-16.24,24.39-24.72,50.92-21.78,80.73,4.15,42.09,38.72,84.7,84.23,78.73,6.78-.89,19.84-8.5,24.57-3.54,2.74,2.87,17.01,51.4,19.99,60.02,25.15,72.68,43.67,137.34,33.06,215.15-4.99,36.58-30,97.01-54.15,125.85-68.66,82-184.39-2.73-141.47-91.47,2.99-6.18,10.17-13.3,13.88-20.12,32.66-60.11,8.57-117.11-12.24-176.5-4.74-13.53-7.76-31.68-13.65-44.35-6.47-13.93-5.54,4.47-12.48,3.48,13.82-29.8-1.91-60.14-3.98-91.02-2.28-34-3.21-86.91,4.47-119.49,2.01-8.54,9.86-11.58.49-15.46-11.07-4.58-24.82,1.29-34.98,5.97"/>
  <path class="st2" d="M1749.44,1417.45c-.67.93-3.16.26-3.44.55-.53.52.18,4.62-3.21,5.73-6.5,2.12-17.68-1.28-25.31.75s-24.21,18.64-28.3,25.7c-10.39,17.95-14.02,57.62,4.09,71.54,1.55,1.19,10.45,7.47,11.1,7.74,1.17.49,3.56-2.07,6.7.28,1.61,1.2,10.23,19.64,10.42,21.56.81,8.13-13.33,36.06-14.97,48.21-2.38,17.56,5.66,29.98,23.35,33.59,11.47,2.34,12.7-.14,22.12-5.1-1.17,2.03-6.03,10.32-6.02,10.95,0,2.28,6.29,12.02,7.54,16.54,4.33,15.61,9.43,38.49,12.36,53.64,10.99,56.81,3.36,135.6-22.24,187.51-6.65,13.49-14.25,23.35-20.72,37.28-.54,1.16-14.35,18.75-15.84,20.16-66.23,63.09-171.29-6.64-137.85-91.85,5.77-14.71,25.82-41.48,28.32-53.68,3.27-15.98,1.35-72.33-2.09-89.01-5.96-28.89-21.75-60.89-30.86-89.14-5.46-16.92-8.75-34.95-12.7-51.3-1.62-6.71-9.17-23.42-5.02-29.24,1.64-2.31,23.2-3.01,29.16-4.83,52.51-16,63.37-90.45,44.92-134.99-5.08-12.26-17-33.81-30.95-19.02-1.16,4.77,6.3,4.17,7.6,5.43,1.11,1.07.13,3.22.39,3.54-6.27,1.63-10.93-6.68-16.04-5.25-4.57,1.27-23.18,16.24-30.17,20.12-2.17,1.2-4.73.64-5.78,1.14,3.73-9.53,3.81-23.43,6.5-32.5,1.81-6.1,10.81-26.5,14.03-33.97,20.23-47.07,69.89-106.68,116.13-129.87,86.37-43.33,147.54,72.93,77.67,131.67l-38.02,64.09c-.67,7.86,21.76,3.97,23.7,2.59"/>
  <path class="st2" d="M1588.25,1265.73c-1.24-.79-8.64-21.43-12.26-26.72-8.41-12.31-24.62-27.42-38.2-33.8-7.64-3.58-25.69-6.53-29.9-14.1-3.21-5.78-1.73-21.26-5.77-24.27-5.39-4.02-29.11,17.36-39.25,19.04-38.98,6.47-78.51-17.17-84.76-56.98-1.07-6.81,2.46-22.18,4.82-28.96,10.95-31.5,51.16-46.63,82.04-49.95,11.63-1.25,22,2.7,33.16,1.15,2.08-1.51,5.46-25.07,7.84-29.74,3.57-6.98,25.19-23.45,33.12-25.29,51.28-11.86,95.16,35.39,102.79,82.99,1.06,6.62-2.07,17.22,2.07,21.95,3.26,3.72,22.27.52,29.12.87,23.07,1.19,51.15,6.48,65.74,26.25,24.39,33.06-8.38,59.24-35.54,74.11-17.81,9.76-39.13,15.79-56.71,25.29-14.36,7.76-29.83,20.87-43.29,30.71-3.56,2.6-7.5,12.26-15.03,7.45Z"/>
  <path class="st1" d="M1752,1412c4.25.48,4.48.25,4-4,.64-.14,1.38.16,2,0,21.34-5.44,22.25-7.71,46-6,.66.05,1.35-.08,2,0-.48,4.25-.25,4.48,4,4,.18.31,1.43-.27,2,0,8.21,13.14,16.6,24.69,18.08,40.92,3.11,34.02-5.7,47.24-14.08,77.08-.17.62.17,1.38,0,2-5.18-1.22-4.97,3.91-6,8-.16.63.14,1.36,0,2-4.25-.48-4.48-.25-4,4-.32.18.28,1.44,0,2-5.18.89-12.75,9.44-14,14-2.42,1.22-4.06,1.87-6,4-3.59-.6-4.73.36-4,4-1.9.53-6.98,1.25-7.71,2.32-1.17,1.72.06,5.51-.29,7.68-4.36-2.68-5.82,9.76-6,14-.08,1.89-.22,4.17,0,6-2.63.99-1.88,3.81-2,6-.07,1.32.12,2.69,0,4-5.33-.95-4.12,1.3-4,6-.82.64-8.15,14.78-10,18-9.42,4.97-10.65,7.45-22.12,5.1-17.69-3.61-25.72-16.03-23.35-33.59,1.64-12.15,15.78-40.08,14.97-48.21-.19-1.92-8.81-20.35-10.42-21.56-3.15-2.35-5.53.21-6.7-.28-.65-.27-9.56-6.55-11.1-7.74-18.11-13.92-14.48-53.59-4.09-71.54,4.09-7.06,20.61-23.65,28.3-25.7s18.81,1.37,25.31-.75c3.39-1.11,2.69-5.21,3.21-5.73.29-.28,2.77.39,3.44-.55"/>
  <path class="st1" d="M1114,1616c-3.84,8.29-6.68,7.44-12,12h-26c-1.72-1.4-5.1-1.92-7.1-3.94-2.42-2.44-2.3-5.32-2.9-6.06l-2-4c.15-1.98-.06-4.01,0-6,.23-7.95.03-16.04,0-24-.01-3.33.11-6.68,0-10,.98-4.71,5.47-15.81,5.67-19.42.21-3.8-3.12-3.72-3.67-4.58-1.94-3.05-3.64-5.27-6-8l-8-16c-.18-1.27.1-2.69,0-4-.24-3.17-1.18-6.15-4-8,.11-2.63.1-5.37,0-8-.64-17.34-1.05-28.39,0-46,.16-2.65-.19-5.36,0-8,3.94-6.87,6.14-16.27,8-24,.28-1.17-.27-2.81,0-4,5.85,1.33,4.34-4.45,6-8,1.06-2.27,2.84-5.88,4-8,5.17-.52,9.49-4.89,10-10,1.29-.65,2.72-1.41,4-2,10.17-4.68,23.91-10.55,34.98-5.97,9.37,3.88,1.52,6.92-.49,15.46-7.67,32.58-6.75,85.49-4.47,119.49,2.07,30.88,17.8,61.22,3.98,91.02Z"/>
  <path class="st1" d="M1598,1400c1.55,1.9,1.2,2.44,4,4l2,4c-.04,2.43,1.39,4.08,2,6,3.87,12.15,9.23,20.4,10,34,.18,3.26.15,6.74,0,10-.37,7.92-3.33,15.03-4,22-.13,1.31.12,2.69,0,4-3.79,3.11-4.89,7.51-6,12-.28,1.13.21,2.74,0,4-4.25-.48-4.48-.25-4,4-.3.17.24,1.38,0,2-4.25-.48-4.48-.25-4,4-.62.24-1.83-.3-2,0-4.73-.08-6.93-1.35-6,4-1.92.2-4.31-.36-6,0-4.78,1.03-7.1,4.26-13,4.26-5.95,0-8.24-3.31-13-4.26-1.8-.36-4.21.37-6,0,1.51-5.85-5.65-4.22-10-6-2.9-4.38-8.52-12.48-12-16,.61-4.89-2.98-9.22-3.59-13.46-.82-5.72-1.82-11.61-2.52-17.43-1.4-11.55,2.18-18.46,4.11-29.11,1.96-1.56,2.43-1.24,4-4,4.25.48,4.48.25,4-4,1.34-.65,2.69-.63,4-2,3.61.63,4.71-.36,4-4,.74-.38,1.33-1.69,2-2,1.05-.49,3.62.06,5.78-1.14,6.99-3.87,25.6-18.84,30.17-20.12,5.11-1.43,9.77,6.88,16.04,5.25Z"/>
  <path class="st1" d="M1278,1444c4.87,3.42,36.04,25.91,37.07,27.99,3.03,6.11-1.57,7.57-2.34,11.41-1.72,8.53-1.31,12.21-7.87,20.46-5.92,7.46-29.79,19.09-38.93,17.37-1.7-.32-18.6-8.24-20.64-9.52-6.7-4.19-21.91-29.78-22.88-37.17-1.72-13.2-.43-20.92.9-33.83.8-7.76-4.54-16.82,6.68-22.72,3.02-1.58,4.28-2.68,7.88-1.04,9.35,4.27,22.53,18.73,31.41,24.8,3.06,2.09,8.01,1.75,8.71,2.24Z"/>
  <path class="st2" d="M1606,1414"/>
  <path class="st2" d="M1616,1448"/>
  <path class="st2" d="M1612,1484"/>
  <path class="st2" d="M1606,1496"/>
  <path class="st2" d="M1602,1510c-.49.49-2.99-.39-4,0"/>
  <path class="st2" d="M1606,1404.01c1.12,1.09-1.99,3.76-2,3.99"/>
</svg>