<?xml version="1.0" encoding="UTF-8"?>
<svg id="_레이어_1" data-name="레이어_1" xmlns="http://www.w3.org/2000/svg" version="1.1" viewBox="0 0 1166 1129">
  <!-- Generator: Adobe Illustrator 29.8.3, SVG Export Plug-In . SVG Version: 2.1.1 Build 3)  -->
  <defs>
    <style>
      .st0 {
        fill: #eada4b;
      }

      .st1 {
        fill: #333432;
      }
    </style>
  </defs>
  <path class="st1" d="M601.99,576l-16.5,22.99c-17.91,18.67-50.48,11.16-55.51-14.99l-1.2,9.28c-.41,1.38-1.11,2.85-2.25,3.75-1.45,1.16-20.67,7.57-23.12,7.88-8.33,1.04-11.24-5.68-14.86-5.88s-13.87,5.01-18.29,5.72c-5.8.93-15.69-3.64-14.27-10.76-5.04,3.85-9.91,9.01-16.58,9.91-48.65,6.61-46.58-56.75-38.34-88.34,8.24-31.55,36.36-79.48,72.42-46.76,6.09-3.38,17.03-6.05,24.13-6.69,7.69-.7,6.56.17,12.12,2.65,7.03,3.13,20.61-4.55,28.72-3.78l8.35,6.69-.82,16.31c9.97-21.63,34.53-42.34,57.49-23.97,5.49,4.39,10.62,10.77,11.53,17.97l2.54-8.94c1.68-3.44,16.4-7.46,20.62-8.38,18.12-3.92,33.82-4.82,46.82,10.33,2.49-15.03,7.37-29.83,10.74-44.77,2.27-10.05,3.09-24.1,6.34-33.66,3.33-9.82,19.38-4.67,27.14-3.28,10.2,1.83,20.74,3.51,28.83,10.17,3.81,3.13,3.34,6.18,2.75,10.84-10.97,24.57-21.74,49.53-29.72,75.27-2.13,6.87-6.79,30.98-10.51,34.49-1.53,1.44-1.81,1.71-4,2-6.02.78-21.91.06-28.04-1.07-1.69-.31-9.33-6.44-10.53-5.54-9.29,15.28-21.96,28.01-35.44,39.61-3.74,11.65-2.59,25.35-4.79,37.21-.47,2.54-1.2,4.22-3.48,5.52-2.63,1.51-19.01,7.1-21.82,7.25s-10.81-3.52-11.95-6.06c-2.52-5.63,2.19-16.66,1.47-22.98ZM747,401.01l-36.89-6.9-26.12,115.89,24.92,1.91c4.21-16.57,8.52-33.24,14.07-49.42,7.15-20.84,17.14-40.67,24.02-61.48ZM580.76,459.26c-23.82,3.39-42.52,50.71-46.49,71.51s-6.82,73.65,25.12,70.11c27.89-3.09,47.83-62.57,49.59-86.4,1.41-19-.63-59.15-28.23-55.22ZM456.98,504.99c1.66-6.31,14.54-17.48,13.85-23.22s-8.96-15.77-14.8-17.31c-22.85-6.05-38.98,24.32-45.52,41.55-7.94,20.93-11.94,48.33-5.02,69.99,9.64,30.2,35.09,23.42,49.09,1.04l-3.59-20.05-12.44,12.09c-3.31,1.86-8.72-.56-10.98-3.16-10.35-11.9,2.17-47.55,11.45-58.4,5.17-6.05,10.05-9.87,16.52-2.55l1.44.02ZM626.78,589.77l5.45-40.05c16.65-16.2,36.62-32.97,42.26-56.74,9.79-41.18-28.86-29.79-52.54-20.34l-15.95,123.35,20.77-6.23ZM504,467.01l-25.86,5.13-16.13,123.86,22.89-6.1,4.23-37.77,11.86-2.13-5.99,46.99,23.02-7.7c3.98-41.13,10.8-81.87,18.96-122.3l-25.53,5.96-7.12,50.81-10.83,4.23,10.48-61.01ZM466.99,510c-4.03,4.07-8.69,4.46-12.69.1h-1.6c-8.6,2.22-23.5,43.4-17.69,52.9,5.7,1.05,8.22-9.74,11.68-10.81,6.03-1.87,9.42,2.37,14.3,4.8l6-47Z"/>
  <path class="st1" d="M687.78,528.28c10.15-1.16,17.16,1.05,24.77,7.68,19.64,17.11.28,50.27-23.06,52.02-9.63.72-20.96-3.3-27-10.97-13.78-17.51,5.11-46.42,25.29-48.73ZM687.74,536.24c-22.99,3.93-32.52,45.82-3.69,40.3,24.15-4.63,33.55-45.41,3.69-40.3Z"/>
  <path class="st0" d="M580.76,459.26c27.6-3.93,29.63,36.22,28.23,55.22-1.76,23.83-21.7,83.31-49.59,86.4-31.94,3.54-28.91-50.25-25.12-70.11s22.67-68.11,46.49-71.51ZM577.72,503.2c-10.84,2.48-20.62,30.59-22.42,40.59-1.59,8.8-2.69,27.27,10.36,27.91,14.12.69,22.43-27.34,23.33-38.22.64-7.74,1.83-33.28-11.27-30.28Z"/>
  <path class="st0" d="M504,467.01l-10.48,61.01,10.83-4.23,7.12-50.81,25.53-5.96c-8.17,40.43-14.98,81.17-18.96,122.3l-23.02,7.7,5.99-46.99-11.86,2.13-4.23,37.77-22.89,6.1,16.13-123.86,25.86-5.13Z"/>
  <path class="st0" d="M626.78,589.77l-20.77,6.23,15.95-123.35c23.68-9.45,62.33-20.85,52.54,20.34-5.65,23.76-25.61,40.53-42.26,56.74l-5.45,40.05ZM637.01,519c1.64,1.92,14.74-12.46,15.85-14.63,1.23-2.41,2-4.35-.26-6.45-2.15-2.21-11.4.79-12.69,2.49-1.01,1.34-3.6,17.77-2.9,18.59Z"/>
  <path class="st0" d="M456.98,504.99l-1.44-.02c-6.47-7.31-11.35-3.49-16.52,2.55-9.28,10.85-21.8,46.5-11.45,58.4,2.26,2.59,7.67,5.01,10.98,3.16l12.44-12.09,3.59,20.05c-14,22.38-39.45,29.17-49.09-1.04-6.91-21.67-2.91-49.06,5.02-69.99,6.53-17.23,22.67-47.6,45.52-41.55,5.84,1.55,14.1,11.46,14.8,17.31s-12.19,16.9-13.85,23.22Z"/>
  <path class="st0" d="M747,401.01c-6.88,20.81-16.87,40.64-24.02,61.48-5.55,16.18-9.86,32.85-14.07,49.42l-24.92-1.91,26.12-115.89,36.89,6.9Z"/>
  <path class="st0" d="M687.74,536.24c29.86-5.11,20.46,35.68-3.69,40.3-28.83,5.52-19.3-36.37,3.69-40.3Z"/>
  <path class="st1" d="M577.72,503.2c13.1-3,11.91,22.54,11.27,30.28-.9,10.88-9.2,38.92-23.33,38.22-13.05-.64-11.95-19.11-10.36-27.91,1.81-10,11.59-38.11,22.42-40.59ZM582.99,513c-1.38-1.69-6.63,7.41-7.17,8.32-3.71,6.28-7.25,14.84-9.11,21.89s-4.05,14.73-.67,21.74c4.96,3.53,13.16-14.84,14.23-18.18,3.6-11.19,4.57-22.15,2.71-33.78Z"/>
  <path class="st1" d="M637.01,519c-.7-.82,1.89-17.25,2.9-18.59,1.29-1.7,10.53-4.71,12.69-2.49,2.27,2.11,1.49,4.04.26,6.45-1.11,2.17-14.21,16.55-15.85,14.63Z"/>
</svg>