<?xml version="1.0" encoding="UTF-8"?>
<svg id="_레이어_1" data-name="레이어_1" xmlns="http://www.w3.org/2000/svg" version="1.1" viewBox="0 0 1166 1129">
  <!-- Generator: Adobe Illustrator 29.8.3, SVG Export Plug-In . SVG Version: 2.1.1 Build 3)  -->
  <defs>
    <style>
      .st0 {
        fill: #ebdb4c;
      }

      .st1 {
        fill: #3e3e3b;
      }
    </style>
  </defs>
  <path class="st1" d="M516,819.5c33.07-87,72.97-171.76,104.77-259.23.62-1.71,1.35-3.39,1.22-5.27l-16.96,29.52c-26.17,35.65-65.94,91.9-117.47,77.42-22.79-6.41-26.14-24.05-26.6-45.4-.2-9.53.87-19.1,2.04-28.54l-52.58,15.91-20.42-.91,1-17c-1.44.83-2.58,1.69-4.19,2.3-10.39,3.97-39.55,13.89-49.54,15.46-7.17,1.12-14.14-.65-21.27-.76l.26-13.25,18.73-72.76c-21.63,20.16-44.76,28.22-74.48,25.99-58.59-4.4-48.95-104.46-41.05-144.02,11.83-59.24,44.34-128.22,85.02-172.98,27.47-30.23,50.96-42.15,93-37.98,27.87,2.76,41.03,38.14,39.49,62.47l-46.42,55.58-19.04,1.92c-4.09-.8-5.42-9.34-10.79-7.83-4.7,1.31-18.62,17.39-22.14,21.94-18.77,24.27-39.27,63.99-46.1,93.9-3.72,16.31-5.79,31.58,9.55,42.57l1.27.32c13.85-7.18,22.58-20.05,32.37-31.68l19.38.25,1.93,9.56,33.01-121.49,58.51-12.48,17.55,1.42c2.68,1.8-1.15,9.61,2.44,9.6,24.05-3.73,47.89-13.56,72.5-10.03v14.5c0,6.24-15.63,46.51-18.71,56.29-17.58,55.96-34.21,112.22-48.29,169.2,2.66.55,1.72-.67,2.48-1.97,4.62-7.85,8.2-18.76,12.66-27.38,16.84-32.55,66.23-101.59,105.32-104.68,16.48-1.3,38.04.03,47.09,15.98,7.29,12.84,7.13,39.84,5.32,54.44-1.27,10.26-4.82,21.42-6.87,31.62,16.62-4.83,32.83-10.97,49.81-14.68,23.19-5.08,61.94-10.25,82.52,3.85,5.77,3.96,8.38,10.04,9.16,16.83l30.76-111.24c2.1-4.67,9.65-2.43,14.01-2.52l58.77,16.24,1,13.05c-30.12,70.34-59.2,141.26-79.16,215.35-17.92-.12-37-.96-54.43-4.81-4.93-7.02,8.71-43.02,10.3-52.82.17-1.06,1.17-4.4-.73-4.23-31.24,55.1-83.21,95.54-134.06,131.7l-36.92,97.82-3.76,2.24c-18.77,3.61-45.17,19.73-63.84,17.3-1.27-.17-3.37-3.87-7.43-2.08v-14.5ZM375.02,300.99l3.5-1.98,45.49-54.53c-5.09-27.71-18.05-53.2-50.38-50.36-58.9,5.18-113.13,105.01-131.38,154.62-13.85,37.67-24.95,84.72-21.24,124.73,7.65,82.54,66.1,75.75,113.01,26.04,1.56-1.65,9.8-10.75,10.22-11.78,1.46-3.6.91-12.96.8-17.29-.19-7.18-1.66-15.73-2.03-22.97-.24-4.81.16-9.68-.02-14.49-12.56,13.97-37.14,48.79-58.02,28.53-20.62-20-.32-72.78,10.18-94.89,9.03-19.01,35.12-64.56,53.86-73.14,10.4-4.76,20.91-3.44,26.02,7.49ZM454,310.01l-58.93,12.56-36.83,138.17c-2.41,8.47,2.8,23.11.56,30.56-.9,2.99-9.04,9.84-11.25,12.75l-24.54,92.95,53.49-17,20.59-81.41c.48-1.08,1.44-1.22,2.41-1.59,2.3-.88,23.59-5.85,24.5-4.99l-26.99,104.99,54.83-17.17c18.64-91.59,47.1-180.7,76.18-269.32l-58.53,11.47-30.67,114.33c-.5,1.36-1.64,1.67-2.8,2.2-1.98.89-20.83,5.63-22.5,5.52-1.45-.09-1.83.37-1.41-1.42,2.15-9.18,5.5-18.72,8.19-27.82,10.4-35.18,22.22-69.97,33.7-104.79ZM432.98,432l5.01-22.99c-1.39-.24-1.36,1.68-1.74,2.73-2.34,6.45-4.04,13.25-6.26,19.75l2.99.51ZM874.97,426.05l-55.93-15.01-61.03,227.96,37.92,2.94c19.98-73.17,47.61-143.85,78.62-212.91l.42-2.98ZM601.78,415.28c-33.63,3.18-74.41,53.24-91.8,80.2-19.73,30.58-40.13,76.37-42.02,112.98-2.81,54.55,33.56,58.78,70.51,29.51,43.03-34.08,84.83-102.6,94.24-156.76,4.33-24.94,6.26-69.45-30.93-65.93ZM616.3,710.29c51.69-36.81,108.37-80.82,138.22-138.27,24.35-46.86,24.68-79.32-38.89-71.89-23.7,2.77-49.08,11.1-71.09,19.91-38.32,103.5-82.17,204.78-122.53,307.47.38,1.21,2.15.23,3.03.03,11.93-2.68,32.78-10.61,44.92-15.08,2.32-.85,7.66-2.45,9.09-3.91l37.25-98.26ZM412.99,504.01l-3.08.59c-6.81,26.6-14.59,53.32-18.9,80.4l21.98-80.99Z"/>
  <path class="st1" d="M756.76,682.26c17.43-2.35,37.69-.68,40.13,20.35,3.21,27.61-12.87,70.56-44.35,73.43s-41.15-5.8-38.53-37.53c1.74-21.11,19.97-53.19,42.74-56.26ZM764.78,688.23c-21.28,2.23-41.53,31.32-43.65,51.39-1.26,11.95.64,27.81,15.37,29.37,28.19,2.99,58-44.03,47.3-69.29-3.27-7.73-10.6-12.36-19.02-11.48Z"/>
  <path class="st0" d="M454,310.01c-11.48,34.82-23.3,69.61-33.7,104.79-2.69,9.1-6.04,18.64-8.19,27.82-.42,1.79-.04,1.32,1.41,1.42,1.67.11,20.52-4.63,22.5-5.52,1.17-.53,2.3-.84,2.8-2.2l30.67-114.33,58.53-11.47c-29.08,88.61-57.54,177.73-76.18,269.32l-54.83,17.17,26.99-104.99c-.91-.86-22.2,4.11-24.5,4.99-.97.37-1.93.51-2.41,1.59l-20.59,81.41-53.49,17,24.54-92.95c2.21-2.91,10.35-9.76,11.25-12.75,2.24-7.45-2.97-22.1-.56-30.56l36.83-138.17,58.93-12.56Z"/>
  <path class="st0" d="M375.02,300.99c-5.11-10.93-15.62-12.25-26.02-7.49-18.74,8.58-44.84,54.13-53.86,73.14-10.5,22.11-30.8,74.9-10.18,94.89,20.89,20.25,45.46-14.56,58.02-28.53.18,4.81-.22,9.68.02,14.49.37,7.24,1.84,15.79,2.03,22.97.12,4.33.66,13.68-.8,17.29-.42,1.04-8.66,10.13-10.22,11.78-46.91,49.71-105.36,56.5-113.01-26.04-3.71-40.01,7.39-87.06,21.24-124.73,18.24-49.62,72.48-149.44,131.38-154.62,32.33-2.85,45.29,22.64,50.38,50.36l-45.49,54.53-3.5,1.98Z"/>
  <path class="st0" d="M616.3,710.29l-37.25,98.26c-1.43,1.46-6.77,3.06-9.09,3.91-12.14,4.47-32.99,12.4-44.92,15.08-.88.2-2.65,1.18-3.03-.03,40.35-102.69,84.21-203.98,122.53-307.47,22.01-8.81,47.39-17.14,71.09-19.91,63.57-7.43,63.25,25.03,38.89,71.89-29.86,57.45-86.54,101.45-138.22,138.27ZM687.76,582.26c-2.87.36-18.89,5.19-20.23,6.77-6.45,16.03-15.06,31.49-20.04,47.95,12.54-6.48,50.53-33.7,53.28-46.71,2.11-10.01-5.61-8.96-13.01-8.02Z"/>
  <path class="st0" d="M601.78,415.28c37.19-3.52,35.26,40.99,30.93,65.93-9.4,54.17-51.2,122.68-94.24,156.76-36.95,29.27-73.33,25.03-70.51-29.51,1.89-36.61,22.29-82.4,42.02-112.98,17.39-26.96,58.16-77.02,91.8-80.2ZM575.74,491.24c-21.98,3.59-59.32,62.9-64.07,83.94-4.33,19.21,2.47,41.24,25.65,28.65,20.7-11.24,38.31-44.81,45.39-66.61,3.59-11.04,15.49-49.64-6.97-45.98Z"/>
  <path class="st0" d="M874.97,426.05l-.42,2.98c-31.02,69.06-58.65,139.74-78.62,212.91l-37.92-2.94,61.03-227.96,55.93,15.01Z"/>
  <path class="st0" d="M764.78,688.23c8.41-.88,15.74,3.74,19.02,11.48,10.7,25.27-19.11,72.28-47.3,69.29-14.74-1.56-16.64-17.42-15.37-29.37,2.12-20.08,22.37-49.17,43.65-51.39Z"/>
  <path class="st1" d="M687.76,582.26c7.41-.94,15.13-1.99,13.01,8.02-2.75,13.01-40.74,40.23-53.28,46.71,4.98-16.47,13.59-31.93,20.04-47.95,1.34-1.58,17.36-6.41,20.23-6.77ZM688,594.01c-7.53.18-9.75,4.09-11.98,10.5,4.93-1.38,8.63-6.8,11.98-10.5Z"/>
  <path class="st1" d="M575.74,491.24c22.46-3.67,10.56,34.93,6.97,45.98-7.08,21.8-24.69,55.37-45.39,66.61-23.18,12.59-29.98-9.44-25.65-28.65,4.75-21.04,42.09-80.35,64.07-83.94ZM581.99,502c-16.91,10.24-31.89,29.41-42.19,46.3-8.05,13.2-22.16,36.91-13.68,51.58,3.65,2.12,21.03-15,23.91-18.36,11.58-13.52,22.03-35.79,27.24-52.76,1.19-3.89,7.13-24.98,4.73-26.76Z"/>
</svg>