<?xml version="1.0" encoding="UTF-8"?>
<svg id="_레이어_1" data-name="레이어_1" xmlns="http://www.w3.org/2000/svg" version="1.1" viewBox="0 0 1166 1129">
  <!-- Generator: Adobe Illustrator 29.8.3, SVG Export Plug-In . SVG Version: 2.1.1 Build 3)  -->
  <defs>
    <style>
      .st0 {
        fill: #eada4b;
      }

      .st1 {
        fill: #323332;
      }
    </style>
  </defs>
  <path class="st1" d="M774,465l-1,26,6.39.06,5.75-27.92,43.87.86-1.13,33.38-25.87,163.63h-17c-.06,20.2-1.77,40.38-7.13,59.87l-102.87-1.86c-.57-25.27,3.06-50.18,7.01-75.01h-18l2-39-15.57,1.94-15.1,90.11-42.35.96-.57-5.02-86.43,2.02c-1.13-41.11,7.99-81.3,12.04-121.97l44.99-5.51,5.97-40.53h-41l1.01-36.49,4.13-25.38,88.87-.14.49,9.02,1.5-10.01h44l-1.01,36.49c-.6,6.38-7.42,39.89-5.55,42.58l11.89.97,1.19-1.97,10.47-77.07h89ZM662,470h-31l-31,204h31l14.1-91.9,21.76-1.24,4.14-30.86h-21l12-80ZM822,470h-31l-4,28h-23l3-26h-76l-19,149,75.95-3.05,4.05-27.95h20l-7,47h31l26-167ZM615,472h-74.5l-1.34,1.66-4.16,29.34h45l-9.05,71.96-45.21,5.04-1.08,1.21-11.66,90.79,77.9-3.1,4.11-30.89-45.01,1.01,3.94-28.56,44-4.49,17.06-133.95ZM760.99,613.01c-1.85-.14-3.04-.36-3.78,1.71-1.5,4.22-2.48,25.17-3.32,26.19l-24.96,1.54-.94,14.57,30.01,1,2.99-45ZM722,633h-31l-9,61.99c17.5,1.02,34.97.59,52.54.97,2.62.06,5.06,1.03,7.91,1.09,10.17.21,20.38-.24,30.54-.06l5.01-30.99-59.88-3.12,3.88-29.88Z"/>
  <path class="st1" d="M294,709l1.01-38.49,27-192.75c19.76-10.76,66.83-18.45,85.48-4.76,27.28,20.03,23.91,67.49,20.37,97.37-6,50.7-39.97,103.83-85.51,127.49-5.87,3.05-26.13,11.14-31.86,11.14h-16.5ZM301,684.99c42.52-5.69,78.48-38.28,99.17-74.32,17.66-30.76,32.42-81.39,14-114.34-15.33-27.41-39.76-26.2-67.18-18.84-3.21.86-16.69,5.1-17.79,7.21l-28.19,200.3Z"/>
  <path class="st1" d="M521.01,468.99l-1.13,33.38c-13.16,64.29-25.14,129-31.01,194.49-11.96,2.42-26.5,11.07-38.32,12.18-17.39,1.63-35.54-7-52.44-10.14l1.34-32.96,19.72-47.78c.68-.43,13.3-.36,15.38-.2,2.8.22,11.33,3.24,12.58,1.45l20.33-141.47c17.45-4.76,35.3-10.03,53.56-8.95ZM514,476l-39.51,8.99-20.5,145.01-27.85-4.85-20.15,49.84,40.43,9.94,36.43-12.06c5.62-66.34,18.74-131.62,31.13-196.86Z"/>
  <path class="st0" d="M822,470l-26,167h-31l7-47h-20l-4.05,27.95-75.95,3.05,19-149h76l-3,26h23l4-28h31ZM731.01,502.99c-3.01.6-11.6-1.56-12.81,1.7l-10.19,84.31,12.36-1.14,1.5-1.5,9.14-83.37ZM782,529h-21.5c-1.02.64-1.28,1.38-1.49,2.51-1.51,8.31-1.44,18.02-3.01,26.49h22l4-29Z"/>
  <polygon class="st0" points="615 472 597.94 605.95 553.94 610.44 550 639 595 638 590.89 668.89 513 672 524.66 581.21 525.74 580 570.95 574.96 580 503 535 503 539.16 473.66 540.5 472 615 472"/>
  <polygon class="st0" points="662 470 650 550 671 550 666.86 580.86 645.1 582.1 631 674 600 674 631 470 662 470"/>
  <path class="st0" d="M722,633l-3.88,29.88,59.88,3.12-5.01,30.99c-10.16-.19-20.37.26-30.54.06-2.85-.06-5.29-1.03-7.91-1.09-17.57-.38-35.04.06-52.54-.97l9-61.99h31Z"/>
  <path class="st0" d="M301,684.99l28.19-200.3c1.1-2.1,14.58-6.34,17.79-7.21,27.42-7.36,51.86-8.57,67.18,18.84,18.43,32.96,3.66,83.58-14,114.34-20.69,36.04-56.65,68.63-99.17,74.32ZM347.01,635c4.14-3.56,7.67-8.25,10.81-12.68,12.51-17.69,37.33-63.95,23.62-84.25-3.8-5.62-13.59-10.01-19.24-5.38l-15.18,102.31Z"/>
  <path class="st0" d="M514,476c-12.39,65.24-25.51,130.53-31.13,196.86l-36.43,12.06-40.43-9.94,20.15-49.84,27.85,4.85,20.5-145.01,39.51-8.99Z"/>
  <path class="st1" d="M731.01,502.99l-9.14,83.37-1.5,1.5-12.36,1.14,10.19-84.31c1.21-3.25,9.8-1.1,12.81-1.7Z"/>
  <path class="st1" d="M782,529l-4,29h-22c1.57-8.47,1.5-18.18,3.01-26.49.21-1.13.47-1.87,1.49-2.51h21.5Z"/>
  <path class="st1" d="M347.01,635l15.18-102.31c5.65-4.63,15.44-.25,19.24,5.38,13.71,20.29-11.1,66.56-23.62,84.25-3.14,4.43-6.66,9.13-10.81,12.68ZM361.01,598c3.52-4.09,6.68-10.58,8.85-15.64,3.91-9.12,9.89-18.83-1.36-25.35l-7.48,40.99Z"/>
</svg>