<?xml version="1.0" encoding="UTF-8"?>
<svg id="_레이어_1" data-name="레이어_1" xmlns="http://www.w3.org/2000/svg" version="1.1" viewBox="0 0 1166 1129">
  <!-- Generator: Adobe Illustrator 29.8.3, SVG Export Plug-In . SVG Version: 2.1.1 Build 3)  -->
  <defs>
    <style>
      .st0 {
        fill: #eada4b;
      }

      .st1 {
        fill: #333432;
      }
    </style>
  </defs>
  <path class="st1" d="M350.01,506.99c1.42.29,1.07-1.12,1.31-2.15.83-3.51.84-11.85,3.11-13.91,1.48-1.35,19.22-5.52,22.17-5.82,4.81-.5,11.62-1.45,11.41,4.9,8.24-.87,22.45-7.23,30.3-4.82,2.33.72,2.3,3.73,3.33,3.89,2.99.46,21.86-5.96,27.11-6.82,16.14-2.65,29.69-1.47,35.74,15.75,1.27-.04-1.22-5.52,3.22-7.79s25.15-6.33,29.58-5.02c1.84.55,4.31,7.37,4.64,9.35,1.41,8.54-4.89,31.3-6.63,41.26-2.09,11.98-4.38,24.1-5.31,36.18,4.78-.84,14.99-4.6,18.06.44,1.14,1.87.2,4.43,1.92,4.56l11.97-86.54c1.28-1.79,3.03-2.36,5.01-2.99,8.06-2.56,23.98-4.86,32.84-6.16,5.33-.78,10.79-2.28,16.2-.83.74.37,4.87,8.68,5.04,9.96.78,5.74-.55,21.51-1.07,28.04-.92,11.59-2.9,10.68-13.98,11.52.15,1.74,2.33,1.13,3.46,3.02.45.76,3.49,7.66,3.59,8.41.94,6.86-2.48,18.22-1.27,25.85-1.06,2.38-3.15,3.81-5.79,3.72l5.1,10.47-2.59,35.53c-1.25,2.5-14.59,3.79-18.33,4.67-6.86,1.63-33.34,10.08-37.64,9.31s-5.64-8.65-8.08-12.02l-48.91,12.02c-3.99-.67-2.8-3.69-4.12-5.92-1.01-1.72-3.01-2.2-3.43-4.61-.99-5.67,3.27-12.76,1.51-18.45-10.72,13.48-26.09,27.26-44.01,28.99-3.56.34-18.92.72-20.58-1.4-.95-1.22-.79-3.18-1.4-4.6-2.21-3.18-17.31,4.76-21.46,5.55-12.7,2.42-8.75-7.87-12.66-8.5-7.31,5.36-9.85,7.16-18.11,2.18-4.78-2.87-13.5-9.54-15.07-14.93-.66-2.26.88-6.33-1.2-7.28-9.14,18.72-22.35,35.53-45.51,33-17.25-1.88-25.02-27.92-26.53-42.49-.15-1.46.88-2.93-1.46-2.51-9.29,12.82-20.53,25.67-34.59,33.41-5.58,3.07-22.16,10.02-27.94,7.1-.42-.21-4.64-7.76-4.78-8.22-.67-2.26-.33-7.17-.19-9.78,1.87-36.72,12.96-76.69,15.13-113.87.11-8.87,5.33-10.06,12.64-12.36,14.88-4.67,34.75-6.71,45.2,7.24l11.01,20.47c13.86-37.01,60.36-59.43,72.02-7ZM316.74,482.24c-23.94,3.76-42.46,50.5-46.47,71.53-3.78,19.86-6.82,73.65,25.12,70.11,27.89-3.09,47.83-62.57,49.59-86.4,1.39-18.73-.76-59.56-28.25-55.24ZM592.99,485l-46.57,8.93-16.42,126.07,50.98-12.01,1.01-31.99-24.49,4.02.61-13.89c3.83-2.06,24.8-4.97,25.74-7.76l1.13-22.36c-1.21-1.22-17.36,4.58-20.56,4.95-1.92.22-1.31.08-1.47-1.47-.2-1.91,2.43-17.81,3.21-18.32l24.83-3.16,1.99-33ZM406,620h15.5c12.67,0,33.85-17.93,40.93-28.07,9.24-13.23,18.34-41.16-6.42-42.42,9.18-10.7,17.34-21.38,20.5-35.5,7.88-35.19-21.09-28.22-43.73-21.73-2.49.72-10.97,2.48-11.62,4.38l-15.16,123.34ZM199.01,620c41.89-6.15,75.85-60.26,71.87-100.37-3.36-33.9-28.81-36.06-55.75-24.49l-16.13,124.86ZM381.99,490c-3.68,1.13-23.03,4.12-23.85,6.64l-16.22,105.85c-.84,6.57,9.24,9.78,13.73,13.34l21.33-14.83-2.99,18.99,22.86-8.63c2.72-40.41,10.18-80.27,18.15-119.87.1-1.63.2-1.65-1.46-1.46-2.54.3-21.47,4.96-22.09,5.93l-9.68,69.32-13.77,9.72,13.99-84.99ZM513.99,490l-22.26,4.99-1.29,1.92-16.43,123.09c15.68-5,31.42-10.54,47.98-12.01l2-32.99-24.99,4.99,14.99-89.99ZM476.99,556.99l2-18.99-6.86,10.67,4.86,8.32Z"/>
  <path class="st1" d="M712.21,477.79c10.39.08,21.85-6.24,32.34-4.83,5,.67,4.02,2.96,4.95,7.04,15.37-8.52,36.62-11.53,54.04-10.03,8.36.72,12.67,3.89,17.96,10.02,1.72-1.79,2.55-3.05,5.07-3.92,6.9-2.37,50.56-9.03,56.88-8.01,5.69.92,3.68,3.75,4.77,6.19.83,1.85,3.1,2.73,2.84,5.2l-2.26,37.85c-1.44,5.14-10.54,3.51-14.79,4.72-.14,1.61,2.13,1.16,3.08,2.4,1,1.31.74,3.24,1.49,4.52s2.43,2.05,2.92,3.08c1.66,3.51-.4,6.34-.47,9.5-.18,7.64,2.95,23.36-7.01,24.5-.39.37,4.73,8.25,4.98,9.5,1.03,5.13-2.17,11.96-.97,17.49,10.11-9.71,29.69-12.79,38.41.09,15.34,22.67-6.91,48.23-31.68,43.68-9.28-1.7-12.5-11.62-16.39-18.82-17.4.03-34.55,9.24-51.08,11.8-10.99,1.7-11.96-6.34-14.76-14.75-5.49,5.8-8.6,13.77-17.98,11.96-4.3-.83-4-4.73-5.65-7.38-.68-1.09-2.2-1.24-2.84-2.37-1.1-1.93-3.73-15.23-4.53-15.23l-2.01,17c-1.14,2.61-8.98,4.92-11.97,6.03-4.61,1.72-20.4,7.6-23.6,3.56-1.34-1.69-1.23-7.45-5.22-7.39-3.64.06-16.02,6.7-21.44,7.57-3.45.55-7.1.35-10.56.04-2.96-.89-2.17-3.86-3.27-5.73-.76-1.3-2.44-2.06-2.92-3.08-2.63-5.63,5.21-43.48,6.44-52.56.23-1.7.16-1.49-1.46-1.46-2.58.04-22.39,4.3-23.25,5.27-3.76,16.04-2.41,33.4-7.64,48.86-2.67,3.27-28.5,10.47-33.13,9.96-5.24-.57-3.36-3.14-5.03-5.98-.85-1.44-2.77-2.23-3.23-3.77-.89-2.96.16-7.56-.19-10.79l18.55-129.45,5.01-3.99c20-2.22,40.35-8.87,60.45-7.58l5.19,9.31ZM703,474l-54.95,8.06-19.05,135.94,27.52-8.97,6.69-49.82,30.33-7.16,1.46-25.04-28.01,5.49,4.12-20.38,29.46-4.04,2.44-34.07ZM881,474l-50.46,8.05-2.82,2.18-18.72,133.77,58.55-13.94,1.44-34.05-28.48,5.01c-1.42-.06.37-13.89,2.15-15.09,7.83-3.33,19.11-3.33,26.65-6.11.78-.29,1.37-.54,1.56-1.44l1.13-24.37-25,5.01,3.99-20.51,27.91-3.6,2.11-34.9ZM783.01,615c1.25.91,5-3.42,6.01-4.47,2.58-2.67,18.86-19.65,19-21.06l-18.01-43.99c8.4-10.68,18.04-19.96,23-32.95,12.72-33.24-3.85-40.39-34.23-35.23-3.61.61-22.93,5.55-24.28,7.72l-19.51,131.98,24.81-7.18,5.68-44.81,17.52,49.99ZM743,479.01l-27.33,6.19-19.66,132.8,25.33-9.22c4.49-43.7,12.4-86.92,21.66-129.77ZM704,520h-5s3.5,9,3.5,9l1.5-9ZM808.99,571.99l5-34.99-13,15.52,3.55,10.44,4.46,9.03ZM908.65,594.35c-11.3-11.85-36.06,6.45-33.25,21.68,3.27,17.72,31.9,6.08,35.17-7.96.99-4.24,1.21-10.44-1.92-13.72Z"/>
  <path class="st1" d="M911.71,468.21c9.4-2.7,28.85,4.58,39.02,5.56l2.33,1.67c1.03,5.74,6.65,7.54,4.88,13.99-6.85,15.4-14.62,30.58-20.68,46.32-5.78,15.03-9.53,30.75-15.19,45.81-.88,1.29-2.15,1.3-3.52,1.48-5.58.75-19.3-.02-25.02-1.07-3.29-.61-10.34-11.47-8.4-15.35,7.92-28.48,12.36-60,20.94-88.06.94-3.07,2.45-9.43,5.65-10.35ZM948,480.01l-33.99-6-22.01,95.99,21.91.9c7.09-31.79,20.78-61.41,34.09-90.89Z"/>
  <path class="st0" d="M316.74,482.24c27.49-4.32,29.63,36.51,28.25,55.24-1.76,23.83-21.7,83.31-49.59,86.4-31.94,3.54-28.91-50.25-25.12-70.11,4.01-21.03,22.53-67.76,46.47-71.53ZM312.71,526.22c-10.87,3.19-21.82,36.91-22.58,47.41-1.71,23.61,16.68,28.36,27.68,7.68,6.17-11.6,8.33-27.8,7.17-40.79-.62-6.92-3.09-16.99-12.27-14.3Z"/>
  <path class="st0" d="M406,620l15.16-123.34c.65-1.91,9.13-3.66,11.62-4.38,22.64-6.5,51.61-13.47,43.73,21.73-3.16,14.12-11.32,24.79-20.5,35.5,24.77,1.27,15.66,29.2,6.42,42.42-7.08,10.14-28.26,28.07-40.93,28.07h-15.5ZM440.01,544c4.65-1.38,18.95-20.2,14.05-23.56-2.05-1.04-9.41.03-10.57,1.55l-3.48,22.01ZM433,586.99c8.49-2.01,21.6-8.64,19.57-19.06-1.62-2.29-14.3-.76-16.6,1.54l-2.97,17.52Z"/>
  <path class="st0" d="M381.99,490l-13.99,84.99,13.77-9.72,9.68-69.32c.62-.96,19.55-5.62,22.09-5.93,1.65-.2,1.56-.18,1.46,1.46-7.97,39.6-15.43,79.47-18.15,119.87l-22.86,8.63,2.99-18.99-21.33,14.83c-4.49-3.56-14.58-6.77-13.73-13.34l16.22-105.85c.82-2.52,20.17-5.51,23.85-6.64Z"/>
  <path class="st0" d="M199.01,620l16.13-124.86c26.94-11.58,52.38-9.41,55.75,24.49,3.98,40.11-29.99,94.23-71.87,100.37ZM245.69,527.3c-2.07-2.27-7.63-3.64-10.69-3.31l-8.99,65c4.7-4.93,8.88-11.34,12.16-17.33,5.4-9.86,16.35-34.67,7.52-44.37Z"/>
  <path class="st0" d="M592.99,485l-1.99,33-24.83,3.16c-.78.51-3.41,16.41-3.21,18.32.16,1.55-.45,1.7,1.47,1.47,3.2-.37,19.35-6.17,20.56-4.95l-1.13,22.36c-.94,2.8-21.91,5.71-25.74,7.76l-.61,13.89,24.49-4.02-1.01,31.99-50.98,12.01,16.42-126.07,46.57-8.93Z"/>
  <path class="st0" d="M513.99,490l-14.99,89.99,24.99-4.99-2,32.99c-16.56,1.47-32.3,7.01-47.98,12.01l16.43-123.09,1.29-1.92,22.26-4.99Z"/>
  <path class="st0" d="M783.01,615l-17.52-49.99-5.68,44.81-24.81,7.18,19.51-131.98c1.35-2.16,20.67-7.1,24.28-7.72,30.38-5.16,46.95,1.99,34.23,35.23-4.97,12.99-14.61,22.27-23,32.95l18.01,43.99c-.14,1.42-16.43,18.39-19,21.06-1.02,1.05-4.76,5.38-6.01,4.47ZM770.01,539c13-5.11,35.38-37.08,4.2-24.78l-4.2,24.78Z"/>
  <path class="st0" d="M881,474l-2.11,34.9-27.91,3.6-3.99,20.51,25-5.01-1.13,24.37c-.19.9-.77,1.16-1.56,1.44-7.53,2.77-18.81,2.77-26.65,6.11-1.79,1.21-3.57,15.04-2.15,15.09l28.48-5.01-1.44,34.05-58.55,13.94,18.72-133.77,2.82-2.18,50.46-8.05Z"/>
  <polygon class="st0" points="703 474 700.57 508.07 671.1 512.11 666.99 532.49 695 527 693.54 552.04 663.21 559.2 656.52 609.02 629.01 618 648.05 482.06 703 474"/>
  <path class="st0" d="M743,479.01c-9.26,42.85-17.17,86.07-21.66,129.77l-25.33,9.22,19.66-132.8,27.33-6.19Z"/>
  <path class="st0" d="M908.65,594.35c3.13,3.28,2.9,9.48,1.92,13.72-3.27,14.04-31.9,25.68-35.17,7.96-2.81-15.23,21.95-33.53,33.25-21.68Z"/>
  <path class="st0" d="M948,480.01c-13.31,29.48-27.01,59.1-34.09,90.89l-21.91-.9,22.01-95.99,33.99,6Z"/>
  <path class="st1" d="M312.71,526.22c9.18-2.7,11.65,7.37,12.27,14.3,1.16,13-1,29.19-7.17,40.79-11,20.68-29.38,15.93-27.68-7.68.76-10.49,11.71-44.21,22.58-47.41ZM318.99,538c-3.46-3.6-13.99,18.8-14.76,20.74-2.31,5.85-7.35,21.8-5.81,27.35.6,2.15,2.46,3.07,4.59,2.49,12.45-3.4,19.88-39.13,15.98-50.58Z"/>
  <path class="st1" d="M433,586.99l2.97-17.52c2.3-2.3,14.98-3.83,16.6-1.54,2.03,10.42-11.08,17.06-19.57,19.06Z"/>
  <path class="st1" d="M440.01,544l3.48-22.01c1.16-1.51,8.52-2.58,10.57-1.55,4.9,3.35-9.39,22.18-14.05,23.56Z"/>
  <path class="st1" d="M245.69,527.3c8.83,9.7-2.12,34.51-7.52,44.37-3.28,5.99-7.46,12.4-12.16,17.33l8.99-65c3.06-.33,8.62,1.03,10.69,3.31Z"/>
  <path class="st1" d="M770.01,539l4.2-24.78c31.17-12.3,8.8,19.67-4.2,24.78Z"/>
</svg>