<?xml version="1.0" encoding="UTF-8"?>
<svg id="_레이어_1" data-name="레이어_1" xmlns="http://www.w3.org/2000/svg" version="1.1" viewBox="0 0 1166 1129">
  <!-- Generator: Adobe Illustrator 29.8.3, SVG Export Plug-In . SVG Version: 2.1.1 Build 3)  -->
  <defs>
    <style>
      .st0 {
        fill: #333332;
      }

      .st1 {
        fill: #eada4b;
      }
    </style>
  </defs>
  <path class="st0" d="M385.99,516c-.1-2.79-.43-4.74,2.05-6.46,3.49-2.4,26.11-6.56,30.25-5.34,1.2.35,2.06,1.96,3.47,2.52,8.25,3.25,20.34-5.36,29.53-2.53,1.36.42,2.05,2.17,3.41,2.6,4.94,1.56,20.79-4.52,27.05-5.55,14.76-2.43,25.4-.25,37.54,8.56,7.84-1.9,23.43-7.84,30.99-5.61,1.44.43,5.31,3.83,7.81,4.19l.92,8.15-13.03,73.45c3.81-.03,7.59-1.76,11.48-.97,2.63.53,3.43,3.73,6.51,2.98l10.96-82.54c1.28-1.79,3.03-2.36,5.01-2.99,6.28-2,42.46-8.47,47.52-7.45,1.97.4,2.58,1.98,4.27,2.73,1.13.5,2.91.13,4.23.77,4.26,2.08,1.21,14.98,1.02,19-.25,5.4.72,16.99-1.51,21.49-1.92,3.88-21.23,2.26-25.49,6.51,3.09.84,5.81-1.38,9.29-.31,1.7.52,2.38,2.63,3.74,3.27,1.72.81,3.97.24,5.57,1.43,3.32,2.48-.93,24.18.19,29.39-1.38,4.75-10.79,4.39-10.77,6.21,2.6,3.8,8.97,1.35,9.98,7.05l-2.49,36.46c-1.25,2.5-14.59,3.79-18.33,4.67-6.58,1.56-34.64,10.33-38.48,9.12-1.21-.38-1.88-1.9-2.76-2.24-4.89-1.9-8.78-.77-7.95-8.56l-44.52,11.1c-2.92-1.9-6.89-2.48-9.44-3.64-6.61-3.02-.09-15.03-1.54-20.45-14.81,17.09-33.8,27.13-57.06,24.05-3.77-.5-10.98-5.13-12.92-5.14-4.53-.04-11.97,5.74-18.05,5.18-3.01-.28-3.21-2-5.24-2.84-1.12-.46-2.74-.22-4.2-.79-.97-.38-1.74-2.2-2.68-2.37-.54-.1-4.04,2.3-7.87,1.95-4.32-.4-22.19-10.09-24.57-13.47-1.31-1.86-.08-4.44-1.91-4.57-5.15,10.18-17.78,24.43-29.62,25.88-28.1,3.45-41.16-15.02-42.88-40.88-11.09,15.54-33.04,35.54-53.02,36.99-6.36.46-5.07-1.06-8.55-2.43-2.91-1.15-6.12.13-6.92-4.08,3.5-43,10.78-85.86,16.24-128.7,1.98-4.86,20.03-9.11,25.35-9.65,16.79-1.68,33.15,3.94,41.82,18.94,1.32,2.29,1.61,5.63,3.55,6.93,6.92-15.57,21.97-33.35,40.5-33.07,9.12.14,20.92,6.48,26.51,13.58,1.91,2.43,2.26,5.93,4.99,7.5ZM349.74,501.24c-23.94,3.76-42.46,50.5-46.47,71.53-3.78,19.86-6.82,73.65,25.12,70.11,27.89-3.09,47.83-62.57,49.59-86.4,1.39-18.73-.76-59.56-28.25-55.24ZM625.99,504l-46.57,8.93-16.42,126.07,50.98-12.01,1.01-31.99-24.49,4.02.61-13.89c3.83-2.06,24.8-4.97,25.74-7.76l1.13-22.36c-1.21-1.22-17.36,4.58-20.56,4.95-2.31.27-1.59-1.63-1.42-3.43.51-5.39,2.21-11.06,3.08-16.42l24.9-3.1,1.99-33ZM439,639h15.5c12.81,0,33.8-17.85,40.93-28.07,9.23-13.22,18.43-41.33-6.42-42.42,9.18-10.7,17.34-21.38,20.5-35.5,7.88-35.19-21.09-28.22-43.73-21.73-2.49.72-10.97,2.48-11.62,4.38l-15.16,123.34ZM232.01,639c41.89-6.15,75.85-60.26,71.87-100.37-3.35-33.82-28.84-36.16-55.75-24.49l-16.12,124.87ZM414.99,509c-3.68,1.13-23.03,4.12-23.85,6.64l-16.22,105.85c-.84,6.57,9.24,9.78,13.73,13.34l21.33-14.83-2.99,18.99,22.86-8.63c2.72-40.41,10.18-80.27,18.15-119.87.1-1.63.2-1.65-1.46-1.46-2.54.3-21.47,4.96-22.09,5.93l-9.68,69.32-13.77,9.72,13.99-84.99ZM546.99,509l-22.26,4.99-1.29,1.92-16.43,123.09c15.68-5,31.42-10.54,47.98-12.01l2-32.99-24.99,4.99,14.99-89.99Z"/>
  <path class="st0" d="M831.2,647.78c-.47-.27-.56-1.86-1.18-2.28-3.32-2.24-18.62,6.87-25.5,5.49-2.11-.42-2.63-2.17-4.24-2.77-3.9-1.46-8.96-.09-9.29-7.22-7.78,9.35-12.91,7.68-23.55,4.06-3.59-2-4.41-9.07-4.94-9.07-.91,1.84-.3,3.17-1.9,5.11-3.1,3.75-27.11,11.21-31.9,9.7-1.29-.41-1.98-2.04-3.42-2.58-2.83-1.06-7.22.62-8.25-4.74-1.74-9.03,4.24-25.64,3.96-35.48-13.99,18.11-37.27,41.31-61.5,42.98-7.43.51-5.85-1.14-10.21-2.76-1.74-.65-3.59.22-5.85-1.15-3.16-1.92-2.62-6.34-2.41-9.56,1.4-21.77,6.89-47.14,9.84-69.15,3.27-24.33,4.9-48.92,10.05-72.95,12.03-6.09,26.82-10.21,40.46-9.29,12.03.81,26.74,8.45,33.13,18.88,2.61-5.02-.06-8,5.8-11.21,18.76-10.29,55.08-14.2,72.18.87,8.29-1.08,26.42-8.69,33.82-6.46,1.8.54,2.59,3.05,4.4,3.6,5.02,1.54,15.72-3.9,21.46-5.14,15.67-3.4,35.01-3.63,48.34,6.34,3.67,2.75,6.78,6.95,7.41,11.59,5.36,39.38-24.31,67.33-50.16,91.67l-5.31,43.69c-2.06,4.19-27.16,12-31.93,11.04-2.17-.43-2.78-2.37-4.23-2.8-1.65-.48-3.94.26-5.1-.41ZM770.01,639c1.02,1.13,5.68-4.11,6.51-4.98,2.53-2.66,18.32-20.84,18.5-22.54l-17.03-46.95c13.28-16.73,28.65-36.08,26.02-59.03-2.86-25.03-47.22-11.86-61.52-4.51-6.65,46.5-12.9,93.06-19.44,139.57-.21,1.5-.22,1.7,1.35,1.35l23.07-8.95,5.55-46.96,17,52.99ZM834.01,642l24.48-9.01,6.09-44.91c22.69-20.4,53.49-49.91,49.45-83.6-2.86-23.83-47.18-9.93-60.89-4.34l-19.13,141.86ZM648.01,642c24.33-4.28,44.31-20.6,58.21-40.28,17.47-24.74,33.47-70.26,14.01-97.45-13.34-18.63-36.2-10.6-54.09-4.13l-18.14,141.85ZM843,495l-25.25,5.01-1.08,1.19-19.66,140.8,25.03-8.69,20.97-138.3ZM797.01,584l2.82-1.67,3.16-25.33-9.84,11.73,3.85,15.27Z"/>
  <path class="st1" d="M349.74,501.24c27.49-4.32,29.63,36.51,28.25,55.24-1.76,23.83-21.7,83.31-49.59,86.4-31.94,3.54-28.91-50.25-25.12-70.11,4.01-21.03,22.53-67.76,46.47-71.53ZM346.72,545.2c-12.31,2.8-23.39,37.98-23.77,49.27-.2,5.98,1.88,16.74,8.76,18.31,17.59,4.03,25.53-26.49,26.34-39.24.48-7.65,1.24-31.21-11.33-28.35Z"/>
  <path class="st1" d="M439,639l15.16-123.34c.65-1.91,9.13-3.66,11.62-4.38,22.64-6.5,51.61-13.47,43.73,21.73-3.16,14.12-11.32,24.79-20.5,35.5,24.85,1.1,15.65,29.21,6.42,42.42-7.13,10.22-28.12,28.07-40.93,28.07h-15.5ZM473.01,563c4.65-1.38,18.95-20.2,14.05-23.56-2.05-1.04-9.41.03-10.57,1.55l-3.48,22.01ZM466,605.99c8.49-2.01,21.6-8.64,19.57-19.06-1.62-2.29-14.3-.76-16.6,1.54l-2.97,17.52Z"/>
  <path class="st1" d="M414.99,509l-13.99,84.99,13.77-9.72,9.68-69.32c.62-.96,19.55-5.62,22.09-5.93,1.65-.2,1.56-.18,1.46,1.46-7.97,39.6-15.43,79.47-18.15,119.87l-22.86,8.63,2.99-18.99-21.33,14.83c-4.49-3.56-14.58-6.77-13.73-13.34l16.22-105.85c.82-2.52,20.17-5.51,23.85-6.64Z"/>
  <path class="st1" d="M232.01,639l16.12-124.87c26.91-11.67,52.4-9.33,55.75,24.49,3.98,40.11-29.99,94.23-71.87,100.37ZM278.69,546.3c-2.07-2.27-7.63-3.64-10.69-3.31l-8.99,65c4.7-4.93,8.89-11.34,12.16-17.33,5.35-9.78,16.29-34.74,7.52-44.37Z"/>
  <path class="st1" d="M625.99,504l-1.99,33-24.9,3.1c-.88,5.36-2.58,11.03-3.08,16.42-.17,1.8-.89,3.7,1.42,3.43,3.2-.37,19.35-6.17,20.56-4.95l-1.13,22.36c-.94,2.8-21.91,5.71-25.74,7.76l-.61,13.89,24.49-4.02-1.01,31.99-50.98,12.01,16.42-126.07,46.57-8.93Z"/>
  <path class="st1" d="M546.99,509l-14.99,89.99,24.99-4.99-2,32.99c-16.56,1.47-32.3,7.01-47.98,12.01l16.43-123.09,1.29-1.92,22.26-4.99Z"/>
  <path class="st1" d="M770.01,639l-17-52.99-5.55,46.96-23.07,8.95c-1.57.35-1.56.16-1.35-1.35,6.54-46.51,12.8-93.08,19.44-139.57,14.3-7.35,58.65-20.52,61.52,4.51,2.63,22.95-12.74,42.3-26.02,59.03l17.03,46.95c-.18,1.7-15.97,19.88-18.5,22.54-.83.87-5.48,6.11-6.51,4.98ZM758.01,558c3.08,3.49,40.36-40.78,4.5-25.99l-4.5,25.99Z"/>
  <path class="st1" d="M648.01,642l18.14-141.85c17.89-6.47,40.75-14.51,54.09,4.13,19.46,27.19,3.47,72.71-14.01,97.45-13.9,19.68-33.89,35.99-58.21,40.28ZM678.01,607c7.54-8.1,14.38-19.48,18.85-29.64,5.96-13.54,15.91-44.03-7.74-44.24-5,24.34-8.86,49.09-11.1,73.89Z"/>
  <path class="st1" d="M834.01,642l19.13-141.86c13.71-5.59,58.03-19.49,60.89,4.34,4.04,33.69-26.76,63.19-49.45,83.6l-6.09,44.91-24.48,9.01ZM869,553.99c12.91-4.59,35.12-34.32,4.52-21.97l-4.52,21.97Z"/>
  <polygon class="st1" points="843 495 822.03 633.3 797 641.99 816.67 501.2 817.75 500.01 843 495"/>
  <path class="st0" d="M346.72,545.2c12.57-2.86,11.81,20.69,11.33,28.35-.81,12.75-8.75,43.26-26.34,39.24-6.88-1.58-8.96-12.33-8.76-18.31.38-11.3,11.46-46.48,23.77-49.27ZM337.01,607c13.97-10.18,17.65-33.66,14.97-50-6.92,6.99-11.78,18.77-14.27,28.22-1.93,7.32-4,14.63-.7,21.78Z"/>
  <path class="st0" d="M466,605.99l2.97-17.52c2.3-2.3,14.98-3.83,16.6-1.54,2.03,10.42-11.08,17.06-19.57,19.06Z"/>
  <path class="st0" d="M473.01,563l3.48-22.01c1.16-1.51,8.52-2.58,10.57-1.55,4.9,3.35-9.39,22.18-14.05,23.56Z"/>
  <path class="st0" d="M278.69,546.3c8.76,9.63-2.17,34.59-7.52,44.37-3.28,5.99-7.46,12.4-12.16,17.33l8.99-65c3.06-.33,8.62,1.03,10.69,3.31Z"/>
  <path class="st0" d="M758.01,558l4.5-25.99c35.86-14.8-1.43,29.47-4.5,25.99Z"/>
  <path class="st0" d="M678.01,607c2.25-24.8,6.1-49.54,11.1-73.89,23.65.21,13.7,30.7,7.74,44.24-4.47,10.16-11.3,21.55-18.85,29.64Z"/>
  <path class="st0" d="M869,553.99l4.52-21.97c30.61-12.34,8.4,17.39-4.52,21.97Z"/>
</svg>