<?xml version="1.0" encoding="UTF-8"?>
<svg id="_레이어_1" data-name="레이어_1" xmlns="http://www.w3.org/2000/svg" version="1.1" viewBox="0 0 1166 1129">
  <!-- Generator: Adobe Illustrator 29.8.3, SVG Export Plug-In . SVG Version: 2.1.1 Build 3)  -->
  <defs>
    <style>
      .st0 {
        fill: #e9da4b;
      }

      .st1 {
        fill: #353533;
      }
    </style>
  </defs>
  <path class="st1" d="M806.35,260.65c1.51,1.51,4.43,2.04,4.63,4.87l-.47,30.48c10.33-20.17,29.69-45.36,55.74-37.75,9.79,2.86,29.82,26.47,23.84,38.32l-17.07,23.41c4.71-.24,9.4-2.36,13.99,0,3.85-19.9,25.1-56.74,45.76-61.75,7.47-1.81,18.94-1.46,25.28,3.22,8.47,6.25,21.66,22.55,18.72,33.79-.4,1.53-16.72,22.95-18.2,23.79-7.69,4.37-10.16-4.12-12.87-3.89-4.97,1.89-10.21,6.32-10.68,11.83,8.03-.64,31.02-11.62,37.44-6.93,1.57,1.15,1.18,2.99,1.84,3.65,1.85,1.87,5.68.51,5.22,7.3l17.44-73.57c.66-.9,1.52-1.22,2.58-1.42,4.98-.94,34.22,4.11,38.01,6.94,2.26,1.69,1.95,3.96,2.75,4.75s3.26.38,4.24,2.26.69,6.23.25,8.3c-2.78,13.18-15.76,36.33-20.79,51.2-4.57,13.5-7.61,27.38-12.1,40.9-1.2,2.08-2.06,2.37-4.33,2.67-3.75.5-24.91-.41-26.63-2.5-.71-.87-.57-2.61-1.2-3.26s-4.56-1.54-5.7-3.28c-.67,7.88-4.79,14.53-8.03,21.48l7.66-6.34c13.82-6.29,24.48-3.7,33.35,8.36,4.92,6.7,4.13,20.59-.56,27.43-7.23,10.54-24.12,19.19-35.94,11.07-8.45-5.8-13.9-14.47-12.99-25-6.1,8.15-12.38,15.58-21.49,20.51-28.63,15.5-50.78-7.68-56.52-34.53-10.47,21.8-27.25,41.91-54,39.01-9.8-1.06-23.72-15.62-26.51-25-1.89.11-.59,3.2-1.48,5-.43.89-1.3,1.49-2.24,1.76-7.71.94-15.38,2.23-22.92,4.08-8.01,1.97-29.22,9.92-35.88,9.22-1.79-.19-10.36-7.69-10.95-9.1-1.11-2.64-.42-5.72-.51-8.47l17.5-134.49c1.77-2.35,3.61-3.74,6.43-4.57,10.62-3.15,33.63-7.4,44.68-8.31,2.48-.2,6.4-.6,8.66.07s2.73,3.12,4.05,4.45ZM800,262l-51.09,9.64-17.91,138.36,55.56-13.93,1.43-35.06c-8.88,1.1-17.7,3.84-26.57,4.94-1.62.2-1.57.21-1.44-1.44.21-2.79,1.34-12.58,3.04-13.98,3.76-3.08,25.7-4.78,26.84-8.16l1.13-25.36c-6.86,1.05-15.84,5.65-22.5,6.01-2.38.13-1.65-1.55-1.47-3.48.23-2.49,2.54-16.89,3.61-17.63l27.37-3.9,1.99-36.01ZM1034,268.01l-31.92-5.93-22.08,98.92,20.87.87c7.65-32.46,20.03-63.35,33.13-93.86ZM858,358.01c-3.22,10.39-10.7,27.52-24.26,24.77-15.63-3.17-9.05-31.09-6-41.54,3.78-12.97,17.07-47.81,34.91-33.32l1.36-.35,15.59-20.53c-6.12-29.6-30.86-29.2-49.11-9.05-23.61,26.07-38.54,81.24-27.94,114.97s39.09,24.2,55.87,1.96c10.87-14.41,26.23-50.61,23.59-68.45-.22-1.48.59-1.6-1.51-1.49l-38.52,10.72-4.97,27.29,20.99-4.99ZM949.98,308.99l15.8-23.31c-11.24-34.27-38.32-24.02-55.21-.61-19.23,26.64-31.37,72.86-23.08,104.94,9.98,38.62,42.56,26.51,59.73.72,12.22-18.35,20.49-43.65,20.77-65.73l-40.53,10.97-4.46,27.03,19.99-4.99c.38,13.03-20.36,36.68-30.74,19.24-8.57-14.4,4.39-51.77,14.33-64.16,5.5-6.86,15.58-14.37,21.44-4.09h1.96ZM804,309.01l-12.99,1.49c4.93,1.92,4.41,7.7,9.43,8.47l3.56-9.96ZM872,320.01c-6.46,1.42-7.72-2.04-12.31-4.88-2.12.56-12.54,10.11-10.68,11.86l22.99-6.98ZM836.98,369c-2.64-2.65-3.03,7.4-.38,7.92l3.42-1.44-3.03-6.48ZM922.92,369.07l-2.91-.07c.15,1.77.83,7.55,2.59,7.92l3.39-.93-3.08-6.92ZM984.76,382.22c-20.17,2.98-30.6,38.09-5.34,34.69,20.86-2.81,28.28-38.08,5.34-34.69Z"/>
  <path class="st1" d="M429.01,276.99c2.77-1.93,1.08-7,2.9-9.58,2.1-2.97,27.03-9.83,31.7-10.3,6.49-.65,20.61-.93,26.37,1.38s16.1,14.08,16.92,20.08c5.07,37.27-23.02,65.87-48.48,88.34,0,7.73-2.31,15.3-3.33,22.67-.76,5.47.13,20.62-4.88,23.38-3.15,1.74-18.43,7.15-21.96,7.78-8.95,1.6-10.19-4.25-16.06-9.46l.29-16.29c-11.2,14.87-22.96,31.9-43.96,31.01-14.54-.62-25.84-14.06-32.04-25.99-1.54,0-13.84,17.07-16.18,17.79-2.19.67-6.95.56-8.9-.73-.41-.27-6.62-6.69-6.89-7.1-2.15-3.23-1.19-7.91-4.52-9.97-.35,4.71,1.65,9.56-3.09,12.42-3.26,1.97-18.05,7.41-21.87,8.12-8.85,1.65-6.75.11-11.4-4.2-1.31-1.21-3.78-2.18-4.71-3.79-3.23-5.59,3.52-28.84,3.05-36.55-12.45,15.28-26.18,31.58-44.61,39.88-5.22,2.35-20.2,7.36-24.96,4.2-1.3-3.59-5.87-3.96-6.84-7.13-1.15-3.77-.46-7.61-.57-11.44l17.92-133.08c3.32-5.66,29.86-10.55,36.59-10.51,17.51.11,25.48,10.56,35.47,23.08.74-5.34-.18-12.18,5.3-15.21,12.22-6.76,36.43-10.16,50.2-8.78,10.46,1.05,23.13,14.45,24.01,24.98,10.92-17.92,29.9-38.01,53.23-29.22,7.56,2.85,18.82,16.4,21.29,24.21ZM395.81,257.22c-28.74,1.61-49.44,52.77-54.34,76.74-4.59,22.45-9.52,85.16,27.95,79.94,30.11-4.19,51.92-69.45,53.63-95.37,1.2-18.16-.33-62.82-27.24-61.32ZM310.01,407c1.96.5,1.93-.8,2.81-1.68,2.65-2.63,21.03-23.22,21.19-24.84l-16.94-46.04c10.64-12.86,20.46-24.82,24.25-41.61,5.07-22.47-2.58-31.77-25.81-29.81-4.79.4-31.38,6.63-32.86,10.21-5.86,44.82-12.73,89.54-18.6,134.35-.31,2.34,1.53,1.54,3.21,1.2,6.33-1.3,14.19-5.92,20.83-7.41l4.92-46.36,17,52ZM418,408.99l23.45-8.04,6.08-43.92c21.44-18.06,51.16-47.98,48.51-78.57-2.26-26.18-43.61-12.89-58.53-6.45l-19.51,136.98ZM191,409c31.07-3.53,57.97-33.34,69.49-61.02,12.33-29.64,19.18-87.93-28.86-82.86-4.1.43-21.43,5-22.9,8.1l-17.72,135.78ZM332.99,350l2-15c-6.95,3.89-7.3,9.24-2,15ZM413.5,393v1c.65-.33.65-.67,0-1Z"/>
  <path class="st1" d="M709.28,269.72c1.53,1.53,4.03-.5,4.76,4.74.79,5.67-.54,21.54-1.06,28.03-1.1,13.8-5.91,10.68-17.98,11.52.69,2.33,3.68,1.73,5.08,3.44.74.91.58,2.65,1.2,3.27.67.68,2.77.46,3.82,1.67,2.52,2.88-1.41,23.67-.31,28.9-1.39,3.04-4.72,4.28-7.79,4.72l5.98,7.51c-.25,7.63.42,15.36,0,22.97-.25,4.64-.78,11.66-2.4,15.6-5.65,1.87-11.63,2.22-17.41,3.59-8.95,2.12-27.2,8.92-34.71,9.36s-6.91-6.76-11.95-6.96c-5.78-.23-21.59,9.57-27.55,6.44-1.86-.98-1.44-3.35-2.27-4.22-4.78-5-18.27,3.46-24.44,4.46-8.83,1.44-5.87-1.75-8.55-4.47-1.97-2-5.6-.14-5.82-6.77l11.11-86.52-5.43-.05-13.1,89.04c-.6,1.27-1.81,1.53-2.93,2.07-3.34,1.6-19.77,6.79-23.08,6.99-7.25.44-4.75-2.77-6.75-4.76-1.53-1.53-4.03.5-4.76-4.74,1.21-27.33,7-54.36,10.05-81.54-5.44,1.45-5.36-2.25-7.33-3.68-1.64-1.19-4.57-.98-5.46-4.04.24-11.38-2.39-23.52-1.27-34.84.54-5.4,1.93-5.13,6.84-6.16,18.6-3.9,38.09-4.49,56.73-8.37,8.11.06,2.48,6.45,9.23,6.82,8.47.46,26.28-10.18,29.8,1.3,7.66-1.27,22.58-7.03,29.77-4.84,2.35.72,2.47,3.79,3.15,3.76.5-.02,2.8-1.39,4.31-1.68,7.64-1.47,43.74-9.15,48.25-6.79,1.89.99,1.47,3.46,2.26,4.24ZM703.99,270l-46.57,8.93-16.42,126.07,50.98-12.01,1.01-31.99-24.49,4.02.61-13.89c3.83-2.06,24.8-4.97,25.74-7.76l1.13-22.36c-1.21-1.22-17.36,4.58-20.56,4.95-2.31.27-1.59-1.63-1.42-3.43.51-5.39,2.21-11.06,3.08-16.42l24.9-3.1,1.99-33ZM583,273l-59,8,2.06,32.97,13.94-2.97-11.98,94,22.86-7.13,12.32-89.18c.28-1.35,1.13-1.49,2.3-1.7,4.75-.85,11.57-.67,16.51-.99l.99-33.01ZM614.99,275l-24.91,5.08-16.08,123.92,22.95-6.05,4.21-37.79,11.84-2.16-5.99,46.99,23.02-7.7c3.98-41.13,10.8-81.87,18.96-122.3l-25.53,5.96-7.12,50.81-10.83,4.23,9.48-61.01Z"/>
  <path class="st0" d="M858,358.01l-20.99,4.99,4.97-27.29,38.52-10.72c2.1-.11,1.29.01,1.51,1.49,2.64,17.83-12.72,54.04-23.59,68.45-16.78,22.24-45.52,30.98-55.87-1.96s4.33-88.9,27.94-114.97c18.25-20.15,42.99-20.55,49.11,9.05l-15.59,20.53-1.36.35c-17.84-14.5-31.12,20.34-34.91,33.32-3.05,10.45-9.64,38.37,6,41.54,13.56,2.75,21.04-14.39,24.26-24.77Z"/>
  <path class="st0" d="M949.98,308.99h-1.96c-5.86-10.28-15.93-2.77-21.44,4.09-9.94,12.39-22.9,49.76-14.33,64.16,10.37,17.44,31.11-6.21,30.74-19.24l-19.99,4.99,4.46-27.03,40.53-10.97c-.28,22.08-8.55,47.38-20.77,65.73-17.18,25.79-49.76,37.9-59.73-.72-8.29-32.08,3.85-78.3,23.08-104.94,16.89-23.4,43.97-33.66,55.21.61l-15.8,23.31Z"/>
  <path class="st0" d="M800,262l-1.99,36.01-27.37,3.9c-1.07.74-3.38,15.14-3.61,17.63-.18,1.93-.9,3.61,1.47,3.48,6.66-.36,15.64-4.96,22.5-6.01l-1.13,25.36c-1.14,3.38-23.08,5.08-26.84,8.16-1.7,1.4-2.83,11.19-3.04,13.98-.12,1.66-.17,1.64,1.44,1.44,8.87-1.1,17.69-3.84,26.57-4.94l-1.43,35.06-55.56,13.93,17.91-138.36,51.09-9.64Z"/>
  <path class="st0" d="M1034,268.01c-13.11,30.51-25.49,61.4-33.13,93.86l-20.87-.87,22.08-98.92,31.92,5.93Z"/>
  <path class="st0" d="M984.76,382.22c22.94-3.39,15.52,31.88-5.34,34.69-25.26,3.4-14.83-31.71,5.34-34.69Z"/>
  <path class="st0" d="M395.81,257.22c26.9-1.51,28.43,43.16,27.24,61.32-1.71,25.92-23.51,91.18-53.63,95.37-37.47,5.21-32.54-57.5-27.95-79.94,4.9-23.98,25.6-75.13,54.34-76.74ZM388.74,306.21c-8.83,1.72-17.98,22.26-20.76,30.27-3.69,10.63-9.71,34.4.49,42.54,15.85,12.64,29.13-19.02,31.25-30.8,1.71-9.46,5.51-45.24-10.98-42.01Z"/>
  <path class="st0" d="M310.01,407l-17-52-4.92,46.36c-6.64,1.49-14.5,6.1-20.83,7.41-1.68.34-3.52,1.14-3.21-1.2,5.88-44.81,12.74-89.53,18.6-134.35,1.48-3.58,28.07-9.8,32.86-10.21,23.23-1.96,30.88,7.34,25.81,29.81-3.79,16.78-13.62,28.74-24.25,41.61l16.94,46.04c-.17,1.62-18.55,22.21-21.19,24.84-.88.88-.85,2.18-2.81,1.68ZM315.85,300.15c-2.07-1.3-11.57.6-13.31,2.89-1.18,1.56-5.37,24-4.54,24.95,6.41-2.03,18.37-16.49,18.99-22.59.12-1.14-.45-4.82-1.14-5.26Z"/>
  <path class="st0" d="M191,409l17.72-135.78c1.47-3.1,18.8-7.67,22.9-8.1,48.04-5.07,41.19,53.22,28.86,82.86-11.52,27.68-38.42,57.49-69.49,61.02ZM220.01,375c1.19,1.34,5.13-4.72,5.81-5.68,9.08-12.79,24.05-41.92,18.72-57.35-1.86-5.38-9.89-10.82-14.36-6.29l-10.17,69.32Z"/>
  <path class="st0" d="M418,408.99l19.51-136.98c14.92-6.44,56.26-19.73,58.53,6.45,2.65,30.59-27.07,60.51-48.51,78.57l-6.08,43.92-23.45,8.04ZM452,323.99c.99.95,7.3-4.04,8.47-5.02,3.1-2.62,14.85-14.48,10.11-18.06-18.36-5.17-15.5,10.93-18.58,23.08Z"/>
  <path class="st0" d="M614.99,275l-9.48,61.01,10.83-4.23,7.12-50.81,25.53-5.96c-8.17,40.43-14.98,81.17-18.96,122.3l-23.02,7.7,5.99-46.99-11.84,2.16-4.21,37.79-22.95,6.05,16.08-123.92,24.91-5.08Z"/>
  <path class="st0" d="M703.99,270l-1.99,33-24.9,3.1c-.88,5.36-2.58,11.03-3.08,16.42-.17,1.8-.89,3.7,1.42,3.43,3.2-.37,19.35-6.17,20.56-4.95l-1.13,22.36c-.94,2.8-21.91,5.71-25.74,7.76l-.61,13.89,24.49-4.02-1.01,31.99-50.98,12.01,16.42-126.07,46.57-8.93Z"/>
  <path class="st0" d="M583,273l-.99,33.01c-4.94.32-11.77.13-16.51.99-1.17.21-2.02.34-2.3,1.7l-12.32,89.18-22.86,7.13,11.98-94-13.94,2.97-2.06-32.97,59-8Z"/>
  <path class="st1" d="M388.74,306.21c16.5-3.22,12.69,32.56,10.98,42.01-2.13,11.78-15.4,43.44-31.25,30.8-10.21-8.14-4.19-31.91-.49-42.54,2.78-8.01,11.93-28.55,20.76-30.27ZM394.99,319.01c-1.26-1.44-5.73,5.09-6.41,6.08-6.24,9.07-11.33,22.86-13.29,33.71-1.03,5.67-1.99,10.51-.29,16.21,8.66-.8,13.4-12.24,16.01-19.49,4.33-12.03,5.5-23.86,3.98-36.51Z"/>
  <path class="st1" d="M315.85,300.15c.69.44,1.26,4.12,1.14,5.26-.62,6.09-12.58,20.56-18.99,22.59-.83-.96,3.36-23.39,4.54-24.95,1.74-2.3,11.24-4.2,13.31-2.89Z"/>
  <path class="st1" d="M220.01,375l10.17-69.32c4.47-4.52,12.5.92,14.36,6.29,5.33,15.43-9.64,44.56-18.72,57.35-.68.96-4.62,7.02-5.81,5.68Z"/>
  <path class="st1" d="M452,323.99c3.08-12.15.22-28.24,18.58-23.08,4.74,3.57-7.01,15.44-10.11,18.06-1.16.98-7.47,5.97-8.47,5.02Z"/>
</svg>