<?xml version="1.0" encoding="UTF-8"?>
<svg id="_레이어_1" data-name="레이어_1" xmlns="http://www.w3.org/2000/svg" version="1.1" viewBox="0 0 1166 1129">
  <!-- Generator: Adobe Illustrator 29.8.3, SVG Export Plug-In . SVG Version: 2.1.1 Build 3)  -->
  <defs>
    <style>
      .st0 {
        fill: #333432;
      }

      .st1 {
        fill: #ebdb4b;
      }
    </style>
  </defs>
  <path class="st0" d="M617,423v10.01s5.01-.01,5.01-.01c.23,37.29-4.95,74.39-8,111.52-.41,5.02,1.41,10.9-2,15l3.06,1.04-3.06,45.45h13s-.01,10.01-.01,10.01h5.01s-3,54.5-3,54.5c-.05,1.2-.66,1.77-1.58,2.42-4.42,3.11-47.38-.14-56.98,1.02-1.07.13-2.3-.04-3.02.98l-6.44,71.06h-57v-10.01s-5.01.01-5.01.01l3.01-62.01h-48.5c-2.89-1.34-.8-9.34-1.5-10l-3.93.07-2.23,25.27-3.56,2.44-57.84,1.16-6.44,71.06h-57v-10.01s-5.01.01-5.01.01l3.01-62.01h-48.5c-2.89-1.34-.8-9.34-1.49-10h-5.01c.33-8.78-.43-17.7.02-26.49.41-8.02,1.47-21.29,3.02-28.98.23-1.13.41-1.89,1.47-2.53h43.5c-4-10.99-9.21-17.03-10.05-29.45-1.29-19.07-1.36-41.57,10.05-57.55h-15v-10.01s-5.02-.57-5.02-.57l4.03-56.42,41.85-1.15c2.12-4.21,1.99-32.25,4.81-32.9l56.34.04v10.01s4.99,0,4.99,0v23l35.01.99.03,9.97,4.01.47c1.58,1.06,1.1,15.17.95,18.05-.66,12.76-3,25.75-3.99,38.51h-31c1.68,4.62,5.14,9.26,6.77,13.73,5.11,13.97,4.62,45.96-.72,59.82-1.8,4.69-5.51,8.63-7.05,13.45h36v10s4,0,4,0c.09-5.97.39-12.47,1.12-18.38.38-3.06.57-7.59,2.38-9.62h19.5l7.01-106.99,77.99-7.02-1.48-1.99-68.52,1.01v-10.01s-5,.01-5,.01l3.01-58.01h135ZM610,431h-120l-3,42h76l-1.05,26.95-77.49,7.01-7.46,96.05,122.01-3,3-42.01-78.01,1.01v-11.01s76.95-6.04,76.95-6.04l9.05-110.95ZM389,443h-42l-3,34h-42l-4,43h126.5l1.5-2.5,3-40.5h-42l2-34ZM356.79,525.3c-32.1,1.73-49.81,24.92-49.88,56.2-.12,54.91,79.42,54.83,94.37,8.28,11.41-35.52-4.97-66.6-44.49-64.48ZM617,614h-161l-4,42h59l-7,72h42l7-72h61l3-42ZM434,632h-161l-4,42h59l-7,72h42l7-72h61l3-42Z"/>
  <path class="st0" d="M803,387v10.01s5.01-.01,5.01-.01c-.2,4.48.25,9.06.04,13.55-1.11,23.09-5.75,47.89-6.03,70.96-.11,9.57,1.44,19.13,1.03,29.04-.19,4.65-1.17,10.82-2.04,15.45h11s-.01,10.01-.01,10.01h5.01c.79,17.58-2.45,34.92-3.03,52.47.07,1.05-1.94,3.52-2.48,3.52h-14.5l-12.01,143.99-146.35-3.13-1.5-1.5-.13-8.37-5.02-.57.03-25.92,10.01-104-4.59-1.44-.42-9.07h-6.01s4.01-56,4.01-56h20l10-139h138ZM795,395h-122l-3,39h79l-.14,8.36-1.5,1.5-78.92,7.08-5.45,77.06,123.9-3.11,3.11-36.9c-22.13,1.28-44.37.29-66.55.96-2.99.09-12.25,2.7-14.02.1l-.44-5.06,80.01-7,5.99-82.01ZM804,534h-161l-4,40h59l-3,33h42l3-33h61l3-40ZM693,587h-42l-12,127.99,134,3.01,11-129.01-42-.99-2.01,25.49-1.5,2.5h-47.5l2-29Z"/>
  <polygon class="st1" points="610 431 600.95 541.95 524 548 523.99 559.01 602 558 599.01 600.01 476.99 603.01 484.46 506.96 561.95 499.95 563 473 487 473 490 431 610 431"/>
  <polygon class="st1" points="617 614 614 656 553 656 546 728 504 728 511 656 452 656 456 614 617 614"/>
  <polygon class="st1" points="434 632 431 674 370 674 363 746 321 746 328 674 269 674 273 632 434 632"/>
  <path class="st1" d="M356.79,525.3c39.51-2.12,55.89,28.95,44.49,64.48-14.95,46.55-94.49,46.63-94.37-8.28.07-31.28,17.78-54.47,49.88-56.2ZM361.69,582.7c9.07-9.91-1.14-27.66-11.24-16.75s2.15,26.68,11.24,16.75Z"/>
  <polygon class="st1" points="389 443 387 477 429 477 426 517.5 424.5 520 298 520 302 477 344 477 347 443 389 443"/>
  <path class="st1" d="M693,587l-2,29h47.5l1.5-2.5,2.01-25.49,42,.99-11,129.01-134-3.01,12-127.99h42ZM735,658h-48l-.99,13.99,47.85,1.87,1.14-15.86Z"/>
  <path class="st1" d="M795,395l-5.99,82.01-80.01,7,.44,5.06c1.77,2.59,11.03-.01,14.02-.1,22.18-.67,44.42.31,66.55-.96l-3.11,36.9-123.9,3.11,5.45-77.06,78.92-7.08,1.5-1.5.14-8.36h-79l3-39h122Z"/>
  <polygon class="st1" points="804 534 801 574 740 574 737 607 695 607 698 574 639 574 643 534 804 534"/>
  <path class="st0" d="M361.69,582.7c-9.09,9.93-21.24-5.94-11.24-16.75s20.31,6.84,11.24,16.75Z"/>
  <polygon class="st0" points="735 658 733.86 673.86 686.01 671.99 687 658 735 658"/>
</svg>