<?xml version="1.0" encoding="UTF-8"?>
<svg id="_레이어_1" data-name="레이어_1" xmlns="http://www.w3.org/2000/svg" version="1.1" viewBox="0 0 3000 3000">
  <!-- Generator: Adobe Illustrator 29.8.3, SVG Export Plug-In . SVG Version: 2.1.1 Build 3)  -->
  <defs>
    <style>
      .st0 {
        fill: #fff;
      }

      .st1 {
        fill: #7a401a;
      }

      .st2 {
        fill: #030202;
      }
    </style>
  </defs>
  <path class="st0" d="M1358.7,1476.37c-16.18-.42-32.32-1.82-48.48-2.56-15.07-.69-29.73.48-44.76,1.36-7.45.44-14.92.55-22.33-.5-6.02-.85-12.07-2.24-15.83-7.61-1.09-1.56-1.79-3.57-3.22-4.85-2.48-2.21-6.99-2.73-10.06-2.9-1.37-.08-2.73-.07-4.1-.03-4.68,12.03-7.26,25.17-7.26,38.94,0,57.52,44.97,104.15,100.45,104.15s100.45-46.63,100.45-104.15c0-8.36-.96-16.49-2.75-24.29-13.88,2.43-28.06,2.79-42.11,2.43Z"/>
  <path class="st0" d="M1651.43,1469.06c-18.8-.44-37.54-1.9-56.32-2.67-17.51-.71-34.54.5-52,1.42-8.65.46-17.33.57-25.94-.52-7-.89-14.02-2.34-18.39-7.94-1.27-1.63-2.08-3.72-3.75-5.05-2.88-2.3-8.12-2.84-11.69-3.02-1.59-.08-3.18-.07-4.76-.03-5.44,12.55-8.44,26.25-8.44,40.61,0,59.99,52.25,108.61,116.7,108.61s116.7-48.63,116.7-108.61c0-8.72-1.11-17.2-3.2-25.33-16.12,2.53-32.6,2.91-48.93,2.53Z"/>
  <path class="st1" d="M1573.89,1257.14c28.05,27.86,24.77,64.93,4.34,95.92-36.52,55.4-78.08,98.85-67.73,172.47s44.22,135.71,56.01,205.99c13.1,78.13,1.87,169.86-49.9,233.91-45.2,55.92-132.06,27.82-141.89-42.12-5.26-37.4,32.4-70.22,37.4-102.37,3.59-23.09-.02-64.13-6.03-87.01-13.37-50.91-38.3-98.2-47.33-152.67-4.94-29.83,8.07-41.03,9.8-67.87.42-6.48-.98-34.52-4.42-38.49-2.15-2.49-8.96-1.17-9.67-3.71-.76-2.76-.3-19.84.22-23.67,6.02-44.34,36.29-108.67,65.85-142.15,35.41-40.1,102.53-98.69,153.34-48.24Z"/>
  <path class="st1" d="M1294.6,1476.43c-8.62-.26-17.4.46-26,0-12.33-.66-20.78-2.05-33.11-3.88-16.77-2.49-28.3,2.54-28.71,21.08-.52,23.35,2.41,35.63,11.29,56.34,2.04,4.75,3.13,12.81,5.67,16.33,8.43,11.67,36.05,30.43,50.42,33.58s23.41-1,35.49,2.51c38.03,96.2,63.57,204.27,21.92,304.02-11.41,27.32-33.5,68.3-61.22,80.78-66.42,29.91-133.29-32.91-108.6-100.6,15.64-42.86,39.68-53.17,32.91-109.22-6.33-52.4-28.75-108.22-48.06-156.94-8.98-22.66-17.33-103.77-16.08-129.08,1.27-25.78,9.74-79.83,20.08-102.92,3.27-7.3,8.1-15.18,12-24,2.55-5.77,4.89-11.7,7.56-17.43,2.46-5.29,8.96-6.6,4.44-14.57,11.3,1.41,8.34-5.93,14.96-14.05,17.52-21.48,67.63-68.78,93.01-76.99,3.52-1.14,24.16-5.35,27.07-5.14,1.01.07,18.31,4.24,19.51,4.64,28.26,9.44,51.95,44.52,47.35,74.45-4.98,32.43-54.74,85.53-70.97,121.02-5.66,12.39-9.81,26.47-10.93,40.07Z"/>
  <path class="st1" d="M1676.6,1544.43c2.92,19.64,13.57,41.37,26.95,56.05,8.4,9.21,18.91,9.09,16.91,24.77-.62,4.89-3.89,9.1-3.91,14.18-.1,25.94,31.79,22.16,50.05,23.01-.66,12.53,4.88,18.7,7.4,29.6,19.92,85.9,21.32,165.68-23.76,245.05-17.67,31.12-39.75,57.25-78.61,57.51-57.91.38-94.56-53.94-76.05-108.17,6.32-18.51,25.41-38.66,30.14-59.86,12.94-57.92-14.1-118.72-31.65-172.61-2.36-7.24-16.48-50.52-13.49-53.53l37.89,1.05c8.78-9.01,26.85-16.62,35.22-24.95s9.61-29.02,22.91-32.09Z"/>
  <path class="st2" d="M1808.6,1320.43c.28.09,1.41,3,3.21,3.71,29.6,11.69,49.04,28.73,61.74,58.34,17.01,39.63,16.3,81.03,10.84,122.74-5.69,43.4-27.37,89.6-68.05,109.95-8.27,4.14-31.48,8.94-35.18,11.85-4.9,3.85-4.09,13.23-6.12,18.85-2.74,7.56-8.08,9.65-8.45,16.56-18.26-.85-50.15,2.94-50.05-23.01.02-5.08,3.29-9.29,3.91-14.18,2-15.68-8.51-15.56-16.91-24.77-13.39-14.67-24.03-36.41-26.95-56.05-1.86-12.5-1.83-47.51,0-60,6.13-41.78,54.61-94.89,98-98,11.08-.8,29.98-.58,40.47,2.53,5.28,1.57,18.52,13.06,21.38,4.22,3.27-10.12-20.81-34.85-30.95-36.67-7.08-1.27-11.68,1.82-16.9,1.92-15.7.32-24.15-1.24-40.03,6.97-7.97,4.13-31.98,31.56-35.66,7.57-2.01-13.1,32.62-38.13,43.63-43.6,11.79-5.85,39.94-13.01,52.05-8.95Z"/>
  <path class="st1" d="M1808.6,1320.43c-12.11-4.06-40.26,3.09-52.05,8.95-11.02,5.47-45.64,30.5-43.63,43.6,3.68,23.99,27.69-3.44,35.66-7.57,15.87-8.22,24.32-6.65,40.03-6.97-3.43,10.4-16.69,15.02-14,28-43.39,3.11-91.87,56.22-98,98-5.1-3.11-2.65-12.36-7.96-15.02-7-3.5-11.32.98-14.04,1.02-6.14.09-12.48-.01-18.92.1-21.67.36-43.42-.47-65.08-.1.64-47.71,20.17-99.73,46.35-140.65,17.6-27.5,72.43-80.22,103.14-88.86,27.92-7.85,59.97,1.16,77.38,25.63,12.35,17.36,12.14,33.22,11.13,53.87Z"/>
  <path class="st2" d="M1150.6,1388.43c-10.35,23.09-18.81,77.14-20.08,102.92-1.25,25.32,7.1,106.42,16.08,129.08-4.9,2.92-20.14,5.11-23.04,7.96-3.34,3.28-5.11,18.86-8.06,23.94-6.22,10.71-33.49,7.07-43.36,3.56-21.29-7.57-3.55-29.8-7.86-42.13-.4-1.14-14.74-12.91-17.73-16.28-56.58-63.61-23.36-186.87,60.04-208.07,14.09-3.58,29.75-4.72,44.01-.99Z"/>
  <path class="st2" d="M1654.6,1470.43c-1.68,15.08,6.24,25.44,4.1,41.1-.41,3.02-7.91,28.03-9.13,30.86-.52,1.2-16.4,18.8-17.5,19.5-1.55.99-15.86,4.64-18.44,4.73-34.99,1.18-52.25-45.58-48.81-74.97.79-6.78,5.71-15.78,5.78-21.22,21.65-.37,43.41.46,65.08.1,6.44-.11,12.78,0,18.92-.1Z"/>
  <path class="st2" d="M1294.6,1476.43c1.11.03,3.95,1.92,6.9,2.01,16.24.5,34.08,1.08,49.83-2.16,2.17.36.9,3.14,1.27,4.15.92,2.52-2.28,4.9,4,4,7.46,23.61-1.23,36.7-9.5,55.5-1.67,3.8-3.62,11.93-5.61,14.39-.92,1.13-20.54,10.56-22.83,11.16-36.96,9.72-56.97-42.43-53.91-71.89.58-5.56,4.92-10.95,3.84-17.16,8.6.46,17.38-.26,26,0Z"/>
  <path class="st2" d="M1168.6,1330.43c2.13.45,4.68,1.84,6,2,4.52,7.98-1.97,9.29-4.44,14.57-2.67,5.73-5.01,11.65-7.56,17.43-27.89-15.81-55.57-11.66-81.5,5.38-5.97,3.92-10.46,14.7-20.51,9.64-15.05-7.58,13.62-32.84,20.18-37.84,6.34-4.83,10.73-6.33,17.83-9.17,30.05-12.05,40.08-8.28,70-2Z"/>
  <path class="st1" d="M1098.6,1332.43c-1-4.63,2.27-4.31,5.22-5.67,19.46-8.99,38.95-7.92,58.85-1.3,3.24,1.08,7.07-.35,5.92,4.98-29.92-6.28-39.95-10.05-70,2Z"/>
  <path class="st1" d="M1352.6,1480.43c5.2-.59,3.28,1.73,4,4-6.28.9-3.08-1.48-4-4Z"/>
  <path class="st0" d="M1788.6,1358.43c5.22-.11,9.82-3.19,16.9-1.92,10.14,1.82,34.23,26.55,30.95,36.67-2.86,8.84-16.1-2.65-21.38-4.22-10.49-3.11-29.39-3.32-40.47-2.53-2.69-12.98,10.57-17.6,14-28Z"/>
  <path class="st0" d="M1309.64,1602.38"/>
</svg>