<?xml version="1.0" encoding="UTF-8"?>
<svg id="_레이어_1" data-name="레이어_1" xmlns="http://www.w3.org/2000/svg" version="1.1" viewBox="0 0 1166 1129">
  <!-- Generator: Adobe Illustrator 29.8.3, SVG Export Plug-In . SVG Version: 2.1.1 Build 3)  -->
  <defs>
    <style>
      .st0 {
        fill: #e9da4b;
      }

      .st1 {
        fill: #353533;
      }
    </style>
  </defs>
  <path class="st1" d="M935.22,471.78c.65,1.13,3.31.12,3.83,4.67.79,6.9-.18,29.8-1.49,36.6-1.52,7.9-6.64,6.29-13.55,6.95.4,5.72,7.03,9.72,7.09,14.48-3.81,10.19,4.23,27.51-8.14,32.09l5.09,9.88-2.08,38.03c-.16,1.34-.79,2.36-2,3-3,1.56-15.42,2.67-20.18,3.82-8.92,2.15-29.8,9.87-37.29,9.79s-9.41-7.81-12.99-13.08c-9.19,10.78-22.06,14.11-35.94,11.93-10.55-1.65-21.27-19.76-25.06-28.95-2.66,8.27,2,18.65-6.95,23.06-3.15,1.56-18.86,6.72-22.06,6.97-9.16.7-6.51-4.64-12.14-8.91-12.15,10.66-18.73,1.72-29.34-5.11.13,3.71.65,5.66-2.65,7.86-1.51,1.01-26.24,8.43-29.1,8.9-6.1.99-11.2,1.04-12.76-5.75-.99,1.29-2.31,1.78-3.83,2.17-6.95,1.81-27.13,6.66-33.23,5.88-5.96-.77-4.12-4.22-5.72-6.78-.48-.77-2.86-1.28-3.8-2.7-1.93-2.89.67-7.18-2.41-7.57-11.24,11.36-22.4,18.05-39.04,16.02-2.74-.34-12.2-4.95-13.8-6.95-1.1-1.38-.54-2.86-1.22-4-.85-1.45-2.78-2.19-3.26-3.77-.76-2.53-.24-6.69.25-9.35,1.31-7.11,9.34-21.3,9.54-26.57.11-3.05-10.88-12.47-11.9-19.97-1.55-11.36.75-24.34,4.89-34.93,6.78-17.35,34.86-59.74,54.48-61.52,8.36-.76,12.7-.6,17.97,6.11,9.4,11.97,10.67,26.61,9.61,41.47-.94,13.17-3.54,13.24-15.04,18.48l9.5,12.98c3.4-10.55,6.23-21.38,8.81-32.18,2.25-9.41,3.74-24.85,6.94-33.06.79-2.03,3.19-4.09,5.26-4.74,12.98-1.13,27.62-7.52,40.08-8.91,3.3-.37,9.01-.85,11.49,1.3.97,3.39,5.7,8.23,5.98,11.07.85,8.5-3.51,26.24-4.07,36.03-.08,1.39-.35,10.5.49,10.5l7.69-48.32c.53-1.82,1.83-2.07,3.34-2.66,4.22-1.64,21.59-5.75,25.99-6.04,5.69-.37,7.25.81,9.06,6.09,8.3-.31,23.33-7.47,30.89-6.06,4.79.89,3.72,5.27,5.48,7.57.69.91,2.54,1.1,2.85,1.6,1.33,2.19-.93,7.34.7,9.8,6.19-7.98,16.44-20.46,27.09-21.91,13.34-1.81,26.85.11,32.43,13.9,1.75-.13.75-2.71,1.91-4.57.73-1.16,2.28-2.01,3.6-2.4,10.74-.44,48.54-12.47,56.48-8.53,2.87,1.42,1.34,4.77,2.22,6.29ZM929,471l-50.94,9.05-18.05,138.94c18.39-5.23,36.73-11.6,56-12.99l1.99-36-27.99,4.99,1.97-15.52,26.92-6.58,1.1-25.9c-1.45-1.42-18.69,4.84-22.51,5.02-2.18.1-1.64-.72-1.48-2.49.53-5.9,2.95-12.26,3.15-18.35l27.82-4.19,2.01-35.99ZM852.02,517.98c.94.18,1.25.11,1.99-.47,1.02-.79,14.41-19.46,15.07-20.93,3.37-7.61-9.17-21.94-16.81-23.35-19.58-3.61-33.4,15.08-41.44,30.1-14.21,26.52-23.27,68.93-11.01,97.35,12.7,29.43,38.4,17.53,52-3.44l-3.82-22.24c-2.39-.54-1.62.42-2.23,1.31-4.98,7.28-12.56,18.3-22.28,9.71-13.64-12.07.61-51.48,10.1-63.93,4.6-6.03,13.36-13.14,18.44-4.11ZM622.01,527c.82.85,20.24-9.22,21.39-10.1.88-.68,1.6-1.1,1.61-2.39,1.74-16.36,2.41-52.29-23.75-36.75-20.54,12.2-49.47,59.39-46.17,83.65,3.19,23.42,35.8.92,42.96,8.03,6.54,6.49-8.45,15.77-14.04,17.06-6.92,1.6-9.85-.65-16-2.51l-11.03,31.59c-.31,5.12,11.87,7.11,16.05,6.93,25.35-1.08,56.72-48.53,49.91-72.96-5.63-20.16-29-3.69-37.94-8.06-7.58-3.7,5.79-27.23,15.05-22.04l1.96,7.54ZM718.99,474l-46.12,9.58-35.88,139.42,30.83-5.15,3.65-16.85c.67-1,7.48-2.76,9.07-2.94,1.7-.2,1.51-.17,1.48,1.48-.06,3.14-3.04,20.5-2.04,21.49l31.52-8.99c.52-46.14,1.68-92.28,7.48-138.02ZM764.99,476l-26.33,7.2-18.67,119.28c.27,2.93,13.27,10.27,16.37,12.41l22.63-16.9-2.98,21c3.84-1.54,23.98-7.12,24.83-9.66.94-2.8.7-13.76,1.17-17.83,4.39-38.3,11.09-76.37,18.95-114.07.06-1.56.4-1.64-1.3-1.3-8.18,1.66-16.3,4.26-24.44,6.08l-10.66,75.84-15.56,11.93,15.99-93.99ZM858.99,583l7-57.99c-2.23.77-2.3,4.08-4.67,4.81-10.09,3.09-9-7.75-17.29,1.71-7.33,8.36-18.09,37.1-15.99,47.95s12.87-8.3,13.98-8.97c1.81-1.08,7.75-.91,9.57.41.41.29,5.46,7.33,5.9,8.1.86,1.5-.33,4.1,1.51,3.97ZM630.5,617v1c.65-.33.65-.67,0-1Z"/>
  <path class="st1" d="M552.27,484.73c.45.7,2.2.87,2.8,1.66,1.72,2.27.39,28.35-.08,33.09-.99,10-5.02,8.98-13.99,9.52,2.67,1.77,2.37,5.31,3.27,6.72s3.13.15,3.78,4.72c1.11,7.86-2.33,18.49-1.24,26.86l-5.7,4.16,4.95,8.99c-1.94,10.88-.12,23.38-2.08,34.02-.21,1.14-.49,1.84-1.4,2.6-2.03,1.68-17.26,3.59-21.39,4.61-8.11,1.99-23.72,7.98-30.73,8.35-8.51.44-7.03-7.41-9.93-7.72-6.72,1.29-23.61,10.23-29.54,7.2-2.34-.89-1.45-4.19-2.19-5.28-3.02-4.46-23.19,8.67-30.78,5.25-1.34-.6-6.94-9.42-7.09-10.95l11.08-86.53-6.43-.06-12.79,88.35c-.44,1.33-1.37,1.85-2.5,2.5-3.53,2.02-23.15,7.9-26.75,7.19-4.37-.86-2.62-3.84-3.8-5.71-.55-.87-2.89-.82-3.55-2.95-.96-3.09.25-8.37-.17-11.8l9.98-70.51c-2.2-.16-5,.53-7.02-.49-.45-.23-5.64-7.74-5.78-8.22-1.2-3.97-1.75-29.89-1.26-34.86.54-5.4,1.93-5.13,6.84-6.16,18.29-3.86,38.32-4.42,56.74-8.37,5.09.04,5.87,2.4,5.48,7.1,6.84.91,26.6-7.33,31.61-3.11,1.44,1.22,1.08,4.11,1.93,4.13,7.66-1.27,22.58-7.03,29.77-4.84,2.35.72,2.47,3.79,3.15,3.76.5-.02,2.8-1.39,4.31-1.68,7.72-1.49,43.61-9.14,48.24-6.78,2.4,1.23,1.41,3.92,2.26,5.25ZM546.99,484l-46.57,8.93-16.42,126.07,50.98-12.01,1.01-31.99-24.49,4.02.61-13.89c3.83-2.06,24.8-4.97,25.74-7.76l1.13-22.36c-1.21-1.22-17.36,4.58-20.56,4.95-2.31.27-1.59-1.63-1.42-3.43.51-5.39,2.21-11.06,3.08-16.42l24.9-3.1,1.99-33ZM426,487l-59,8,2.06,32.97,13.94-2.97-11.98,94,22.86-7.13,12.32-89.18c.28-1.35,1.13-1.49,2.3-1.7,4.75-.85,11.57-.67,16.51-.99l.99-33.01ZM457.99,489l-24.91,5.08-16.08,123.92,22.95-6.05,4.21-37.79,11.84-2.16-5.99,46.99,23.02-7.7c3.98-41.13,10.8-81.87,18.96-122.3l-25.53,5.96-7.12,50.81-10.83,4.23,9.48-61.01Z"/>
  <path class="st1" d="M265.01,490c6.06-1.37,27.05-8.91,31.6-5.11,1.49,1.24,1.16,3.24,1.6,4.88,3.26,2.52,4.63-.66,7.55-1.52,5.12-1.51,25.17-6.84,28.33-2.83.86,1.1.85,3.08,1.51,4.49.46.99,1.86,1.66,2.2,2.8,2.04,6.86-8.88,56.49-10.63,67.96-3,19.71-5.06,39.55-7.69,59.31-1.32,2.94-20.31,9.71-23.97,10.03-10.81.95-5.45-3.77-12-7.98-2.07,1.46-1.14,4-2.03,5.95-1.74,3.8-22.5,10.6-27.01,10.08-5.02-.58-3.19-2.98-4.79-4.72-2.78-3.02-6.09-2.71-4.68-9.33-6.72.35-17.59,8.37-23.98,5.48-2.45-1.11-4.13-7.27-6.81-9.18,3.42-42.55,11.21-84.88,16.24-127.36,1.61-5.02,18.79-8.48,24.06-8.93s11.23-1.01,10.51,5.99ZM260,489.01l-23.86,5.13-17.13,124.86,21.89-7.1c3.95-41.31,10.58-82.34,19.1-122.89ZM292.99,489c-.79-.83-21.3,4.65-22.32,5.18-.72.37-1.32.61-1.49,1.51l-18.18,131.31,21.54-7.95,4.47-39.04,11,39,22.86-8.63,18.12-121.37-23.02,5.7-9.47,67.31c-5.34-23.82-2.94-48.7-3.51-73.01Z"/>
  <path class="st0" d="M718.99,474c-5.8,45.74-6.96,91.88-7.48,138.02l-31.52,8.99c-1-.99,1.98-18.34,2.04-21.49.03-1.64.22-1.68-1.48-1.48-1.59.19-8.4,1.95-9.07,2.94l-3.65,16.85-30.83,5.15,35.88-139.42,46.12-9.58ZM684.88,571.88l5.11-62.87c-1.58-.13-1.56,2.49-1.86,3.62-5.15,19.97-7.03,41.22-11.13,61.37l7.87-2.12Z"/>
  <path class="st0" d="M764.99,476l-15.99,93.99,15.56-11.93,10.66-75.84c8.14-1.82,16.26-4.42,24.44-6.08,1.7-.35,1.36-.27,1.3,1.3-7.86,37.7-14.56,75.77-18.95,114.07-.47,4.07-.22,15.03-1.17,17.83-.86,2.53-20.99,8.11-24.83,9.66l2.98-21-22.63,16.9c-3.1-2.14-16.09-9.48-16.37-12.41l18.67-119.28,26.33-7.2Z"/>
  <path class="st0" d="M622.01,527l-1.96-7.54c-9.26-5.2-22.63,18.34-15.05,22.04,8.95,4.37,32.32-12.1,37.94,8.06,6.82,24.44-24.56,71.88-49.91,72.96-4.17.18-16.36-1.81-16.05-6.93l11.03-31.59c6.16,1.86,9.08,4.11,16,2.51,5.58-1.29,20.58-10.57,14.04-17.06-7.17-7.12-39.77,15.39-42.96-8.03-3.31-24.26,25.63-71.46,46.17-83.65,26.16-15.54,25.49,20.39,23.75,36.75,0,1.28-.73,1.7-1.61,2.39-1.15.89-20.57,10.95-21.39,10.1Z"/>
  <path class="st0" d="M929,471l-2.01,35.99-27.82,4.19c-.21,6.09-2.62,12.45-3.15,18.35-.16,1.77-.69,2.59,1.48,2.49,3.81-.17,21.05-6.44,22.51-5.02l-1.1,25.9-26.92,6.58-1.97,15.52,27.99-4.99-1.99,36c-19.27,1.4-37.61,7.77-56,12.99l18.05-138.94,50.94-9.05Z"/>
  <path class="st0" d="M852.02,517.98c-5.08-9.03-13.84-1.93-18.44,4.11-9.49,12.45-23.74,51.86-10.1,63.93,9.72,8.59,17.3-2.43,22.28-9.71.61-.89-.17-1.85,2.23-1.31l3.82,22.24c-13.6,20.97-39.3,32.88-52,3.44-12.27-28.42-3.2-70.83,11.01-97.35,8.04-15.01,21.86-33.71,41.44-30.1,7.64,1.41,20.18,15.73,16.81,23.35-.65,1.48-14.05,20.14-15.07,20.93-.74.58-1.05.65-1.99.47Z"/>
  <path class="st0" d="M457.99,489l-9.48,61.01,10.83-4.23,7.12-50.81,25.53-5.96c-8.17,40.43-14.98,81.17-18.96,122.3l-23.02,7.7,5.99-46.99-11.84,2.16-4.21,37.79-22.95,6.05,16.08-123.92,24.91-5.08Z"/>
  <path class="st0" d="M546.99,484l-1.99,33-24.9,3.1c-.88,5.36-2.58,11.03-3.08,16.42-.17,1.8-.89,3.7,1.42,3.43,3.2-.37,19.35-6.17,20.56-4.95l-1.13,22.36c-.94,2.8-21.91,5.71-25.74,7.76l-.61,13.89,24.49-4.02-1.01,31.99-50.98,12.01,16.42-126.07,46.57-8.93Z"/>
  <path class="st0" d="M426,487l-.99,33.01c-4.94.32-11.77.13-16.51.99-1.17.21-2.02.34-2.3,1.7l-12.32,89.18-22.86,7.13,11.98-94-13.94,2.97-2.06-32.97,59-8Z"/>
  <path class="st0" d="M292.99,489c.56,24.31-1.83,49.18,3.51,73.01l9.47-67.31,23.02-5.7-18.12,121.37-22.86,8.63-11-39-4.47,39.04-21.54,7.95,18.18-131.31c.17-.9.78-1.13,1.49-1.51,1.02-.53,21.53-6.01,22.32-5.18Z"/>
  <path class="st0" d="M260,489.01c-8.52,40.55-15.15,81.58-19.1,122.89l-21.89,7.1,17.13-124.86,23.86-5.13Z"/>
  <path class="st1" d="M684.88,571.88l-7.87,2.12c4.1-20.15,5.98-41.4,11.13-61.37.29-1.14.27-3.75,1.86-3.62l-5.11,62.87Z"/>
</svg>