<?xml version="1.0" encoding="UTF-8"?>
<svg id="_레이어_1" data-name="레이어_1" xmlns="http://www.w3.org/2000/svg" version="1.1" viewBox="0 0 1166 1129">
  <!-- Generator: Adobe Illustrator 29.8.3, SVG Export Plug-In . SVG Version: 2.1.1 Build 3)  -->
  <defs>
    <style>
      .st0 {
        fill: #333332;
      }

      .st1 {
        fill: #eada4b;
      }
    </style>
  </defs>
  <path class="st0" d="M404.33,514.67c2.58,2.59,4.12,1.89,4.18,7.35,16.69-1.81,34.54-6.52,51.11-7.88,8.61-.71,15.62,1.11,15.87,10.88,2.84-14.81,11.16-11.73,22.99-12.02,1.94-.05,3.92-1.08,6.02-1.08,5.17-.02,4.85,3.82,9,6.07,4.33,8.9-10.54,30.97-10.01,41.04,7.13-13.22,26.43-42.73,42.09-44.92,14.78-2.07,24.42,7.45,26.13,21.69.71,5.88,1.1,20.05.22,25.66-1.07,6.84-11.99,8.62-16.94,12.05,6.11,2.37,9.49,10.46,15.99,9.51l-3.01,1c7.5,20.07-1.3,42.34-14.48,58-11.63,13.82-27.72,27.68-47.06,20.03-2.68-1.06-9.92-6.7-10.93-9.06-3.25-7.58,8.27-27.82,9.56-36.34-13.08-8.6-13.62-21.17-11.09-35.65-6.84,1.09-14.67,3.51-21.5,3.98-16.57,1.13-14.46-11.13-10.49-22.97-2.09.19-5.79-1.05-6.81,1.68-1.9,5.12-3.03,16.92-4.02,22.98-2.43,14.82-4.38,29.92-6.16,44.84-.5,4.17-.16,15.43-1.52,18.48-1.89,4.23-26.83,11.81-31.51,9.52-1.06-.52-3.2-4.85-5.48-5.48-.62-26.76,8.4-53.15,7.52-80.02l1.98,1.99.02-6c-8.24,1.69-10.35-6.29-13.57-11.89l-21.43,2.9c-.03,1.7-.57,2.17,1.41,1.93,6.69-.83,12.43-2.81,16.64,4.51,3.4,5.91-.98,22.52-.25,29.86-1.4,2.97-4.8,3.89-7.81,3.7,1.25,4.34,6.89,4.87,7.05,9.44-1.08,9.18-.25,18.93-1.07,28.03-.21,2.39-.87,6.98-2.42,8.58-1.99,2.05-15.39,3.43-19.57,4.43-7.28,1.73-31.05,9.79-36.27,8.29-3.56-1.02-7.89-7.16-8.26-10.83-8.37.93-16.56,3.21-24.67,5.33-6.68,1.75-16.7,7.03-23.27,5.7-.96-.19-7.09-5.86-7.34-6.66-.61-2-.31-6.49-.17-8.81,2.4-38.22,13.57-79.14,16.24-117.76.32-1.35.78-3.32,1.68-4.32,1.61-1.78,23.25-6.67,26.57-6.53,5.41.22,3.63,2.04,5.81,3.78,1.05.84,3.25.5,4.2,2.29,3.29,6.23-14.24,69.01-12.51,81.03,7.3-.72,14.6-3.46,19.99,3l10.94-84.57c.99-1.4,2.09-1.84,3.64-2.36,7.4-2.5,35.82-7.51,43.95-8.06,6.91-.47,5.15-.01,8.81,3.65ZM398.99,516l-46.57,8.93-16.42,126.07,50.98-12.01,1.01-31.99-24.49,4.02.61-13.89c3.83-2.06,24.8-4.97,25.74-7.76l1.13-22.36c-1.21-1.22-17.36,4.58-20.56,4.95-2.31.27-1.59-1.63-1.42-3.43.51-5.39,2.21-11.06,3.08-16.42l24.9-3.1,1.99-33ZM505,517.01c-4.15,1.83-19.68-.22-21.51,1.98l-19.48,57.01,23.07-4.65,17.92-54.34ZM466,519l-59,8,2.1,32.92,13.9-2.91-11.99,93.99,22.81-7.18,12.37-89.12c.28-1.36,1.12-1.49,2.3-1.7,4.75-.85,11.57-.67,16.51-.99l.99-33.01ZM561.84,557.85c3.35-19.74.97-54.01-26.31-31.82-15.51,12.62-40.08,50.98-37.44,71.39,2.94,22.69,31.9,2.6,39.49,8.49,5.01,6.59-7.25,14.03-12.77,15.41-6.86,1.71-8.71-.63-14.81-2.31l-9.86,28.76c-.64,5.94,14.03,6.74,18.26,6.15,11.5-1.59,27.23-19.34,33.01-28.99,6.13-10.24,14.17-30.12,7.43-41.27-6.96-11.51-24.26-.49-32.15-2.85-8.73-2.61,4.26-25.16,12.31-20.33,2.66,1.6.79,7.2,3.44,6.49l19.39-9.12ZM319.99,521l-22.26,4.99-1.29,1.92-16.44,123.09c15.68-5.03,31.4-10.41,47.94-12.05l2.05-32.95-24.99,4.99,14.99-89.99Z"/>
  <path class="st0" d="M775,561c3.2.55,1.48-1.08,1.97-2.48,6.34-18.01,14.46-36.58,21.34-53.67,6.58-16.37,12.94-36.17,20.33-51.71,4.04-8.5,7.76-8.14,16.52-5.8,5.86,1.56,34.95,12.46,38.4,15.6,1.26,1.15,7.09,8.88,7.16,10.33.33,6.66-8.18,16.3-11.73,22.22-13.28,22.12-26.5,43.93-37.85,67.15-3.1,6.33-9.43,25.43-14.6,28.42-.95.55-1.65,1.22-2.89.89-9.09-3-22.28-3.27-30.92-6.19-4.36-1.48-4.87-7.77-8.73-9.76l-2.01,16c6.38-.41,19.35-.25,24.92,2.58,4.94,2.51,15.98,16.1,15.98,21.8,0,2.8-1.57,11.74-2.36,14.67-5.78,21.27-45.06,35.31-58.46,13.6l-2.06-.63c-10.16,16.93-23.41,29.28-44.52,26.99-12.73-1.38-23.57-18.59-27.43-29.57-.44-1.24-.81-9.61-3.05-7.43-5.47,14.15-22.18,34.18-37.75,36.76-46.89,7.75-48.19-52.41-42.97-83.97,5.14-31.05,27.73-85.16,66.21-80.8,12.53,1.42,31.93,23.84,26.74,36.75-2.4,5.96-13.41,15.85-16.67,22.33-1.74,1.27-5.93,1.34-8.06.91s-2.8-2.38-4.23-2.81c-6.76-2.06-9.68,6.89-13.28,10.82l36.87-8.12c8.95-27.78,29.32-71.97,65.41-64.64,13.18,2.68,27.73,27.66,27.73,40.27v19.5ZM807.88,576.89c15.28-38.13,36.21-73.52,59.02-107.54.26-1.77-1.71-2.28-2.89-2.85-10.3-4.96-23.96-7.71-34.64-12.44l-2.47.54-45.86,115.96c-.23,2.21.18,1.1,1.43,1.48,2.9.88,24.32,5.56,25.41,4.86ZM734.74,506.24c-30.77,4.73-51.75,67.57-53.72,94.27-1.57,21.28,1.26,68.56,33.78,58.78,30.1-9.05,48.67-70.8,50.19-98.81,1.01-18.65-3.77-58.31-30.25-54.25ZM661.98,555.99c1.86-5.93,15.18-18.08,14.98-23.39-.24-6.3-8.4-17.3-14.41-19.65-18.56-7.24-35.26,12.33-43.72,26.38-15.98,26.52-26.46,66.42-18.54,96.88,9.25,35.58,38.53,28.62,56.53,4.1,13.95-19.01,22.47-44.78,23.18-68.32l-39.82,10.19-4.17,27.81,18.99-4.99c-3.3,27.93-36.65,36.83-32.87-.38,1.26-12.39,12.84-48.27,25.83-52.16,5.09-1.52,9.47-.83,12.57,3.53h1.46ZM756.18,636.82c.34.59,6.52,3.46,7.76,3.74,16.79,3.66,38.42-12.81,35.01-31.01-2.16-11.5-22.53-12.96-29.91-6-1.55,1.47-5.44,14.62-6.87,18.13-1.28,3.13-7.49,12.59-5.99,15.15ZM641,620.01c-5.4,1.34-4.85-4.27-8.99-5.01-.31,8.14,2.8,12.5,8.99,5.01Z"/>
  <path class="st1" d="M561.84,557.85l-19.39,9.12c-2.65.72-.78-4.89-3.44-6.49-8.05-4.83-21.04,17.72-12.31,20.33,7.89,2.36,25.19-8.66,32.15,2.85,6.74,11.15-1.3,31.03-7.43,41.27-5.78,9.65-21.51,27.4-33.01,28.99-4.23.59-18.91-.21-18.26-6.15l9.86-28.76c6.1,1.69,7.95,4.02,14.81,2.31,5.52-1.38,17.78-8.82,12.77-15.41-7.6-5.89-36.55,14.2-39.49-8.49-2.65-20.41,21.93-58.77,37.44-71.39,27.28-22.19,29.66,12.07,26.31,31.82Z"/>
  <path class="st1" d="M398.99,516l-1.99,33-24.9,3.1c-.88,5.36-2.58,11.03-3.08,16.42-.17,1.8-.89,3.7,1.42,3.43,3.2-.37,19.35-6.17,20.56-4.95l-1.13,22.36c-.94,2.8-21.91,5.71-25.74,7.76l-.61,13.89,24.49-4.02-1.01,31.99-50.98,12.01,16.42-126.07,46.57-8.93Z"/>
  <path class="st1" d="M466,519l-.99,33.01c-4.94.32-11.77.13-16.51.99-1.18.21-2.02.34-2.3,1.7l-12.37,89.12-22.81,7.18,11.99-93.99-13.9,2.91-2.1-32.92,59-8Z"/>
  <path class="st1" d="M319.99,521l-14.99,89.99,24.99-4.99-2.05,32.95c-16.54,1.63-32.26,7.02-47.94,12.05l16.44-123.09,1.29-1.92,22.26-4.99Z"/>
  <path class="st1" d="M505,517.01l-17.92,54.34-23.07,4.65,19.48-57.01c1.83-2.2,17.36-.15,21.51-1.98Z"/>
  <path class="st1" d="M734.74,506.24c26.48-4.07,31.26,35.59,30.25,54.25-1.52,28.01-20.09,89.76-50.19,98.81-32.52,9.78-35.35-37.5-33.78-58.78,1.97-26.7,22.95-89.55,53.72-94.27ZM730.74,554.21c-5.35,1.04-10.25,8.63-12.91,13.12-7.02,11.84-14.59,34.11-12.38,47.72,2.53,15.61,15.93,17.28,25.53,5.43,9.76-12.05,13.32-34.87,12.01-49.96-.64-7.37-2.64-18.18-12.24-16.3Z"/>
  <path class="st1" d="M661.98,555.99h-1.46c-3.1-4.37-7.48-5.06-12.57-3.54-12.99,3.89-24.58,39.77-25.83,52.16-3.77,37.21,29.58,28.31,32.87.38l-18.99,4.99,4.17-27.81,39.82-10.19c-.71,23.54-9.23,49.31-23.18,68.32-17.99,24.51-47.27,31.48-56.53-4.1-7.92-30.47,2.55-70.36,18.54-96.88,8.46-14.04,25.16-33.61,43.72-26.38,6.01,2.34,14.17,13.35,14.41,19.65.2,5.32-13.12,17.46-14.98,23.39Z"/>
  <path class="st1" d="M807.88,576.89c-1.09.7-22.51-3.98-25.41-4.86-1.25-.38-1.67.73-1.43-1.48l45.86-115.96,2.47-.54c10.68,4.73,24.34,7.48,34.64,12.44,1.18.57,3.16,1.08,2.89,2.85-22.82,34.02-43.75,69.42-59.02,107.54Z"/>
  <path class="st1" d="M756.18,636.82c-1.5-2.55,4.72-12.02,5.99-15.15,1.43-3.51,5.31-16.67,6.87-18.13,7.38-6.96,27.75-5.49,29.91,6,3.42,18.2-18.21,34.67-35.01,31.01-1.24-.27-7.42-3.15-7.76-3.74Z"/>
  <path class="st0" d="M730.74,554.21c9.6-1.87,11.6,8.93,12.24,16.3,1.31,15.09-2.25,37.91-12.01,49.96-9.6,11.85-23,10.18-25.53-5.43-2.21-13.61,5.36-35.88,12.38-47.72,2.66-4.49,7.56-12.08,12.91-13.12ZM717.03,621.98c8.11.09,13.63-11.7,16.01-18.44,4.27-12.08,4.98-25.98,2.95-38.54-6.7,5.82-11.88,16.2-15.01,24.48-3.63,9.6-7.63,22.72-3.95,32.51Z"/>
</svg>