<?xml version="1.0" encoding="UTF-8"?>
<svg id="_레이어_1" data-name="레이어_1" xmlns="http://www.w3.org/2000/svg" version="1.1" viewBox="0 0 3000 3000">
  <!-- Generator: Adobe Illustrator 29.8.3, SVG Export Plug-In . SVG Version: 2.1.1 Build 3)  -->
  <defs>
    <style>
      .st0 {
        fill: #eee5d9;
      }

      .st1 {
        fill: #fff;
      }

      .st2 {
        fill: #050403;
      }

      .st3 {
        fill: #fe8d13;
      }

      .st4 {
        fill: #504a44;
      }

      .st5 {
        fill: #d78845;
      }
    </style>
  </defs>
  <path class="st1" d="M1630.97,1494.45c-15.84-3.46-33.43-1.63-48.92-6.33-1.66-.5-2.68-1.58-3.16-2.84-3.61.14-7.22.18-10.83-.05-16.03-1.02-31.3-6.5-46.61-10.95-7.3-2.12-14.5-4.27-22.08-5.26-4.7-.61-9.44-.9-14.18-1.03-3.78,12.84-5.87,26.85-5.87,41.53,0,61.54,36.56,111.43,81.66,111.43s81.66-49.89,81.66-111.43c0-2.97-.09-5.91-.25-8.82-3.99-1.74-7.71-4-11.44-6.25Z"/>
  <path class="st1" d="M1334.14,1451.19c-11.79,7.68-26.11,9.86-38.36,16.65-12.68,7.02-23.58,16.86-36.45,23.59-10.16,5.31-21,6.66-32.06,8.96-12.79,2.65-23.55,12.04-37.07,11.41-1.4-.06-2.5-.56-3.3-1.28-1.32.72-2.64,1.37-3.97,1.89,1.12,60.21,37.24,108.55,81.64,108.55s81.66-49.89,81.66-111.43c0-21.39-4.42-41.37-12.08-58.34Z"/>
  <g>
    <path class="st4" d="M1926,1200c-.06,1.33.03,2.67,0,4-5.97,5.43-5.18,14.52-7.39,21.61-11.45,36.81-29.16,62.08-44.61,94.39-6.66,4.22-9.21,8.93-16.14,12.86-18.6,10.56-33.06,5.8-45.52-10.21-20.64-26.51-11.77-48.92-26.03-75.97-4.98-9.44-6.49-9.52-14.31-14.69-6.95-10.94-12.61-17.63-26-22-.6-.2-1.4.2-2,0,.97-4.42-2.17-4.46-5.17-5.72-11.89-5.02-18.25-5.65-30.83-6.28,18.31-28.43,45.55-49.16,73.34-67.66,10.33-6.88,22.04-15.83,33.31-20.69,16.99-7.33,44.36-8.22,54.26-23.74,8.21-12.85,3.83-19.1-.91-31.91,13.58,2.78,17.18,1.64,29.04,11.96,24.34,21.19,38.13,75.5,34.8,106.88-.81,7.67-5.46,18.48-5.84,27.16Z"/>
    <path class="st5" d="M1868,1054c4.74,12.8,9.11,19.06.91,31.91-9.91,15.52-37.28,16.41-54.26,23.74-11.26,4.86-22.97,13.81-33.31,20.69-27.79,18.5-55.03,39.24-73.34,67.66-19.15-.96-57.95,4.56-68,22-12.75,6.28-18.12,22.31-34.75,13.73-6.64-3.43-7.88-12.38-15.25-13.73-.26-.53.25-1.43,0-2-3.91-9.03-12.01-11.22-10-22,3.82-1.99,5.17-7,6-8,7.64-9.24,17.13-18.26,24.12-26.96,2.29-2.85,1.65-6.76,1.88-7.04.55-.66,5.5,2.1,4-4,.67-.15,1.46.2,2,0,11.18-4.06,13.03-15.47,14-16,.79-.43,4.25,1.01,5.62-.39s-.02-4.45.38-5.61c13.82-5.4,21.88-15.34,32-24,2.41-2.06,5.67-3.9,8-6,6.67-3.9,19.1-5.44,20-14,.61-.18,1.39.19,2,0,6.16-1.89,16.23-.35,16-8,.63-.16,1.37.16,2,0,56.79-14.54,86.71-34.96,150-22Z"/>
    <path class="st5" d="M1172,1082c2.07,1.21,3.93,2.79,6,4,3.58,6.39,12.35,14.31,17.97,19.03s12.52,8.83,18.03,12.97c.5.94-.11,3.8,1.88,7.05,3.1,5.05,16.13,18.86,22.12,20.95.78,1.25,1.25,2.73,2,4,5.34,9.05,3.65,8.03,12,16,.68.65,1.31,1.36,2,2,.68,10.65,22.31,25.95,15.12,36.14-2.27,3.22-9.72,1.11-13.65,2.33-6,1.86-22.45,8.79-28.22,11.78-3.7,1.91-7.02,2.63-7.25,7.75-2.64,1.18-4.43,3.25-6,4-3.69,1.76-13.32,4.14-16,6-13.46-19.88-23.13-42.68-36.35-62.65-9.11-13.77-24.32-32.48-36.71-43.29-14.81-12.93-37.28-19.92-44.94-38.06,1.41-9.41-.2-17.04,7.99-25.01,3.37-3.28,16.7-8.9,21.06-8.81,3.3.07,6.33,3.13,10.05,3.73,22.99,3.72,32.69,8.25,52.9,20.09Z"/>
    <path class="st5" d="M1316,1226c.46.16,5.86,3.01,8,4-.69,4.59,6.29,6.99,10,10,.75.61,2.45,2.62,4,4,1.36,4.08,3.02,10.97,8,10,.2.58-.18,1.36,0,2,2.25,7.98,3.68,16.08,6,24-.35,5.87.58,12.27,0,18-.46,4.56-1.55,10.59-2,16-6.55,1-5.13,7.51-8,14-1.1,2.48-2.73,5.45-4,8-5.63-.05-7.29,5.18-8,10-2.46,2.31-3.61,3.26-6,6-2,2.3-5.23,2.69-4,8-5.99,4.9-4.17,4.31-6,10-5.6-.43-5.71,5.49-6,10-5.44,4.33-3.51,3.92-6,8-1.06,1.75-2.02,1.37-4,6-.41.95.4,3.04,0,4-4.75-.23-5.18,2.84-7.08,5.93-3.88,6.34-11.33,21.11-12.92,28.07-.75,3.29-1.53,11.81-2,16-6.14-1.11-3.76,3.08-4,6.91-.62,9.81-2.82,20.09,0,29.09-6.94,2.5-25.01,13.18-28,14-3.98,1.09-5.53-.02-14,3.02-7.21,2.59-37.11,10.15-39.84,14.14-5.66,8.25.85,29.06,3.29,38.5.9,3.48-1.23,7.53,4.56,6.34.16,1.19-.3,3.72,0,4-.48,4.25-.25,4.48,4,4,.22,1.26-.31,2.96,0,4,1.46,4.88,3.44,9.24,8,12,.64,1.34,1.29,2.7,2,4,9.83,17.88,37.72,26.97,57.07,26.07,8.11-.38,25.93-8.36,29.99-4.13,7.19,21.03,14.8,42.35,20,63.99,2.62,10.89,5.32,23.05,6.93,34.07.43,2.92,1.85,6.37,2,8,3.35,35.36,1.71,98.13-8,132-.4,1.39-1.4,4.15-2,6-4.76,14.61-14.84,34-22,48-1.25,2.45-2.57,5.68-4,8s-4.39,4.04-4,8c-1.07,1.17-3.44,4.61-4,6-2.87.87-3.97,3.08-4,6-7.91,6.4-17.29,16.46-26,24-4.09,1.06-9.22.78-8,6-1.16.27-2.75-.22-4,0-35.88,6.42-43.85,3.59-76-10-.75-.32-1.48-1.1-4-2,.48-4.25.25-4.48-4-4-.73-.93-1.07-1.27-2-2,.16-3.96-1.95-6.16-6-6-2.35-6.45-3.02-7.74-8-14-4.2-13.83-9.27-30.42-8.11-45.11.85-10.68,7.52-22.51,10.11-32.89.28-1.13-.21-2.74,0-4,4.25.48,4.48.25,4-4,.27-.16-.2-1.34,0-2,5.03-1.14,4.59-5.78,6-8,2.41-3.79,3.84-5.72,6-10,1.52-3.02,2.46-4.03,4-8,.79-2.05,1.4-3.87,2-6,1.26-4.49,1.31-5.61,2-10,1.26-8.07,2.49-13.1,2-22,4.74-4.76,1.66-11.14,0-16-.66-1.94-.6-4.13-2-6,1.59-7.27-1.22-14.16-2-20-.6-4.47-1.2-7.7-2-12-1.68-9.1-1.56-20.64-8-28-.12-1.94.33-4.29,0-6-.56-2.88-3.44-7.4-6-8-1.1-15.75-10.14-30.92-14.92-46.08-20.67-65.46-26.89-128.54-23.08-195.92.11-1.99-.12-4.01,0-6,5.43,1.18,3.97-2.7,4.64-6.26,2.16-11.43,5.32-22.42,7.36-33.74.44-2.42,2.28-4.14,2-8l2-4c.3-.26-.17-2.81,0-4l28-54c2.41-2.39,2.96-5.01,4-8,3.67.71,4.63-.36,4-4,5.36-5.37,13.71-16.09,18-22,1.03-1.42,4.67-2.14,4-6,.95-.72,1.28-1.07,2-2,4.25.48,4.48.25,4-4,1.35-.64,2.66-.52,4-2,3.98-.04,6.22-1.98,6-6,5.88-4.62,10.63-8.97,16-14,5.65-.54,8.32-4.61,12-8,2.79-2.56,5.34-5.33,8-8l36-14c.66,0,1.34-.03,2,0,12.68.61,27.81,3.83,40,8ZM1334.68,1324.64c5.84-10.09,10.31-13.19,11.38-27.56,1.04-13.91-3.17-32.47-9.94-44.19-3.26-5.64-19.25-20.42-25.61-22.39-2.32-.72-24.13-6.13-25.45-6.16-20.39-.44-50.1,17.21-65.49,29.75-78.73,64.16-109.66,159.94-97.73,259.07,4.48,37.22,5.8,63.08,16.73,99.27,18.27,60.52,46.76,113.35,36.96,180.08-4.47,30.41-38.45,61.92-35.32,94.25,5.08,52.53,49.56,83.13,100.21,66.63,22.61-7.36,34.05-25.79,45.28-44.72,40.07-67.55,45.66-135.3,32.11-211.49-4.79-26.95-14.18-52.82-22.04-78.95-10.33-.27-19.22,5.81-30.45,5.6-20.03-.36-54.13-20.86-65.26-37.37s-17.28-36.3-20.16-55.38c-.88-5.8.99-22.66,7.32-24.89,3.76-1.32,9.5.86,13.55-.53,2.38-.81,2.23-4.31,4.87-5.58,11.44-5.49,23.79-7.27,34.94-10.55,3.11-.91,9.7-7.14,15.02-9.03,2.55-.91,8.04-.22,8.41-.55,1.13-1.03,1.23-24.48,2.49-30.5,6.26-29.7,22.34-56.11,38.71-81.29,9.92-15.25,20.39-27.9,29.47-43.57Z"/>
    <path class="st2" d="M1112,1432c-3.81,67.38,2.41,130.47,23.08,195.92,4.79,15.15,13.83,30.33,14.92,46.08-3.31-.78-7.79,1.83-10.72,1.37-15-2.37-27.73-10.23-41.28-15.37-.26-.53.53-2.09-.43-3.52-.78-1.17-9.13-6.18-11.57-6.48-.26-.55.26-1.47,0-2l-20-36c-.25-1.21.24-2.78,0-4-6.95-34.98-10.84-60.77-3.87-96.87,4.96-25.65,18.93-39.68,27.87-61.13.23-.56-.22-1.4,0-2,3.96.16,6.16-1.95,6-6,5.5-3.35,10.04-7.77,16-10Z"/>
    <path class="st5" d="M1528,1226c1.74.53,3.01,1.68,4,2,1.72,4,5.96,5.48,10,6,2.76,3.71,8.14,9.07,10,12,9.65,15.17,12.44,26.47,16,44,0,1.33.05,2.67,0,4-5.89,4.28-3.03,11.96-4.93,18.07-1.49,4.77-6.58,14.59-9.07,19.93-1.12,2.41-2.34,1.07-4,8-4.25-.48-4.48-.25-4,4-4.35,2.94-4.95,4.63-8,8-4.66,5.15-5.15,5.31-8,12-1.15,2.7-1.26,3.25-2,6-3.66-.7-4.63.37-4,4-2.06,1.67-5.06,11.95-6,14-7.07-.17-6.07,6.17-8,10-1.39,2.77-2.34,1.01-4,8-4.1-.57-4.58-.09-4,4-.5.39-3.39,10.05-4,12-5.32-1.15-3.9,2.67-4.97,5.92-2.47,7.47-3.87,14.34-5.03,22.08-2.38,15.92-2.39,31.66-2,48l6,40c-.03,1.33.02,2.67,0,4-.23,14.96,11.56,29.84,15.13,43.89.92,3.6-2.36,19.37,6.87,20.11.24,1.23-.25,2.79,0,4,1.44,6.84,3.77,16.86,8,22,0,1.94-.22,4.13,0,6,1.2,10.02,9.5,26.48,12.11,38.99.73,3.52-2.76,8.17,3.89,7.01.09,1.32-.1,2.68,0,4,.29,3.96-.25,8.03,0,12,.08,1.32-.14,2.69,0,4,.36,3.4,1.38,7.57,4,10-.38,8.42,1.8,16.28,2,22,.24,6.94-1.99,15.94,0,24-23.12.03-48.18,19.2-49.87,43.29-1.45,20.68,17.09,42.28,35.87,48.71-.25,1.89.37,4.29,0,6-.09.44-1.46,2.48-2,4-3.25,9.24-7.29,16.06-10,26-.3,1.11.25,2.78,0,4-5.18-1.22-4.97,3.91-6,8-.16.63.14,1.36,0,2-4.25-.48-4.48-.25-4,4-.49.68-5.05,11.97-6,14-5.63-.05-7.29,5.18-8,10-6.66,6.65-13.44,13.28-20,20-4.82.71-10.05,2.37-10,8-1.17.29-2.89-.31-4,0-9.23,2.58-19.13,4.23-28,8-2.66.07-5.34-.01-8,0-13.04-3.74-25.64-6.24-38-12-2.23-1.71-7.33-4.5-10-6,.12-5.09-6.57-6.72-10-10-3.41-7.61-5.23-12.57-12-18,.25-4.36,0-9.39-4-12-.18-2.65.15-5.35,0-8-.73-13.38-.81-18.56,0-32,.15-2.55.18-5.45,0-8l2-4c.45-.48-.3-4.39,0-6,3.81.68,4.66-.21,4-4,1.98-1.68,1.31-6.17,2-8,5.82.59,8.19-9.16,10-14,.22-.58-.2-1.4,0-2,5.76,1.26,5.46-5.71,6-10,6.53-8.3,6.23-9.11,6-20,5.49-16.07,7.04-40.65,0-56-.11-5.19,1.08-14.58.05-18.61-.53-2.07-4.74-1.85-5.74-4.67-1.2-3.36.28-7.61-.3-10.73-6.42-34.07-24.18-68.58-34-102,.02-1.33-.02-2.67,0-4,.11-8.95-5.54-16.24-6.03-25.08-.14-2.54,1.26-25.79,2.03-26.92.12-.17,3.36.86,3.98-1.36,7.66-27.43-4.62-58.1-15.98-82.64.44-3.01-.15-6.77,0-10,7.03-6.21,3.06-17.61,4-26,1.44-1.94,1.27-4.17,2-6,7.52-18.95,10.6-41.62,18-62,.37-1.02,1.39-2.39,2-4,.8-2.09,2.74-3.22,4-8,.29-1.1-.2-2.73,0-4,4.25.48,4.48.25,4-4,.31-.29-.18-2.8,0-4,3.63.71,4.63-.4,4-4,2.34-1.66,1.48-4.12,2-6,3.63.71,4.63-.4,4-4,2.34-1.66,1.48-4.12,2-6,3.57.74,4.54-.5,4-4,3.78-2.06,20.62-25.52,25.91-31.09,7.65-8.05,15.98-13.31,24.09-22.91,6.08,1.52,3.37-3.43,4-4,2.06-1.87,11.62-2.15,10-8,2.88-1.37,3.47.06,6-4,3.49.55,4.73-.44,4-4,1.63-.5,5.06-.86,6-2,2.86-.15,5.14-1.13,6-4,.91-.28,2.32-1.45,4-2,3.74-1.22,7.41-2.98,11.17-3.89,4.96-1.19,10.2,2.58,8.83-4.11.66-.03,1.34,0,2,0,15.98-.05,26.92,3.43,42,8ZM1494.65,1579.45c-11.66-35.78-18.09-87.91-14.4-126.2,2.58-26.83,17.17-50.72,30.92-73.08,12.3-20,37.42-47.58,44.8-67.2,6.85-18.23,4.58-41.69-5.57-58.35-11.72-19.25-28.59-26.59-49.49-30.51-17.98-3.37-54.58,18.56-68.93,30.87-27.91,23.95-52.17,51.9-69.05,84.95-14.6,28.59-36.8,94.15-30.89,125.04.72,3.78,11.26,20.73,13.82,28.18,1.96,5.69,1.04,10.99,2.24,15.43.48,1.78,3.59.66,4.07,4.3s.57,18.53-.21,21.76c-.35,1.47-3.41,1.16-3.86,2.81-1.06,3.85-.2,8.91-1.76,13.9-1.58,5.07-8.52,17.47-8.04,21.15s5.36,10.98,6.66,15.56c6.72,23.67,15.18,46.5,22.46,69.54,15.17,48.04,32.46,100.15,16.72,149.54-6.54,20.53-26.25,42.85-29.67,64.36-1.96,12.33,2.53,37.7,8.02,49.04,20.35,42.02,84.38,49.42,116.51,17.46,12.96-12.89,32.66-48.91,39.82-66.18,7.5-18.1,2.15-13.27-7.76-21.86-11.47-9.95-23.92-25.23-25.05-41.1-.08-1.09,3.99-19.52,4.55-21.3,7.18-22.84,28.31-26.59,47.54-34.86,2.52-10.39-3.22-15.66-3.98-21.79-8.21-65.52-20.29-92.65-39.45-151.45Z"/>
    <path class="st4" d="M1198,1236c-5.53,3.83-16.24,18.18-20,24-6.04,4.08-12.07,6.34-12,16-.62.69-1.35,1.32-2,2-13.05,13.69-6.82,23.36-26,12-21.31-33.67-35.67-80.55-45.82-119.18-4.26-16.19-5.11-41.58-12.18-56.82-.62-1.33-.62-2.83-2-4-1.62-6.71,1.22-12.8,2-18,7.66,18.14,30.13,25.13,44.94,38.06,12.38,10.81,27.6,29.53,36.71,43.29,13.22,19.97,22.9,42.76,36.35,62.65Z"/>
    <path class="st5" d="M1758,1238c.3.18-.3,1.8,0,2,.17,2.9,1.15,5.05,4,6,.33.85,2.97,2.93,4,4,11.58,19.97,14,44.89,5.55,66.56-2.39,6.14-8.05,10.21-7.55,17.44-1.98,1.6-2.72,2.83-4,4-5.7,5.2-6.44,4.28-10,12-1.31,2.85-1.25,3.42-2,6-5.08-1.45-3.52,3.51-4,4-.44.45-5.3-1-4,4-2.66,2.95-2.89,6.33-4,8-3.92,5.88-5.27,6.56-8,14-.21.57.19,1.37,0,2-5.99-2.06-4.68,6.94-6,8-1.08.86-5.29-2.32-4,4-.44.39.39,2.94,0,4-5.5-.62-8.54,9.14-10,14-.57,1.89-2.04,3.55-2,6l-2,4c-1.78,1.52-1.58,5.78-2,8-.24,1.25.31,2.94,0,4-3.06,10.28-10.71,18.14-15.42,27.58-25.86,51.82-23.61,131.03,13.43,177.41,4.65,5.82,25.16,20.9,26.04,26.1-8.72,41.65-20.71,83.33-35.4,122.98l-67.61-4.11c-11.31-8.33-19.23-17.08-33.04-21.96,3.87-1.91,3.8-2.8,4.14-6.81,1.15-13.62-1.77-24.3-4.14-37.19-.57-3.11,1.48-10.15-2-12l-2-4c.21-2.82.4-7.36,0-10-.79-5.24-3.88-7.92-5.06-11.95-2.52-8.57-6.43-28.69-12.94-34.05-.7-.58-1.2-1.52-2-2,1.59-12.31-7.39-21.63-8.01-33.95,15.2-2.61,28.67-2.74,42.65-10.4,8.37-4.59,25.88-20.2,27.36-29.64.2-1.27-.15-2.71,0-4,5.53,1.19,3.75-2.87,4.94-5.96,7.43-19.27,10.98-31.72,9.14-53.12-1.2-13.94-4.55-11.61-16.08-14.92-20.46-5.86-53.53-14.92-74.01-17.18-3.77-.42-6.46-.34-9.99,1.18-.13-.48-3.38-2.08-4.32-4.82-5.01-14.65,1.67-37.54,2.32-53.18.11-2.64.09-5.36,0-8,2.47-2.32,3.84-6.77,4-10,.06-1.33-.05-2.67,0-4,4.09-20.69,14.25-38.77,22-58,.3-.75-.41-2.75.15-4.37.69-1.99,4.11-1.32,3.85-5.63l2-4c2.27-1.86,1.55-3.39,2-4,1.87-2.56,4.21-4.05,4-8,3.79-3.8,7.74-9.17,10-14,2.87-.87,3.97-3.08,4-6,6.32-4.43,13.78-15.57,20-22,1.95-2.01,4-3.91,6-6,5.29-5.53,11.26-8.97,16-16,4.25.48,4.48.25,4-4,1.23-.26,3.06.35,4,0,3.51-1.32,9.14-7.1,12-10,2.11-2.13,3.91-3.45,6-6,8.35.59,7.49-5.48,8-6,2.13-2.16,42.08-10.24,46.9-9.93,8.79.57,34.51,14.67,43.1,19.93ZM1683.74,1463.72c1.09-1.83-.33-7,.67-10.29,1.08-3.58,8.92-11.2,10.99-17.04,7.72-21.8,7.74-21.1,19.34-40.66,14.54-24.54,27.2-42.26,42.91-65.09,17.49-25.42,17.24-56.02.03-81.3-3.42-5.03-16.36-16.39-21.74-18.26-4.53-1.57-8.65-.45-12.47-1.53s-7.63-4.71-10.88-5.16c-2.58-.36-28.82,4.97-33.11,6.08-5.34,1.37-38.24,26.11-44.52,31.48-52.21,44.6-80.13,107.46-92.49,173.51-1.99,10.62.48,23.6-.45,34.53,12.69,2.41,26.24,3.4,38.77,6.23,14.5,3.28,40.12,9.35,53.28,14.72,2.25.92,13.7,13.48,13.9,14.46.84,4.16-.68,9.09.13,13.52.69,3.82,5.14,7,4.06,11.78-.43,1.89-4.87,1.71-5.85,4.54-1.69,4.84.46,13.69-.4,19.66-2.41,16.79-26.45,44.92-40.04,53.97-12.31,8.2-24.4,15.45-39.85,13.14l6.44,26.54c16.46,31.2,23.55,69.61,29.3,104.7.63,3.83.15,7.69.11,11.53,9.14,2.02,14.55,13.54,23.23,15.13,9.22,1.69,25.35.4,35.54.88,6.51.31,22.69,5,26.88.72,3.4-3.48,1.65-11.4,3.06-15.94,6.19-19.93,12.84-40.03,18.47-59.53,2.04-7.09,8.4-30.54,6.03-35.95-1.41-3.21-12.23-10.36-15.73-14.34-4.27-4.86-11.13-13.29-14.59-18.48-3.7-5.55-16.27-29.93-16.84-34.36-.47-3.67,1.91-7.36,1.58-11.39-.62-7.65-4.71-15-5.51-22.51-2.27-21.37,1.38-40.19,3.91-60.13,1.21-9.5-2.73-20.06,4.07-28.01,1.64-1.91,5.83-2.42,6.19-4.23.63-3.19-2.92-9.65-2.17-10.63.37-.48,6.95-.96,7.75-2.3Z"/>
    <path class="st2" d="M1272,1484c5.93-2.13,38.48-13.57,41.43-13.55,4.52.03,9.61,8.11,11.04,12.07,9.02,24.89,10.29,60.91-5.68,83.26-3.29,4.61-5.37,5.08-8.79,10.21-4.01,1.63-8.06,2.62-12,4-1.63.57-3.21-.87-4,2-5.93-.52-17.56-.46-22.62-2.38-3.54-1.35-8.18-12.14-15.38-11.62-.55-2.06-1.67-3.06-2-4-4.8-13.74-12.48-28.71-14.03-43.13-.55-5.1,7.17-15.28,4.03-22.87,2.99-.82,21.06-11.5,28-14Z"/>
    <path class="st2" d="M1626,1498c0,4.66,0,9.34,0,14,0,2,.03,4,0,6-.19,12.07-1.49,23.04-4.42,34.58-.26,1.02-6.97,12.71-7.58,13.42-.22.26-3.7,3.72-4,4-.61.57-12.68,9.25-13.47,9.52-19.7,6.85-39.93-2.61-51.3-18.83-.68-.97-3.16-.55-3.23-.7-3.08-6.17-1.76-18.39-2.6-22.74-1.87-9.72-8.6-14.3-4.51-27.37.84-2.69,4.28-4.99,4.74-7.34.56-2.88-1.58-5.54-1.39-7.64.36-3.98,5.29-6.98,3.76-12.91,3.53-1.51,6.23-1.59,9.99-1.18,20.48,2.26,53.55,11.32,74.01,17.18Z"/>
    <path class="st0" d="M1702,1436c9.23-2.89,13.46-12.34,21.5-17.5,43.47-27.96,91.85-19.67,127.54,15.41,46.55,45.75,53.76,118.8,31.74,177.87-8.44,22.63-29.67,48.37-49.02,60.98-8.64,5.63-27.58,14.98-37.29,16.82-2.95.56-7.89-2.2-8.45-1.57-.45.5.55,4.81-.13,6.86-15.94,48.08-28.61,103.12-40.06,153.96-4.01,17.8-38.26,84.04-51.78,96.22-46.98,42.33-113.9,25.34-137.43-32.66-6.95-17.14-5.76-33.16-.63-50.36l-27.99-4.02c.37-1.71-.25-4.11,0-6,5.95,2.04,28.11,7.15,34,8-3.72,7.22-1.66,11.34-2.03,16.97-.24,3.62-2.08,7.01-2.07,10.12.25,71.52,91.4,101,138.03,47.84,13.63-15.54,38.19-64.94,43.08-84.94.76-3.11,2.83-7.92-1.01-9.99,5.82-8.96,4.53-16.76,9.39-25.61l35.64-128.36c16.82-5.27,31.74-7.24,46.83-17.17,65.22-42.89,73.86-151.91,31.77-213.49-33.59-49.15-92.01-64.27-142.29-29.03-6.64,4.65-10.69,13.79-19.34,13.66.31-1.06-.24-2.75,0-4Z"/>
    <path class="st0" d="M1718,1076l14.24-10.76c20.72-8.8,43.29-9.8,64.24-17.38,1.35-.49,1.44-3.46,2.93-3.8,6.78-1.55,53.58-1.28,61.69-.17,40.01,5.49,63.48,45.81,72.42,81.57,1.3,5.2-.49,10.67.51,15.17.35,1.59,3.64.52,4.12,4.23,1.9,14.5-1.06,25.23-4.06,38.23-1.5,6.51,3.03,15.67-8.1,16.9.38-8.68,5.03-19.49,5.84-27.16,3.33-31.38-10.46-85.69-34.8-106.88-11.86-10.32-15.45-9.18-29.04-11.96-63.29-12.96-93.21,7.46-150,22Z"/>
    <path class="st0" d="M1276,1448c-1.1,9.74.07,20.21-1.99,29.99,17.4-.05,30.43-15.86,47.98-9.98-1.36-3.2,1.78-6.46,2.01-8.01,11.36,24.54,23.64,55.21,15.98,82.64-.62,2.22-3.86,1.19-3.98,1.36.45-.45-.31-2.05-1-2-2.18.15.06,2.94,1,2-.77,1.13-2.17,24.38-2.03,26.92.49,8.84,6.14,16.13,6.03,25.08-5.94,1.22-3.43-2.99-4.54-6.36-1.4-4.24-7.29-18.27-7.52-20.8-.42-4.71,7.65-14.25,6.05-20.83-5.27-.96-3.53.98-4.86,4.03-3.19,7.32-5.24,18.8-13.26,22.92-2.39,1.23-4.73.57-5.88,1.04-3.37,5.06-7.96,17.78-12,4,3.94-1.38,7.99-2.37,12-4,3.43-5.14,5.5-5.61,8.79-10.21,15.98-22.35,14.71-58.37,5.68-83.26-1.43-3.96-6.52-12.04-11.04-12.07-2.96-.02-35.5,11.42-41.43,13.55-2.82-9-.62-19.28,0-29.09.24-3.83-2.14-8.02,4-6.91Z"/>
    <path class="st0" d="M1874,1320c-2.18,4.55-1.33,6.32-5.93,11.08-16.04,16.59-38.37,17.06-55.04.9-23.54-22.81-16.39-47.03-25.55-72.45-2.08-5.77-11.67-21.55-15.48-27.52-8.22-5.44-22.42-12.97-26-22,13.39,4.37,19.05,11.06,26,22,7.81,5.17,9.33,5.25,14.31,14.69,14.27,27.04,5.4,49.45,26.03,75.97,12.46,16,26.92,20.77,45.52,10.21,6.93-3.93,9.48-8.64,16.14-12.86,15.46-32.31,33.16-57.58,44.61-94.39,2.21-7.09,1.41-16.18,7.39-21.61-.48,23.21-8.65,42.47-18.58,64.42-6.9,15.26-20.53,43.4-33.42,51.58Z"/>
    <path class="st0" d="M1326,1708c-1.62-11.02-4.32-23.18-6.93-34.07-5.2-21.64-12.82-42.96-20-63.99-4.06-4.23-21.88,3.75-29.99,4.13-19.35.9-47.24-8.2-57.07-26.07,9.31.27,16.01,11.54,23.29,15.71,12.6,7.2,35.18,6.25,49.25,3.84,5.08-.87,10.06-7.25,16.48-1.56,5.5,4.88,5.53,23.23,12.49,29.49,1.78,19.62,11.79,40.57,14.59,59.41.5,3.38.96,10.72-2.11,13.11Z"/>
    <path class="st0" d="M1138,1290c19.18,11.36,12.95,1.69,26-12,1.59,4.14-7.76,19.91-9.95,21.05-10.12,5.27-12.5-3.44-16.05-9.05-12.39-7.34-5.68-5.59-10.63-13.4-24.44-38.61-37.09-93.77-45.58-139.39-1.31-7.06-7.95-15.66-1.79-23.21,7.07,15.25,7.92,40.63,12.18,56.82,10.16,38.63,24.51,85.51,45.82,119.18Z"/>
    <path class="st0" d="M1090,1450c-8.94,21.46-22.91,35.48-27.87,61.13-6.97,36.1-3.08,61.89,3.87,96.87-3.55,1.07-6.15-3.69-6.84-6.08-12.38-42.33-4.66-110.48,23.16-146.61,2.2-2.86,3.45-5.35,7.68-5.31Z"/>
    <path class="st0" d="M1244,1498c3.14,7.59-4.58,17.77-4.03,22.87,1.55,14.42,9.23,29.39,14.03,43.13-4.82,1.09-4.09-2.51-5.67-5.23-1.86-3.22-10.21-16.17-10.44-17.88-.76-5.61,3.42-8.32,3.44-9.91.03-2.39-7.33-7.84-7.32-11.98,0-2.99,9.6-13.35,5.97-16.98s-6.79,3.86-7.33,3.96c-3.52.64-7.56-.62-11.2.49-8.84,2.69-17.11,7.93-26.59,9.41-3.67,15.23,1.2,29.63,3.14,44.14-5.79,1.19-3.66-2.86-4.56-6.34-2.44-9.44-8.94-30.25-3.29-38.5,2.73-3.99,32.63-11.55,39.84-14.14,8.47-3.04,10.01-1.93,14-3.02Z"/>
    <path class="st0" d="M1328,1716c5.42-.03,5.61,2.37,6.11,6.9,1.82,16.4,2.16,66.31-.01,82.19-1.18,8.59-8.7,18.53-6.63,29.36l-7.46,13.55c9.71-33.87,11.35-96.64,8-132Z"/>
    <path class="st0" d="M1540,1424c-.64,15.64-7.33,38.53-2.32,53.18.94,2.74,4.19,4.34,4.32,4.82,1.53,5.92-3.4,8.93-3.76,12.91-.19,2.11,1.95,4.77,1.39,7.64-.46,2.35-3.89,4.65-4.74,7.34-4.09,13.07,2.63,17.65,4.51,27.37.84,4.35-.48,16.57,2.6,22.74.07.15,2.55-.27,3.23.7,11.37,16.22,31.59,25.67,51.3,18.83.79-.27,12.86-8.95,13.47-9.52.3-.28,3.78-3.74,4-4,.62-.71,7.32-12.4,7.58-13.42,2.92-11.54,4.22-22.51,4.42-34.58,6.02-1.12,3.89,3.06,4,6.91.37,12.87-.89,28.88-9.86,38.32-1.93,2.03-5.86,2.45-6.15,2.77-2.21,2.48-2.32,2.34-4,4-1.81,1.79-4.67,10.68-10.07,13.07-4.22,1.87-6.74-.63-9-.26-7.48,1.21.4,5.32-16.86,2.08-13-2.44-4.45-.86-12.01-5.78-1.16-.75-3.97.98-7.06-.91-7.77-4.75-9.32-12.55-12.99-18.2-.12-.19-2.62.56-3.45-.47-5.77-7.15-4.44-16.96-4.94-24.16-.34-4.95-5.3-4.39-5.75-8.26s-.54-14.23.19-17.69c.21-1,7.16-4.77,7.63-8.79.33-2.78-3.87-4.82-3.51-7.36.34-2.37,7.8-7.06,7.79-8.27-.02-2.56-7-2.54-7.66-3.27-2.77-3.06,1.02-44.39,2.71-51.82.76-3.36-.03-7.02,5-5.9Z"/>
    <path class="st0" d="M1172,1082c-20.21-11.83-29.91-16.37-52.9-20.09-3.72-.6-6.75-3.66-10.05-3.73-4.36-.09-17.69,5.53-21.06,8.81-8.19,7.97-6.58,15.6-7.99,25.01-.78,5.2-3.62,11.29-2,18-.54-.46-3.67.48-4,.02-.56-.78-2.02-16.85-2.02-19.03,0-17.52,22.43-40.37,40.92-36.88,18.63,3.51,37.94,8.94,54.25,19.74,3.74,2.48,5.76,2.35,4.85,8.16Z"/>
    <path class="st0" d="M1708,1198c12.57.63,18.93,1.26,30.83,6.28,3.01,1.27,6.15,1.31,5.17,5.72-38.22-12.62-69.52-6.97-104,10-15.45,26.82-35.68,29.53-50,0,7.37,1.35,8.61,10.31,15.25,13.73,16.63,8.58,22-7.46,34.75-13.73,10.05-17.44,48.85-22.96,68-22Z"/>
    <path class="st0" d="M1628,1576c-1.47,9.44-18.98,25.06-27.36,29.64-13.98,7.66-27.45,7.79-42.65,10.4.61,12.33,9.59,21.65,8.01,33.95-.53-.32-3.07.73-3.73-.19-.98-1.34.17-5.86-.72-8.3-1.63-4.47-11.91-29.11-9.55-31.5,18.4.25,39.31-.59,54.02-12.99l21.98-21.02Z"/>
    <path class="st0" d="M1590,1724c2.36,12.89,5.29,23.57,4.14,37.19-.34,4.01-.27,4.9-4.14,6.81-10.65-3.77-34.96-8.02-46-8-1.99-8.06.24-17.06,0-24,9.19-.08.24,17.21,5.87,21.13,3.47,2.41,20.8.21,27.02.98,4.53.56,8.09,4.82,13.1,3.89,3.39-3.53-6.38-31.99,0-37.99Z"/>
    <path class="st0" d="M1220,1226c.23-5.12,3.56-5.84,7.25-7.75,5.77-2.98,22.22-9.91,28.22-11.78,3.93-1.22,11.38.88,13.65-2.33,7.19-10.19-14.45-25.49-15.12-36.14.37.34,3,.08,4.87,2.04,1.11,1.16,15.08,21.2,15.61,22.46,3.26,7.87,3.11,14.72-5.94,17.05-16.13,4.15-32.91,9.46-48.55,16.45Z"/>
    <path class="st0" d="M1374,1702c-6.43.16-4.86-3.18-6-7-8.03-26.78-28.29-71.76-28-95,9.82,33.42,27.58,67.93,34,102Z"/>
    <path class="st0" d="M1626,1498c11.54,3.3,14.88.97,16.08,14.92,1.84,21.4-1.71,33.85-9.14,53.12-1.19,3.09.6,7.15-4.94,5.96.98-8.24,3.9-14.65,4.17-16.85.44-3.67-1.04-8.32-.21-11.75.51-2.13,6.04-3.17,6.04-4.39v-32c0-2.07-6.76-4.22-7.99-3.01-1.34,1.32,3.08,10.07-4.01,8.01,0-4.66,0-9.34,0-14Z"/>
    <path class="st0" d="M1242,1960c.29,5.57-5.27,6.76-9.49,7.51-19.38,3.46-37.76.63-54.93-8.08-2.85-1.44-12.01-5.54-11.58-9.43,32.15,13.59,40.12,16.42,76,10Z"/>
    <path class="st0" d="M1668,1228c.29-.21-1.09-2.95,1.15-4.2,8.31-4.67,38.29-11.23,47.68-9.79,12.38,1.91,23.13,11.79,33.73,16l7.45,7.99c-8.59-5.26-34.31-19.36-43.1-19.93-4.82-.31-44.77,7.77-46.9,9.93-.51.52.35,6.59-8,6,6.35-7.74,4.68-3.58,8-6Z"/>
    <path class="st0" d="M1144,1844c-2.59,10.39-9.26,22.21-10.11,32.89-1.16,14.69,3.91,31.28,8.11,45.11-.18-.22-2.5.6-3.49-.43-10.85-11.32-8.81-52.67-3.34-67.39.82-2.22,4.88-11.41,8.83-10.18Z"/>
    <path class="st0" d="M1086,1650c2.44.3,10.78,5.31,11.57,6.48.96,1.43.17,2.99.43,3.52,13.55,5.14,26.28,12.99,41.28,15.37,2.93.46,7.42-2.14,10.72-1.37,2.56.6,5.44,5.12,6,8-6.68-3.26-14.48-.9-20.9-2.1-9.76-1.82-33.24-12.03-37.1-19.9-8.7-3.3-7.29.05-12-10Z"/>
    <path class="st0" d="M1492,1542c5.25-1.13,4.04,2.62,4.96,5.94,6.02,21.79,12.51,34.94,17.04,58.06-9.22-.73-5.95-16.51-6.87-20.11-3.58-14.05-15.36-28.93-15.13-43.89Z"/>
    <path class="st0" d="M1766,1250c.21.22,2.38-.7,3.5.57,10.13,11.49,11.85,33.81,10.57,48.5-1.03,11.93-8.59,28.89-16.07,34.93-.5-7.24,5.16-11.31,7.55-17.44,8.44-21.67,6.03-46.58-5.55-66.56Z"/>
    <path class="st0" d="M1348,1356c-7.4,20.38-10.48,43.05-18,62-5.99-5.67.6-11.99,1.8-17.19,2.27-9.79,3.7-24.1,6.73-33.26.74-2.25,5.36-12.67,9.47-11.54Z"/>
    <path class="st0" d="M1294,1582c-.43,1.56.36,4.15,0,6-6.1,1.78-10.52-2.39-15.28-3.38-1.96-.41-4.89,1.6-7.3,1.03-4.96-1.18-6.36-8.36-7.88-9.23-2.29-1.31-6.86.17-7.54-.42-.64-.55.51-6.09,0-8,7.2-.52,11.84,10.27,15.38,11.62,5.06,1.92,16.69,1.86,22.62,2.38Z"/>
    <path class="st0" d="M1156,1316l-28,54c1.92-13.82,13.78-34.7,21.04-47.95,1.8-3.28,1.98-6.24,6.96-6.05Z"/>
    <path class="st0" d="M1380,1792c-.38-17.47.35-38.6,0-56,7.04,15.35,5.49,39.93,0,56Z"/>
    <path class="st0" d="M1566,1344c-7.75,19.23-17.91,37.31-22,58,.74-18.47,4.37-33.08,14.13-50.43.6-1.07,5.77-8.22,7.87-7.57Z"/>
    <path class="st0" d="M1296,1902c7.16-14,17.24-33.39,22-48,4.41,2.37,1.14,6.27.1,9.1-3.64,9.92-9.36,24.45-15.07,32.93-1.95,2.9-2.09,6.27-7.04,5.97Z"/>
    <path class="st0" d="M1586,1698c-11.22-2.54-10.25-19.4-12.41-26.59-1.88-6.27-8.29-10.57-5.59-19.41,6.5,5.36,10.42,25.49,12.94,34.05,1.18,4.02,4.28,6.71,5.06,11.95Z"/>
    <path class="st0" d="M1214,1118c11.53,8.67,15.9,14.95,24,28-5.99-2.09-19.02-15.9-22.12-20.95-1.99-3.25-1.38-6.11-1.88-7.05-5.51-4.14-12.28-8.14-18.03-12.97s-14.39-12.63-17.97-19.03c12.65,7.43,29.2,19.28,36,32Z"/>
    <path class="st0" d="M1214,1230l-30.98,28.11c-1.15,1.64-4.15,1.3-5.02,1.89-5.49,8.48-5.96,9.25-12,16-.07-9.66,5.96-11.92,12-16,3.76-5.82,14.47-20.17,20-24,2.68-1.86,12.31-4.24,16-6Z"/>
    <path class="st0" d="M1670,1104c-10.12,8.66-18.18,18.6-32,24-.4,1.16.94,4.27-.38,5.61s-4.83-.04-5.62.39c-.97.53-2.82,11.94-14,16-2.21-7.76,5.33-6.6,8.67-9.9,1.27-1.26,3.67-4.3,5.33-6.1,1.91-2.06-1.4-3.11,6-6,2.03-5.9,16.04-17.09,21.89-21.11,3.55-2.45,5.49-3.73,10.11-2.89Z"/>
    <path class="st0" d="M1552,1246c6.32-1.24,4.81.63,7.06,3.89,10.55,15.27,8.92,24.01,8.94,40.11-3.56-17.53-6.35-28.83-16-44Z"/>
    <path class="st0" d="M1616,1150c1.5,6.1-3.45,3.34-4,4-.23.28.4,4.19-1.88,7.04-6.98,8.7-16.48,17.72-24.12,26.96-5.23-3.15,3.85-12.3,6.06-14.94,5.65-6.75,15.71-14.22,19.94-19.06,1.51-1.73-3.46-2.35,4-4Z"/>
    <path class="st0" d="M1424,1966c-5.26.03-11.03,4.07-20.12,1.12-.86-.28-15.12-7.7-15.88-8.2-2.12-1.41-1.71-4.7-2-4.92,12.36,5.76,24.96,8.26,38,12Z"/>
    <path class="st0" d="M1486,1218c-1.89-6.61,14.36-4.31,16.91-3.9,2.72.44,4.64,2.92,6.64,3.36,5.8,1.27,17.71-.51,18.46,8.54-15.08-4.57-26.02-8.05-42-8Z"/>
    <path class="st0" d="M1086,1648c-6.01-.76-13.77-13.77-16.15-18.85-2.87-6.14-2.98-12.89-3.85-17.15l20,36Z"/>
    <path class="st0" d="M1124,1386c-2.04,11.33-5.2,22.31-7.36,33.74-.67,3.56.79,7.43-4.64,6.26.66-11.23,2.43-22.33,6.04-32.96,1.21-3.55-.69-7.25,5.96-7.04Z"/>
    <path class="st0" d="M1492,1538l-6-40c5.37-.03,5.64,2.36,6.12,6.89,1.18,11.35.08,22.57-.12,33.11Z"/>
    <path class="st0" d="M1276,1218c-1.92-6.4,10.4-4.39,12.91-3.9,2.76.54,4.68,2.93,6.64,3.35,5.7,1.23,19.64-.33,20.45,8.55-12.19-4.17-27.32-7.39-40-8Z"/>
    <path class="st0" d="M1350,1868c-.81,13.44-.73,18.62,0,32-11.27-1.81-11.27-30.2,0-32Z"/>
    <path class="st0" d="M1274,1218l-36,14c.24-.24-.62-2.55.46-3.47,8.57-7.34,24.74-10.5,35.54-10.53Z"/>
    <path class="st0" d="M1568,1294c-.68,17.13.21,16.93-8.36,32.74-1.51,2.78-.79,6.32-5.64,5.26,2.49-5.34,7.58-15.17,9.07-19.93,1.91-6.1-.96-13.78,4.93-18.07Z"/>
    <path class="st0" d="M1298,1398c-4.13,9.79-9.3,19.33-14.36,28.74-1.5,2.79-.8,6.32-5.64,5.26,1.59-6.97,9.04-21.74,12.92-28.07,1.89-3.09,2.33-6.15,7.08-5.93Z"/>
    <path class="st0" d="M1580,1196c-2.01,10.78,6.09,12.97,10,22-6.91-.76-20.57-16.21-15.83-21.88.72-.86,4.85.39,5.83-.12Z"/>
    <path class="st0" d="M1460,1958c-.55,7.75-19.37,10.08-24.75,9.92-1.52-.04-2.91-1.93-3.25-1.92,8.87-3.77,18.77-5.42,28-8Z"/>
    <path class="st0" d="M1522,1638c5.47-.27,5.1,2.86,6.37,6.64,4.98,14.73,8.52,22.61,9.63,39.36-6.66,1.16-3.16-3.49-3.89-7.01-2.61-12.51-10.9-28.97-12.11-38.99Z"/>
    <path class="st0" d="M1164,1716l-7.41-15.56c-2.77-4.1-.47-10.46-.59-12.44,6.44,7.36,6.32,18.9,8,28Z"/>
    <path class="st0" d="M1241.67,1574.35c.53.32,5.09,10.95,4.32,11.64-8.67,1.14-13.14-3.36-11.98-11.98,2.36.27,5.78-.78,7.66.34Z"/>
    <path class="st0" d="M1498,1422c-2.06,6.57-3.6,14.78-5.44,21.67-.92,3.46,1.23,7.53-4.56,6.33,1.16-7.74,2.56-14.61,5.03-22.08,1.07-3.25-.34-7.08,4.97-5.92Z"/>
    <path class="st0" d="M1528,1862l-.2,12.43-9.8,13.57c2.71-9.94,6.75-16.76,10-26Z"/>
    <path class="st0" d="M1328,1424c-.94,8.39,3.03,19.79-4,26,.31-6.56-1.79-17.9-.09-24.75.57-2.3,3.9-.99,4.09-1.25Z"/>
    <path class="st0" d="M1346,1256c7.18-.35,8.39,13.01,8.12,19.12-.11,2.57-2.1,4.54-2.12,4.88-2.32-7.92-3.75-16.02-6-24Z"/>
    <path class="st0" d="M1514,1610c4.12-1.47,10.15,13.65,10.16,17.11.01,2.74-2.16,4.63-2.16,4.89-4.23-5.14-6.56-15.16-8-22Z"/>
    <path class="st0" d="M1484,1218c1.37,6.69-3.87,2.92-8.83,4.11-3.76.9-7.43,2.66-11.17,3.89.82-9.19,13-7.66,20-8Z"/>
    <path class="st0" d="M1252,1166c-8.35-7.97-6.66-6.95-12-16,6.81.79,11.83,9.68,12,16Z"/>
    <path class="st0" d="M1168,1748c-.19-.26-3.52,1.06-4.09-1.25-.92-3.7-.72-15.89,2.09-18.75.78,5.84,3.59,12.73,2,20Z"/>
    <path class="st0" d="M1716,1076c.23,7.65-9.84,6.11-16,8-.08-8.5,10.99-6.76,16-8Z"/>
    <path class="st0" d="M1219.03,1534.01c4.24-.97,10.21,8.28,3.95,9.97-7.78,2.1-9.05-8.8-3.95-9.97Z"/>
    <path class="st0" d="M1261.99,1597.99c-6.8.77-11.16-.6-9.98-7.98,6.8-.77,11.16.6,9.98,7.98Z"/>
    <path class="st0" d="M1352,1298c2.71,1.99,2.72,15.03,2,16.01-.24.32-3.08-.15-4-.01-.56,6.68,1.33,12.9-8,14,2.87-6.49,1.45-13,8-14,.45-5.41,1.54-11.44,2-16Z"/>
    <path class="st0" d="M1698,1084c-.9,8.56-13.33,10.1-20,14,6.34-5.73,8.74-10.61,20-14Z"/>
    <path class="st0" d="M1170,1770c-.16-2.88-5.72-11.78,0-16,1.66,4.86,4.74,11.24,0,16Z"/>
    <path class="st0" d="M1368,1824c-1.81,4.84-4.18,14.59-10,14,1.83-4.83,4.16-14.59,10-14Z"/>
    <path class="st0" d="M1750,1350c3.56-7.72,4.3-6.8,10-12,.59,6.05-3.99,11.22-10,12Z"/>
    <path class="st0" d="M1530,1364c2.85-6.69,3.34-6.85,8-12,.81,6.11-1.17,11.5-8,12Z"/>
    <path class="st0" d="M1210,1584c-4.56-2.76-6.54-7.12-8-12,8.3-.09,6.29,8.41,8,12Z"/>
    <path class="st0" d="M1538,1688c5.92-2.84,6.59,14.17,0,12-.25-3.97.29-8.04,0-12Z"/>
    <path class="st0" d="M1354,1920c-.61-.49-2.93,1.3-3.98-1.41-1.91-4.91.1-8.82-.02-10.59,4.01,2.61,4.25,7.64,4,12Z"/>
    <path class="st0" d="M1366,1938c3.43,3.28,10.12,4.91,10,10-1.86-1.04-5.73-.61-8.04-2.99-2.84-2.93-1.3-5.55-1.96-7.01Z"/>
    <path class="st0" d="M1314,1370c-.76,2.35-.14,6.4-1.82,8.79-1.51,2.15-3.8.91-4.18,1.21.29-4.51.4-10.43,6-10Z"/>
    <path class="st0" d="M1542,1714c-2.62-2.43-3.64-6.6-4-10,10.54.93,4.12,7.37,4,10Z"/>
    <path class="st0" d="M1544,1406c-.16,3.23-1.53,7.68-4,10-.08-2.5-6.57-9.1,4-10Z"/>
    <path class="st0" d="M1474,1950c-2.74,2.81-.48,5.63-10,8-.05-5.63,5.18-7.29,10-8Z"/>
    <path class="st0" d="M1502,1920c-4.28,9.17-3.85,5.86-8,10,.71-4.82,2.37-10.05,8-10Z"/>
    <path class="st0" d="M1518,1388c-1.79,3.89-2.6,11-8,10,1.93-3.83.93-10.17,8-10Z"/>
    <path class="st0" d="M1438,1242c1.62,5.85-7.94,6.13-10,8-.63.57,2.08,5.52-4,4,2.5-2.96,3.45-3.39,4-4,.33-.37-.24-3.07,1.96-4.98,2.65-2.31,5.74-1.93,8.04-3.02Z"/>
    <path class="st0" d="M1542,1234c-4.04-.52-8.28-2-10-6,1.83.6,5.34-.87,8.07.95,2.18,1.45,1.44,4.39,1.93,5.05Z"/>
    <path class="st0" d="M1736,1372c4.82,4.17-.5,3.06-1.83,5.56-1.54,2.91,1.03,9.06-6.17,8.44,2.73-7.44,4.08-8.12,8-14Z"/>
    <path class="st0" d="M1338,1336c-3.35,6.74-4.16,6.4-8,10,.71-4.82,2.37-10.05,8-10Z"/>
    <path class="st0" d="M1374,1812c-.54,4.29-.24,11.26-6,10,3.3-9.74,2.83-5.97,6-10Z"/>
    <path class="st0" d="M1168,1792c-.69,4.39-.74,5.51-2,10-3.48-3.38-3.81-11.95,2-10Z"/>
    <path class="st0" d="M1718,1404c-1.81,4.88-2.6,3.27-3.81,5.59-1.54,2.97.96,9-6.19,8.41,1.46-4.86,4.5-14.62,10-14Z"/>
    <path class="st0" d="M1254,1954c-2.35,2.03,2.77,3.49-8,6-1.22-5.22,3.91-4.94,8-6Z"/>
    <path class="st1" d="M1336,1544c-.94.94-3.18-1.85-1-2,.69-.05,1.45,1.55,1,2Z"/>
    <path class="st0" d="M1288,1918c-.39-3.96,2.51-5.58,4-8l1.98,1.03c2.07,6.77-5.01,5.91-5.98,6.97Z"/>
    <path class="st0" d="M1164,1808c-1.54,3.97-2.48,4.98-4,8l-1.96-1.05c-.89-4.48,1.39-6.93,5.96-6.95Z"/>
    <path class="st0" d="M1578,1318c.21,3.95-2.13,5.44-4,8l-1.7-1.2c-.95-6.88,5.3-6.4,5.7-6.8Z"/>
    <path class="st0" d="M1154,1826c-1.41,2.22-.97,6.86-6,8,1.11-3.71-1.21-7.82,6-8Z"/>
    <path class="st0" d="M1518,1892c-.86,4.1-.98,9.24-6,8,1.03-4.09.82-9.22,6-8Z"/>
    <path class="st0" d="M1728,1388c-3.38,11.03-4.24,6.11-6,8-2.26,2.43-1.07,1.38-4,4-1.29-6.32,2.92-3.14,4-4,1.32-1.06,0-10.06,6-8Z"/>
    <path class="st0" d="M1354,1344c-1.26,4.78-3.2,5.91-4,8l-1.67-1.21c.48-3.72,1.11-7.93,5.67-6.79Z"/>
    <path class="st0" d="M1324,1352c1.99,10.28-2.79,7.01-4,8-1.23-5.31,2-5.7,4-8Z"/>
    <path class="st0" d="M1096,1442c.16,4.05-2.04,6.16-6,6,2.65-7.22,1.84-3.46,6-6Z"/>
    <path class="st0" d="M1298,1394c1.98-4.63,2.94-4.25,4-6,4.02,3.31.13,6.07-4,6Z"/>
    <path class="st0" d="M1202,1262c.22,4.02-2.02,5.96-6,6,2.95-3.26,1.08-2.14,6-6Z"/>
    <path class="st0" d="M1156,1942c-2.87-2.24-3.18,1.75-6-6,4.05-.16,6.16,2.04,6,6Z"/>
    <path class="st0" d="M1186,1276c.67,3.86-2.97,4.58-4,6-6.41-4.05,2.47-4.84,4-6Z"/>
    <path class="st0" d="M1618,1270c-2,2.09-4.05,3.99-6,6-.78-6.23-.23-6.78,6-6Z"/>
    <path class="st0" d="M1324,1230c4.58,2.11,12.28,4.44,10,10-3.71-3.01-10.69-5.41-10-10Z"/>
    <path class="st0" d="M1654,1240c-2.86,2.9-8.49,8.68-12,10-2.3-5.48,7.43-9.91,12-10Z"/>
    <rect class="st0" x="1204.01" y="1556.01" width="5.98" height="3.98"/>
    <path class="st0" d="M1460,1228c-.86,2.87-3.14,3.85-6,4,.38-.46-.65-3.14.17-3.85,1.01-.88,4.45.28,5.83-.15Z"/>
    <path class="st0" d="M1592,1298c-.03,2.92-1.13,5.13-4,6,.47-1-.88-4.4.29-5.71.91-1.01,3.27.02,3.71-.29Z"/>
    <path class="st0" d="M1338,1244c.28.25,2.37-.77,3.57.47.37.38,3.92,8.07,4.43,9.53-4.98.97-6.64-5.92-8-10Z"/>
    <path class="st0" d="M1230,1240c-3.68,3.39-6.35,7.46-12,8,.21-.2-.72-2.33.54-3.51.54-.51,9.95-5.51,11.46-4.49Z"/>
    <path class="st0" d="M1758,1240c.7.45,3.58-.5,4,0,.62.73-.52,4.66,0,6.01-2.85-.95-3.83-3.1-4-6Z"/>
    <path class="st0" d="M1284,1924c-.47,1.17.86,4.55-.24,5.77-.84.93-3.37-.09-3.76.23.03-2.92,1.13-5.13,4-6Z"/>
    <path class="st0" d="M1506,1406c-1.74,7.33-1.98,2.4-4,4-.58-4.09-.1-4.57,4-4Z"/>
    <path class="st0" d="M1198,1564c1.55,1.42,2.72-3.46,4,4-4.25.48-4.48.25-4-4Z"/>
    <path class="st0" d="M1528,1370c-1.99,7.33-1.95,2.33-4,4-.63-3.63.34-4.7,4-4Z"/>
    <path class="st0" d="M1128,1374l-2,4c-.02-.22-3.19-2.79-1.99-3.99.46-.45,3.46.45,3.99-.01Z"/>
    <path class="st0" d="M1748,1356c-2.01,6.87-2.79,2.78-4,4-.74.74-3.76,3.74-4,4-1.3-5,3.56-3.55,4-4,.48-.49-1.08-5.45,4-4Z"/>
    <path class="st0" d="M1368,1318c.63,3.6-.37,4.71-4,4,1.98-7.18,1.15-1.98,4-4Z"/>
    <path class="st0" d="M1550,1340c-1.71,7.16-1.69,2.44-4,4-.48-4.25-.25-4.48,4-4Z"/>
    <path class="st0" d="M1356,1846c.66,3.79-.19,4.68-4,4,1.4-7.41,2.27-2.54,4-4Z"/>
    <path class="st0" d="M1358,1336c.48,4.25.25,4.48-4,4,1.19-7.45,2.47-2.6,4-4Z"/>
    <path class="st0" d="M1352,1856l-2,4c-.02-.22-2.79-1.87-1.99-3.99,1.16-.24,3.67.33,3.99-.01Z"/>
    <path class="st0" d="M1164,1304c.63,3.64-.33,4.71-4,4,2.63-7.56,2.3-2.29,4-4Z"/>
    <path class="st0" d="M1572,1330l-2,4c0-.11-1.66.37-1.98-1.02-1.17-4.99,3.03-2.2,3.98-2.98Z"/>
    <path class="st0" d="M1192,1270c.48,4.25.25,4.48-4,4,2.35-3.06-2.66-.83,4-4Z"/>
    <path class="st0" d="M1512,1902c-1.69,7.7-2.89,2.46-4,4-.48-4.25-.25-4.48,4-4Z"/>
    <path class="st0" d="M1706,1424c0,.22,3.11,2.9,1.99,3.98-.47.46-3.45-.45-3.99.02l2-4Z"/>
    <path class="st0" d="M1638,1250c.48,4.25.25,4.48-4,4,1.48-2.2-3.13-2.46,4-4Z"/>
    <path class="st0" d="M1374,1308c.54,3.5-.43,4.74-4,4,.31-1.12-.47-3.51.01-3.99.52-.52,3.18.43,3.99-.01Z"/>
    <path class="st0" d="M1588,1712c-.84-.45-3.55.43-3.99-.01-1.26-1.28,1.97-3.76,1.99-3.99l2,4Z"/>
    <path class="st0" d="M1158,1944c4.25-.48,4.48-.25,4,4-7.25-2.59-2.24-1.74-4-4Z"/>
    <path class="st0" d="M1362,1328c.63,3.6-.37,4.71-4,4,1.09-7.2,1.87-2.49,4-4Z"/>
    <path class="st0" d="M1448,1234c.73,3.56-.51,4.55-4,4,.41-.65-.58-3.26.08-3.93.62-.62,2.96.22,3.92-.07Z"/>
    <path class="st0" d="M1148,1836c.48,4.25.25,4.48-4,4,1.19-7.1,1.15-2.28,4-4Z"/>
    <path class="st3" d="M1334.68,1324.64c-9.08,15.67-19.55,28.31-29.47,43.57-16.38,25.18-32.46,51.59-38.71,81.29-1.27,6.02-1.36,29.47-2.49,30.5-.36.33-5.85-.36-8.41.55-5.32,1.89-11.92,8.12-15.02,9.03-11.15,3.27-23.5,5.06-34.94,10.55-2.64,1.27-2.49,4.77-4.87,5.58-4.05,1.38-9.79-.8-13.55.53-6.33,2.23-8.19,19.09-7.32,24.89,2.88,19.08,8.93,38.71,20.16,55.38s45.23,37.01,65.26,37.37c11.23.2,20.12-5.88,30.45-5.6,7.86,26.13,17.24,51.99,22.04,78.95,13.54,76.19,7.96,143.94-32.11,211.49-11.23,18.93-22.67,37.36-45.28,44.72-50.65,16.49-95.13-14.1-100.21-66.63-3.13-32.33,30.86-63.84,35.32-94.25,9.8-66.73-18.69-119.57-36.96-180.08-10.93-36.19-12.25-62.06-16.73-99.27-11.93-99.13,19-194.91,97.73-259.07,15.39-12.54,45.1-30.19,65.49-29.75,1.32.03,23.13,5.44,25.45,6.16,6.36,1.97,22.35,16.75,25.61,22.39,6.78,11.72,10.98,30.28,9.94,44.19-1.07,14.37-5.53,17.48-11.38,27.56Z"/>
    <path class="st3" d="M1494.65,1579.45c19.16,58.8,31.24,85.93,39.45,151.45.77,6.13,6.5,11.4,3.98,21.79-19.23,8.27-40.35,12.02-47.54,34.86-.56,1.78-4.63,20.21-4.55,21.3,1.13,15.86,13.58,31.15,25.05,41.1,9.91,8.59,15.26,3.76,7.76,21.86-7.16,17.28-26.86,53.29-39.82,66.18-32.13,31.96-96.16,24.56-116.51-17.46-5.49-11.33-9.98-36.7-8.02-49.04,3.43-21.51,23.13-43.83,29.67-64.36,15.74-49.39-1.55-101.49-16.72-149.54-7.28-23.04-15.74-45.88-22.46-69.54-1.3-4.58-6.19-11.94-6.66-15.56s6.46-16.08,8.04-21.15c1.56-5,.7-10.05,1.76-13.9.45-1.65,3.51-1.35,3.86-2.81.77-3.22.7-17.99.21-21.76s-3.59-2.52-4.07-4.3c-1.2-4.44-.28-9.74-2.24-15.43-2.56-7.45-13.1-24.4-13.82-28.18-5.91-30.89,16.29-96.46,30.89-125.04,16.88-33.05,41.14-61,69.05-84.95,14.34-12.31,50.95-34.24,68.93-30.87,20.9,3.92,37.76,11.26,49.49,30.51,10.15,16.66,12.43,40.12,5.57,58.35-7.38,19.63-32.5,47.2-44.8,67.2-13.75,22.36-28.34,46.25-30.92,73.08-3.69,38.29,2.75,90.43,14.4,126.2Z"/>
    <path class="st2" d="M1702,1440c8.66.13,12.71-9,19.34-13.66,50.28-35.25,108.69-20.12,142.29,29.03,42.09,61.58,33.45,170.6-31.77,213.49-15.09,9.92-30.01,11.9-46.83,17.17l-35.64,128.36c-4.85,8.85-3.57,16.66-9.39,25.61-3.19,4.9-8.9,10.21-14.19,12.8-16.06,7.88-49.99,3.11-68.56.95-11.47-1.33-32.86-8.27-42.15-7.67-14.3.93-24.67,17.74-51.1,13.91-5.89-.85-28.05-5.96-34-8-18.78-6.43-37.32-28.03-35.87-48.71,1.69-24.1,26.75-43.26,49.87-43.29,11.04-.02,35.35,4.23,46,8,13.81,4.88,21.73,13.64,33.04,21.96l67.61,4.11c14.69-39.65,26.68-81.33,35.4-122.98-.88-5.21-21.39-20.28-26.04-26.1-37.04-46.38-39.28-125.59-13.43-177.41,4.71-9.44,12.36-17.3,15.42-27.58Z"/>
    <path class="st3" d="M1683.74,1463.72c-.8,1.34-7.39,1.82-7.75,2.3-.74.98,2.8,7.43,2.17,10.63-.36,1.81-4.56,2.32-6.19,4.23-6.8,7.95-2.87,18.5-4.07,28.01-2.53,19.94-6.18,38.76-3.91,60.13.8,7.51,4.89,14.86,5.51,22.51.33,4.03-2.05,7.71-1.58,11.39.57,4.43,13.14,28.8,16.84,34.36,3.46,5.19,10.33,13.63,14.59,18.48,3.5,3.98,14.32,11.13,15.73,14.34,2.37,5.41-3.99,28.86-6.03,35.95-5.63,19.5-12.28,39.59-18.47,59.53-1.41,4.54.34,12.46-3.06,15.94-4.19,4.28-20.36-.41-26.88-.72-10.19-.49-26.32.8-35.54-.88-8.68-1.59-14.09-13.11-23.23-15.13.04-3.84.51-7.7-.11-11.53-5.75-35.09-12.85-73.49-29.3-104.7l-6.44-26.54c15.45,2.31,27.54-4.94,39.85-13.14,13.59-9.05,37.62-37.18,40.04-53.97.86-5.97-1.29-14.82.4-19.66.98-2.82,5.42-2.65,5.85-4.54,1.08-4.77-3.37-7.96-4.06-11.78-.8-4.43.71-9.36-.13-13.52-.2-.98-11.65-13.54-13.9-14.46-13.16-5.37-38.78-11.44-53.28-14.72-12.53-2.83-26.09-3.82-38.77-6.23.93-10.93-1.54-23.92.45-34.53,12.36-66.05,40.28-128.91,92.49-173.51,6.28-5.37,39.19-30.1,44.52-31.48,4.29-1.1,30.53-6.43,33.11-6.08,3.25.45,6.98,4.06,10.88,5.16s7.95-.04,12.47,1.53c5.39,1.86,18.32,13.23,21.74,18.26,17.21,25.29,17.46,55.88-.03,81.3-15.71,22.83-28.36,40.55-42.91,65.09-11.6,19.56-11.62,18.86-19.34,40.66-2.07,5.84-9.91,13.46-10.99,17.04-.99,3.29.43,8.46-.67,10.29Z"/>
    <path class="st3" d="M1564,1860c26.43,3.83,36.8-12.99,51.1-13.91,9.29-.6,30.68,6.33,42.15,7.67,18.57,2.16,52.5,6.93,68.56-.95,5.29-2.6,11.01-7.9,14.19-12.8,3.84,2.07,1.77,6.89,1.01,9.99-4.89,20-29.45,69.4-43.08,84.94-46.63,53.16-137.78,23.68-138.03-47.84-.01-3.11,1.83-6.5,2.07-10.12.37-5.63-1.69-9.75,2.03-16.97Z"/>
  </g>
</svg>