<?xml version="1.0" encoding="UTF-8"?>
<svg id="_레이어_1" data-name="레이어_1" xmlns="http://www.w3.org/2000/svg" version="1.1" viewBox="0 0 1166 1129">
  <!-- Generator: Adobe Illustrator 29.8.3, SVG Export Plug-In . SVG Version: 2.1.1 Build 3)  -->
  <defs>
    <style>
      .st0 {
        fill: #ecd84f;
      }

      .st1 {
        fill: #d42c2a;
      }
    </style>
  </defs>
  <path class="st0" d="M758,564l-1.44,31.06-22.61,6.51.06,3.43,22-1-2.14,39.87c-7.09,1.22-14.33,2.33-21.29,4.21-9.78,2.64-23.14,9.76-33.07,7.93-1.14-.21-2.02-.34-2.36-1.64l-.15-9.36c-2.3,1.67-2.62,4.33-5.76,5.73-2.39,1.06-9.08,2.09-11.25.78l-5.97-16.51-1.99,11.52c-9.52,2.84-17.93,8.65-28.39,7.33l-1.49-1.49,3.85-34.88-.98-9.48c-.43,15.87-4.64,31.86-6,47.5-.48,5.56,2.07,14.22-2.75,17.25-4.48,2.81-24.05,8.8-28.32,5.81l-1.03-4.06,11.09-88.49-16.53,3.96-5.95,47.05c-9.56,2.81-19.78,9.87-30.02,7.99-1.14-.21-2.02-.34-2.36-1.64l14.83-132.89,42.66-9.36,11.36.9-.99,39.99c-4.53.71-20.01,1.19-23.02,3.49-1.23.94-2.7,8.53-1.48,8.52,5.11-2.57,9.62-3.47,15.38-3.12l1.85-4.89c10.43-1.48,19.32-6.36,30.11-5.14l3.06-19.44c17.7-8.67,44.33-16.3,60.59-1.42l37.09-7.95,10.39.96-.99,39.99c-5.26.36-11.31.8-16.39,2.11-6.5,1.67-8.68,2.4-7.61,9.88,1.4.59,2.99-1,3.49-1h14.5ZM624,506l-42.91,8.1-14.09,126.9,20.86-7.13,5.31-47.68,23.73-6.27,1.09-24.91c-6.35,1.18-13.22,5.2-19.55,5.95-1.98.23-1.27.04-1.46-1.46-.63-4.94,2.21-12.13,2.16-17.36l23.76-4.24,1.11-31.9ZM683.01,648c3.31-4.79,18.37-19.96,18.99-24.58.54-4.04-8.51-24.54-10.27-30.66-.9-3.13-3.22-9.33-2.75-12.22,8.65-11.17,17.4-24.01,19.76-38.3,5.99-36.23-25.01-26.99-47.07-18.32l-1.02,1.29-14.66,122.31c.23,1.44-.6,1.62,1.52,1.5,5.06-.27,11.93-5.65,17.36-6.15,1.79-12.89,1.77-26.59,4.16-39.36.3-1.63-.68-1.73,1.96-1.52l12.02,46ZM757,517l-38.31,7.19c-.86.16-1.28.63-1.56,1.44-1.8,5.3.68,17.56-1.83,26.17-4.43,15.21-9.37,37.69-9.31,53.71.03,7.21,7.6,14.72,2.89,23.86-1.14,2.22-6.02,6.04-6.67,8.33-.32,1.13-1.68,13.75-1.2,14.29l44.79-12.21,2.21-31.79-23,4,1.96-14.53,21.99-5.51,1.04-23.95c-1.32-1.33-15.62,4.64-18.53,4.98-2.19.25-1.52-.83-1.46-2.46.08-2.2,2.36-16.52,3.24-17.28l22.62-4.37,1.13-31.87ZM646.99,545l-20.86,6.63-1.11,30.67-3.02,3.19-11,89.5c1.16.99,19.41-6.22,19.87-7.62l16.12-122.37ZM702.99,597.99c1.51-8.9,3.06-17.95,3-26.99l-8.02,11.55,5.02,15.44Z"/>
  <path class="st0" d="M529,531l.51,4.02c9.59-2.31,18.41-5.11,28.49-4.02l-15.13,115.37c-8.27,4.51-18.02,9.5-27.94,7.2l-1.92-4.56c-.07,3.04-.77,4.57-3.28,6.22-3.57,2.34-22.7,9.54-25.29,5.83l3.55-39.06-13.57,23.91c-7.75,12.93-32.81,18.15-41.85,5.02-17.79-25.84-1.5-109.14,26.72-125.14,6.2-3.52,19.01-3.75,25.46-1.04,7.75,3.26,9.89,16.47,12.76,23.24.98-2.64.17-10.77,2.48-12.51.61-.46,13.75-4.49,14.51-4.49h14.5ZM466.73,527.23c-21.72,4.53-36.51,59.18-37.77,78.23-1,15.17.77,57.9,26.03,48.03,20.8-8.13,34.73-57.58,36.05-77.95,1.03-15.81-.49-53.28-24.31-48.31ZM520.99,534l-19.03,5.66-13.95,118.33c3.83-1.3,15.72-4.91,17.26-8.23l3.75-32.76,9,33.99,17.86-7.63c3.07-36.72,8.31-73.21,15.13-109.36-3.7.86-17.28,3.14-18.84,5.65l-7.65,59.36-1.41-3.6-2.1-61.41Z"/>
  <path class="st1" d="M683.01,648l-12.02-46c-2.64-.21-1.65-.1-1.96,1.52-2.38,12.77-2.37,26.47-4.16,39.36-5.43.51-12.3,5.88-17.36,6.15-2.13.12-1.3-.06-1.52-1.5l14.66-122.31,1.02-1.29c22.06-8.67,53.06-17.91,47.07,18.32-2.36,14.29-11.12,27.13-19.76,38.3-.47,2.89,1.85,9.08,2.75,12.22,1.76,6.12,10.81,26.62,10.27,30.66-.62,4.62-15.68,19.79-18.99,24.58ZM673.01,575c.99,1.11,7.17-5.47,8.02-6.47,2.59-3.06,11.28-15.43,5.97-18.02-3.7-1.52-7.42.44-10.83,1.68l-3.16,22.82Z"/>
  <path class="st1" d="M757,517l-1.13,31.87-22.62,4.37c-.88.77-3.16,15.08-3.24,17.28-.06,1.64-.74,2.72,1.46,2.46,2.9-.33,17.21-6.31,18.53-4.98l-1.04,23.95-21.99,5.51-1.96,14.53,23-4-2.21,31.79-44.79,12.21c-.47-.54.88-13.15,1.2-14.29.64-2.3,5.52-6.11,6.67-8.33,4.71-9.14-2.86-16.66-2.89-23.86-.06-16.02,4.89-38.5,9.31-53.71,2.51-8.61.03-20.87,1.83-26.17.27-.81.7-1.28,1.56-1.44l38.31-7.19Z"/>
  <path class="st1" d="M624,506l-1.11,31.9-23.76,4.24c.06,5.23-2.78,12.42-2.16,17.36.19,1.5-.51,1.69,1.46,1.46,6.34-.75,13.2-4.77,19.55-5.95l-1.09,24.91-23.73,6.27-5.31,47.68-20.86,7.13,14.09-126.9,42.91-8.1Z"/>
  <path class="st1" d="M646.99,545l-16.12,122.37c-.46,1.4-18.7,8.62-19.87,7.62l11-89.5,3.02-3.19,1.11-30.67,20.86-6.63Z"/>
  <path class="st1" d="M520.99,534l2.1,61.41,1.41,3.6,7.65-59.36c1.56-2.5,15.14-4.79,18.84-5.65-6.82,36.15-12.05,72.65-15.13,109.36l-17.86,7.63-9-33.99-3.75,32.76c-1.54,3.32-13.42,6.94-17.26,8.23l13.95-118.33,19.03-5.66Z"/>
  <path class="st1" d="M466.73,527.23c23.83-4.97,25.34,32.51,24.31,48.31-1.33,20.36-15.26,69.82-36.05,77.95-25.26,9.88-27.03-32.86-26.03-48.03,1.26-19.06,16.05-73.7,37.77-78.23ZM465.72,566.15c-1.27.35-5.1,4.62-6.14,5.94-7.55,9.63-19.23,45.18-8.1,53.93,12.14,9.54,21.05-17.07,22.41-25.62,1-6.29,3.97-37.59-8.17-34.25Z"/>
  <path class="st0" d="M673.01,575l3.16-22.82c3.4-1.23,7.13-3.2,10.83-1.68,5.31,2.6-3.38,14.96-5.97,18.02-.85,1.01-7.03,7.58-8.02,6.47Z"/>
  <path class="st0" d="M465.72,566.15c12.14-3.33,9.18,27.96,8.17,34.25-1.36,8.55-10.27,35.16-22.41,25.62-11.13-8.75.55-44.3,8.1-53.93,1.04-1.32,4.87-5.59,6.14-5.94ZM468.01,572c-6.08,10.54-12.41,23.51-13.73,35.77-.65,6-.71,10.93,4.22,15.21,11.42-10.41,15.33-32.6,12.06-47.05-.32-1.42-.9-3.55-2.55-3.93Z"/>
</svg>