<?xml version="1.0" encoding="UTF-8"?>
<svg id="_레이어_1" data-name="레이어_1" xmlns="http://www.w3.org/2000/svg" version="1.1" viewBox="0 0 1166 1129">
  <!-- Generator: Adobe Illustrator 29.8.3, SVG Export Plug-In . SVG Version: 2.1.1 Build 3)  -->
  <defs>
    <style>
      .st0 {
        fill: #ebdb4c;
      }

      .st1 {
        fill: #3e3e3b;
      }
    </style>
  </defs>
  <path class="st1" d="M516,819.5c33.03-87.02,72.97-171.76,104.77-259.23.62-1.71,1.35-3.39,1.22-5.27l-17.36,30.13c-25.42,34.84-64.95,89.58-115.04,77.78-23.96-5.65-28.14-24.42-28.63-46.37-.97-42.64,17.48-81.73,36.55-118.52l-32.5,30.49-50.44,41.56-43.02,117.98-60.29,22.71c-5.52-.25-13.59,1.2-18.76.24-1.14-.21-2.02-.34-2.36-1.64l.81-15.91c47.13-122.6,96.22-244.46,141.06-367.94,27.61-11.02,56.65-21.48,86.5-24.5,25.14-2.54,66-5,68.53,28.45,2.79,36.8-16.29,71.85-35.02,102.05,9.91-5.84,18.13-13.63,29.01-17.98,17.44-6.97,49.43-6.22,60.17,11.76,7.74,12.95,7.41,40.18,5.67,55.09-1.21,10.32-4.59,21.45-6.87,31.62,24.09-7.29,48.26-16.3,73.51-18.98,16.68-1.78,54.13-2.44,64.33,13.65l5.15,12.33,30.41-112.09,12.86-.66,59.3,16.7-.03,15.09c-30.88,69.1-58.58,139.71-78.66,212.84-17.92-.12-37-.95-54.43-4.81-4.9-6.97,10.2-49.59,12.12-60.01.19-1.04,1.32-3.27-.55-3.04-1.66,5.62-5.68,11.57-8.98,16.52-32.15,48.18-79.74,85.83-126.72,118.77l-37.27,98.23-3.76,2.24c-18.75,3.72-45.14,19.73-63.84,17.3-1.27-.17-3.37-3.87-7.43-2.08v-14.5ZM358.73,681.73l42.81-118.68c55.41-43.67,114.26-93.57,148.63-156.37,11.24-20.54,38.24-76.05,12.53-92.87-25.5-16.68-89.15,3.06-115.95,14.45-2.81,1.19-7.62,2.36-9.2,4.8-44.36,124.58-94.76,246.85-141.49,370.52l1.42,1.41,61.25-23.26ZM795.92,643.93c19.99-73.75,48.29-144.75,79.09-214.48l-1.73-2.24-52.83-14.24-62.48,227.52,37.94,3.44ZM601.78,415.28c-33.63,3.18-74.41,53.24-91.8,80.2-19.78,30.67-40.13,76.25-42.02,112.98-2.82,54.59,33.54,58.8,70.51,29.51,47.8-37.86,101.47-127.18,96.56-189.51-1.53-19.47-11.87-35.21-33.26-33.19ZM616.3,710.29c51.71-36.81,108.35-80.8,138.22-138.27,24.27-46.7,24.92-79.34-38.89-71.89-23.7,2.77-49.08,11.1-71.09,19.91-38.36,103.48-82.19,204.78-122.53,307.47.38,1.2,2.16.23,3.03.03,12.15-2.77,32.61-10.55,44.92-15.08,2.32-.85,7.66-2.45,9.09-3.91l37.25-98.26Z"/>
  <path class="st1" d="M756.76,684.26c18.81-2.53,38.52-.26,40.28,22.21,2.14,27.25-13.34,68.73-44.49,71.58s-41.15-5.8-38.53-37.53c1.74-21.11,19.97-53.19,42.74-56.26ZM764.78,690.23c-21.28,2.23-41.53,31.32-43.65,51.39-1.26,11.95.64,27.81,15.37,29.37,28.19,2.99,58-44.03,47.3-69.29-3.27-7.73-10.6-12.36-19.02-11.48Z"/>
  <path class="st0" d="M358.73,681.73l-61.25,23.26-1.42-1.41c46.73-123.67,97.13-245.94,141.49-370.52,1.58-2.44,6.39-3.61,9.2-4.8,26.79-11.38,90.45-31.12,115.95-14.45,25.72,16.82-1.28,72.33-12.53,92.87-34.37,62.8-93.22,112.71-148.63,156.37l-42.81,118.68ZM437,473.99l22.47-15.02c9.86-7.79,38.62-32.95,38.56-45.49-.07-14.65-29.89-.56-36.77,1.78l-24.26,58.73Z"/>
  <path class="st0" d="M616.3,710.29l-37.25,98.26c-1.43,1.46-6.77,3.06-9.09,3.91-12.31,4.53-32.77,12.31-44.92,15.08-.88.2-2.66,1.17-3.03-.03,40.34-102.69,84.16-204,122.53-307.47,22.01-8.81,47.39-17.15,71.09-19.91,63.81-7.45,63.16,25.19,38.89,71.89-29.87,57.47-86.51,101.46-138.22,138.27ZM647.01,637c12.15-6.41,23.76-14.35,34-23.49,4.78-4.27,26.79-24.1,18.58-30.61-5.37-4.26-25.28,3.14-31.58,5.61l-21.01,48.48Z"/>
  <path class="st0" d="M601.78,415.28c21.39-2.02,31.73,13.72,33.26,33.19,4.91,62.32-48.76,151.65-96.56,189.51-36.97,29.28-73.33,25.08-70.51-29.51,1.89-36.73,22.24-82.31,42.02-112.98,17.39-26.96,58.16-77.02,91.8-80.2ZM575.74,491.24c-21.98,3.59-59.32,62.9-64.07,83.94-4.33,19.21,2.47,41.24,25.65,28.65,20.7-11.24,38.31-44.81,45.39-66.61,3.59-11.04,15.49-49.64-6.97-45.98Z"/>
  <path class="st0" d="M795.92,643.93l-37.94-3.44,62.48-227.52,52.83,14.24,1.73,2.24c-30.8,69.74-59.1,140.73-79.09,214.48Z"/>
  <path class="st0" d="M764.78,690.23c8.41-.88,15.74,3.74,19.02,11.48,10.7,25.27-19.11,72.28-47.3,69.29-14.74-1.56-16.64-17.42-15.37-29.37,2.12-20.08,22.37-49.17,43.65-51.39Z"/>
  <path class="st1" d="M437,473.99l24.26-58.73c6.87-2.34,36.7-16.43,36.77-1.78.06,12.54-28.7,37.7-38.56,45.49l-22.47,15.02ZM488,417.01c-14.11.65-17.24,10.29-21,21.98,2.02.43,2.67-.44,4.04-1.45,1.92-1.41,18.25-19.56,16.95-20.53Z"/>
  <path class="st1" d="M647.01,637l21.01-48.48c6.3-2.47,26.21-9.87,31.58-5.61,8.21,6.51-13.8,26.34-18.58,30.61-10.24,9.13-21.86,17.08-34,23.49ZM688,594.01c-6.87-.13-10.75,4.7-11.99,10.98,1.18,1.25,12.66-10.47,11.99-10.98Z"/>
  <path class="st1" d="M575.74,491.24c22.46-3.67,10.56,34.93,6.97,45.98-7.08,21.8-24.69,55.37-45.39,66.61-23.18,12.59-29.98-9.44-25.65-28.65,4.75-21.04,42.09-80.35,64.07-83.94ZM526.12,599.88c3.65,2.12,21.03-15,23.91-18.36,11.57-13.51,22.04-35.8,27.24-52.76,1.66-5.42,5.5-18.34,5.69-23.41.29-7.59-9.8,2.37-12.42,4.67-14.72,12.9-32.42,38.59-40.54,56.46-4.59,10.11-10.69,23.17-3.87,33.4Z"/>
</svg>