<?xml version="1.0" encoding="UTF-8"?>
<svg id="_레이어_1" data-name="레이어_1" xmlns="http://www.w3.org/2000/svg" version="1.1" viewBox="0 0 1166 1129">
  <!-- Generator: Adobe Illustrator 29.8.3, SVG Export Plug-In . SVG Version: 2.1.1 Build 3)  -->
  <defs>
    <style>
      .st0 {
        fill: #eada4b;
      }

      .st1 {
        fill: #353634;
      }
    </style>
  </defs>
  <path class="st1" d="M774,539c7.96-.77,14.92-11.13,23.3-9.02.62.16,7.75,8.22,7.71,10.01,1.67-.09,1.15-2.8,2.11-4.36.58-.94,1.96-2.69,2.89-3.11,3.67-1.65,26.21,2.75,30.26,4.7,6.94,3.35,8.82,9.21,6.77,16.33-5.21,18.13-18.5,42.5-25.82,61.18-8.54,21.79-15.5,48.8-24.73,69.27-.71,1.57-3.08,4.87-4.53,5.47-3.26,1.36-26.7-.37-29.9-2.05-1.6-.84-5.71-5.2-6.05-6.94-1.76-8.97,4.58-15.41,5.46-23.5-7.99.1-26.85,10.53-33.47,7.49-1.84-.84-2.83-4.21-5.53-4.48-1.28-.13-19.6,3.76-21.54,4.47-4.28,1.57-2.26,7.3-4.07,10.9-3.68,7.3-14.01,5.57-20.93,7.08-8.49,1.85-32.18,11.41-38.37,10.52-2.45-.35-7.7-4.41-8.37-6.67-2.38-8.01,2.56-26.99,3.66-35.93,2.4-19.48,3.76-39.3,8.13-58.36l-21.46,21.03c-1.42,8.77-2.51,17.66-3.52,26.48-.52,4.53.03,15.46-2.43,18.57-2.08,2.64-22.24,9.6-26.07,9.93-8.41.73-13.82-5.32-13.49-13.49,1.19-29.41,9.7-66.17,13.85-96.15,1.75-12.64,2.26-26.34,4.25-38.75,1.38-8.64,6.8-9.77,14.66-12.34,23.73-7.75,63.7-11.96,62.23,23.73,12.42-2.67,22.05-1.41,20.86,13.37-1.33,16.54-7.8,38.21-10.6,55.39-1.53,9.38-2.33,18.92-4.27,28.22,3.84-.3,8.92-.2,9.77-4.72,10.24-37.31,21.44-74.38,28.49-112.51,1.41-2.94,3.73-4.31,6.71-5.29,9.09-3.02,32.21-8.08,41.78-9.21,6.14-.73,11.01.47,14.3,6.19,2.5,4.33-.57,12.97-1.04,18.06-.57,6.09-.92,12.37-1,18.49ZM699,633.5v19.5l16.03-2.47c4.1-9.74-.6-19.58,13.45-20.55l-1.48,25.01,32.55-9.94c.53-36.23.48-72.45,3.45-108.55.87-10.63,3.27-21.42,4.01-32.01.18-2.63-2.42-1.48-4.23-1.22-13.54,1.98-26.71,6.79-40.3,8.7l-2.33,1.67c-8.37,37.59-16.92,75.16-27.96,112.05-.06,3.2,6.3,4.88,6.81,7.8ZM581.01,658l23.54-7.95,5.65-45.35c19.75-16.82,42.51-39.97,47.53-66.47,6.5-34.26-18.44-32.66-43.49-25.49-2.59.74-14.6,4.32-15.1,5.9l-18.13,139.36ZM679.99,536l-11.8,3.2c-3.35,15.78-9.79,32.06-19.98,44.51l-13.21,99.28c9.04-2.68,17.9-5.94,26.99-8.5,6.2-1.75,17.43-2.75,22.58-5.42,1.69-.87,2.29-1.04,2.97-3.03,1.12-3.23,3.63-31.88,2.45-33.05l-26.99,5,16.99-101.99ZM795,537l-22.81,13.69-2.21,29.77,8.07,53-16.03,44.05,23.89,2.38c14.33-46.22,33.06-90.94,52.09-135.36-.33-1.5-23.12-6.52-24.86-5.4l-16.14,45.86c-.93.06-1.99-5.2-1.99-5.49v-42.5ZM773.5,540v1c.65-.33.65-.67,0-1ZM769,619v20l2.96-6.54-2.96-13.46Z"/>
  <path class="st1" d="M401,533.01l54.51-8.11c1.58-.22,2.71.28,4.04,1.05,2.45,1.42,4.18,5.42,6.43,7.04-.17-2.65,2.13-7.05,4.71-7.79,1.63-.47,10.38-1.16,12.76-1.25,9.31-.35,18.69-.3,18.49,11.47l-14.45,44.58c4.42-9.58,9.52-18.74,15.69-27.32,8.77-12.2,28.52-37,45.31-24.68,4.92,3.61,8.42,9.73,9.25,15.75.74,5.41,1.18,24.79.24,29.72-.26,1.38-.77,2.28-2.01,2.99l-13.96,7.52c13.84,6.05,16.31,16.15,14.98,30.5-2.36,25.31-34.81,69.46-63.69,54.73-18.39-9.38-.74-29.26.77-43.52-14.71-8.13-11.44-22.44-10.08-36.69-5.11,2.97-25.25,7.5-29.97,5.48-8.16-3.48-4.74-15.76-2-21.96l-7.06,1.13-11.48,85.33c-1.11,2.17-18.2,7.97-21.42,8.57-8.83,1.65-14.79-3.08-14.09-12.08l10.05-76.46c-6.56,1.35-12.81-3.15-12.01-10-.77-.83-21.06,2.07-21.99,3.01-3.61,3.62,5.97.14,6.58.07,4.76-.6,9.02,1.1,11.47,5.36,3.37,5.87-1.17,21.59-.27,28.84-1.31,2.85-3.69,4.08-6.79,3.72l6.05,9.44c-1.21,6.38.41,33.53-3.45,36.66-6.09,1.42-12.33,2.12-18.42,3.58-8.51,2.04-23.15,7.83-30.71,8.32-6.47.42-12.07-4.53-11.48-11.01-.62-.67-15.78,2.93-18,3.5-8.11,2.07-22.02,8.59-29.55,7.56-3.93-.54-8.41-5.29-7.47-9.5l16.09-119.98c.56-3.27,2.46-5.35,5.46-6.54,2.82-1.12,20.32-5.17,22.99-5.12,8.12.15,8.95,7.96,8.35,14.47-1.69,18.46-8.11,40.15-10.71,59.29-.56,4.08-1.35,8.19-1.16,12.33,6.86-2.11,13.76-4.25,18.98,2l10.94-81.57c1.39-1.5,2.8-2.59,4.81-3.19,8.32-2.46,32.22-6.95,40.71-7.28,7.37-.29,12.83,1.74,12.55,10.05ZM384,601v-20.5c0-.31,1.38-1.42,1-2.49l-20.99,4.99,2.16-18.33,1.5-1.5,23.33-3.17,2.01-31.98-44.86,8.13-16.15,123.35,48.91-11.59,1.11-30.9-23.49,4.02.58-13.92,24.9-6.09ZM492.99,529.01c-4.05,1.76-18.73-.17-20.51,1.98l-18.48,55.01,21.86-3.13,17.13-53.86ZM456,531l-55.94,8.05.95,31.95,14-2.01-12,91c3.64-1.45,21.99-5.92,22.84-8.65l11.32-85.68c.29-1.33,1.17-1.47,2.33-1.67,2.12-.38,14.96-.45,15.5-1l1-32ZM529.01,578c.7.81,18.35-8.29,19.39-9.1s1.34-.97,1.61-2.39c1.12-6.02.09-23.85-2.49-29.52-7.89-17.29-28.21,4.69-34.48,12.54-10.4,12.99-30.87,45.9-23.54,62.48,6.96,15.72,32.56-2.54,37.07,3.92,5.78,8.3-18.39,21.53-25.25,13.19l-1.8.88-9.49,27.56c3.04,5.44,12.44,6.19,18.24,5.2,10.57-1.8,25.14-18.58,30.54-27.46,5.81-9.56,14.89-32.79,6.76-42.37-8.58-10.11-29.98,3.39-32.43-3.57-2.28-6.47,6.56-21.1,14.73-18.22l1.14,6.85ZM317,533.01l-22.87,5.13-16.12,121.86,46.06-12.61,1.93-31.39-23.99,4.99,14.99-87.99Z"/>
  <path class="st0" d="M699,633.5c-.51-2.93-6.87-4.6-6.81-7.8,11.03-36.89,19.59-74.46,27.96-112.05l2.33-1.67c13.58-1.91,26.76-6.72,40.3-8.7,1.82-.27,4.42-1.41,4.23,1.22-.74,10.59-3.13,21.38-4.01,32.01-2.97,36.1-2.91,72.33-3.45,108.55l-32.55,9.94,1.48-25.01c-14.05.97-9.36,10.8-13.45,20.55l-16.03,2.47v-19.5ZM731.86,603.86l6.13-69.85-14,70.48c-.07,1.44,6.86-.32,7.87-.63Z"/>
  <path class="st0" d="M581.01,658l18.13-139.36c.51-1.58,12.51-5.16,15.1-5.9,25.06-7.17,49.99-8.77,43.49,25.49-5.03,26.5-27.79,49.65-47.53,66.47l-5.65,45.35-23.54,7.95ZM633.86,547.14c-1.81-2.86-12.95.64-15.34,2.87l-3.51,20.98c1.42,1.6,13.75-10.92,14.97-12.52,1.91-2.51,5.85-8.21,3.88-11.33Z"/>
  <path class="st0" d="M795,537v42.5c0,.29,1.06,5.56,1.99,5.49l16.14-45.86c1.74-1.12,24.53,3.9,24.86,5.4-19.03,44.42-37.76,89.15-52.09,135.36l-23.89-2.38,16.03-44.05-8.07-53,2.21-29.77,22.81-13.69Z"/>
  <path class="st0" d="M679.99,536l-16.99,101.99,26.99-5c1.18,1.17-1.33,29.82-2.45,33.05-.69,1.98-1.29,2.15-2.97,3.03-5.15,2.67-16.38,3.67-22.58,5.42-9.09,2.57-17.95,5.83-26.99,8.5l13.21-99.28c10.18-12.45,16.63-28.73,19.98-44.51l11.8-3.2Z"/>
  <path class="st0" d="M529.01,578l-1.14-6.85c-8.17-2.88-17.01,11.75-14.73,18.22,2.45,6.96,23.85-6.53,32.43,3.57,8.13,9.58-.95,32.81-6.76,42.37-5.4,8.88-19.97,25.66-30.54,27.46-5.8.99-15.2.24-18.24-5.2l9.49-27.56,1.8-.88c6.86,8.34,31.03-4.89,25.25-13.19-4.5-6.46-30.11,11.79-37.07-3.92-7.34-16.58,13.14-49.49,23.54-62.48,6.28-7.84,26.59-29.82,34.48-12.54,2.58,5.66,3.61,23.49,2.49,29.52-.26,1.43-.56,1.58-1.61,2.39s-18.69,9.91-19.39,9.1Z"/>
  <path class="st0" d="M384,601l-24.9,6.09-.58,13.92,23.49-4.02-1.11,30.9-48.91,11.59,16.15-123.35,44.86-8.13-2.01,31.98-23.33,3.17-1.5,1.5-2.16,18.33,20.99-4.99c.38,1.08-1,2.18-1,2.49v20.5Z"/>
  <path class="st0" d="M456,531l-1,32c-.55.55-13.38.62-15.5,1-1.15.21-2.04.35-2.33,1.67l-11.32,85.68c-.85,2.74-19.19,7.21-22.84,8.65l12-91-14,2.01-.95-31.95,55.94-8.05Z"/>
  <polygon class="st0" points="317 533.01 302.01 620.99 325.99 616 324.06 647.39 278.01 660 294.13 538.13 317 533.01"/>
  <path class="st0" d="M492.99,529.01l-17.13,53.86-21.86,3.13,18.48-55.01c1.78-2.15,16.46-.22,20.51-1.98Z"/>
  <path class="st1" d="M731.86,603.86c-1.02.31-7.94,2.07-7.87.63l14-70.48-6.13,69.85Z"/>
  <path class="st1" d="M633.86,547.14c1.97,3.12-1.97,8.82-3.88,11.33-1.22,1.6-13.55,14.12-14.97,12.52l3.51-20.98c2.39-2.23,13.54-5.73,15.34-2.87Z"/>
</svg>