<?xml version="1.0" encoding="UTF-8"?>
<svg id="_레이어_1" data-name="레이어_1" xmlns="http://www.w3.org/2000/svg" version="1.1" viewBox="0 0 3000 3000">
  <!-- Generator: Adobe Illustrator 29.8.3, SVG Export Plug-In . SVG Version: 2.1.1 Build 3)  -->
  <defs>
    <style>
      .st0 {
        fill: #ebc944;
      }

      .st1 {
        fill: #fec809;
      }

      .st2 {
        fill: #fff;
      }

      .st3 {
        fill: #050504;
      }

      .st4 {
        fill: #e9e7e7;
      }

      .st5 {
        fill: #e04131;
      }
    </style>
  </defs>
  <ellipse class="st2" cx="1167.09" cy="1453.5" rx="65.09" ry="75.5"/>
  <ellipse class="st2" cx="1434.91" cy="1455.21" rx="65.09" ry="75.5"/>
  <path class="st4" d="M1422,1008c20.62,5.46,38.98,18.8,60,22l-2.02,3.96c1.91,0,4.13.2,5.77,1.21,17.11,10.46,38.26,18.82,55.96,30.12,58.28,37.2,64.91,65.49,74.77,131.22,1.01,6.76,5.87,11.24,1.52,19.48,27.32-9.22,61.13,15.47,44.85,43.87-2.37,4.14-8.02,5.81-8.81,11.19,3.3,27.67-.94,61.13,3.99,87.92.95,5.17,13.36,14.77,17.62,20.38,37.13,48.79,26.43,126.13-21.64,163.68-18.94,14.8-33.41,15.64-56.43,14.38-3.38-.19-6.4-4.35-5.59,2.6-.68-2.19-3.34-4.41-2-8,90.15,19.66,128.16-107.38,81.66-170.66-4.46-6.07-15.09-13.58-17.76-18.24-1.87-3.26-3.67-27.63-3.97-34.03-.46-9.7-1.33-57.7,1.12-63.05,1.58-3.45,7.13-5.27,8.54-11.46,5.77-25.35-9.92-37.97-34.1-34.09-34.36,5.51-24.15,27.59-25.39,54.67-.12,2.59-2.07,4.58-2.08,4.84-8.26-4.3-15.67.84-23.54,1.47-19.29,1.54-44.18,1.14-63.36-1.58-3.65-.52-7.31-3.75-9.1-3.89,3.29-19.48-23.51-32.76-37.96-41.04-74.24-42.54-166.05-66.64-250.04-80.96l11.99-3.98-40.82-6.19c-2.28.15-.79,3.75-1.17,4.17-2.64,2.89-23.96.27-30,0l8-4.01c-5.75-11.25-1.94-14.05-.46-23.46,2.54-16.1,3.38-20.36,14.45-33.54,24.22-28.85,79.66-57.45,114.93-71.07,46.12-17.8,83.17-20.61,131.07-7.93ZM1475.99,1032.02c-2.81-1.44-5.34,1.27-3.98,1.96,2.81,1.44,5.34-1.27,3.98-1.96Z"/>
  <path class="st5" d="M1144,1148c3.32.13,6.68-.15,10,0,6.04.27,27.36,2.89,30,0,1.82,1.2,4.01,1.33,6,2,5.91,1.99,11.92,2.99,18,4,1.87.31,4.14-.32,6,0,83.99,14.31,175.8,38.41,250.04,80.96,14.45,8.28,41.24,21.56,37.96,41.04-4.16-.32-6.84,4.64-10.85,6.16-18.44,6.99-31.44-1.07-47.15-4.16-1.22-.24-2.77.24-4,0-8.75-1.71-22-5.7-30-6-1.65-.06-4.85-.36-6,0-20.28-6.41-42.1-9.23-63.26-11.74-65.64-7.81-155.65-9.86-218.71,10.78-11.06,3.62-29.36,15.19-40.04,12.96-7.96-1.66-29.73-15.94-38.59-20.47-3.44-1.76-8.26-.95-9.41-1.53-7.05-3.57-41.76-30.68-45.46-36.53-2.61-4.13.98-9.03-6.54-13.47v-26c4.92-5.36,9.64-16.75,16.67-21.29,11.19-7.23,26.38-5.5,35.33-12.71,6.74,1.58,12.73-1.17,18-2,3.39-.53,6.94-1.64,10-2,28.19-3.33,54.16-1.07,82,0Z"/>
  <path class="st0" d="M1404,1272c-25.02,7.84-58.34-5.19-85.12-9.88-4.95-.87-26.92-.88-30.86.91-6.77,3.08-10.17,18.5-16.85,23.15-32.4,63.27-36.78,127.63-24.85,196.5,12.26,70.77,64.32,153.56,37.2,223.85-2.97,7.69-12.94,17.51-16.42,25.58-1.21,2.8-6,14.99-6.71,17.29-4.5,14.52,4.25,44.25,13.55,55.64,23.95,29.33,73.83,31.16,98.08,1.99,37.42-45.01,51.13-117.24,45.98-174.05-2.11-23.28-14.72-86.84-25.04-106.99-1.01-1.97-8.41-6.47-10.82-9.61-19.71-25.71-24.04-48.43-19.93-81.16,1.69-13.43,4.4-25.98,6.02-39.98,2.65-23.02,21.41-56.47,33.66-76.34,7.51-12.18,16.93-23.05,25.72-34.22l.36-4.68c-8.06-1.49-21.03,5.34-17.99-8.01,8,.3,21.25,4.29,30,6-8.19,16.22-20.65,28.89-30.74,44.26-7.21,10.99-24.92,38.45-28.36,49.64-4.54,14.78-4.22,40.03-7.14,56.86-2.56,14.76-7.78,19.22-5.55,38.01,2.57,21.68,10.45,32.6,23.09,47.91,14.74,17.86,20.09,44.83,25.29,67.72,17.1,75.15,15.52,141.17-25.81,209.37-20.32,33.53-49.06,50.91-89.37,41.8-17.44-3.94-42.7-30.09-46.44-47.56-1.71-7.98-2.34-35.16-.89-42.94,3.52-18.86,25.72-36.4,27.99-66.01,2.6-34-4.49-63.39-14.95-93.2-10.1-28.79-18.95-57.7-26.98-87.02-1.51-5.5-5.79-15.85-6.17-17.92-1.86-10.28.92-26.07-1.98-42.93-2.65-15.4-2.19-13.36-.08-27.09,1.85-12.04.69-26.31,2.11-37.88,4.51-36.71,22.48-72.38,41.31-104.59,1.55-2.66,8.03-3.29,3.53-8.47-24.64-3.16-16.66,6.74-24.52,23.39s-29.11,39.93-39.15,56.85c-8.45,14.25-16.88,28.76-21.14,44.95-73.91-19.7-105.22,66.25-71.76,121.51,13.27,21.91,40.83,33.46,65.67,26.31,7.26-2.09,18.54-12.38,23.93-10.05,7.9,3.43,4.93,11.74,6.5,17.64,1.21,4.56,5.35,7.39,6.61,11.39,20.2,64.24,25.58,141.55.53,204.59-18.58,46.76-49.62,92.42-107.63,78.51-20.73-4.97-46.68-34.38-51.04-55.02-1.13-5.33,2.76-29.2,4.52-35.64,4.62-16.94,17.18-30.64,23.36-46.64,17.7-45.87-9.91-101.84-22.76-145.76-20.02-68.44-32.3-143.98-10.99-213.99l20.99-52.01c10.68,2.23,28.98-9.34,40.04-12.96,63.06-20.64,153.06-18.59,218.71-10.78,21.16,2.52,42.97,5.34,63.26,11.74ZM1252,1260.01l-66.97,2.02c-21.46,11.37-53.74,9.92-76.54,19.46-2.95,1.23-4.86,5.17-7.92,6.11s-6.65-.27-9.12.4c-.93.25-10.52,14.03-11.26,15.58-43.99,91.72-15.72,187.46,10.82,274.42,10.46,34.28,17.97,64.42,15.07,101.08-3.13,39.54-38.2,54.23-28.01,103.87,1.11,5.39,5.24,5.84,6.86,9.14,1.43,2.91.81,6.75,2.22,9.78,7.64,16.36,40.71,28.11,57.69,25.97,20.52-2.58,34.6-10.6,47.15-26.83,45.52-58.9,50.43-155.79,31.47-225.45-1.88-6.89-9.21-17.85-9.44-18.91-1.56-7.44,1.46-16.55-4.18-24.56-24.35,8.23-53.82,14.27-75.92-2.99-30.62-23.92-38.35-66.94-29.05-103.2,6.38-24.86,30.19-50.52,56.23-53.77,7.61-.95,16.78,1.15,23.84-.16,9.5-1.76,8.33-11.68,11.95-18.05,5.61-9.88,12.27-19.98,18.37-29.63,8.75-13.83,26.53-34.22,32.83-47.17,2.58-5.31,3.98-11.17,3.91-17.09Z"/>
  <path class="st3" d="M1082,1284l-20.99,52.01c-21.31,70.01-9.03,145.55,10.99,213.99-1.31.12-2.72-.17-4,0-3.76.51-9.09,1.45-12,4-1.33,0-2.67,0-4,0-5.99,0-12.01,0-18,0-1.33,0-2.67,0-4,0-3.09-3.04-8.01-2.81-12-4s-8.23-2.45-12-4c.48-4.25.25-4.48-4-4-6.56-9.71-16.71-17.58-24-28-5.39-14.78-9.65-27.32-12.06-43.03-.57-3.72,2.51-8.1-3.94-6.97-.3-5.78-.25-12.21,0-18,6.46,1.13,3.35-3.26,3.94-6.97,1.66-10.57,4.33-23.1,8.06-33.03,7.48-19.91,25.42-42.78,44.61-52.39,4.39-2.2,13.31-1.77,15.07-6.93l.33-84.67c1.15.58,5.98-.23,9.41,1.53,8.85,4.53,30.63,18.81,38.59,20.47Z"/>
  <path class="st0" d="M1502,1276c1.8.14,5.45,3.37,9.1,3.89,19.18,2.72,44.07,3.12,63.36,1.58,7.87-.63,15.27-5.77,23.54-1.47-.27,11.2-.41,22.81,0,34-6.06-1.07-4.81.24-7.08,3.86-10.45,16.74-17.76,30.07-24.92,48.14-3.68,9.29-14.6,17.24-20.06,26.94-26.79,47.58-18.09,145.5,44.06,159.06-1.34,3.59,1.32,5.81,2,8,24.69,79.37,23.8,164.9-21.99,237.01-25.18,39.64-75.47,51.08-112.95,20.94-24.95-20.06-29.34-61-15.98-87.88,4.62-9.3,16.39-23.26,19.59-34.41,8.61-29.95,2.55-52.13-1.13-82.2l-25.64-74.42c.55-6.58,17.48-8.75,23.88-12.28,34.4-18.95,41.51-61.96,32.03-97.56-6.61-24.84-26.84-48.84-54.89-49.28-14.66-.23-19.53,8.29-16.97-16.99,1.65-16.31,10.86-43.33,17.66-58.35,2.73-6.03,10.56-15.25,12.28-19.76,1.48-3.89-5.52-2.07-3.87-6.83,15.71,3.09,28.71,11.15,47.15,4.16,4.01-1.52,6.69-6.48,10.85-6.16ZM1589.98,1286c-24.07,3.44-50.38,2.21-75.08,2.09-10.88-.05-15.2-3.97-27.38.44-5.07,1.83-16.35,13.64-15.54-.53-16.09,4.18-16.48-6.9-24.68,10.32-7.06,14.81-16.01,39.14-19.1,54.9-5.16,26.38-.04,14.93,16.32,19.25,2.04.54,15.98,6.16,18.61,7.39,7.82,3.66,32.3,31.58,34.32,39.68,11.14,44.63,1.65,101.34-45.37,119.56-2.89,1.12-10.13.23-10.12,1.93,1.26,7.06,7.31,14.44,9.49,20.51,15.93,44.45,32.51,103.68,11.32,148.25-7.36,15.49-18.55,26.6-20.57,45.42-5.64,52.65,40.81,85.81,89.23,67.25,33.57-12.87,61.82-88.68,66.45-121.56,5.46-38.77-.13-75.18-7.42-112.36-1.76-8.95-3.16-18.14-4.88-27.11-14.19-11.46-30.22-18.49-41.58-34.43-28.85-40.5-28.67-100.82-.74-142.72,3.86-5.78,14.15-14.21,15.58-18.33s.63-8.34,2.18-11.91c4.18-9.6,23.14-28.32,27.89-42.11,2.7-7.85.33-17.7,1.06-25.92Z"/>
  <path class="st3" d="M1477.19,1418.77c7.15,10.93,2.05,9.24,3.25,16.01.46,2.6,4.77,3.56,5.68,12.1,2.17,20.56-6.63,48.27-24.3,59.95-10.83,7.16-24.02,5.41-34.94-.72-1.96-1.1-12.92-10.91-13.76-12.24-1.1-1.76-10.65-28.51-11.01-30.98-1.9-13.04,6.9-48.52,18.05-55.7,7.2-4.63,20.48-9.62,28.95-8.95,1.1.09,18.82,9.26,19.67,9.96.52.43,7.67,9.48,8.39,10.58Z"/>
  <path class="st3" d="M1232,1436c.97,2.42-2.14,12.38-2.16,16.97-.02,5.98,2.58,12.86,1.81,17.51-1.13,6.83-10.14,26.33-15.49,30.69-1.63,1.33-23.18,10.95-25.16,10.95-9.48,0-33.15-15.86-36.51-25.61-5.72-16.58-8.43-49.41.69-64.33.85-1.4,14.74-17.57,15.71-18.29,5.85-4.31,23.72-7.37,30.57-4.43,2.69,1.15,17.13,11.14,18.59,13.48,2.94,4.71,4.25,13.11,7.11,18.97,1.21,2.47,4.71,3.79,4.83,4.08Z"/>
  <path class="st5" d="M1456,990c-1.54,5.94,5.72,4.1,10,6,12.35,5.47,23.04,20.2,16,34-21.02-3.2-39.38-16.54-60-22-1.47-5.57,7.47-11.8,12-14,.28-.14,5.09-1.74,6-2,5.55-1.58,10.14-2.43,16-2Z"/>
  <path class="st4" d="M1062,1148c-1.11-6.11,3.07-3.79,6.91-4,23.45-1.29,44.7-3.94,68.22-.04,3.76.62,8.01-2.26,6.86,4.04-27.84-1.07-53.81-3.33-82,0Z"/>
  <path class="st0" d="M962,1464c6.44-1.13,3.36,3.25,3.94,6.97,2.42,15.71,6.68,28.25,12.06,43.03-.12-.17-2.61.79-3.94-1.47-7.61-13-11.27-33.6-12.06-48.53Z"/>
  <path class="st0" d="M974,1406c-3.73,9.93-6.41,22.46-8.06,33.03-.58,3.71,2.52,8.1-3.94,6.97.64-14.84,1.87-20.48,6.62-34.48,1.1-3.25.36-6.53,5.38-5.52Z"/>
  <path class="st4" d="M982,1186v26c-.73-.43-3.5,1.24-4.09-1.24-.56-2.35-.34-23.55.43-24.5s3.41.02,3.66-.26Z"/>
  <path class="st4" d="M1052,1150c-5.27.83-11.26,3.58-18,2,.27-.22-1.07-3.5,1.26-4.08,3.4-.85,14.31-.76,16.74,2.08Z"/>
  <path class="st0" d="M1052,1554c3.01,5.6-12.67,4.99-16.74,4.04-2.33-.55-1.07-2.19-1.26-4.04,5.99,0,12.01,0,18,0Z"/>
  <path class="st0" d="M1030,1554c-2.25,0-12.98,4.28-12-4,3.99,1.19,8.91.96,12,4Z"/>
  <path class="st0" d="M1068,1550c.98,8.28-9.75,4-12,4,2.91-2.55,8.24-3.49,12-4Z"/>
  <path class="st4" d="M1456,990c3.66.27,11.12,1.37,10,6-4.28-1.9-11.54-.06-10-6Z"/>
  <path class="st4" d="M1440,992c-.91.26-5.72,1.86-6,2-.72-4.68.37-4.44,4.99-3.98l1.01,1.98Z"/>
  <path class="st0" d="M1002,1542c4.25-.48,4.48-.25,4,4-.76-.31-2.86.66-3.76-.25s.09-3.27-.24-3.75Z"/>
  <path class="st3" d="M1590,1552c-62.15-13.55-70.85-111.48-44.06-159.06,5.46-9.7,16.38-17.65,20.06-26.94,11.58-2.71,23.82-10.73,33.84-17.27,1.35-8.68.69-20.4.24-29.89-.12-2.57-2.07-4.58-2.08-4.84-.41-11.19-.27-22.8,0-34,0-.26,1.96-2.25,2.08-4.84,1.24-27.08-8.96-49.16,25.39-54.67,24.18-3.88,39.87,8.75,34.1,34.09-1.41,6.19-6.96,8.01-8.54,11.46-2.45,5.35-1.57,53.35-1.12,63.05.3,6.4,2.1,30.77,3.97,34.03,2.68,4.66,13.31,12.17,17.76,18.24,46.5,63.28,8.5,190.32-81.66,170.66Z"/>
  <path class="st2" d="M1184,1148c.39-.43-1.11-4.02,1.17-4.17l40.82,6.19-11.99,3.98c-1.86-.32-4.13.31-6,0,1.74-6.04-14.59-8.02-18-4-1.99-.67-4.18-.8-6-2Z"/>
  <path class="st2" d="M1475.99,1032.02c1.36.69-1.17,3.4-3.98,1.96-1.36-.69,1.17-3.4,3.98-1.96Z"/>
  <path class="st1" d="M1404,1272c1.15-.36,4.35-.06,6,0-3.04,13.35,9.93,6.52,17.99,8.01l-.36,4.68c-8.78,11.18-18.2,22.04-25.72,34.22-12.25,19.87-31.01,53.31-33.66,76.34-1.61,14-4.33,26.55-6.02,39.98-4.11,32.73.22,55.45,19.93,81.16,2.41,3.14,9.81,7.64,10.82,9.61,10.32,20.15,22.93,83.7,25.04,106.99,5.15,56.81-8.55,129.04-45.98,174.05-24.25,29.16-74.14,27.34-98.08-1.99-9.31-11.4-18.05-41.12-13.55-55.64.71-2.3,5.5-14.5,6.71-17.29,3.48-8.07,13.45-17.89,16.42-25.58,27.12-70.29-24.94-153.08-37.2-223.85-11.93-68.87-7.55-133.23,24.85-196.5,6.68-4.65,10.08-20.08,16.85-23.15,3.94-1.79,25.91-1.77,30.86-.91,26.78,4.69,60.09,17.72,85.12,9.88Z"/>
  <path class="st4" d="M1190,1150c3.41-4.02,19.74-2.04,18,4-6.08-1.01-12.09-2.01-18-4Z"/>
  <path class="st1" d="M1252,1260.01c.08,5.92-1.33,11.77-3.91,17.09-6.3,12.95-24.08,33.34-32.83,47.17-6.1,9.65-12.76,19.75-18.37,29.63-3.62,6.37-2.45,16.29-11.95,18.05-7.06,1.31-16.23-.78-23.84.16-26.04,3.24-49.86,28.91-56.23,53.77-9.3,36.26-1.58,79.29,29.05,103.2,22.1,17.26,51.58,11.21,75.92,2.99,5.63,8.01,2.61,17.12,4.18,24.56.22,1.07,7.56,12.02,9.44,18.91,18.96,69.66,14.06,166.55-31.47,225.45-12.55,16.23-26.63,24.25-47.15,26.83-16.99,2.14-50.05-9.62-57.69-25.97-1.41-3.02-.79-6.87-2.22-9.78-1.62-3.3-5.76-3.75-6.86-9.14-10.19-49.63,24.88-64.32,28.01-103.87,2.9-36.66-4.61-66.8-15.07-101.08-26.54-86.96-54.8-182.7-10.82-274.42.74-1.55,10.33-15.33,11.26-15.58,2.47-.67,6.02.55,9.12-.4s4.96-4.88,7.92-6.11c22.81-9.53,55.09-8.08,76.54-19.46l66.97-2.02Z"/>
  <path class="st1" d="M1589.98,1286c-.73,8.22,1.64,18.06-1.06,25.92-4.74,13.79-23.71,32.52-27.89,42.11-1.55,3.56-.76,7.82-2.18,11.91s-11.73,12.55-15.58,18.33c-27.93,41.9-28.11,102.22.74,142.72,11.36,15.94,27.39,22.97,41.58,34.43,1.72,8.98,3.13,18.16,4.88,27.11,7.29,37.18,12.88,73.59,7.42,112.36-4.63,32.88-32.87,108.69-66.45,121.56-48.43,18.56-94.87-14.6-89.23-67.25,2.02-18.83,13.21-29.93,20.57-45.42,21.19-44.57,4.62-103.8-11.32-148.25-2.18-6.07-8.23-13.46-9.49-20.51,0-1.7,7.23-.81,10.12-1.93,47.02-18.22,56.51-74.92,45.37-119.56-2.02-8.1-26.5-36.02-34.32-39.68-2.63-1.23-16.57-6.85-18.61-7.39-16.36-4.32-21.47,7.13-16.32-19.25,3.08-15.76,12.04-40.09,19.1-54.9,8.2-17.22,8.59-6.14,24.68-10.32-.82,14.17,10.47,2.36,15.54.53,12.18-4.4,16.49-.49,27.38-.44,24.69.12,51.01,1.35,75.08-2.09Z"/>
  <path class="st4" d="M1598,1314c0,.26,1.96,2.27,2.08,4.84.45,9.48,1.11,21.2-.24,29.89-10.02,6.54-22.27,14.57-33.84,17.27,7.16-18.07,14.48-31.4,24.92-48.14,2.26-3.62,1.02-4.93,7.08-3.86Z"/>
</svg>