<?xml version="1.0" encoding="UTF-8"?>
<svg id="_레이어_1" data-name="레이어_1" xmlns="http://www.w3.org/2000/svg" version="1.1" viewBox="0 0 1166 1129">
  <!-- Generator: Adobe Illustrator 29.8.3, SVG Export Plug-In . SVG Version: 2.1.1 Build 3)  -->
  <defs>
    <style>
      .st0 {
        fill: #eada4b;
      }

      .st1 {
        fill: #353633;
      }
    </style>
  </defs>
  <path class="st1" d="M839.31,519.31c4.35-4.78,12.38-1.63,17.36.52,2.14.92,11.2,5.46,12.42,6.58,2.4,2.22,1.49,5.69,4.41,7.57,2.24-.06,4.72-15.29,7.41-17.57,6.56-5.59,31.47,4.16,40.04,5.15,4.1,3.67,6.31,11.01,4.5,16.4-3.36,10.01-11.76,20.52-16.35,29.86-4.93,10.02-9.72,20.41-14.12,30.67-3.55,8.29-6.56,21.27-10.55,28.45-1.28,2.31-5.01,5.68-7.91,5.17-6.38-2.32-21.44.75-25.54-4.58-1.44-1.87-2.41-5.89-3.97-8.09l22.99-73.43-34.56,54.97,3.58,40.03c8.79-7.96,26.32-12.75,34.52-2.03,7.42,9.71,7.47,23.43,0,33.06-12.2,15.71-38.56,22.77-45.54-1.03-6.55,4.48-15.72,14.41-24.29,11.8-2.37-.72-7.01-11.63-5.7-14.8l-7.01,10.47c-6.79,2.14-13.23-.48-19.6-1.36-5.38-.74-16.83.73-16.4-6.12-7.19,2.22-18,7.46-25.46,5.97-4.53-.9-2.71-5.21-4.92-7.07-4.72-3.97-32.41,9.33-36.71,3.7-1.14-1.5-.51-4.6-1.4-4.61-1.64,3.33-1.92,10.03-4.72,12.37-3.25,2.72-20.82,5.26-25.31,4.71l-1.26-.28c-1.5-4.8-6.75-7.76-4.21-12.78-1.56-1.37-30.07,5.24-36.47,3.97-3.29-.65-3.04-3.07-4.51-5.48-.58-.95-2.18-1.67-2.54-2.52-1.89-4.42,13.97-40.21,16.57-47.44,7.84-21.78,15.18-43.98,21.86-66.14,1.87-6.2,4.55-25.35,9.71-28.29,8.47-1.12,39.12-9.82,45.41-6.63,1.57.8,2.04,2.89,2,4.53,8.94-1.1,34.58-9.76,41.97-6.49,1.74.77,4.34,6.4,4.73,8.26,1.24,5.82-1.82,19.04-2.94,25.49-1.89,10.86-5.64,21.57-5.28,32.72,1.99-5.7,3.84-11.88,5.27-17.73.73-2.97,1.45-5.9,2.16-8.84,2.2-9.08,3.08-20.83,6.55-29.47.95-2.37,3.89-3.88,6.29-4.7,4.51-1.54,23.43-5.51,27.75-5.36,7.83.28,4.37,8.37,8.81,7.95,7.15-.67,20.04-26.65,27.72-3.4,1.67,5.04-.39,9.68,2.45,13.53,1.04-.03,8.77-15.44,10.81-17.68ZM816.99,521l-23.85,19.72,6.71,55.54-40.07,65.02-.78,3.71,26.84,1.84,15.17-29.83c1.41-1.38,1.83.06,1.99,1.47.61,5.32.5,31.62,2,33.52l25.8-18.69-5.61-57.58,38.8-64.72-18.99-7.59-24,36.58-4.02-39ZM917.01,527.01l-31.97-5.97-31.04,97.96c4.48.11,9-.15,13.49.01,2.55.09,5.8,2.33,8.04.02,7.47-21.15,16.29-41.66,26.29-61.7,1.72-3.46,16.52-28.97,15.19-30.31ZM741,524l-35.77,7.22-17.73,52.77-1.1-2.1,9.61-55.89-37.76,7.24c-11.23,45.38-27.38,89.26-44.23,132.75l32.76-5.23,27.25-88.75c1.71-.26,1.06,2.37.97,3.47-2.15,25.8-11.23,57.05-15.75,83.26-.91,5.28-1.41,10.95-2.23,16.26,3.94-1.66,15.84-1.15,17.83-4.66l25.16-82.34,1.9,2.39-11.9,72.61,32.56-6.93c2.8-31.57,6.46-63.06,11.7-94.3.83-4.93,8.07-36.4,6.73-37.77ZM788.99,525.01c-7.29,2.04-17.41,2.68-24.23,5.25-1.8.68-3.13,1.03-4.02,2.98l-30.73,132.76c4.19-1.26,23.92-6.12,25.32-9.23,8.47-44.61,20.76-88.32,33.67-131.76ZM774.87,625.86c2.52-8.69,16.27-22.87,17.9-30.59,1-4.74-1.07-21.08-2.41-26.13-.4-1.51-.38-3.13-1.85-4.13-6.97,19.77-11.88,40.49-16.5,60.97l2.86-.13ZM739.99,595l1-8-2.98,7.5,1.98.49ZM857.78,639.21c-11.91.96-30.12,18.59-22.81,30.32,8.94,14.34,41.52-6.43,34.27-24.27-1.7-4.19-7.1-6.4-11.46-6.05Z"/>
  <path class="st1" d="M586,578.01c-.12,1.59,2.04,1.14,3.04,2.44,4.91,6.36,4.24,12.36,4,20.1-.09,2.75-.74,14.16-1.23,15.77-.71,2.3-4.37,2.85-4.58,4.14-.33,2.09,3.34,4.94,3.75,7.06,1,5.21-.79,11.13-.97,15.99-.22,5.61.9,16.8-1.54,21.46-1.76,3.36-15.88,4.43-20.48,5.52-7.27,1.73-32.95,10.59-38.01,8.03-2.32-1.17-1.81-6.29-5.43-6.47-3.86-.19-15.77,6.16-21.13,6.86-8.64,1.14-8.39-.31-12.89-6.6-6.67,1.29-22.56,9.24-28.55,6.21-3.5-1.77-5.15-10.37-5.01-14.06.91-25.25,8.98-54.25,11.02-79.99.09-1.16.05-2.32.02-3.47l-7.07.44c-4.96,22.55-8.17,45.99-10.93,69.07-.5,4.17-.16,15.43-1.52,18.48-1.46,3.28-20.92,9.61-24.97,10.02-9.2.93-11.87-4.07-12.51-12.47l11.02-77.01c.05-.88-5.44-.03-7.59-1.44-.81-.53-5.23-7.63-5.41-8.59-1.29-6.78-1.98-28.31-1.06-35.03.52-3.83,2.23-4.35,5.8-5.2,11.79-2.81,45.22-8.2,56.75-8.33,8.52-.09,5.52,6.05,9.18,6.93,5.79.15,25.01-7.31,28.93-3.95,1.35,1.15,1.14,3.62,1.52,3.95,2.52,2.24,25.36-6.93,30.86-4.34,1.46.69,2.15,3.38,4.27,3.24l49.19-8.75,2.63,1.41c.08,3.08,3.49,5.98,3.9,8.1,2.05,10.55-2.3,24.97-1.01,35.96-.98,5.02-9.76,4.53-13.97,4.54ZM593,534l-46.94,8.06-16.05,126.94,50.85-12.14,2.14-32.86c-.87-.88-20.38,4.45-24.48,4.04-1.55-.15-1.71.44-1.46-1.46.28-2.13,1.45-10.86,2.59-11.66l24.26-6.01,1.09-24.9-21.48,6.01,3.12-19.11,24.92-4.85,1.44-32.06ZM472,537l-58.95,8.05.94,32.95,15.02-1.49-12.01,92.49c3.87-1.44,22.8-5.61,23.83-8.66l11.35-86.65c1.45-3.95,14.76-2.73,18.79-3.71l1.02-32.99ZM505,539.01l-25.77,5.23-17.23,124.76,23.77-7.22,4.27-37.74c3.31.26,6.47-1.63,9.52-2,2.49-.3,1.54,4.61,1.43,6.45-.79,12.94-4.75,27.41-5.98,40.5,3.92-.83,23.94-5.8,24.84-8.65,2.84-40.91,11.04-81.08,18.15-121.34l-25.87,5.13-7.12,52.16-11.03,2.19,11.01-59.48Z"/>
  <path class="st1" d="M334.99,671.01l-3.42,9.06c-6.7,1.85-22.41,11.2-28.55,8.41-2.86-1.3-7.45-11.05-6.02-14.48-8.11.8-15.19,6.99-23.53,6.05-6.18-.7-8.65-12.09-7.45-17.54l16.2-118.8c.57-1.85,3.05-3.48,4.78-4.22,3.55-1.52,19.72-5.31,23.55-5.52,5.3-.29,5.54,1.12,7.42,5.61l1.44.39c5.94-.71,24.9-8.42,29.19-5.06,1.57,1.23,1.45,5.11,4.04,5.96,6.81-1.24,24.78-8.4,30.65-6.67,2.66.78,7.97,10.07,6.71,13.26-8.44,40.57-14.63,81.57-19.25,122.78-.16.77-.65,1.28-1.18,1.82-1.26,1.26-17.88,6.98-20.52,7.48-9.28,1.76-10.74-.26-14.06-8.54ZM312,540.01l-23.77,5.22-17.22,124.76,22-7.73,18.99-122.26ZM345,540l-24.04,5.66-17.95,132.33,21.82-7.18,4.19-38.81,10.99,38,23.02-7.68,17.97-122.32-23.52,5.98-8.98,65.03c-4.63-23.2-3.17-47.34-3.5-71.01Z"/>
  <path class="st0" d="M741,524c1.34,1.37-5.9,32.84-6.73,37.77-5.24,31.24-8.9,62.73-11.7,94.3l-32.56,6.93,11.9-72.61-1.9-2.39-25.16,82.34c-2,3.5-13.89,3-17.83,4.66.82-5.32,1.32-10.99,2.23-16.26,4.52-26.2,13.61-57.45,15.75-83.26.09-1.09.74-3.73-.97-3.47l-27.25,88.75-32.76,5.23c16.85-43.49,33-87.38,44.23-132.75l37.76-7.24-9.61,55.89,1.1,2.1,17.73-52.77,35.77-7.22Z"/>
  <path class="st0" d="M816.99,521l4.02,39,24-36.58,18.99,7.59-38.8,64.72,5.61,57.58-25.8,18.69c-1.5-1.9-1.39-28.2-2-33.52-.16-1.42-.58-2.85-1.99-1.47l-15.17,29.83-26.84-1.84.78-3.71,40.07-65.02-6.71-55.54,23.85-19.72Z"/>
  <path class="st0" d="M788.99,525.01c-12.9,43.44-25.19,87.15-33.67,131.76-1.4,3.12-21.13,7.98-25.32,9.23l30.73-132.76c.89-1.94,2.23-2.3,4.02-2.98,6.83-2.57,16.94-3.22,24.23-5.25Z"/>
  <path class="st0" d="M917.01,527.01c1.33,1.34-13.46,26.85-15.19,30.31-10,20.05-18.82,40.56-26.29,61.7-2.24,2.31-5.49.07-8.04-.02-4.49-.16-9.01.1-13.49-.01l31.04-97.96,31.97,5.97Z"/>
  <path class="st0" d="M857.78,639.21c4.35-.35,9.75,1.86,11.46,6.05,7.25,17.85-25.33,38.61-34.27,24.27-7.31-11.73,10.9-29.36,22.81-30.32Z"/>
  <path class="st0" d="M505,539.01l-11.01,59.48,11.03-2.19,7.12-52.16,25.87-5.13c-7.11,40.26-15.31,80.43-18.15,121.34-.9,2.85-20.92,7.82-24.84,8.65,1.23-13.09,5.19-27.56,5.98-40.5.11-1.84,1.06-6.75-1.43-6.45-3.05.36-6.2,2.25-9.52,2l-4.27,37.74-23.77,7.22,17.23-124.76,25.77-5.23Z"/>
  <path class="st0" d="M593,534l-1.44,32.06-24.92,4.85-3.12,19.11,21.48-6.01-1.09,24.9-24.26,6.01c-1.13.8-2.31,9.54-2.59,11.66-.25,1.9-.09,1.31,1.46,1.46,4.1.41,23.61-4.92,24.48-4.04l-2.14,32.86-50.85,12.14,16.05-126.94,46.94-8.06Z"/>
  <path class="st0" d="M472,537l-1.02,32.99c-4.04.98-17.34-.24-18.79,3.71l-11.35,86.65c-1.03,3.05-19.97,7.22-23.83,8.66l12.01-92.49-15.02,1.49-.94-32.95,58.95-8.05Z"/>
  <path class="st0" d="M345,540c.34,23.67-1.12,47.81,3.5,71.01l8.98-65.03,23.52-5.98-17.97,122.32-23.02,7.68-10.99-38-4.19,38.81-21.82,7.18,17.95-132.33,24.04-5.66Z"/>
  <polygon class="st0" points="312 540.01 293.01 662.26 271.01 670 288.23 545.23 312 540.01"/>
</svg>