<?xml version="1.0" encoding="UTF-8"?>
<svg id="_레이어_1" data-name="레이어_1" xmlns="http://www.w3.org/2000/svg" version="1.1" viewBox="0 0 1166 1129">
  <!-- Generator: Adobe Illustrator 29.8.3, SVG Export Plug-In . SVG Version: 2.1.1 Build 3)  -->
  <defs>
    <style>
      .st0 {
        fill: #eada4b;
      }

      .st1 {
        fill: #323332;
      }
    </style>
  </defs>
  <path class="st1" d="M630,505l12.95-15.55c8.45-8.77,26.12-19.45,36.04-6.95,10.9,13.72,10.16,31.97,7.51,48.51l-13.51,7.5c5.94,3.37,12.95,13.15,13.08,20,.07,3.79-1.77,7.54-1.08,11.49,17.83-12.62,34.67-5.7,40.98,14.52.43,1.38-.68,1.8,2,1.48,1.4-7.24,11.42-17.73,18.3-20.21,7.46-2.68,17.18-3.15,23.73,1.68,11.93,8.79,15.09,28.66,6.81,40.86-7.94,11.7-26.9,20.35-39.3,10.63-1.74-1.37-8.34-9.68-9.4-11.6-.83-1.49-1.84-7.4-2.63-7.38-.92,8.06-13.62,20.24-21.23,21.78s-19.32,1.31-24.3-5.25l-8.97-12.51c-.15,1.72-.93,3.18-2,4.5-4.39,5.41-16.63,16.58-23.02,18.98-7,2.63-21.71,2.73-27.93-2.04-1.83-1.41-6.83-8.89-7.11-10.89-1.33-9.62,7.28-22.42,9.08-32.01-2.88-5.27-9.69-10.15-10.8-16.27-1.95-10.71.49-21.55,4.01-31.53,1.78-5.06,6.36-7.51-2.66-6.8-3.59,16.38-6.2,33.07-8.44,49.7-1.48,11.04-1.65,23.01-3.25,33.75-.45,3.05-.75,5.85-3.61,7.39-3.56,1.92-22.19,7.65-25.81,7.28-5.54-.55-3.32-3.56-4.74-5.8-.55-.87-2.89-.82-3.55-2.95-.96-3.09.25-8.37-.17-11.8l10-70-7.01-1.51c-.75,26.07-10.38,58.03-27.03,78.48-22.16,27.23-50.75,23.86-60.99-10.48-4.44,3.43.22,12.03-4.43,16.06-1.39,1.21-20.63,7.32-23.3,7.7-11.76,1.68-5.35-6.68-11.73-6.59-6.97.1-21.77,9.32-27.54,6.34-2.38-1.23-1.4-3.85-2.26-5.24-.62-1-3.74-1.39-4.52-3.98-1.25-4.2,1.17-8.22.29-12.29-7.03,8.12-20.06,23.41-31.09,24.91-6.56.89-18.74.69-23.93-3.89-.65-.57-6.12-8.2-6.28-8.72-2.74-9.06,7.18-24.5,8.83-33.76-9.65-10.88-12.18-16.15-11.08-31.08,1.55-21,31.92-70.88,53.78-74.21,14.17-2.16,19.79,8.1,23.27,19.75,4.32-4.64-.5-9.82,7.75-12.73,4.73-1.67,25.43-5.71,29.25-3.78,2.18,1.1,1.62,4.53,2.52,4.54,7.82-1.38,22.3-7.07,29.76-4.83,3.25.98,2,4.02,2.96,5.54.55.87,2.88.81,3.55,2.94,1.32,4.2-1.12,9.09-.8,13.32l11.02-15.47c14.86-19.41,44.61-22.88,53.99,3.47,1.72-.14,1.14-2.34,3.02-3.46,1.05-.63,2.69-.73,3.93-1.07,17.52-4.71,39.55-4.21,57.55-8.56,7.26.05,4.19,4.18,5.71,6.87.3.54,3.77,1.68,3.77,2.72v18.5ZM526.76,477.26c-23.82,3.39-42.52,50.71-46.49,71.51-3.79,19.87-6.89,73.66,25.12,70.11,27.89-3.09,47.83-62.57,49.59-86.4,1.41-19-.63-59.15-28.23-55.22ZM407.84,521.85c3.35-19.74.97-54.01-26.31-31.82-15.51,12.62-40.08,50.98-37.44,71.39,2.94,22.69,31.9,2.6,39.49,8.49,5.01,6.59-7.25,14.03-12.77,15.41-6.86,1.71-8.71-.63-14.81-2.31l-9.86,28.76c-.64,5.94,14.03,6.74,18.26,6.15,11.5-1.59,27.23-19.34,33.01-28.99,6.13-10.24,14.17-30.12,7.43-41.27s-24.26-.49-32.15-2.85c-8.73-2.61,4.26-25.16,12.31-20.33,2.66,1.6.79,7.2,3.44,6.49l19.39-9.12ZM621,483l-59,8,2.1,32.92,13.9-2.91-11.99,93.99,22.81-7.18,12.37-89.12c.28-1.36,1.12-1.49,2.3-1.7,4.75-.85,11.57-.67,16.51-.99l.99-33.01ZM677.84,521.85c3.35-19.74.97-54.01-26.31-31.82-15.51,12.62-40.08,50.98-37.44,71.39,2.94,22.69,31.9,2.6,39.49,8.49,5.01,6.59-7.25,14.03-12.77,15.41-6.86,1.71-8.71-.63-14.81-2.31l-9.86,28.76c-.64,5.94,14.03,6.74,18.26,6.15,11.5-1.59,27.23-19.34,33.01-28.99,6.13-10.24,14.17-30.12,7.43-41.27-6.96-11.51-24.26-.49-32.15-2.85-8.73-2.61,4.26-25.16,12.31-20.33,2.66,1.6.79,7.2,3.44,6.49l19.39-9.12ZM450,485.01l-25.86,5.13-16.13,123.87,22.89-6.1,4.23-37.77,11.86-2.13-5.99,46.99,23.02-7.7c3.98-41.13,10.8-81.87,18.96-122.3l-25.53,5.96-7.12,50.81-10.83,4.23,10.48-61.01ZM413,534.01l-9.99,4.5c2.89,1.75,6.19,3.98,7.01,7.49,3.31-2.38,1.25-8.38,2.98-11.99ZM681.34,605.66c14.59,14.59,46.94-17.98,29.69-32.19-15.42-12.7-43.31,18.57-29.69,32.19ZM753.73,571.24c-21.7,3.64-31,42.05-4.47,37.51,22.87-3.91,30.95-41.95,4.47-37.51Z"/>
  <path class="st1" d="M760.23,447.78c.23.39,2.97,1.62,3.76,2.22,2.77-10.69.48-18.46,14.53-17,3.63.38,29.27,5.52,31.43,6.55.27.13,4.7,3.39,4.85,3.65.72,1.31-.3,3.28.41,4.6,1.27,2.33,6.92,1.43,4.55,10.46s-11.31,24.72-15.21,34.78c-8.37,21.56-15.08,43.56-21.12,65.88-1.27,2.13-2.47,2.81-4.87,3.13-5.63.74-20.25-.05-26.03-1.07-4.7-.83-3.56-4.71-4.8-6.7-.63-1.01-3.74-1.39-4.51-3.98-1.4-4.7,2.72-20.87,3.91-26.67,3.19-15.43,7.55-30.78,10.8-46.22l-1.92-1.41c-2.68,11.2-8.45,21.41-12.3,32.22-6.01,16.85-9.98,34.36-15.69,51.31-1.3,1.82-2.31,2.25-4.47,2.53-8.66,1.14-18.62-1.24-27.35-1.26-2.1-6.36-9.22-9.48-8.12-17.13l24.25-107.33c3.22-3.91,6.16-3.86,11.17-3.33,5.97.62,24.35,4.28,29.9,6.1,1.5.49,4.88,2.18,5.67,3.33,1.39,2.03.44,4.11,1.16,5.35ZM717.91,548.9c7.58-34.84,21.02-67.87,35.1-100.45l-1.72-2.24-31.66-6.29-24.21,107.14,22.49,1.84ZM750.08,546.91l19.47,2.15,2.97-1.04c8.47-34.17,20.91-66.86,35.09-98.97l-.59-2.56c-9.52-.74-21.53-6.06-30.67-6.44-1.14-.05-2.16-.23-2.89.92l-23.38,105.94Z"/>
  <path class="st0" d="M526.76,477.26c27.6-3.93,29.63,36.22,28.23,55.22-1.76,23.83-21.7,83.31-49.59,86.4-32.01,3.55-28.91-50.25-25.12-70.11,3.96-20.8,22.67-68.11,46.49-71.51ZM523.72,521.2c-10.84,2.48-20.62,30.59-22.42,40.59-1.59,8.8-2.69,27.27,10.36,27.91,14.12.69,22.43-27.34,23.33-38.22.64-7.74,1.83-33.28-11.27-30.28Z"/>
  <path class="st0" d="M450,485.01l-10.48,61.01,10.83-4.23,7.12-50.81,25.53-5.96c-8.17,40.43-14.98,81.17-18.96,122.3l-23.02,7.7,5.99-46.99-11.86,2.13-4.23,37.77-22.89,6.1,16.13-123.87,25.86-5.13Z"/>
  <path class="st0" d="M407.84,521.85l-19.39,9.12c-2.65.72-.78-4.89-3.44-6.49-8.05-4.83-21.04,17.72-12.31,20.33,7.89,2.36,25.19-8.66,32.15,2.85s-1.3,31.03-7.43,41.27c-5.78,9.65-21.51,27.4-33.01,28.99-4.23.59-18.91-.21-18.26-6.15l9.86-28.76c6.1,1.69,7.95,4.02,14.81,2.31,5.52-1.38,17.78-8.82,12.77-15.41-7.6-5.89-36.55,14.2-39.49-8.49-2.65-20.41,21.93-58.77,37.44-71.39,27.28-22.19,29.66,12.07,26.31,31.82Z"/>
  <path class="st0" d="M677.84,521.85l-19.39,9.12c-2.65.72-.78-4.89-3.44-6.49-8.05-4.83-21.04,17.72-12.31,20.33,7.89,2.36,25.19-8.66,32.15,2.85,6.74,11.15-1.3,31.03-7.43,41.27-5.78,9.65-21.51,27.4-33.01,28.99-4.23.59-18.91-.21-18.26-6.15l9.86-28.76c6.1,1.69,7.95,4.02,14.81,2.31,5.52-1.38,17.78-8.82,12.77-15.41-7.6-5.89-36.55,14.2-39.49-8.49-2.65-20.41,21.93-58.77,37.44-71.39,27.28-22.19,29.66,12.07,26.31,31.82Z"/>
  <path class="st0" d="M621,483l-.99,33.01c-4.94.32-11.77.13-16.51.99-1.18.21-2.02.34-2.3,1.7l-12.37,89.12-22.81,7.18,11.99-93.99-13.9,2.91-2.1-32.92,59-8Z"/>
  <path class="st0" d="M681.34,605.66c-13.62-13.62,14.27-44.89,29.69-32.19,17.25,14.21-15.1,46.77-29.69,32.19Z"/>
  <path class="st0" d="M753.73,571.24c26.48-4.44,18.4,33.61-4.47,37.51-26.53,4.53-17.23-33.88,4.47-37.51Z"/>
  <path class="st0" d="M717.91,548.9l-22.49-1.84,24.21-107.14,31.66,6.29,1.72,2.24c-14.08,32.58-27.52,65.61-35.1,100.45Z"/>
  <path class="st0" d="M750.08,546.91l23.38-105.94c.73-1.15,1.75-.97,2.89-.92,9.13.38,21.15,5.69,30.67,6.44l.59,2.56c-14.18,32.11-26.62,64.8-35.09,98.97l-2.97,1.04-19.47-2.15Z"/>
  <path class="st1" d="M523.72,521.2c13.1-3,11.91,22.54,11.27,30.28-.9,10.88-9.2,38.92-23.33,38.22-13.05-.64-11.95-19.11-10.36-27.91,1.81-10,11.59-38.11,22.42-40.59ZM528.99,533c-2.47-3.05-13.32,19.68-14.01,21.48-1.7,4.4-9.66,28.04-3.37,29.44,7.59-1.95,12.11-11.48,14.43-18.38,3.46-10.3,5.14-21.8,2.96-32.53Z"/>
</svg>