<?xml version="1.0" encoding="UTF-8"?>
<svg id="_레이어_1" data-name="레이어_1" xmlns="http://www.w3.org/2000/svg" version="1.1" viewBox="0 0 1166 1129">
  <!-- Generator: Adobe Illustrator 29.8.3, SVG Export Plug-In . SVG Version: 2.1.1 Build 3)  -->
  <defs>
    <style>
      .st0 {
        fill: #333332;
      }

      .st1 {
        fill: #eada4b;
      }
    </style>
  </defs>
  <path class="st0" d="M475.01,496c5.49-2.13,22.03-7.67,26.97-5.47,4.32,1.93.78,7.36,7.59,7.4l-10.57,69.07c4.45.58,10.25-1.68,13.5,2l11.91-72.08c2.2-2.79,20.2-7.07,24.11-7.01,5.93.09,6.12,5.05,7.06,5.13,3.6.31,15.31-4.98,20.92-5.11,6.2-.14,6.42,4.01,8.97,4.06,1.34.02,11.3-4.01,14.33-4.68,12.81-2.86,28.87-5.27,37.68,6.47,12.12-5.92,35.05-12.15,47.87-6.61,3.3,1.43,14.06,13,14.59,16.41,3.73,23.62-22.96,54.6-38.72,70.17l-4.41,37.59c-.56,1.9-4.49,3.88-6.29,4.71-4.65,2.14-20.58,7.79-24.99,6.95-6.3-1.2-1.42-8.66-5.03-11.96-4.23,4.28-6.78,11.32-13.96,9.96-4.9-.93-5.41-8.16-7.08-11.98-2.87-6.59-3.31,3.46-3.97,4.99-1.13,2.61-17.67,8.5-21.07,8.93-2.11.27-5.28.56-7.01-.82l-1.41-6.1c-8.58,1.98-30.28,16.12-28-2-.9-1.08-6.41,4.89-8.04,5.45-8.75,3.01-10.94-4.74-17.01-6.93-4.23-1.53-20.91,3.22-26.37,4.56s-23.2,8.92-26.67,4.52c-2.65-8.49.03-18.53.14-27.07.01-1.12.55-2.79-1.03-2.52-8.7,19.05-35.32,45.38-57.7,31.18-1.99-1.26-3.77-2.22-4.28-4.72-2.8-13.92,3.26-24.45,7.81-37.17l-.29-1.29c-5.35-3.22-8.84-7.07-9.56-13.5-3.32-29.63,9.18-55.13,28.03-76.98,9.11-10.57,18.4-20.35,33.5-18.55,7.31.87,18.49,15.2,18.49,23.02ZM443.01,527l20.83-10.66c.53-13.61,3.25-46.98-19.52-35.52-13.6,6.84-31.76,34.22-37.78,48.22-5.4,12.56-14.57,40.93,8,40.01,5.41-.22,26.24-8.64,26.44.43-.71,6.87-13.42,13.91-19.35,13.49-3.37-.24-6.11-3.17-9.61-2.96l-9.99,29.57c4.41,6.71,16.74,6.74,23.66,3.61,18.89-8.54,43.88-46.26,35.63-66.98-6.31-15.86-33.73-.14-35.34-6.86-3.05-9.66,15.22-31.12,17.05-12.33ZM594.01,568l14.49,41.98,18.02-21.03-13.32-38.32c10.37-11.37,22.79-29.74,20.54-45.87-2.81-20.17-35.9-9.88-47.75-4.02l-14.98,111.26c4.19-2.24,17.47-4.36,19.26-8.23l3.75-35.76ZM627.01,612l18.48-7.01,5.07-35.93c17.16-14.45,41.47-40.14,38.47-64.58-2.42-19.7-35.79-9.69-47.03-3.74l-14.98,111.26ZM500,496.01l-20.86,4.13-15.13,111.86,42-11.74,1.99-28.25-20.99,3.99,12.99-79.99ZM548.99,496l-20.04,4.66-14.99,95.9c-1.87,3.5,10.89,11.45,12.55,11.39l18.48-12.96-1.98,17,18.8-7.69c2.37-16.84,3.83-33.82,6.36-50.64,2.19-14.6,10.01-42.51,9.87-55.16-.02-1.79.73-2.62-1.53-2.52-1.85.08-18.06,3.83-18.61,4.62l-8.54,61.25c-1.27,3.8-8.89,7.78-12.35,10.14l11.98-76ZM467.99,542l1.99-19.99c-2.06,1-.25,4.04-1.92,6.57-1.08,1.64-5.95,4.69-8.07,5.45-.98,1.43,7.02,9.11,7.99,7.98ZM627.99,563.99l2-16.99c-3.99,2.06-4.16,9.32-3.95,13.38.04.83.55,3.83,1.95,3.62Z"/>
  <path class="st1" d="M443.01,527c-1.83-18.78-20.1,2.67-17.05,12.33,1.61,6.72,29.03-9,35.34,6.86,8.25,20.72-16.73,58.44-35.63,66.98-6.92,3.13-19.25,3.1-23.66-3.61l9.99-29.57c3.5-.21,6.24,2.72,9.61,2.96,5.93.42,18.65-6.62,19.35-13.49-.21-9.07-21.04-.65-26.44-.43-22.57.92-13.39-27.45-8-40.01,6.02-14,24.19-41.37,37.78-48.22,22.77-11.46,20.05,21.92,19.52,35.52l-20.83,10.66Z"/>
  <path class="st1" d="M594.01,568l-3.75,35.76c-1.78,3.87-15.07,5.99-19.26,8.23l14.98-111.26c11.85-5.85,44.94-16.15,47.75,4.02,2.25,16.14-10.17,34.51-20.54,45.87l13.32,38.32-18.02,21.03-14.49-41.98ZM598.01,546c9.71-4.33,26.41-30.54,3.23-20.76l-3.23,20.76Z"/>
  <path class="st1" d="M548.99,496l-11.98,76c3.46-2.36,11.08-6.34,12.35-10.14l8.54-61.25c.55-.78,16.76-4.53,18.61-4.62,2.26-.1,1.51.73,1.53,2.52.15,12.65-7.68,40.56-9.87,55.16-2.53,16.82-3.99,33.8-6.36,50.64l-18.8,7.69,1.98-17-18.48,12.96c-1.66.05-14.42-7.89-12.55-11.39l14.99-95.9,20.04-4.66Z"/>
  <path class="st1" d="M627.01,612l14.98-111.26c11.24-5.95,44.61-15.96,47.03,3.74,3.01,24.44-21.3,50.13-38.47,64.58l-5.07,35.93-18.48,7.01ZM669,523l-11.77,2.25-3.23,16.75c1.67,1.75,18.95-13.72,15-19Z"/>
  <polygon class="st1" points="500 496.01 487.01 576 507.99 572 506 600.26 464.01 612 479.13 500.13 500 496.01"/>
  <path class="st0" d="M598.01,546l3.23-20.76c23.18-9.78,6.48,16.43-3.23,20.76Z"/>
  <path class="st0" d="M669,523c3.95,5.28-13.33,20.75-15,19l3.23-16.75,11.77-2.25Z"/>
</svg>