<?xml version="1.0" encoding="UTF-8"?>
<svg id="_레이어_1" data-name="레이어_1" xmlns="http://www.w3.org/2000/svg" version="1.1" viewBox="0 0 1166 1129">
  <!-- Generator: Adobe Illustrator 29.8.3, SVG Export Plug-In . SVG Version: 2.1.1 Build 3)  -->
  <defs>
    <style>
      .st0 {
        fill: #42423e;
      }

      .st1 {
        fill: #e9da4b;
      }
    </style>
  </defs>
  <path class="st0" d="M912,509c.13-.13-.36-1.71.73-1.97,17.2-2.88,34.76-9.54,52.27-7.04l-.99,19c11.18-6.93,48.95-13.3,57.45-2.96,7.4,8.99,2.27,31.64-2.28,41.64-3.14,6.91-9.52,13.05-13.13,19.77,1.09,10.59,13.65,30.42,11.91,39.99-1.04,5.7-14.97,17.07-17.96,23.05l-14.04.05-3.95-11.53c-.52,2.86-.49,6.68-3.05,8.46-.72.5-13.04,5.05-14.57,5.43-3.36.84-13.2,2.62-14.9-.89l.5-19.01c-18.07,2.18-34.56,12.44-53,11.01.2-4.13-.28-8.36.02-12.49,1.39-19.1,7.21-41.05,8.02-60.01.05-1.17-.02-2.35-.03-3.51l-13.97,1.04-10.79,82.71-2.96,3.04c-9.8,2.74-18.54,7.66-29.15,6.07-1.42-2.97-1.28-6.16-1.13-9.35.64-13.52,4.21-28.58,5.86-42.13,1.35-11.06,2.57-22.24,3.13-33.38l-10.07-.43-1.45-10.57c-3.21.01-12.02,6.85-15.93,8.07-5,1.56-8.55.36-13.08.94-1.82.23-1.62-.34-1.48,2h19.5c3.62,0,9.23,3.9,10.28,7.72,5.93,21.64-7.41,49.76-23.77,63.79-8.74,7.5-17.83,9.71-29.4,8.38-10.08-1.15-14.07-3.57-12.36-14.15.39-2.43,8.24-25.76,9.23-26.77,3.56-3.63,17.5,2.73,21.52-3.48-2.81-1.11-5.54,1.4-8.53,1.56s-5.24-1.03-7.97-1.14c-4.48-.19-7.7,2.48-12.01-1.9-3.27,5.69-.97,26.73-4.46,30.52-.68.74-17.24,6.96-18.76,7.25-4.78.89-10.4-.93-13.61-.47-4.09.59-12.23,6.14-17.43,7.42-2.1.52-13.47,2.04-14.23,1.28l2.5-40.01c-5.64,11.67-17.08,35.13-31.23,37.78-5.34,1-17.25,1.36-22.33-.21-4.68-1.44-9.93-8.99-11.46-13.58l-26.04,6.96-9.34.16c-.45,2.21-.92,6.33-3.09,7.41-2.76,1.37-23.11,3.66-24.57,1.56l-.44-10.06c-10.64,1.91-21.48,4.4-32.35,3.86-2.68-.87-1.66-6.87-1.38-9.11,1.98-15.71,9.65-36.38,13.25-52.74,4.47-20.33,7.56-40.92,11.4-61.37,1.43-2.03,36.25-7.74,40.39-6.66,1.06.28,1.02,2.1,1.69,2.55,3.01,2.02,15.86-4.53,19.51-4.53h14.5l-1.5,47.01c4.29-17.28,19.22-50.48,39.11-52.9,21.99-2.68,31.16,6.51,33.4,27.88,1.42.27,1.32-1.91,1.51-2.96.83-4.49.35-9.33,2.45-13.57.61-.62,15.66-5.47,16.53-5.47h16.5v4.01c1.41,1.44,12.33-4.01,14.5-4.01h17.5c.45,12.55-3.76,24.83-4.99,37,5.97-7.22,10.18-16.02,16.48-23.01,9.58-10.64,16.28-13.74,31.03-12.01,7.87.92,10.05,9.12,9.47,16.03,20.92-1.66,41.26-8.3,62.43-7.02.97.14.69,6.66.58,8.02-.24,2.96-1.19,5.47-1,9.52.07,1.34-.85,4.16,1.49,3.49.63-.18,1.44-11.27,1.51-13.01.08-1.92.14-4.1,0-6,1.3-.48.96-1.9,1-3,.07-1.93.13-4.09,0-6l1-3ZM956,504l-40.11,7.61-14.89,118.39,43.88-11.11,2.1-30.88c-1.86-.11-23.12,5.59-23.01,3.48l2.66-12.58,21.23-6.54,1.12-21.37-18.48,5.01c-1.65.05,1.25-16.9,2.44-18.56l21.58-4.42,1.47-29.04ZM690.73,507.23c-14.64,2.73-28.05,30.47-32.75,43.25-7.75,21.06-11.19,46.28-6.3,68.33,6.21,28.02,25.4,26.92,41.15,6.51,18.76-24.31,30.71-74.46,19.94-103.6-3.95-10.69-9.89-16.76-22.04-14.49ZM644.99,512l-27.5,6.99-10.5,52,3.01-56-28.82,5.19c-6.28,39.06-14.52,77.75-25.18,115.81l25.08-5.65,16.42-83.34-6.51,95c.48.47,12.31-.6,12.82-2.69l14.2-74.31c1.75-.23.94,2.27.99,3.49.12,2.92.16,6.14.04,9.05-.56,13.25-2.56,26.72-3.03,39.97-.17,4.82.1,9.67,0,14.49l23.89-5.1,1.06-61.44,4.03-53.46ZM751.99,512c-3.56.89-19.99,3.9-20.84,6.66l-15.15,122.34,18.83-7.15c1.09-8.34,1.21-16.87,2.29-25.22.43-3.32.48-7.98,2.38-10.62l8.5,35c.79.77,18.8-4.73,19.75-7.75l16.24-113.25c-4.06.88-18.84,3.19-20.27,6.22l-8.23,59.78c-2.26.91-1.38-2.35-1.48-3.51-1.72-20.74-2.28-41.65-2.02-62.49ZM832.65,516.35c-6.54-6.49-17.79,3.05-22.68,8.13-11.71,12.16-28.38,41.12-29.01,57.98-1.12,29.73,26.95,6.9,34.56,13.52,7.2,6.27-16.69,21.61-23.03,12.04-2.03,3.81-10.85,27.41-9.34,29.83,10.12,5.51,18.22,3.57,26.86-3.34,13.68-10.95,29.6-37.5,25.3-55.33s-24.89-2.84-30.83-8.16c-4.77-4.26,6.5-22.81,12.1-18.12,2.53,1.39-.03,6.52,2.92,6.11l17.02-9c.44-8.44,2.43-27.42-3.86-33.67ZM1011.69,518.32c-9.57-7.99-32.95-.22-43.23,4.63l-14.45,116.04,18.51-6.98,3.49-37.01c2.58-.75,2.61,2.36,3.25,4.22,1.65,4.79,9.48,36.9,11.25,37.76l18.35-21.71-13.66-39.64c10.55-9.74,30.12-45.94,16.48-57.32ZM899,552.5v-27c0-.31,1.38-1.41,1-2.49l-51.85,8.14,1.3,28.91c1.99,2.94,12.23-2.99,12.57-.51l-11.01,86.45,20.51-6.98,10.67-82.33c1.39-3.65,15.93-1.31,16.81-4.19ZM961.99,537c-3.37,1.06-20.23,2.97-21.53,4.96-.99,1.52-.32,4.23-.46,6.03,5.94-1.76,11.05-.59,16.99.01l-.93,28.38c-.28,1.02-17.15,3.79-20.34,5.83-1.89,1.21-1.99,1.43-1.71,3.78l23-.99,4.99-48ZM787.99,547.99v-1.99h-.98v1.99h.98ZM715.99,604.99v-1.99h-.98v1.99h.98Z"/>
  <path class="st0" d="M128,524c6.42-2.47,15.72-4.28,22.53-3.02,2.64.49,1.69,2.99,3.95,3.14,3.83.24,8.42-2.56,12.1-3.03,4.9-.62,10.44.28,15.42-.09l-10,64c3.36.79,1.52-2.97,2.23-5.26,5.38-17.55,9.46-35.54,13.48-53.52,1.07-4.79,3.16-22.76,6.33-24.67,15.7-3,31.87-10.26,47.95-7.53l-2.99,42.99c19.66-2.43,39-8.17,58.99-7v38l-16.96,2.04-10.04,82.46c-.06,1.69-1.06,2.01-2.27,2.73-1.75,1.04-17.18,6.38-19.32,6.68-3.22.46-11.09,1.12-12.21-2.61l9.28-83.32-9.49,1.01c-1.55,5.89.1,41.78-1.98,43.52-.95.79-21.51,7.14-23.6,7.4-2.86.36-9.23.52-11.98.16-2.02-.26-.65-2.22-3.86-2.18-8.87.11-19.09,4.87-28.57,3.1l-1.48,14.02c-7.46,3.17-15.87,7.55-24.02,7.97-5.45.28-9.59.71-9.98-5.97-3.73,1.2-7.6,3.83-11.26,4.75s-15.74,3.04-17.05-1.46c-1.76-6,1.88-18.39,2.66-24.93,3.35-28.13,6.42-56.29,10.13-84.36h-4.99s-10.5,83-10.5,83c-1.5,3.16-22.02,8.92-25.9,8.88-5.28-.05-8.97-1.33-7.61-7.37l9.99-78.51-10.94.94-2.06-37.44,1.67-2.33,49.96-8.05c3.93.22,9.42-1.48,12.38,1.38v24.5ZM233,498l-34.24,7.25-2.23,1.77-28.52,117.97,23.96-4.53c4.54-7.02-.4-17.22,12.04-16.46l-1.99,19.99,25.54-7.95.42-49.58,5.04-68.46ZM120,503l-51.9,8.58,1.9,29.43,13.01-1.49-11.01,86.48c3.76-1.54,18.49-4.64,19.78-7.71l10.37-81.63c1.18-3.41,13.45-2.15,16.73-3.76l1.11-29.9ZM143.99,525l-15.99,3-.43,8.07c-1.23,1.77-6.81-.37-6.91,4.09l-13.65,106.83,20.86-7.13,3.26-34.74,9.49-3.03c1.59-.37,1.52-.11,1.4,1.4-1.13,14.25-4.39,29.22-6.01,43.49l21.04-7.66c2.56-38.48,9.54-76.41,15.95-114.33l-21.79,5.21-6.39,48.1-9.3,3.7,8.48-57.01ZM290,534.01l-50.86,8.13.86,29.87,13.02-1.49-11.01,86.48,19.86-6.13,10.3-83.2,1.5-1.5,14.9-2.1,1.43-30.06Z"/>
  <path class="st0" d="M329.5,603c-.19-.04-2.75-1.96-3.15-2.35-9.16-8.95-2.42-34.25,2.65-44.64-5.94-.55-16.03,4.92-16.1-4.49l18.03-56.08c2.2-2.51,10.81-1.3,14.56-1.44,5.52-.21,10.53-1.37,16.52,0,1.55,8.25-2.24,13.56-4,21,8.61-6.72,27.77-8.99,32.04,3.45,2.11,6.13,3.4,30.4.4,35.5-.68,1.15-14.69,9.13-16.42,9.58-5.04,1.29-12.92-1.68-15.04,2.96.54,1.54,2.27-.49,2.51-.49h16c4.07,0,9.9,3.51,11.58,7.42,6.36,14.82-2.87,39.04-11.67,51.49-10.79,15.27-21.56,22.72-40.95,21.13-9.05-.74-13.34-2.74-12.35-12.43.35-3.37,7.36-25.79,8.97-28.02,3.19-4.4,16.16,1.31,20.91-2.6-.13-2.63-3.92.01-4.49.01-5.01,0-15.95.92-20,0ZM353,498h-15.5c-1.26,0-2.95,2.18-3.58,3.42-5.05,9.91-11.37,33.48-14.85,45.15-.54,1.83-2.44,5.51.45,5.47,2.39-.04,16.99-2.85,17.98-4.03l15.5-50ZM364.01,560l16.97-8.52c4.19-11.52,4.31-45.64-16.29-34.29-13.25,7.3-14.64,20.92-18.6,34.15-1.49,2.36-7.23.85-10.05,3.2-6.21,5.19-11.96,32.95-7.03,39.97,8.13,11.57,26.93-4.53,32.1,1.9,3.95,5.73-5.28,12.85-10.06,14.13-5.69,1.52-8.8-.37-14.03-1.53-.55,7.88-8.11,19.27-8.07,26.56s14.18,6.63,19.45,4.33c18.07-7.87,37.7-42.42,32.18-61.96-4.1-14.53-22.62-2.47-29.33-5.66s3.53-22.41,11.64-19.14l1.13,6.87Z"/>
  <path class="st0" d="M499.01,501l-3.02,45.49c-3.93,26.56-2.25,53.73-3.45,80.55-11.16,4.17-23.92,9.63-36.11,8.04-2.02-.26-.65-2.22-3.86-2.18-10.55.14-20.72,6.75-31.63,3.66-1.82-1.27-.88-7.42-.49-9.62,3.1-17.59,11.42-39.88,15.87-58.13,4.76-19.51,8.16-39.34,13.22-58.78l2.2-1.8c15.89-1.92,31.04-10.34,47.26-7.25ZM489.99,505l-36.86,8.13-28.12,119.86,23.97-5.52,3.18-14.31,7.33-2.18-.48,20.01,24.89-7.09,1.06-58.44,5.04-60.46Z"/>
  <path class="st1" d="M910,527c-.07,1.73-.88,12.82-1.51,13.01-2.33.67-1.42-2.15-1.49-3.49-.2-4.05.75-6.55,1-9.52h2Z"/>
  <path class="st1" d="M912,509l-1,3c-.02-.22-1.29-1.03-1.1-2.34.17-1.16,1.95-.51,2.1-.66Z"/>
  <path class="st1" d="M911,518c-.04,1.1.3,2.52-1,3-.06-.86-3.07-3.5,1-3Z"/>
  <path class="st1" d="M644.99,512l-4.03,53.46-1.06,61.44-23.89,5.1c.1-4.81-.17-9.67,0-14.49.48-13.25,2.47-26.72,3.03-39.97.12-2.91.08-6.13-.04-9.05-.05-1.22.76-3.72-.99-3.49l-14.2,74.31c-.5,2.09-12.33,3.16-12.82,2.69l6.51-95-16.42,83.34-25.08,5.65c10.66-38.06,18.9-76.75,25.18-115.81l28.82-5.19-3.01,56,10.5-52,27.5-6.99Z"/>
  <path class="st1" d="M751.99,512c-.26,20.84.3,41.76,2.02,62.49.1,1.16-.78,4.42,1.48,3.51l8.23-59.78c1.43-3.03,16.21-5.34,20.27-6.22l-16.24,113.25c-.95,3.02-18.96,8.52-19.75,7.75l-8.5-35c-1.9,2.64-1.96,7.3-2.38,10.62-1.07,8.35-1.2,16.88-2.29,25.22l-18.83,7.15,15.15-122.34c.85-2.76,17.28-5.77,20.84-6.66Z"/>
  <path class="st1" d="M690.73,507.23c12.16-2.26,18.09,3.8,22.04,14.49,10.77,29.15-1.18,79.29-19.94,103.6-15.74,20.4-34.94,21.5-41.15-6.51-4.89-22.06-1.45-47.28,6.3-68.33,4.7-12.78,18.11-40.52,32.75-43.25ZM684.36,551.36c-8.78,8.6-17.09,38.04-15.3,50.07,1.39,9.31,9.69,14.34,17.42,7.55,11.13-9.77,13.89-35.6,12.5-49.48-.91-9.11-6.28-16.32-14.63-8.15Z"/>
  <path class="st1" d="M1011.69,518.32c13.64,11.38-5.93,47.58-16.48,57.32l13.66,39.64-18.35,21.71c-1.77-.87-9.6-32.97-11.25-37.76-.64-1.86-.68-4.97-3.25-4.22l-3.49,37.01-18.51,6.98,14.45-116.04c10.28-4.85,33.66-12.62,43.23-4.63ZM994.76,547.25c-2.34-2.3-8.88-.2-11.27,1.74l-3.48,21.01c1.94,1.94,11.34-10.29,12.41-12.08,1.49-2.49,4.87-8.18,2.34-10.66Z"/>
  <path class="st1" d="M832.65,516.35c6.29,6.25,4.3,25.23,3.86,33.67l-17.02,9c-2.95.4-.38-4.73-2.92-6.11-5.6-4.69-16.86,13.86-12.1,18.12,5.95,5.32,26.53-9.71,30.83,8.16s-11.62,44.38-25.3,55.33c-8.63,6.91-16.73,8.85-26.86,3.34-1.51-2.42,7.31-26.02,9.34-29.83,6.34,9.57,30.23-5.77,23.03-12.04-7.61-6.63-35.67,16.2-34.56-13.52.63-16.86,17.3-45.83,29.01-57.98,4.89-5.08,16.14-14.62,22.68-8.13Z"/>
  <path class="st1" d="M956,504l-1.47,29.04-21.58,4.42c-1.19,1.66-4.09,18.61-2.44,18.56l18.48-5.01-1.12,21.37-21.23,6.54-2.66,12.58c-.12,2.1,21.15-3.59,23.01-3.48l-2.1,30.88-43.88,11.11,14.89-118.39,40.11-7.61Z"/>
  <path class="st1" d="M899,552.5c-.89,2.88-15.42.54-16.81,4.19l-10.67,82.33-20.51,6.98,11.01-86.45c-.34-2.48-10.58,3.45-12.57.51l-1.3-28.91,51.85-8.14c.38,1.08-1,2.18-1,2.49v27Z"/>
  <path class="st1" d="M233,498l-5.04,68.46-.42,49.58-25.54,7.95,1.99-19.99c-12.43-.76-7.5,9.44-12.04,16.46l-23.96,4.53,28.52-117.97,2.23-1.77,34.24-7.25ZM210,534.01c-2.78-.8-2.27,2.98-2.66,4.82-3.07,14.48-5.03,29.54-7.32,44.17l6.02-1.68,3.97-47.31Z"/>
  <path class="st1" d="M143.99,525l-8.48,57.01,9.3-3.7,6.39-48.1,21.79-5.21c-6.42,37.92-13.39,75.85-15.95,114.33l-21.04,7.66c1.63-14.27,4.88-29.24,6.01-43.49.12-1.51.19-1.78-1.4-1.4l-9.49,3.03-3.26,34.74-20.86,7.13,13.65-106.83c.1-4.46,5.68-2.32,6.91-4.09l.43-8.07,15.99-3Z"/>
  <path class="st1" d="M120,503l-1.11,29.9c-3.28,1.61-15.55.36-16.73,3.76l-10.37,81.63c-1.29,3.07-16.02,6.18-19.78,7.71l11.01-86.48-13.01,1.49-1.9-29.43,51.9-8.58Z"/>
  <polygon class="st1" points="290 534.01 288.56 564.06 273.66 566.16 272.16 567.66 261.87 650.87 242.01 657 253.02 570.51 240 572.01 239.14 542.14 290 534.01"/>
  <path class="st1" d="M364.01,560l-1.13-6.87c-8.11-3.27-18.26,15.98-11.64,19.14s25.23-8.86,29.33,5.66c5.52,19.54-14.11,54.09-32.18,61.96-5.27,2.29-19.4,2.81-19.45-4.33s7.51-18.68,8.07-26.56c5.23,1.16,8.33,3.05,14.03,1.53,4.78-1.28,14.01-8.4,10.06-14.13-5.16-6.43-23.97,9.67-32.1-1.9-4.93-7.02.83-34.78,7.03-39.97,2.81-2.35,8.56-.84,10.05-3.2,3.97-13.23,5.35-26.85,18.6-34.15,20.6-11.35,20.48,22.77,16.29,34.29l-16.97,8.52Z"/>
  <path class="st1" d="M353,498l-15.5,50c-.99,1.18-15.6,4-17.98,4.03-2.89.04-.99-3.64-.45-5.47,3.48-11.67,9.8-35.24,14.85-45.15.63-1.24,2.33-3.42,3.58-3.42h15.5Z"/>
  <path class="st1" d="M489.99,505l-5.04,60.46-1.06,58.44-24.89,7.09.48-20.01-7.33,2.18-3.18,14.31-23.97,5.52,28.12-119.86,36.86-8.13ZM467.99,531.01c-2.5-.19-1.71-.24-1.97,1.5-2.87,19.21-6.75,38.2-9.02,57.49l6.06-1.61,4.93-57.38Z"/>
  <path class="st0" d="M684.36,551.36c8.34-8.17,13.71-.96,14.63,8.15,1.39,13.88-1.37,39.71-12.5,49.48-7.73,6.79-16.03,1.76-17.42-7.55-1.8-12.03,6.52-41.48,15.3-50.07ZM693.99,556c-1.36-.03-1.94-.34-3.05.66-3.83,3.46-11.4,25.4-12.65,31.14-1.52,6.99-2.16,12.57,3.2,18.19,13.4-12.35,15.22-32.81,12.49-49.99Z"/>
  <path class="st0" d="M994.76,547.25c2.53,2.49-.84,8.17-2.34,10.66-1.07,1.79-10.48,14.02-12.41,12.08l3.48-21.01c2.39-1.94,8.93-4.03,11.27-1.74Z"/>
  <path class="st0" d="M210,534.01l-3.97,47.31-6.02,1.68c2.29-14.63,4.25-29.69,7.32-44.17.39-1.84-.11-5.62,2.66-4.82Z"/>
  <path class="st0" d="M467.99,531.01l-4.93,57.38-6.06,1.61c2.27-19.29,6.15-38.28,9.02-57.49.26-1.74-.53-1.69,1.97-1.5Z"/>
</svg>