<?xml version="1.0" encoding="UTF-8"?>
<svg id="_레이어_1" data-name="레이어_1" xmlns="http://www.w3.org/2000/svg" version="1.1" viewBox="0 0 1166 1129">
  <!-- Generator: Adobe Illustrator 29.8.3, SVG Export Plug-In . SVG Version: 2.1.1 Build 3)  -->
  <defs>
    <style>
      .st0 {
        fill: #e8d94b;
      }

      .st1 {
        fill: #363633;
      }
    </style>
  </defs>
  <path class="st1" d="M774.01,539c4.84-6.09,7.97-13.48,13.02-19.47,2.78-3.29,8.97-9.39,12.63-11.37,7.88-4.27,21.83-4.92,29.28.41,6.48,4.63,16.36,24.61,13.31,32.18l-12.23,17.25c3.64-1.18,9.6-2.25,11.47,2.03.82,1.86-.3,4.86,1.51,4.97l10.25-46.26,4.82-5.18c9.77-.16,34.85-10.58,42.92-7.03,3.34,1.47,2.38,4.62,3.28,6.72.72,1.68,2.34,2.3,2.73,4.28.85,4.24-1.74,13.06-2.04,17.94-.08,1.34-.74,6.24,1.03,6.54,2.28-7.27-.23-26.62,7.77-29.73,2.1-.82,13.42-3.6,15.98-4.02s6.87-.76,9.24.28,5.06,9.89,6.12,12.96l-12.09,69.52c4.46-1.45,13.98-4.36,16.45,1.04.67,1.48.46,3.25,1.1,4.9.34.88,1.87,1.54,2.24,2.76,2.54,8.17-1.68,24.75-.82,33.78-.11,1.49-.88,2.19-2.03,2.97-2.02,1.39-20.69,4.72-25.17,5.83-6.99,1.74-19.42,7.59-26.1,5.53-2.34-.72-2.36-3.78-3.27-3.85-8.05-.67-27.51,14.81-32.91,2.04-.78,1.08-1.81,1.61-3.08,1.93-5.64,1.42-27.24,5.68-31.44,3.58l-1.48-1.52c-.61-5.5-4.43-7.95-4.01-13.98-6.54,6.47-11.88,13.37-21.28,15.72-21.98,5.49-29.77-6.23-36.72-24.74-1.57.02,1.65,7.3-3.22,9.79-3.24,1.66-14.39,2.75-19.1,3.9-7.08,1.74-28.8,9.52-34.19,6.83l-1.48-1.52c-.6-2.68-.62-6.16-3.54-7.46-8.48-3.79-40.01,13.04-47.99,8.99-2.23-1.13-1.94-7.17-6.01-9.01-7.6-3.44-38.59,13.18-46.98,9l-3.49-7.49c-4.24,3.46-25.97,12.16-28.99,5.97-.64-1.32-.27-3.1-.77-4.23-2.07-4.67-3.25-3.09-2.62-10.14,3.39-37.66,11.89-75.13,15.12-112.87.57-2.04,3.01-5.34,4.81-6.19,2.21-1.05,16.68-4.45,19.41-4.59,2.05-.11,4.65-.29,6.52.55,2.08.94,2.76,4.13,3.13,4.38,1.19.82,20.22-6.41,26.18-4.68,3.83,1.11,3.22,5.02,4.27,7.73.34.88,1.88,1.55,2.24,2.76,1.94,6.44-5.98,38.95-7.48,48.11-1.26,7.7-2.32,15.45-3.31,23.18,6.86-.33,17.13-4.42,17.01,6l10.12-73.37c.64-3.68,1.07-8.25,4.93-10.07,1.85-.87,18.04-4.52,20.42-4.61,8.62-.33,6.81,2.19,9.08,8,.74,1.91,3.98,3.54,2.44,7.52l-11.99,67.53c7.14-2.35,19.09-5.21,18,6l11.07-81.42c1.11-4.9,6.77-5.06,10.91-6.09,8.64-2.14,23.09-5.16,31.76-6.23,3.59-.44,8.87-1.25,10.7,2.78.64,1.4.32,3.07.8,4.2.72,1.69,2.32,2.28,2.72,4.27,1.35,6.7-2.56,17.13-.97,24.49ZM767,509.01l-43.56,7.93-15.43,119.06,47.1-11.6,1.89-30.39-24,4c-.04-1.15-.07-2.31.02-3.46.14-1.79,1.02-8.14,1.95-9.08,3.01-3.06,21.94-4.27,22.91-7.09l1.12-21.37-19.99,4,2.14-17.86,23.43-4.07,2.43-30.06ZM821.87,547.86c5.9-12.2,17.56-14.77,7.97-29.2-8.01-12.05-20.56-10.46-30.84-2.18-21.28,17.14-34.64,61.52-33.03,88.05,1.34,22.09,12.12,47.01,37.96,30.88,19.79-12.36,32.75-49.91,32.08-72.41l-33.83,9.16-3.15,23.83,15.99-3.99c-.58,9.39-11.18,26.27-22.38,19.89-13.63-7.77.13-45.61,6.76-56.02,4.57-7.17,11.93-15.09,20.36-8.05l2.14.04ZM897.99,511l-36.51,7.98-2.33,1.67-30.14,119.35,26.42-4.88,2.72-14.98,8.86-1.13-1.99,19.99,26.85-8.14,1.1-57.4,5.04-62.46ZM639.99,513c-3.8,1.63-20.44,3.65-21.8,6.69l-15.18,116.31,43.93-11.05,2.05-30.94-22.99,3.99,13.99-84.99ZM693,513.01l-22.02,5.69-15.97,117.3,44.99-11,1-30.99-21.99,4,13.99-85ZM609,514.01l-21.94,4.04-15.05,117.95,19.85-7.64c3.53-38.45,10.11-76.47,17.14-114.35ZM936,514l-20.26,3.99-1.08,1.21-15.66,116.79,44.87-12.62,1.12-29.37-21.99,4,13-84.01ZM904.5,543v1c.65-.33.65-.67,0-1ZM769,552.01h-5.99c1.36,10.81,4.64,10.44,5.99,0ZM820,561.99c-1.07-7.17-10.09-3.43-10.99,2l10.99-2Z"/>
  <path class="st1" d="M431,531.01c8.61.43,46.52-9.21,51.6-5.11,2.11,1.7.33,4.74,2.39,5.09.22-2.33,2.44-6.12,4.72-6.79,2.13-.62,17.3-.64,19.76-.18,4.41.83,2.97,4.14,3.82,7.18.31,1.1,1.42,2.01,1.65,3.34.65,3.71-.94,6.92-.45,10.45,8.75-11,16.85-23.04,32.98-19.97,5.94,1.13,10.98,16.22,11.51,21.49.37,3.7.64,18.91-.2,21.78-.94,3.21-6.84,4.7-6.81,5.23,11.51,18.94,6.08,39.41-7.47,55.49-9.06,10.76-19.72,19.53-34.73,14.71-7.48-2.41-6.08-3.89-8.34-9.66-.34-.88-1.87-1.55-2.24-2.76-2.45-7.96,6.43-17.93,5.81-23.78-.21-1.95-2.38-3.04-3.23-4.82-3.22-6.74-4.66-12.05-3.79-19.71-4.79-.45-20.13,5.04-22.51,0-1.36-2.88.66-5.9-4.98-7.01l-8.05,58.97c-1.63,2.64-18.41,7.46-21.98,7.11-5.37-.53-3.64-3.51-5.03-7.01-2.25-5.64-2.8-5.2-2.49-12.6.67-15.8,5.9-32.78,6.1-48.84-5.31-1.22-4.14-3.8-6.56-7.59-2.37-.01-1.35,11.19-1.51,13.47-1.26,18.19-2.17,36.65-2.01,54.99-.18,1.68-1.25,2.61-2.6,3.4-2.43,1.41-19,6.14-21.87,6.2-5.13.12-5.77-2.81-7.77-2.85-7.68-.17-30.07,11-28.74-3.23-6.36,2.03-18.18,8.89-20.54-1.06-6.09.62-15.6,7.12-21.43,4.53-3.23-1.44-2.58-4.83-3.58-7.42-.34-.88-1.88-1.55-2.24-2.76-2.37-7.86,5.92-46.34,6.78-57.81.09-1.18.42-5.49-.49-5.5l-10.04,66.97c-1.74,2.83-19.26,7.72-22.93,7.02-4.38-.85-2.72-3.8-3.79-6.22-2.69-6.08-3.12-5.52-2.78-13.3.68-15.8,5.9-32.77,6.1-48.84-.3-1.05-2.97-.57-4.15-2.01-2.9-3.54-4.64-13.39-4.95-18.06-.25-3.78-.71-19.82,1.46-21.62,1.61-1.33,36.44-6.61,41.09-6.91,2.31-.15,6.83-.44,8.8.17,2.21.68,2.25,3.25,2.87,3.62,2.71,1.62,14.94-4.23,20.11-2.61,1.36.43,2.05,2.18,3.41,2.61,6.27,1.96,20.34-6.96,24.36-.37,1.67,2.73-.11,6.37,2.92,7.57.39-2.93,2.58-4.4,5.19-5.32,4.43-1.55,27.33-6.81,31.34-6.77,5.09.05,5.86,2.39,5.48,7.1ZM507,529.01l-16.1,1.61-13.89,42.38,17.07-3.66,12.92-40.33ZM333,530l-44,6,1.01,25.01,10.99-2-8.98,71,16.79-6.7,9.2-67.3,14-1,.99-25.01ZM425.99,530l-31.11,6.58-24.88,96.41,21.81-4.18c1.71-6.81-.57-14.15,9.18-12.81l-1.99,15.99,21.89-6.09c.05-32.06,1.54-64.08,5.1-95.9ZM479,530l-44,6,1.01,25.01,10.99-2-8.98,71,16.79-6.7,9.2-67.3,14-1,.99-25.01ZM535.01,567c3.19-2.39,15.34-5.97,15.99-9.5.97-5.26.38-23.22-4.6-26.4-10.05-6.41-25.72,15.12-30.43,22.37-5.72,8.8-17.79,31.5-10.99,41.05,6.38,8.96,24.23-3.33,27.59,1.41,2.98,6.51-8.74,12.76-13.98,12.06-2.26-.31-4.04-2.46-6.54-1.96-.17,4.16-9.48,21.64-6.41,24.07,2.45,1.94,7.84,2.14,10.92,1.94,17-1.13,35.95-32.15,33.21-48.3-2.59-15.25-16.56-5.56-24.2-6.72-9-1.37,2.53-19.54,8.32-15.88l1.13,5.87ZM355.99,532l-17.31,3.18-1.55,1.45-12.13,93.36,17.54-5.95c1.15-4.39,1.52-26.52,4.12-28.12,1.56-.96,4.93-1.06,6.82-1.94,2.21-.07-4.12,33.05-3.48,36.01l17.33-6.21,13.66-91.78-18.53,3.96-5.56,39.95c-5.41.08-8.61,4.32-7.89-3.39,1.24-13.34,5.87-27.08,6.98-40.52Z"/>
  <path class="st0" d="M897.99,511l-5.04,62.46-1.1,57.4-26.85,8.14,1.99-19.99-8.86,1.13-2.72,14.98-26.42,4.88,30.14-119.35,2.33-1.67,36.51-7.98ZM874.99,536.01c-2.5-.19-1.71-.24-1.97,1.5-2.97,19.93-7.25,39.55-10.02,59.5,3.18.26,6.3.17,6.97-3.53l5.02-57.47Z"/>
  <path class="st0" d="M821.87,547.86l-2.14-.04c-8.43-7.03-15.79.88-20.36,8.05-6.63,10.4-20.39,48.25-6.76,56.02,11.2,6.38,21.8-10.49,22.38-19.89l-15.99,3.99,3.15-23.83,33.83-9.16c.68,22.5-12.29,60.06-32.08,72.41-25.84,16.13-36.62-8.79-37.96-30.88-1.61-26.53,11.75-70.91,33.03-88.05,10.28-8.28,22.84-9.87,30.84,2.18,9.59,14.43-2.07,17-7.97,29.2Z"/>
  <path class="st0" d="M767,509.01l-2.43,30.06-23.43,4.07-2.14,17.86,19.99-4-1.12,21.37c-.96,2.82-19.9,4.03-22.91,7.09-.92.94-1.8,7.28-1.95,9.08-.09,1.16-.06,2.32-.02,3.46l24-4-1.89,30.39-47.1,11.6,15.43-119.06,43.56-7.93Z"/>
  <polygon class="st0" points="936 514 923 598 944.99 594 943.87 623.37 899.01 636 914.66 519.21 915.74 517.99 936 514"/>
  <polygon class="st0" points="693 513.01 679 598 700.99 594 699.99 624.99 655.01 636 670.97 518.7 693 513.01"/>
  <path class="st0" d="M639.99,513l-13.99,84.99,22.99-3.99-2.05,30.94-43.93,11.05,15.18-116.31c1.36-3.04,18-5.06,21.8-6.69Z"/>
  <path class="st0" d="M609,514.01c-7.03,37.89-13.61,75.9-17.14,114.35l-19.85,7.64,15.05-117.95,21.94-4.04Z"/>
  <path class="st0" d="M425.99,530c-3.56,31.82-5.05,63.84-5.1,95.9l-21.89,6.09,1.99-15.99c-9.75-1.34-7.47,6-9.18,12.81l-21.81,4.18,24.88-96.41,31.11-6.58ZM402.94,597.95l4.05-48.94-10,49.48,5.96-.54Z"/>
  <path class="st0" d="M355.99,532c-1.11,13.44-5.74,27.18-6.98,40.52-.72,7.71,2.48,3.46,7.89,3.39l5.56-39.95,18.53-3.96-13.66,91.78-17.33,6.21c-.64-2.96,5.69-36.08,3.48-36.01-1.89.88-5.26.97-6.82,1.94-2.6,1.6-2.97,23.73-4.12,28.12l-17.54,5.95,12.13-93.36,1.55-1.45,17.31-3.18Z"/>
  <path class="st0" d="M535.01,567l-1.13-5.87c-5.79-3.66-17.32,14.51-8.32,15.88,7.63,1.16,21.61-8.53,24.2,6.72,2.74,16.15-16.21,47.17-33.21,48.3-3.08.2-8.47,0-10.92-1.94-3.07-2.43,6.25-19.91,6.41-24.07,2.5-.5,4.29,1.65,6.54,1.96,5.24.71,16.96-5.54,13.98-12.06-3.36-4.75-21.21,7.55-27.59-1.41-6.8-9.55,5.27-32.25,10.99-41.05,4.71-7.25,20.38-28.77,30.43-22.37,4.98,3.18,5.58,21.14,4.6,26.4-.65,3.52-12.81,7.1-15.99,9.5Z"/>
  <polygon class="st0" points="333 530 332.01 555.01 318.01 556.01 308.8 623.3 292.01 630 300.99 559 290 561 288.99 536 333 530"/>
  <polygon class="st0" points="479 530 478.01 555.01 464.01 556.01 454.8 623.3 438.01 630 446.99 559 436 561 434.99 536 479 530"/>
  <polygon class="st0" points="507 529.01 494.08 569.33 477 572.99 490.9 530.62 507 529.01"/>
  <path class="st1" d="M874.99,536.01l-5.02,57.47c-.67,3.69-3.8,3.79-6.97,3.53,2.77-19.94,7.05-39.57,10.02-59.5.26-1.74-.53-1.69,1.97-1.5Z"/>
  <polygon class="st1" points="402.94 597.95 396.99 598.49 406.99 549.01 402.94 597.95"/>
</svg>