<?xml version="1.0" encoding="UTF-8"?>
<svg id="_레이어_1" data-name="레이어_1" xmlns="http://www.w3.org/2000/svg" version="1.1" viewBox="0 0 1166 1129">
  <!-- Generator: Adobe Illustrator 29.8.3, SVG Export Plug-In . SVG Version: 2.1.1 Build 3)  -->
  <defs>
    <style>
      .st0 {
        fill: #eada4b;
      }

      .st1 {
        fill: #3f3e3b;
      }
    </style>
  </defs>
  <path class="st1" d="M661,667.5c-.76,1.02-1.59,1.71-2.76,2.24-4.32,1.92-28.36,9.28-31.62,8.11-1.31-.47-1.12-2.34-2.38-2.82-8.57-3.27-26.38,6.4-36.55,3.95-.75-.18-.6-1.77-1.38-1.95-1.59-.38-3.99.47-5.38-.46l-.95-2.09,13.02-53.48c-4.32.16-6.5,4.74-9.52,6.97-10.92,8.09-26.19,13.48-40,12.02-4.09-.43-5.23-3.64-10.05-3.93l14.54-138.6c15.18-5.07,34.99-12.45,51.08-9.03,2.02.43,11.01,5.19,12.47,6.53,7.94,7.29,4.03,29.51,1.48,39.02,6-.59,46.18-11.91,48-10v4.02s6-.01,6-.01c1.28,1.26-2.65,28.21-3,32.51-1.05,12.81-2.86,28.44-3.05,40.97-.03,2.07-.57,2.93,2.04,2.52l15.58-116.92c1.55-1.1,21.33-6.08,23.91-6.14,4.55-.1,8.88,4.93,13.96,5.12,6.4.24,19.64-7.13,25.94-4.91,1.49.53,1.75,4.62,6.62,2.84l-8.51,64.02c5.13-11.27,16.95-30.54,30.24-32.77,11.53-1.93,21.64.36,30.31,8.22l6.94,11.54,5.61-45.11c17.22-3,34.33-8.51,51.85-8.96l.61,2.95,4.94.12v19c16.19-6.93,41.76-12.31,56.51-.01,7.21,6.01,4.83,27.05,2.52,35.54-1.38,5.08-4.3,11.51-6.86,16.14-2.33,4.23-12.16,15.78-12.23,18.8l13.6,38.48.25,6.33-20.78,26.22c-1.37.66-4.9.9-6.32.51-1-.27-.97-2.03-1.69-2.48-1.64-1.02-4.35.01-5.54-1.51-1.47-1.88-3.68-14.76-4.48-18.03-1.33.51-1.73,5.25-1.86,6.62-.31,3.09.11,6.17-.26,9.24-9.12,2.55-17.59,8.69-27.32,8.2l-.6-2.96-6.51-1.04,1.56-20.06c-.92-.93-17.47,3.53-20.21,4.28-5.51,1.51-21.81,8.1-26.17,6.57-1.72-.61-1.1-4.07-4.56-2.81-8.6,25.08-30.98,50.99-59.73,35.13-13.04-7.19-16.16-28.61-16.33-42.17-6.25.9-13.91,6.72-20.3,5.01-1.02-.27-.87-2.27-2.35-2.83-1.27-.48-3.29.08-4.41-.63-1.91-1.21.64-5.39-2.93-4.56-.31,3.86,1.46,6.96-2.28,9.22-1.89,1.14-17.29,7.35-19.28,7.71-1.87.34-3.98-.04-5.9.13l-.61-2.95-4.94-.12v32.5ZM861.99,484l-45.95,9.04-10.06,83.45,5.02.51c.81,17.11-2.94,34.12-9.01,50l47.89-12.1,2.1-34.89-24.99,5,1.1-14.9,24.79-6.2,1.09-25.9c-.7-.8-17.61,5.59-20.52,5.99-1.64.22-1.62.13-1.42-1.42.81-6.48,3.01-12.86,3.05-19.47l25-4.71,1.89-34.39ZM704,485l-23.03,5.67-17.96,141.34,21.53-8.96,4.47-42.04,11,42,22.01-8.71,17.98-129.29-22.89,5.1-9.61,71.91-2.54-19.47-.96-57.55ZM537,633h14.5c1.4,0,11.23-3.87,13.18-4.82,18.09-8.88,37.91-34.79,36.36-55.72-.7-9.43-4.73-12.66-13.53-13.48-.88-.08-3.39.64-2.5-1.47.73-1.7,7.58-8.8,9.4-11.6,7.12-10.97,14.01-27,12.48-40.3-3.11-26.94-40.34-8.57-55.75-5.47l-14.13,132.86ZM894.01,639c7.25-8.47,15.37-17.1,20.99-26.59l-14.95-43.95c10-13.39,20.57-26.91,22.67-44.23,2.17-17.88-3.33-26.48-22.09-25.09-4.63.35-29.21,5.84-30.46,9.53-.88,4.92,1.06,11.15-1.17,15.64-9.18,18.51-6.86,67.24-9.12,90.06-.67,6.79-.53,4.71-3.82,7.13-1.93,1.42-3.4,16.29-2.56,19.49l21.02-8.98,5.48-44.01,14.02,50.99ZM784.02,562l15.76-22.32c-10.48-35.28-35.46-22.97-50.59,1.01-10.49,16.64-12.61,27.71-15.07,46.93-1.38,10.82-1.77,21.85-3.1,32.68l-3.91,1.81c.48,11.38,4.59,37.96,17.86,41.42,32.37,8.44,51.94-46.37,55.74-70.32.26-1.65,2.42-16.25.78-16.22l-35.58,10.65-3.9,27.37,17.99-4.99c-1.82,9.18-11.49,29-23.37,22.86-16.31-8.43-1.58-51.07,5.57-63.17,4.62-7.82,15.09-19.56,21.82-7.7ZM864,526.01l-19.42,2.87-1.57,8.12,13.45-2.06.62,2.94,4.78-.02,2.14-11.85ZM657.99,528.01l-41.86,9.13-32.13,135.86,27.78-5.2c3.36-8.1-.76-20.88,12.23-18.25l-2.01,22.45,28.86-9.13c.78-45.03,1.3-90.2,7.13-134.86ZM608,562l3.99-25-12.91,20.59c-.48,1.93.27,1.15,1.19,1.61,1.18.59,7.16,3.4,7.72,2.8ZM802.85,573.86l2.65-22.85c-5.44,5.22-8.52,19.51-17.81,17.01-1.21-.33-.44-2.91-4.18-3.13-7.91-.46-12.68,11.77-15.5,17.62l34.83-8.66ZM857.99,571l-20.41,4.9-.59,3.09,17.47-2.06,2.53,3.07,1-9ZM764.94,618.11l-6.93-1.11c.59,12.8,5.41,16.76,12.98,4.49l-5.93-.61-.12-2.77ZM593.99,619.99v-1.99h-.98v1.99h.98Z"/>
  <path class="st1" d="M128,524c6.42-2.47,15.72-4.28,22.53-3.02,2.64.49,1.69,2.99,3.95,3.14,3.83.24,8.42-2.56,12.1-3.03,4.9-.62,10.44.28,15.42-.09l-10,64c3.36.79,1.52-2.97,2.23-5.26,5.37-17.5,9.43-35.6,13.48-53.52,1.11-4.91,2.94-22.62,6.33-24.67,15.6-2.88,31.97-10.43,47.91-7.49l-2.94,42.95c19.66-2.43,39-8.17,58.99-7v38l-16.99,2.01-10.01,82.49c-.06,1.69-1.06,2.01-2.27,2.73-1.75,1.04-17.18,6.38-19.32,6.68-3.22.46-11.09,1.12-12.21-2.61l9.28-83.32-9.49,1.01-1.04,43.96c-12.96,1.79-22.77,8.92-36.52,7.12-2.02-.26-.65-2.22-3.86-2.18-8.87.11-19.09,4.87-28.57,3.1l-1.48,14.02c-7.46,3.17-15.87,7.55-24.02,7.97-5.45.28-9.59.71-9.98-5.97-3.73,1.2-7.6,3.83-11.26,4.75s-15.74,3.04-17.05-1.46c-1.77-6.04,1.9-18.36,2.68-24.92,3.34-28.13,6.39-56.3,10.12-84.37h-4.99s-10.17,83.84-10.17,83.84c-.69,1.09-16.34,6.12-18.83,6.67-3.83.85-13.35,3.68-14.8-1.21l9.79-83.3-10.94.94-2.06-37.45,1.67-2.33,49.96-8.05c3.93.22,9.42-1.48,12.38,1.38v24.5ZM233,498l-34.24,7.25-2.23,1.77-28.52,117.97,23.96-4.53c4.54-7.02-.4-17.22,12.04-16.46l-1.99,19.99,25.54-7.95.42-49.58,5.04-68.46ZM120,503l-51.9,8.58,1.9,29.43,13.01-1.49-11.01,86.48c3.76-1.54,18.49-4.64,19.78-7.71l10.37-81.63c1.18-3.41,13.45-2.15,16.73-3.76l1.11-29.9ZM143.99,525l-15.99,3-.43,8.07c-1.23,1.77-6.81-.37-6.91,4.09l-13.65,106.83,20.86-7.13,3.26-34.74,9.49-3.03c1.59-.37,1.52-.11,1.4,1.4-1.13,14.25-4.39,29.22-6.01,43.49l21.04-7.66c2.56-38.48,9.54-76.41,15.95-114.33l-21.79,5.21-6.39,48.1-9.3,3.7,8.48-57.01ZM290,534.01l-50.86,8.13.86,29.87,13.02-1.49-11.01,86.48,19.86-6.13,10.3-83.2,1.5-1.5,14.9-2.1,1.43-30.06Z"/>
  <path class="st1" d="M329.5,603c-.19-.04-2.75-1.96-3.15-2.35-9.16-8.95-2.42-34.25,2.65-44.64-5.94-.55-16.03,4.92-16.1-4.49l18.03-56.08c2.2-2.51,10.81-1.3,14.56-1.44,5.52-.21,10.53-1.37,16.52,0,1.55,8.25-2.24,13.56-4,21,6.32-5.61,22.39-7.73,28.48-1.99,7.98,7.54,5.66,31.48,4.32,41.79-5.59,1.21-11.82,7.45-16.78,8.72s-12.92-1.68-15.04,2.96c.54,1.54,2.27-.49,2.51-.49h16c4.07,0,9.9,3.51,11.58,7.42,6.36,14.82-2.87,39.04-11.67,51.49-10.78,15.26-21.57,22.81-40.95,21.13-9.05-.79-13.35-2.7-12.35-12.43.35-3.37,7.36-25.79,8.97-28.02,3.19-4.4,16.16,1.31,20.91-2.6-.13-2.63-3.92.01-4.49.01-5.01,0-15.95.92-20,0ZM353,498h-15.5c-1.26,0-2.95,2.18-3.58,3.42-5.05,9.91-11.37,33.48-14.85,45.15-.54,1.83-2.44,5.51.45,5.47,2.39-.04,16.99-2.85,17.98-4.03l15.5-50ZM364.01,560l16.97-8.52c4.19-11.52,4.31-45.64-16.29-34.29-13.25,7.3-14.64,20.92-18.6,34.15-1.49,2.36-7.23.85-10.05,3.2-6.21,5.19-11.96,32.95-7.03,39.97,8.13,11.57,26.93-4.53,32.1,1.9,3.95,5.73-5.28,12.85-10.06,14.13-5.69,1.52-8.8-.37-14.03-1.53-.55,7.88-8.11,19.27-8.07,26.56s14.18,6.63,19.45,4.33c18.07-7.87,37.7-42.42,32.18-61.96-4.1-14.53-22.62-2.47-29.33-5.66s3.53-22.41,11.64-19.14l1.13,6.87Z"/>
  <path class="st1" d="M499.01,501l-3.02,45.49c-3.93,26.56-2.25,53.73-3.45,80.55-11.16,4.17-23.92,9.63-36.11,8.04-2.02-.26-.65-2.22-3.86-2.18-10.55.14-20.72,6.75-31.63,3.66-1.82-1.27-.87-7.41-.49-9.62,2.74-15.89,10.48-36.05,14.49-52.5,5.22-21.38,9.13-43.08,14.6-64.4l2.2-1.8c15.83-2.22,31.09-10.19,47.26-7.24ZM489.99,505l-36.86,8.13-28.12,119.86,23.97-5.52,3.18-14.31,7.33-2.18-.48,20.01,24.89-7.09,1.06-58.44,5.04-60.46Z"/>
  <polygon class="st0" points="704 485 704.96 542.54 707.5 562.01 717.11 490.1 740 485 722.01 614.3 700.01 623 689.01 581.01 684.54 623.04 663.01 632 680.97 490.66 704 485"/>
  <path class="st0" d="M657.99,528.01c-5.83,44.66-6.36,89.83-7.13,134.86l-28.86,9.13,2.01-22.45c-12.99-2.63-8.87,10.15-12.23,18.25l-27.78,5.2,32.13-135.86,41.86-9.13ZM620.01,625l6.01-1.48.86-1.14,4.11-56.37-10.98,58.99Z"/>
  <path class="st0" d="M537,633l14.13-132.86c15.41-3.1,52.64-21.47,55.75,5.47,1.53,13.3-5.36,29.33-12.48,40.3-1.82,2.8-8.68,9.9-9.4,11.6-.9,2.1,1.61,1.38,2.5,1.47,8.8.82,12.83,4.05,13.53,13.48,1.55,20.93-18.27,46.85-36.36,55.72-1.95.96-11.78,4.82-13.18,4.82h-14.5ZM583.86,527.15c-1.18-1.87-9.88-.2-10.95,1.51l-3.9,24.35c5.27-2.72,18.04-20.81,14.85-25.85ZM581.76,577.24c-3.05-2.93-12.8-.25-16.3,1.72l-2.46,19.03c6.19-.11,25.17-14.6,18.76-20.75Z"/>
  <path class="st0" d="M784.02,562c-6.73-11.87-17.21-.12-21.82,7.7-7.15,12.1-21.88,54.74-5.57,63.17,11.88,6.14,21.55-13.68,23.37-22.86l-17.99,4.99,3.9-27.37,35.58-10.65c1.65-.03-.51,14.57-.78,16.22-3.8,23.95-23.37,78.76-55.74,70.32-13.27-3.46-17.38-30.04-17.86-41.42l3.91-1.81c1.33-10.84,1.71-21.86,3.1-32.68,2.46-19.22,4.57-30.3,15.07-46.93,15.13-23.98,40.11-36.29,50.59-1.01l-15.76,22.32Z"/>
  <path class="st0" d="M894.01,639l-14.02-50.99-5.48,44.01-21.02,8.98c-.85-3.19.63-18.07,2.56-19.49,3.29-2.42,3.15-.34,3.82-7.13,2.26-22.82-.06-71.55,9.12-90.06,2.23-4.49.28-10.72,1.17-15.64,1.26-3.68,25.83-9.18,30.46-9.53,18.77-1.4,24.27,7.21,22.09,25.09-2.11,17.32-12.68,30.84-22.67,44.23l14.95,43.95c-5.62,9.49-13.74,18.12-20.99,26.59ZM883.01,562c2.85,3.2,35.28-38.53,3.48-24.01l-3.48,24.01Z"/>
  <path class="st0" d="M861.99,484l-1.89,34.39-25,4.71c-.05,6.61-2.24,12.99-3.05,19.47-.19,1.55-.22,1.64,1.42,1.42,2.9-.4,19.81-6.79,20.52-5.99l-1.09,25.9-24.79,6.2-1.1,14.9,24.99-5-2.1,34.89-47.89,12.1c6.07-15.88,9.81-32.89,9.01-50l-5.02-.51,10.06-83.45,45.95-9.04Z"/>
  <path class="st0" d="M233,498l-5.04,68.46-.42,49.58-25.54,7.95,1.99-19.99c-12.43-.76-7.5,9.44-12.04,16.46l-23.96,4.53,28.52-117.97,2.23-1.77,34.24-7.25ZM210,534.01c-2.78-.8-2.27,2.98-2.66,4.82-3.07,14.48-5.03,29.54-7.32,44.17l6.02-1.68,3.97-47.31Z"/>
  <path class="st0" d="M143.99,525l-8.48,57.01,9.3-3.7,6.39-48.1,21.79-5.21c-6.42,37.92-13.39,75.85-15.95,114.33l-21.04,7.66c1.63-14.27,4.88-29.24,6.01-43.49.12-1.51.19-1.78-1.4-1.4l-9.49,3.03-3.26,34.74-20.86,7.13,13.65-106.83c.1-4.46,5.68-2.32,6.91-4.09l.43-8.07,15.99-3Z"/>
  <path class="st0" d="M120,503l-1.11,29.9c-3.28,1.61-15.55.36-16.73,3.76l-10.37,81.63c-1.29,3.07-16.02,6.18-19.78,7.71l11.01-86.48-13.01,1.49-1.9-29.43,51.9-8.58Z"/>
  <polygon class="st0" points="290 534.01 288.56 564.06 273.66 566.16 272.16 567.66 261.87 650.87 242.01 657 253.02 570.51 240 572.01 239.14 542.14 290 534.01"/>
  <path class="st0" d="M364.01,560l-1.13-6.87c-8.11-3.27-18.26,15.98-11.64,19.14s25.23-8.86,29.33,5.66c5.52,19.54-14.11,54.09-32.18,61.96-5.27,2.29-19.4,2.81-19.45-4.33s7.51-18.68,8.07-26.56c5.23,1.16,8.33,3.05,14.03,1.53,4.78-1.28,14.01-8.4,10.06-14.13-5.16-6.43-23.97,9.67-32.1-1.9-4.93-7.02.83-34.78,7.03-39.97,2.81-2.35,8.56-.84,10.05-3.2,3.97-13.23,5.35-26.85,18.6-34.15,20.6-11.35,20.48,22.77,16.29,34.29l-16.97,8.52Z"/>
  <path class="st0" d="M353,498l-15.5,50c-.99,1.18-15.6,4-17.98,4.03-2.89.04-.99-3.64-.45-5.47,3.48-11.67,9.8-35.24,14.85-45.15.63-1.24,2.33-3.42,3.58-3.42h15.5Z"/>
  <path class="st0" d="M489.99,505l-5.04,60.46-1.06,58.44-24.89,7.09.48-20.01-7.33,2.18-3.18,14.31-23.97,5.52,28.12-119.86,36.86-8.13ZM467.99,531.01c-2.5-.19-1.71-.24-1.97,1.5-2.87,19.21-6.75,38.2-9.02,57.49l6.06-1.61,4.93-57.38Z"/>
  <polygon class="st1" points="620.01 625 630.99 566.01 626.88 622.38 626.02 623.52 620.01 625"/>
  <path class="st1" d="M581.76,577.24c6.41,6.15-12.57,20.64-18.76,20.75l2.46-19.03c3.5-1.97,13.25-4.65,16.3-1.72Z"/>
  <path class="st1" d="M583.86,527.15c3.19,5.05-9.58,23.13-14.85,25.85l3.9-24.35c1.07-1.7,9.77-3.38,10.95-1.51Z"/>
  <path class="st1" d="M883.01,562l3.48-24.01c31.8-14.53-.63,27.21-3.48,24.01Z"/>
  <path class="st1" d="M210,534.01l-3.97,47.31-6.02,1.68c2.29-14.63,4.25-29.69,7.32-44.17.39-1.84-.11-5.62,2.66-4.82Z"/>
  <path class="st1" d="M467.99,531.01l-4.93,57.38-6.06,1.61c2.27-19.29,6.15-38.28,9.02-57.49.26-1.74-.53-1.69,1.97-1.5Z"/>
</svg>