<?xml version="1.0" encoding="UTF-8"?>
<svg id="_레이어_1" data-name="레이어_1" xmlns="http://www.w3.org/2000/svg" version="1.1" viewBox="0 0 1166 1129">
  <!-- Generator: Adobe Illustrator 29.8.3, SVG Export Plug-In . SVG Version: 2.1.1 Build 3)  -->
  <defs>
    <style>
      .st0 {
        fill: #343532;
      }

      .st1 {
        fill: #e9da4b;
      }
    </style>
  </defs>
  <path class="st0" d="M707.66,531.34c1.12,1.08,2.21,4.65,2.93,4.71,3.2-1.03,6.67-2.56,10.02-2.95,4.8-.56,20.76-1.73,24.84-1.05,2.24.37,7.44,3.5,9.64,3.46,6.25-.11,14.19-4.5,22.24-2.51.77.19.64,1.93,1.31,2.03,2.89.41,12.6-2.93,18.94-2.12,1.95.25,1.01,2.11,2.89,2.19,5.49.21,14.45-4.01,21.11-2.2l2.42,2.08c-.86-6.93,17.83-5.69,22.58-5.07,1.28.17,3.36,3.87,7.44,2.07,1.1,16.9-8.84,32.24-11.18,48.82l-20.83,3.17-5.96,49.54c-.49.49-11.61,5.01-12.77,5.23-4.01.75-8.05-.67-10.79-.3-1.93.26-8.34,4.73-11.19,5.32-2.41.49-8.42.62-10.84.3-1.28-.17-3.36-3.87-7.44-2.07v-5c-4.38,1.71-8.76,2.72-13.56,2.07-2.04-.28-.76-2.44-3.88-2.17-4.71.41-6.79,4.29-15.12,3.17-1.28-.17-3.29-3.76-7.38-2.16l-.05-2.92c-4.37,2.73-12.38,4.16-17.3,2.99-.38-.09-2.6-3.8-6.69-1.97v-6c-7.99,10.19-15.19,13.58-28.41,11.92-10.24-1.29-15.67-6.54-19.09-15.91-8.23,19.46-34.39,21.87-47,6.01-6.47,9.5-30.47,7.28-36.92-.1-10.34-11.84-7.25-51.31-3.3-66.13,2.75-10.32,12.39-33.89,24.28-35.72,9.51-1.47,22.63.04,28.96,7.92h1.45c5.06-11.75,17.02-12.6,28.57-11.03,9.14,1.24,13.74,6.99,16.95,15.03,3.27-3.95,9.13-13.43,14.24-14.74,6.06-1.55,24.12-.51,28.91,4.1ZM637.76,531.22c-18.5,2.68-30.76,46.32-31.8,62.23-.87,13.27-.09,51.53,22.57,39.57s33.25-72.28,22.65-93.71c-2.75-5.57-6.92-9.04-13.42-8.1ZM687.77,531.2c-19.69,2.75-31.71,46.66-32.81,63.26-.85,12.89.57,48.87,21.94,38.94,16.57-7.7,27.34-48.1,28.1-64.9.47-10.39-1.49-39.49-17.22-37.3ZM596.99,603c-2.83,1.53-3.45,5.65-6.01,7.47-7.66,5.45-11.94-4.45-12.06-10.98-.13-7.41,7.5-36.06,15.81-37.34,2.65-.41,4.5,2.55,6.28,1.42,3.84-7.56,11.3-11.21,7.16-20.25-6.28-13.71-18.92-8.95-26.58.76-13.92,17.66-21.58,58.12-11.78,78.6,8.33,17.39,29.11,3.6,29.29-7.16.06-3.93-2.31-8.43-2.11-12.53ZM843,535c-3.11.52-11.72-1.18-13.52.98l-12.48,41.01,14.51-2.98,11.49-39.01ZM728.01,634c2.98-3.1,15.53-9.85,16.01-13.55l-9.02-50.86,16.76-23.1c-2.21-2.13-7.66-9.08-10.44-9.35-2.49-.24-10.71,13.94-13.83,15.86l1.5-14.99-15.04,3.64-10.95,90.35,14.01-5.73,4.48-38.26,6.51,45.99ZM760.88,626.88l12.11-89.88-14.38,3.89-1.48,5.73-10.12,85.38,13.87-5.12ZM794.99,537c-3.33,1.59-14.66,2.59-15.8,5.69l-11.18,95.31,13.83-6.66,2.17-27.34,8,28,14.01-5.68,11.96-89.32-14.83,4.17-6.66,47.84-1.51-52.01ZM603.99,571.01c-4.31.76-6.57,5.82-8.17,9.32-2.69,5.86-4.65,13.29-5.33,19.65l10.52-.97,2.99-28Z"/>
  <path class="st0" d="M943.73,525.32c.26.12.23,1.49.95,1.66,1.63.38,3.61-.15,5.32.02l-1,19,12.97-15.52c1.84-1.53,4.19-3.04,6.59-3.41,4.71-.73,17.5-.05,21.44,2.47.78.5.76,2.42,1.58,2.51,1.98.22,12.69-3.73,16.87-4.08,6.81-.57,8.27,1.98,10.95,2.13,6.22.34,11.77-3.15,19.16-2.17,1.29.17,3.35,3.86,7.44,2.07l-13.21,106.79c-7.13,2.26-16.52,7.01-24.11,5.19-.88-.21.16-1.79-3.08-2.06-6.49-.53-11.98,3.13-19.18,2.16-1.3-.17-3.34-3.86-7.44-2.07l-.49-6c-4.99,4.51-9.79,10.36-16.95,11.05-6.64.64-15.45.16-21.54-2.56-5.25-2.34-5.07-2.75-5.53-8.5-11.45.96-24.85,9.6-36.06,8.09-1.3-.17-3.34-3.86-7.44-2.07l-.49-6c-4.23,4.08-9.88,10.28-15.98,11.02s-26.01.26-27.49-7.55c-1.78-9.33,5.27-21.24,6.98-30.47-10.41.13-8.76-19.03-7.9-26.4,1.5-12.86,18.19-43.84,28.96-51.04,4.63-3.09,13.01-3.36,18.48-2.62,3.7.5,7.13,3.18,11.9,3.08,9.07-.2,30.26-8.41,38.28-4.71ZM933,583.5c.66-4.34-.48-9.98,0-14.5l-14.99,4c.41-3.33.21-13.97,3.23-15.32,3.51-1.57,14.77-1.32,16.3-3.64l1.46-25.03-32.57,6.93-11.47,97.55c-.14,1.7-.05,1.63,1.54,1.54,4.08-.21,10.17-3.37,14.5-4.52,6.14-1.63,12.37-2.88,18.51-4.49,3-7.61.53-16.09,2.06-24.04-2.14-2.98-13.96,2.44-17.57,2.02.18-2.74-.85-9.39,1.68-11.07,5.96-3.94,15.99-.69,17.32-9.43ZM881.01,569c.67.49,12.06-5.53,12.98-6.51,4.29-4.54,3.09-32.1-7.42-31.48-11.38.67-28.73,31.78-32.35,41.71-2.36,6.47-5.75,21.28-1.24,26.79,6.76,8.24,25.13-6.37,26.03,3.03.74,7.67-14.2,13.1-20.01,8.46-.57,5.64-7.19,17.71-6.97,22.55.24,5.18,10.16,5.46,14.17,4.17,16.07-5.19,32.98-37.85,27.46-53.91-4.15-12.06-22.51.6-24.53-5.44-1.32-6.51,3.03-13.45,9.3-15.34l2.57,5.98ZM968,569c.84.89,13.08-5.54,13.99-6.51,4.17-4.42,2.95-32.09-7.42-31.48-11.73.68-29.07,32.26-32.6,42.46-2.28,6.58-6.5,21.81-.72,27.26s21.29-4.7,24.84-.33c4.55,5.6-8.06,13.31-13.51,12.58-2.02-.27-3.48-2-5.57-1.99-.57,5.04-8.72,21.03-6.11,24.55,10.67,8.11,20.71-1.38,27.61-9.54,9.09-10.75,14.85-24.29,13.54-38.56-1.51-16.46-17.54-4.91-24.04-7.96-5.67-3.11,5.18-18.82,9.02-16.02l.98,5.53ZM1011.99,533c-3.39,1.52-16.82,2.36-17.83,5.66l-11.15,96.34c1,1,15.65-4.23,16.51-5.98l2.65-27.35c.83-2.54,5.48-2.88,7.84-2.67l-3.99,37,17.04-6.65c2.03-32.38,7.12-64.49,12.95-96.34l-17.82,4.18-5.18,41.09-7.49,2.74,6.48-48.01Z"/>
  <path class="st0" d="M317.73,525.32c.26.12.23,1.49.95,1.66,1.63.38,3.61-.15,5.32.02l-1.49,32.02c-2.54,2.55-6.25,2.01-9.52,1.99v2.99s6.01,0,6.01,0c-1.18,5.91.41,20.62-1.17,25.34-.79,2.35-4.65,2.73-6.83,2.68l6,.98c-.25,10.85.98,21.95-1.99,32.52-11.7,1.32-29.02,11.16-40.32,8.46-.73-.17-.56-1.65-1.41-1.92-5.19-1.64-13.07.64-18.65.08l-1.19.81c-.9,1.35.2,4.14-1.42,5.58-2.01,1.78-15.53,3.13-18.33,2.46-.37-.09-2.6-3.8-6.69-1.97v-5.01c-5.62.31-11.91,1.8-17.56,1.08-1.96-.25-1.02-2.14-2.89-2.19-4.11-.12-9.06,1.87-14.11,1.19-.38-.05-4.3-1.55-6.76-2.08-.77-.17-.63-1.95-1.29-2.05-3.42-.49-12.99,5.3-21.94,4.13-1.28-.17-3.36-3.87-7.44-2.07l6.11-62.51c-1.6-3.73-4.28-3.97-8.11-3.49l-.89-32.9c1.54-1.82,43.01-7.06,47.21-6.08.81.19.27,1.81,2.12,2.06,5.09.66,13.32-1.16,17.88-.06.71.17,2.58,1.24,6.03,1.98.78.17.65,1.96,1.09,1.94,7.07-.43,15.13-4.98,23.91-2.93.78.18.66,1.95,1.1,1.92,7.46-.45,15.44-6.15,24.88-3.91.92.22-.33,2.28,5.19,2.02,8.71-.42,28.93-8.1,36.23-4.72ZM313,530l-29.87,6.13-10.12,91.87,31.81-9.19,1.18-22.82-15.99,3,1.17-10.81,15.69-4.31,1.12-16.87-13.99,3,1.98-13.52,15.59-3.41,1.43-23.07ZM195,532l-37.36,5.95.37,24.05,10.01-1.48-8.01,67.48,14.83-6.66,7.27-64.23,11.23-1.26,1.65-1.35v-22.5ZM272,533l-20.11,4.6-6.9,37.4-1.03-10.54,2.03-30.46-21.07,5.66-17.91,88.34,18-3.73,10-55.26.99,3.48-3.99,61.51,9.99-2.75,10.02-56.25,1.03,10.54-3.04,40.45,18.54-4.95,3.45-88.04ZM215,534c-.92-.91-14.8,2.76-15.04,3.64l-10.95,90.35,14.01-5.73,11.99-88.26Z"/>
  <path class="st0" d="M368,599c-1.88.51-2.43,3.11-2.76,4.74-1.71,8.41-1.33,18.5-2.38,27.12-7.47,2.56-14.17,6.32-22.44,5.21-1.3-.17-3.34-3.86-7.44-2.07.15-3.48-.21-7.01.02-10.49,1.41-21.29,5.24-46.44,8.11-67.89.46-3.41,1.19-14.17,3.56-15.44,1.89-1.01,20.77-4.73,23.94-5.06,2.68-.28,7.41-.53,9.95-.2,1.28.17,3.29,3.78,7.39,2.15l.54,2.92c3.73-4.19,7.28-6.49,12.97-7.03,7.4-.7,21.47-.01,24.56,8.04,8.03-6.11,38.62-7.59,43.88.59,4.46,6.94,1.22,26.38-1.88,33.93-1.22,2.96-7.92,11.84-7.98,12.93-.19,3.72,5.89,13.84,6.72,18.28.48,2.57.68,9.29.21,11.75-.18.93-10.37,14.82-11.19,15.3s-7.91.49-9.36.3c-2-.26-.45-2.36-4.9-2.16-6.35.28-9.98,4.35-19.1,3.16-1.27-.17-3.29-3.78-7.39-2.15l-.54-2.92c-6.68,11.99-31.81,11.97-38.94,1.93-2.37-3.35-5.57-14.52-5.57-18.43v-14.5ZM411.65,540.34c-6.92-6.66-16.26-.16-21.07,5.74-11.65,14.29-18.9,43.2-17.57,61.4,1.95,26.66,18.05,34.4,32.5,9.53,10.62-18.27,17.27-47.34,10.76-67.79-.77-2.41-2.89-7.21-4.62-8.88ZM376,540l-28.04,5.67-9.95,83.33c3.2-1.09,13.14-3.17,14.5-5.99l2.6-29.91,15.91-4.83.98-15.26c-.79-.84-10.16,2.92-12.49,3.02-2.17.1-1.67-.74-1.5-2.5.18-1.86,1.01-8.09,1.96-9.06l14.61-3.39,1.43-21.07ZM441.01,627c1.67.38,2.02-.54,2.98-1.51,1.71-1.76,9.85-12.31,10.01-14.03l-8.8-27.82c20.18-22.5,22.07-56.64-18.21-36.93-2.27,26.81-7.89,54.08-10,80.79-.12,1.54-.19,1.75,1.4,1.4l11.14-4.87c1.53-7.05,1.3-14.46,2.46-21.54.27-1.65-.31-3.29,1.53-4.47l7.5,28.99Z"/>
  <path class="st0" d="M534.73,537.32c.26.12.23,1.49.95,1.66,1.63.38,3.61-.15,5.32.02l-4.17,92.84c-4.73,1.67-10.33,4.63-15.32,5.17s-9.1-1.04-12.92-.92c-6.25.2-12.35,4.05-20.16,2.99-1.3-.18-3.34-3.86-7.44-2.07-1.22-11.79,4.08-22.57,6.71-33.8,4.6-19.64,9.02-39.34,12.83-59.17.42-1.05,1.28-1.35,2.21-1.79,5.23-2.45,27.19-7.14,31.98-4.93ZM530,542l-24.51,5.99-19.48,84.01,16.85-3.13c1.67-4.62-.29-13.01,7.14-11.86l-.99,14,16.89-5.09,4.1-83.9Z"/>
  <path class="st1" d="M794.99,537l1.51,52.01,6.66-47.84,14.83-4.17-11.96,89.32-14.01,5.68-8-28-2.17,27.34-13.83,6.66,11.18-95.31c1.14-3.09,12.47-4.1,15.8-5.69Z"/>
  <path class="st1" d="M637.76,531.22c6.51-.94,10.67,2.53,13.42,8.1,10.6,21.43-.54,82.04-22.65,93.71s-23.44-26.3-22.57-39.57c1.04-15.91,13.3-59.55,31.8-62.23ZM639.74,564.27c-.97-.89-2.71-1.32-4.02-1.1-7.55,1.28-14.97,26.53-15.6,33.44-2.04,22.43,13.53,21.16,19.59,2.6,2.27-6.95,5.55-29.88.03-34.94Z"/>
  <path class="st1" d="M687.77,531.2c15.73-2.2,17.69,26.9,17.22,37.3-.75,16.81-11.53,57.2-28.1,64.9-21.37,9.93-22.79-26.05-21.94-38.94,1.1-16.6,13.12-60.51,32.81-63.26ZM684.71,563.14c-2.49.64-7.31,7.99-8.58,10.49-3.66,7.16-12.95,37.34-.57,39.39,11.62,1.92,16.11-22.09,16.49-30.46.19-4.3.33-21.4-7.34-19.41Z"/>
  <path class="st1" d="M728.01,634l-6.51-45.99-4.48,38.26-14.01,5.73,10.95-90.35,15.04-3.64-1.5,14.99c3.12-1.92,11.34-16.09,13.83-15.86,2.77.26,8.22,7.21,10.44,9.35l-16.76,23.1,9.02,50.86c-.48,3.7-13.03,10.45-16.01,13.55Z"/>
  <path class="st1" d="M596.99,603c-.21,4.09,2.17,8.6,2.11,12.53-.17,10.77-20.96,24.56-29.29,7.16-9.81-20.48-2.15-60.94,11.78-78.6,7.66-9.72,20.3-14.47,26.58-.76,4.14,9.04-3.33,12.68-7.16,20.25-1.78,1.13-3.63-1.83-6.28-1.42-8.31,1.28-15.94,29.93-15.81,37.34.12,6.54,4.4,16.44,12.06,10.98,2.56-1.82,3.18-5.94,6.01-7.47Z"/>
  <polygon class="st1" points="760.88 626.88 747.01 632 757.13 546.62 758.61 540.89 772.99 537 760.88 626.88"/>
  <path class="st1" d="M843,535l-11.49,39.01-14.51,2.98,12.48-41.01c1.8-2.16,10.4-.46,13.52-.98Z"/>
  <path class="st1" d="M1011.99,533l-6.48,48.01,7.49-2.74,5.18-41.09,17.82-4.18c-5.82,31.85-10.91,63.96-12.95,96.34l-17.04,6.65,3.99-37c-2.36-.22-7.01.12-7.84,2.67l-2.65,27.35c-.86,1.75-15.51,6.98-16.51,5.98l11.15-96.34c1.01-3.3,14.45-4.14,17.83-5.66Z"/>
  <path class="st1" d="M881.01,569l-2.57-5.98c-6.27,1.89-10.62,8.83-9.3,15.34,2.02,6.04,20.38-6.62,24.53,5.44,5.52,16.06-11.39,48.72-27.46,53.91-4.01,1.29-13.93,1.02-14.17-4.17-.22-4.83,6.4-16.91,6.97-22.55,5.81,4.64,20.75-.78,20.01-8.46-.91-9.4-19.28,5.21-26.03-3.03-4.51-5.5-1.12-20.31,1.24-26.79,3.62-9.93,20.97-41.04,32.35-41.71,10.51-.62,11.7,26.94,7.42,31.48-.92.98-12.31,7-12.98,6.51Z"/>
  <path class="st1" d="M968,569l-.98-5.53c-3.84-2.8-14.69,12.9-9.02,16.02,6.51,3.05,22.53-8.5,24.04,7.96,1.31,14.27-4.45,27.81-13.54,38.56-6.9,8.17-16.94,17.66-27.61,9.54-2.61-3.52,5.54-19.52,6.11-24.55,2.09-.01,3.55,1.72,5.57,1.99,5.46.73,18.07-6.97,13.51-12.58-3.56-4.38-19.13,5.72-24.84.33s-1.55-20.68.72-27.26c3.53-10.2,20.87-41.78,32.6-42.46,10.37-.6,11.59,27.06,7.42,31.48-.92.97-13.16,7.4-13.99,6.51Z"/>
  <path class="st1" d="M933,583.5c-1.33,8.74-11.36,5.49-17.32,9.43-2.53,1.67-1.5,8.32-1.68,11.07,3.61.42,15.43-5,17.57-2.02-1.52,7.95.95,16.43-2.06,24.04-6.14,1.6-12.37,2.86-18.51,4.49-4.33,1.15-10.42,4.31-14.5,4.52-1.6.08-1.68.15-1.54-1.54l11.47-97.55,32.57-6.93-1.46,25.03c-1.52,2.31-12.78,2.07-16.3,3.64-3.02,1.35-2.82,12-3.23,15.32l14.99-4c-.48,4.52.66,10.16,0,14.5Z"/>
  <polygon class="st1" points="272 533 268.54 621.04 250 625.99 253.04 585.54 252.01 575 241.99 631.25 232.01 634 236 572.49 235.01 569.01 225.01 624.26 207 627.99 224.92 539.66 245.99 534 243.96 564.46 244.99 575 251.89 537.6 272 533"/>
  <polygon class="st1" points="313 530 311.57 553.07 295.98 556.48 294 570 308 567 306.87 583.87 291.18 588.18 290.01 599 306 596 304.82 618.81 273.01 628 283.13 536.13 313 530"/>
  <polygon class="st1" points="195 532 195 554.5 193.35 555.85 182.11 557.11 174.84 621.34 160.01 628 168.02 560.51 158.01 562 157.64 537.95 195 532"/>
  <path class="st1" d="M215,534l-11.99,88.26-14.01,5.73,10.95-90.35c.25-.87,14.13-4.55,15.04-3.64Z"/>
  <path class="st1" d="M411.65,540.34c1.73,1.67,3.85,6.47,4.62,8.88,6.51,20.46-.14,49.52-10.76,67.79-14.46,24.87-30.55,17.13-32.5-9.53-1.33-18.2,5.92-47.11,17.57-61.4,4.81-5.9,14.15-12.4,21.07-5.74ZM399.71,567.18c-7.96,2.37-18.74,37.83-10.29,43.89s15.04-10.51,16.31-16.84c1.05-5.23,3.4-26.24-3.26-27.28-.94-.12-1.85-.03-2.75.24Z"/>
  <path class="st1" d="M441.01,627l-7.5-28.99c-1.84,1.19-1.26,2.83-1.53,4.47-1.15,7.08-.93,14.49-2.46,21.54l-11.14,4.87c-1.59.35-1.52.14-1.4-1.4,2.11-26.71,7.74-53.99,10-80.79,40.28-19.71,38.39,14.42,18.21,36.93l8.8,27.82c-.17,1.72-8.3,12.27-10.01,14.03-.95.98-1.31,1.89-2.98,1.51ZM435.01,580c2.14,2.34,17.19-18.69,5.96-16.59-6.19,1.16-4.53,11.34-5.96,16.59Z"/>
  <path class="st1" d="M376,540l-1.43,21.07-14.61,3.39c-.94.97-1.77,7.2-1.96,9.06s-.67,2.6,1.5,2.5c2.32-.1,11.7-3.86,12.49-3.02l-.98,15.26-15.91,4.83-2.6,29.91c-1.35,2.82-11.3,4.9-14.5,5.99l9.95-83.33,28.04-5.67Z"/>
  <path class="st1" d="M530,542l-4.1,83.9-16.89,5.09.99-14c-7.42-1.15-5.46,7.24-7.14,11.86l-16.85,3.13,19.48-84.01,24.51-5.99ZM513.99,572c-2.6-.22-1.66-.15-1.96,1.5-1.72,9.39-3.1,18.98-4.03,28.49l4.01-1.71,1.98-28.28Z"/>
  <path class="st0" d="M639.74,564.27c5.52,5.06,2.24,27.99-.03,34.94-6.06,18.56-21.63,19.83-19.59-2.6.63-6.91,8.05-32.16,15.6-33.44,1.3-.22,3.04.2,4.02,1.1ZM631,599.99c2.49.35,3.04-1.98,3.78-3.71,2.06-4.8,2.45-11.12,3.2-16.28-1.44-.23-1.31,1.69-1.73,2.74-2.18,5.53-3.84,11.47-5.26,17.24Z"/>
  <path class="st0" d="M684.71,563.14c7.67-1.98,7.53,15.11,7.34,19.41-.38,8.37-4.87,32.38-16.49,30.46-12.38-2.05-3.09-32.22.57-39.39,1.27-2.49,6.09-9.84,8.58-10.49ZM686.01,581.01l-5.52,20.97c3.58-4.07,5.82-12.2,6.39-17.61.12-1.1.9-3.6-.87-3.37Z"/>
  <path class="st0" d="M399.71,567.18c.91-.27,1.81-.36,2.75-.24,6.66,1.04,4.31,22.05,3.26,27.28-1.27,6.33-7.58,23.1-16.31,16.84s2.33-41.52,10.29-43.89Z"/>
  <path class="st0" d="M435.01,580c1.43-5.25-.23-15.43,5.96-16.59,11.23-2.1-3.82,18.93-5.96,16.59Z"/>
  <path class="st0" d="M513.99,572l-1.98,28.28-4.01,1.71c.92-9.51,2.3-19.1,4.03-28.49.3-1.64-.64-1.72,1.96-1.5Z"/>
</svg>