<?xml version="1.0" encoding="UTF-8"?>
<svg id="_레이어_1" data-name="레이어_1" xmlns="http://www.w3.org/2000/svg" version="1.1" viewBox="0 0 1166 1129">
  <!-- Generator: Adobe Illustrator 29.8.3, SVG Export Plug-In . SVG Version: 2.1.1 Build 3)  -->
  <defs>
    <style>
      .st0 {
        fill: #eada4b;
      }

      .st1 {
        fill: #343433;
      }
    </style>
  </defs>
  <path class="st1" d="M400.21,492.78c1.28,1.06,4.88-.79,5.76,3.75-1.44,11.63.96,30.06-2.18,40.76-1.19,4.06-13.88,3.5-17.78,3.72l5.33,6.67c1.66.71,3.65,1.1,4.74,2.76,2.94,4.47-.02,26.37-.07,32.86l-9.01,3.72c.21,5.99,7.9,4.71,8.07,10.47l-2.11,37.99-1.97,3.03c-7.92,1.27-15.85,2.43-23.65,4.35-9.13,2.25-24.32,8.51-32.86,9.17-7.61.59-5.46-1.97-8.83-4.69-1.17-.95-2.98-.81-4.74-2.76-1.86-2.05-1.34-4.62-3.39-4.67-5.94.78-11.96,1.9-17.75,3.38-7.11,1.83-29.09,11.2-34.81,8.24-1.97-1.02-1.58-3.81-2.19-4.31-2.05-1.68-6.46.87-6.88-6.68l8.6-68.53-26.28,26.72c-1.54,6.79-2.32,13.88-3.22,20.78-.82,6.29.24,21.45-5.28,24.72-2.44,1.44-19.45,7.29-22.29,7.71-9.64,1.45-8.42-6.53-14.92-6.85-5.64-.28-17.88,8.22-24.97,6.91-1.7-.32-12.45-9.03-11.55-12-5.51,3.67-8.83,12.21-16.98,8.49-1.91-.87-2.41-3.66-3.29-4.21-1.38-.87-3.17.08-5.31-2.19-2.39-2.54-1.7-7.14-4.41-9.08.22,5.69.87,8.1-4.31,11.2-4.29,2.57-23.65,8.98-28.01,7.6-2.85-.9-2.18-3.99-2.9-4.59-.64-.53-2.59-.13-3.71-.75-5.06-2.8-2.57-10.07-3.06-14.95l12-85.02c.5-2.78-3.73-1.11-5.4-1.56-3.76,18.35-6.9,37.12-9.48,55.69-1.51,10.87-1.67,22.04-3.15,32.85-.77,5.61-.92,8.84-6.43,11.57-3.41,1.68-20.58,6.94-24.05,7.03-7.28.18-5.66-3.67-7.75-4.86-1.84-1.05-5.14-.11-6.54-4.95l11.8-89.77c-6.71.84-6.06-4.45-7.16-5.35-1.01-.83-5.49,1.02-6.64-2.87-3.1-10.5-.75-28.45-2.26-39.84l3.11-4.89,62.4-9.59c4.14.17,7.8-1.16,10.59,2.52.78,1.03.79,3.09,1.09,3.36,1.67,1.49,25.4-6.25,30.49-6.72,7.88-.72,21.04-1.23,27.71,3.03,3.41,2.18,5.8,6.66,10.16,7.82,7.92-3.32,26.78-9.24,34.81-6.79,2.93.89,2.45,4.94,3.18,4.8,14.37-6.01,45.23-14.59,58.85-5.83,2.24,1.44,4.87,5.62,7.09,5.76,7.4-.35,27.86-9.39,33.15-3.97,1.23,1.26,1.08,3.12,1.72,3.77.79.8,3.4.59,4.79,2.72,3.02,4.61-3.58,27.61-4.76,34.39-3.03,17.34-5.82,34.77-8.31,52.19l13.28-.78,6.71,5.78,12.95-93.56c1.14-1.69,2.63-2.01,4.39-2.61,8.52-2.9,37.01-8.19,46.18-8.81,2.44-.16,6.3-.47,8.47.5,2.7,1.21,2.64,4.77,3.24,5.27ZM394,493l-50.86,9.14-18.13,138.86,55.56-13.93,2.43-35.06c-1.02-.89-22.87,4.63-26.61,4.89-1.62.12-2.6.86-2.34-1.33.28-2.35,1.84-13.14,2.93-14.09l26.97-6.53,1.05-25.96c-1.42-1.41-18.72,4.81-22.51,5.02-2.54.14-1.6-2.5-1.37-4.38.27-2.24,2.77-16.25,3.48-16.74l27.41-3.89,1.99-36.01ZM135.01,638c1.12,1.06,5.6-4.03,6.51-4.98,3.82-4.02,13.32-13.99,15.93-18.06.71-1.11,1.47-2.12,1.53-3.51l-16.77-45.81c9.58-10.46,18.87-22.01,23.08-35.85,14.43-47.39-29.37-36.39-57.14-25.64l-18.14,135.85,23.9-7.09,5.6-45.92,15.51,51.01ZM220.89,632.9l5.65-44.85c21.33-16.69,50.19-48.14,48.22-77.23-1.82-26.86-44.97-13.33-59.82-6.16l-17.95,136.34,23.89-8.1ZM100,496l-65,9,2.01,36.01,15.99-3-13.99,102.99,25.9-8.09,13.07-98.23,21.03-2.67.99-36.01ZM205.99,498l-26.01,6.7-17.98,135.3c3.62-.03,23.14-6.49,23.84-8.66,3.43-44.91,11.98-89.17,20.15-133.34ZM306,499l-24.26,4.99-1.08,1.21-18.66,135.79c17.33-5.35,34.68-11.79,53-12.99l1.99-36-26.99,5,16-98ZM165.99,561.01c-2.32-.62-1.67.55-2.29,1.27-1.18,1.38-7.64,9.46-7.72,10.26l5.03,16.47c2.63.23,1.65.11,1.95-1.51.62-3.3,3.86-25.44,3.03-26.48Z"/>
  <path class="st1" d="M574,518c.16-4.47.33-17.61,2.95-20.55,1.31-1.47,23.32-7.17,26.56-7.43,6.09-.49,9.24-.28,11.05,6.05,7.66-.51,26.83-9.19,33.01-5.14,2.11,1.38,1.88,3.92,2.73,4.78.8.81,4.89,1.46,5.49,2.51,2.03,3.53-4.44,28.64-5.47,34.61-3,17.33-6.01,34.84-8.31,52.19,6.38-.08,12.98-3.56,17.99,2-3.49-16.36,2.05-33.51,9.49-48.02,6.88-13.42,31.75-48.7,47.11-50.89,3.13-.45,11.61-.52,14.47.36,1.85.57,10.97,9.57,12.47,11.53,7.79,10.19,4.69,31.96,4.27,44.31-1.26,4.29-14.13,7.26-17.8,10.21,6,5.19,14.85,10.09,16.57,18.44s.38,20.67-2.55,29.05c6.97.93,25.54-.46,30.99,2.51,2.07,1.13,1.68,4.03,3.02,4.98,3.49,2.48,6.7-.84,6.01,8l-20.96,62.07c-.92,1.26-2.11,1.31-3.51,1.49-7.53.96-21.73,1.71-29.11,1.01s-5.11-4.67-6.6-5.9c-.81-.67-4.17.38-5.45-1.06-2.34-1.79-1.41-6.62-.94-9.15,2.21-11.85,10.06-25.81,12.53-37.95-14.47,15.88-24.81,27.99-48.41,24.91-4.34-.57-18.5-8.94-20.37-12.14-.67-1.14.06-3.49-.21-3.78-1-1.1-23.9,4.15-27.42,5.09-6.95,1.86-24.83,9.96-30.56,7.4-2.94-1.31-2.72-5.08-3.07-5.45-.1-.1-1.5.83-2.23.61-1.18-.36-2.07-1.46-3.3-1.65-5.9-.93-17.96,9.78-27.4,5.5-1.99-.9-2.81-4.43-3.67-4.56-5.31-.81-26.82,9.3-34.87,9.16-6.01-.1-5.98-4.99-7.13-5.16-9.54.78-31.21,8.48-39.66,5.88-2.9-.89-2.26-4.17-2.85-4.65-1.49-1.23-8.62,1.3-6.85-7.16-6.16,1.28-27.74,11.9-32.08,6.55-.75-.92-.62-2.93-1.12-3.34-1.23-1.02-5.83.27-6.76-4.74,1.34-30.13,8.24-59.85,11.02-89.93-4.89.46-5.77-4.3-7.32-5.26-1.69-1.06-5.41-.15-6.51-3.99.36-12.68-2.5-26.25-1.27-38.84.17-1.71-.11-3.29,1.46-4.54l60.22-9.78c5.81.25,15.04-2.86,14.42,5.81,4.33-.48,5.17.56,7.41,3.85,12.8-2.31,27.66-8.08,40.32-9.52,2.99-.34,7.88-.77,10.69-.25,4.36.81,3.87,5.04,4.74,5.76,1.07.87,4.55-.47,5.58,2.91,1.52,4.99-1.93,15.35-1.8,21.3.02.66-.39,2.06.51,2.01h2.49c.05-.67-.02-1.34,0-2.01ZM498,494l-63.95,9.05.95,35.95,15.99-3-12.99,102,25.02-7.7c3.11-32.38,7.75-64.53,13.2-96.57l1.17-1.83,19.61-1.89,1-36.01ZM560,494l-45.92,9.09c-9.36,47.3-22.4,93.76-36.08,139.91l31.03-5.46,4.2-17.3c.58-.7,6.89-2,8.35-2.18,2.01-.24,1.22-.04,1.43,1.42.84,6.06-1.97,15.14-2,21.52l31.95-8.04c-.18-46.51,2.27-92.78,7.04-138.96ZM734.75,536.76c5.08-23.85-.44-61.1-30.76-33.27-7.64,7.02-16.91,19.68-22.41,28.59-7.6,12.32-24.51,44.47-12.08,56.91,9.43,9.45,34.34-6.18,39.59.4,6.07,7.61-12.72,17.66-19.59,17.68-4.22.01-6.72-2.65-10.55-2.66-1.38.98-11.28,30.28-11.01,32.05,1.12,7.38,19.82,5.68,25.4,3.38,22.01-9.05,42.81-43.65,40.69-67.39-2.12-23.65-27.49-7.72-37.34-10.66-10.08-3.01,6.68-30.12,14.06-22.55,2.13,2.18-.22,6.9,2.76,6.79,5.77-.22,14.92-8.42,21.23-9.28ZM608,496.01c-6.96,2.22-18.47,2.68-24.74,5.68-1.2.57-1.48.92-1.82,2.22l-18.43,135.09,24.01-8.7c4.65-45.11,11.69-89.96,20.98-134.29ZM642.99,496c-4.04,1.39-24.83,4.39-25.83,7.66l-18.15,134.34,52.86-13.63,2.13-34.37-26.99,5,15.99-98.99ZM570,527c-.69,5.39-.44,10.93-1,16-.17,1.59-1.78,4.33-2.03,7.47-.1,1.22-.9,7.28,1.52,6.54,1.1-.34,1.26-12.07,1.51-14.01.65-5.02,1.56-9.93,2-15,.06-.7,2.45-2.15-.52-3.99h-1.48c-.1.97.12,2.03,0,2.99ZM498.99,541.01l-10.95,1.04-11.04,74.95c2.2.39,2.35-.98,2.97-2.52,4.18-10.29,7.98-27.73,10.95-39.05,2.98-11.38,5.84-22.86,8.07-34.42ZM660.99,589.99v-1.99h-.98v1.99h.98ZM665,595v22.5c0,.52-1.6,2.07-.99,3.49,1.83.38,1.97-.49,2.75-1.74,1.16-1.84,6.42-17.1,6.26-18.74-.26-2.57-5.35-5.77-8.02-5.52ZM771.01,610l-26.86-1.86-20.18,62.39,27.9-.66,19.14-59.87Z"/>
  <path class="st1" d="M1073.99,537.01l-19.74,46.74-18.49,51.51-3.48,3.53-25.61-1.98c-1.5-2.94-7.94-5.73-8.49-7.5-2.83-9.13,11.81-31.98,12.81-42.81.26-2.83-4.45-40.44-6.51-40.52l-9.32,14.53c15.14,9.46,10.84,31.19,3.24,44.4-12.61,21.9-39.52,40.32-65.9,35.06-3.33-.66-2.97-3.69-4.22-4.01-7.47-1.9-28.66,10.54-33.91,6.12-1.44-1.22-1.04-4.07-1.95-4.16-7.36.97-31.82,8.51-37.46,5.58-1.97-1.02-1.59-3.81-2.19-4.31-.93-.77-4.01.32-5.3-2.2-2.32-4.53,2.31-12.95,1.5-14.01-14.75,13.83-32.06,19.37-52.31,16.82l-8.47-7.53c-.46-2.24-.3-4.52-.2-6.78.95-19.98,6.39-44.6,8.86-65.13,1.87-15.58,3.46-31.28,5.12-46.88.6-5.64-1.92-10.4,4.45-13.55,4.27-2.11,25.08-7.27,30.16-7.84,4.58-.51,16.41-.74,20.67.12,2.82.57,14.63,10.28,16.19,12.81,2.86,4.63,2.18,9.9,3.04,14.97,1,0,2.08-17.59,6.57-18.44l43.45-9.67c6.76.11,5.23,4.69,6.69,5.88.77.62,4.89.39,6.26,2.89,16.3-4.76,33.8-10.77,51.05-8.69,6.37.77,15.27,10.08,19.04,15.09,7.06-2.09,19.16-14.36,26.46-10.58,2.11,1.09.96,6,7.39,5.54,1.34-1.31,1.69-3.63,3.6-4.5,5.11-2.34,29,4.86,33.97,9.48l11.78-51.73c1.93-4.75,10.13-3.59,14.61-3.15,4.92.48,25.74,4.6,29.57,6.43,2.27,1.08,3.14,4.06,4.62,5.38,4.52,4.05,8.56,2.3,5.96,12.1-3.75,14.13-15.38,34.16-20.81,49.18-2.55,7.06-4.94,14.62-7.21,21.79-1.73,5.47-6.54,28.2-9.41,30.59-2.69,2.23-15.36,1.69-19.58,1.4-2.33-.16-9.14-.72-10.81-1.19-2.55-.72-3.14-4.18-4.77-5.23-1.95-1.27-5.66-.61-6.73-4.28-2.02-6.89,5.84-23.35,5.78-31.28ZM1134,465.01l-35-7.02-24,108c4.4-.81,21.25,3.1,23.52.03,7.77-35.09,22.05-67.92,35.48-101.01ZM793,630h15.5c12.81,0,33.8-17.85,40.93-28.07,9.23-13.22,18.43-41.33-6.42-42.42,8.71-10.32,17.7-21.76,20.72-35.28,7.88-35.35-21.45-28.42-43.94-21.94-2.5.72-10.97,2.47-11.62,4.38l-15.16,123.34ZM928,630h15.5c12.81,0,33.8-17.85,40.93-28.07,9.23-13.22,18.43-41.33-6.42-42.42,8.71-10.32,17.7-21.76,20.72-35.28,7.88-35.35-21.45-28.42-43.94-21.94-2.5.72-10.97,2.47-11.62,4.38l-15.16,123.34ZM928,498.01l-42.52,8.97-32.47,127.02,28.02-5.47,3.14-15.36c.31-.46,7.1-1.96,8.41-2.12,1.59-.19,1.62-.24,1.39,1.39-.9,6.49-1.77,13.01-1.95,19.56l28.54-7.96c.99-42.1,1.11-84.39,7.46-126.03ZM1033,544v-43l-27.08,15.61,11.14,70.93-14.06,39.45,21.49,1.03,46.54-119.53c.08-2.29-.21-1.12-1.51-1.53-2.34-.74-19.69-4.61-20.47-3.92l-16.05,40.95ZM865.99,566l4-20-9.91,13.65.36,1.35,5.55,5.01Z"/>
  <path class="st1" d="M1075.74,583.24c3.49-.59,13.03-.77,16.22.31,1.49.5,13.31,10.74,14.58,12.42,10.27,13.5-.96,33.85-14.24,40.84-13.75,7.24-28.84,2.36-37.82-9.78-3.28-4.43-3.27-14.97-2.42-20.46,1.36-8.71,14.96-21.85,23.68-23.32ZM1081.79,589.21c-13.87,1.1-30.06,21.09-21.24,33.75,11.07,15.89,44.2-9.48,33.87-27.87-2.22-3.96-8.22-6.23-12.63-5.88Z"/>
  <path class="st0" d="M574,518c-.02.66.05,1.33,0,2h-2.49c-.9.07-.49-1.34-.51-2h3Z"/>
  <path class="st0" d="M135.01,638l-15.51-51.01-5.6,45.92-23.9,7.09,18.14-135.85c27.77-10.76,71.57-21.76,57.14,25.64-4.22,13.84-13.51,25.4-23.08,35.85l16.77,45.81c-.05,1.39-.82,2.4-1.53,3.51-2.61,4.07-12.11,14.04-15.93,18.06-.91.96-5.39,6.04-6.51,4.98ZM123,559.99c12.6-4.16,33.32-39.05,4.54-24.95l-4.54,24.95Z"/>
  <path class="st0" d="M394,493l-1.99,36.01-27.41,3.89c-.7.49-3.2,14.5-3.48,16.74-.23,1.88-1.17,4.52,1.37,4.38,3.79-.2,21.09-6.42,22.51-5.02l-1.05,25.96-26.97,6.53c-1.09.95-2.65,11.74-2.93,14.09-.26,2.19.72,1.44,2.34,1.33,3.74-.27,25.59-5.78,26.61-4.89l-2.43,35.06-55.56,13.93,18.13-138.86,50.86-9.14Z"/>
  <path class="st0" d="M220.89,632.9l-23.89,8.1,17.95-136.34c14.85-7.16,58-20.7,59.82,6.16,1.97,29.09-26.89,60.54-48.22,77.23l-5.65,44.85ZM231,554.99c4.01,4.03,38.76-35.02,3.48-20.01l-3.48,20.01Z"/>
  <polygon class="st0" points="100 496 99.01 532.01 77.98 534.68 64.9 632.91 39.01 641 52.99 538 37 541 35 505 100 496"/>
  <path class="st0" d="M306,499l-16,98,26.99-5-1.99,36c-18.31,1.21-35.67,7.64-53,12.99l18.66-135.79,1.08-1.21,24.26-4.99Z"/>
  <path class="st0" d="M205.99,498c-8.17,44.17-16.72,88.43-20.15,133.34-.7,2.17-20.21,8.62-23.84,8.66l17.98-135.3,26.01-6.7Z"/>
  <path class="st0" d="M560,494c-4.77,46.18-7.22,92.45-7.04,138.96l-31.95,8.04c.03-6.39,2.84-15.46,2-21.52-.2-1.46.59-1.66-1.43-1.42-1.46.17-7.76,1.48-8.35,2.18l-4.2,17.3-31.03,5.46c13.67-46.16,26.71-92.62,36.08-139.91l45.92-9.09ZM525.83,591.82l5.16-61.82-13,62.48c-.05,1.28,6.86.28,7.85-.66Z"/>
  <path class="st0" d="M734.75,536.76c-6.32.86-15.46,9.06-21.23,9.28-2.98.11-.63-4.6-2.76-6.79-7.38-7.57-24.14,19.54-14.06,22.55,9.85,2.95,35.23-12.99,37.34,10.66,2.12,23.74-18.68,58.34-40.69,67.39-5.59,2.3-24.28,4-25.4-3.38-.27-1.77,9.62-31.07,11.01-32.05,3.83,0,6.33,2.67,10.55,2.66,6.87-.02,25.66-10.07,19.59-17.68-5.25-6.58-30.16,9.04-39.59-.4-12.43-12.45,4.48-44.59,12.08-56.91,5.5-8.91,14.76-21.58,22.41-28.59,30.32-27.84,35.84,9.42,30.76,33.27Z"/>
  <path class="st0" d="M498,494l-1,36.01-19.61,1.89-1.17,1.83c-5.45,32.04-10.09,64.19-13.2,96.57l-25.02,7.7,12.99-102-15.99,3-.95-35.95,63.95-9.05Z"/>
  <path class="st0" d="M642.99,496l-15.99,98.99,26.99-5-2.13,34.37-52.86,13.63,18.15-134.34c1-3.27,21.79-6.27,25.83-7.66Z"/>
  <path class="st0" d="M608,496.01c-9.28,44.33-16.32,89.18-20.98,134.29l-24.01,8.7,18.43-135.09c.34-1.3.62-1.65,1.82-2.22,6.27-3,17.78-3.46,24.74-5.68Z"/>
  <polygon class="st0" points="771.01 610 751.87 669.87 723.97 670.53 744.14 608.14 771.01 610"/>
  <path class="st0" d="M570,543c-.25,1.94-.41,13.67-1.51,14.01-2.42.74-1.62-5.32-1.52-6.54.26-3.14,1.86-5.88,2.03-7.47h1Z"/>
  <path class="st0" d="M572,528l-2-1c.12-.96-.09-2.02,0-2.99h1.48c2.96,1.84.58,3.3.52,3.99Z"/>
  <path class="st0" d="M928,498.01c-6.34,41.64-6.47,83.93-7.46,126.03l-28.54,7.96c.18-6.56,1.05-13.07,1.95-19.56.23-1.63.2-1.58-1.39-1.39-1.31.16-8.1,1.66-8.41,2.12l-3.14,15.36-28.02,5.47,32.47-127.02,42.52-8.97ZM889.01,589c4.7-.87,6.79-.59,7.75-5.74,2.21-11.81,3.52-31.4,4.23-43.77.16-2.82-.06-5.67,0-8.49l-11.98,57.99Z"/>
  <path class="st0" d="M793,630l15.16-123.34c.65-1.91,9.12-3.66,11.62-4.38,22.48-6.48,51.82-13.42,43.94,21.94-3.01,13.53-12.01,24.97-20.72,35.28,24.85,1.1,15.65,29.21,6.42,42.42-7.13,10.22-28.12,28.07-40.93,28.07h-15.5ZM827.01,554c1.21,1.67,24.78-24.42,9.65-23.95-1.23.04-5.49,1.05-6.17,1.94-1.11,1.46-4.23,20.98-3.48,22.01ZM820,596.99c8.49-2.01,21.6-8.64,19.57-19.06-1.62-2.29-14.3-.76-16.6,1.54l-2.97,17.52Z"/>
  <path class="st0" d="M928,630l15.16-123.34c.65-1.91,9.12-3.66,11.62-4.38,22.48-6.48,51.82-13.42,43.94,21.94-3.01,13.53-12.01,24.97-20.72,35.28,24.85,1.1,15.65,29.21,6.42,42.42-7.13,10.22-28.12,28.07-40.93,28.07h-15.5ZM962.01,554c1.21,1.67,24.78-24.42,9.65-23.95-1.23.04-5.49,1.05-6.17,1.94-1.11,1.46-4.23,20.98-3.48,22.01ZM955,596.99c8.49-2.01,21.6-8.64,19.57-19.06-1.62-2.29-14.3-.76-16.6,1.54l-2.97,17.52Z"/>
  <path class="st0" d="M1033,544l16.05-40.95c.78-.69,18.13,3.19,20.47,3.92,1.3.41,1.59-.77,1.51,1.53l-46.54,119.53-21.49-1.03,14.06-39.45-11.14-70.93,27.08-15.61v43Z"/>
  <path class="st0" d="M1134,465.01c-13.43,33.1-27.7,65.93-35.48,101.01-2.27,3.07-19.13-.84-23.52-.03l24-108,35,7.02Z"/>
  <path class="st0" d="M1081.79,589.21c4.41-.35,10.41,1.92,12.63,5.88,10.32,18.39-22.81,43.77-33.87,27.87-8.81-12.66,7.37-32.66,21.24-33.75Z"/>
  <path class="st1" d="M123,559.99l4.54-24.95c28.78-14.1,8.06,20.79-4.54,24.95Z"/>
  <path class="st1" d="M231,554.99l3.48-20.01c35.28-15.02.53,24.04-3.48,20.01Z"/>
  <path class="st1" d="M525.83,591.82c-.99.94-7.9,1.95-7.85.66l13-62.48-5.16,61.82Z"/>
  <path class="st1" d="M889.01,589l11.98-57.99c-.06,2.81.16,5.66,0,8.49-.71,12.37-2.02,31.95-4.23,43.77-.96,5.15-3.05,4.87-7.75,5.74Z"/>
  <path class="st1" d="M820,596.99l2.97-17.52c2.3-2.3,14.98-3.83,16.6-1.54,2.03,10.42-11.08,17.06-19.57,19.06Z"/>
  <path class="st1" d="M827.01,554c-.75-1.03,2.36-20.55,3.48-22.01.68-.88,4.94-1.9,6.17-1.94,15.13-.47-8.44,25.61-9.65,23.95Z"/>
  <path class="st1" d="M955,596.99l2.97-17.52c2.3-2.3,14.98-3.83,16.6-1.54,2.03,10.42-11.08,17.06-19.57,19.06Z"/>
  <path class="st1" d="M962.01,554c-.75-1.03,2.36-20.55,3.48-22.01.68-.88,4.94-1.9,6.17-1.94,15.13-.47-8.44,25.61-9.65,23.95Z"/>
</svg>