<?xml version="1.0" encoding="UTF-8"?>
<svg id="_레이어_1" data-name="레이어_1" xmlns="http://www.w3.org/2000/svg" version="1.1" viewBox="0 0 1166 1129">
  <!-- Generator: Adobe Illustrator 29.8.3, SVG Export Plug-In . SVG Version: 2.1.1 Build 3)  -->
  <defs>
    <style>
      .st0 {
        fill: #eada4b;
      }

      .st1 {
        fill: #323332;
      }
    </style>
  </defs>
  <path class="st1" d="M944,329l21.66-20.84c10.52-6.04,21.81-9.6,32.66-1.99,12.67,8.88,13.03,12.63,14.79,27.2.18,1.45.52,6.06,1.87,6.62l19.45-90.08c3.01-5.12,7.53-5.41,12.96-4.81,7.28.81,29,5.08,35.64,7.35,1.33.45,8.36,6.86,10.45,8.55,4.4,3.57,4.42,7.46,2.84,12.82-2.83,9.58-10.43,22.67-14.35,32.65-8.69,22.1-16.17,44.46-22.69,67.31-1.39,4.89-1.17,14.93-7.82,16.18-4.93.93-28.09-.38-32.42-2.53-2.94-1.46-2.71-4.87-3.21-5.28-.58-.48-3.18.03-4.82-.68-4.92-2.12-3.05-13.09-2.03-17.48l-15,6.01c6.87,8.73,18.69,11.44,18,24.99,6.8-.81,14.83-2.19,21.55-.06,4.43,1.41,5.73,4.39,8.96,7.04,5.29,4.33,10.42,6.19,11.52,14.48,3.48,26.09-17.56,45.63-43.3,41.3-7.2-1.21-11.13-9.31-18.1-11.66-16,16-27.7,28.13-52.18,25.94-5.09-.46-22.89-9.68-24.29-13.7-2.86-8.23,10.86-30.88,12.78-39.89-.15-3.12-10.81-7.98-13.37-12.53l-2.57-10.91c1.37,3.95-1.47,6.85-1.95,9.56-2.99,16.93-3.34,35.39-6.62,52.38-1.14,1.53-2.44,2.97-4.21,3.79-3.89,1.81-19.68,6.07-24.19,6.81-2.67.44-7.75,1.18-10.06-.02-1.97-1.03-1.58-3.81-2.19-4.31-1.73-1.42-7.21-.27-7.87-6.69l13.09-90.52c-4.58.69-6.63-1.17-8.5-5-1.23.99-1.83,2.25-2.25,3.75-2.37,8.42-3.04,20.47-4.52,29.48-3.34,20.21-7.15,40.63-8.79,61.21-.15,1.65-1.21,2.64-2.43,3.57-2.76,2.12-23.24,8.67-27.01,8.99-9.38.81-10.17-6.85-16.96-7.05-8.48-.26-29.37,12.34-36.25,4.68-.43-.48-.06-2.05-.48-2.4-.25-.21-5.82-2.02-6.14-2.02-7.43.08-18.96,7.51-28.22,6.84-6.83-.49-4.39-3.97-5.58-4.93-.69-.56-3.04.23-4.64-.41-.27-.11-3.14-3.75-4.04-4.33l22.41-146.28c9.19-2.89,30.82-9.5,39.68-6.91,2.86.84,2.84,4.67,5.2,4.9,4.94.47,18.68-4.4,25.13-4.99,5.76-.52,13.72-1.93,13.89,5.9,9.22-1.03,18.99-5.06,28.1-5.9,5.7-.53,12.67-1.54,13.51,5.73l69.38-8.95c6.84.23,5.21,4.68,6.7,5.89.43.35,6.78,1.2,6.78,3.72v17.5ZM1081.01,260l-38.94-6.93-26.12,121.46,24.91,1.32c5.26-18.15,9.86-36.52,16.12-54.38,6.22-17.72,19.2-40.9,23.53-57.47.35-1.35.71-2.59.5-4.01ZM930,309l-71.99,9.02,1.99,36.98,18-3-15,105,28.1-8.6,15.09-99.7c.19-.82.62-1.31,1.43-1.57,3.49-1.14,20.12-.5,21.24-2.27l1.14-35.86ZM998.83,351.84c3.17-20.58,2.46-55.96-27.75-38.26-17.69,10.37-43.43,46.75-48.36,66.64-4.56,18.4-2.23,31.16,19.68,28.68,4.89-.56,29.52-9.52,28.45,1.34-1,10.21-25.4,18.31-33.53,10.88l-1.36.3-12.88,34.5c27.69,16.66,60.33-17.64,70.11-41.24,6.13-14.79,10.22-39.29-12.73-39.71-5.5-.1-24.48,6.07-27.52,1.36-4.72-7.67,12.23-27.71,18.84-21.09,2.15,2.16-.08,8.56,2.72,7.74l24.36-11.15ZM772,311.01c-8.86,1.96-19.71,2.54-28.22,5.27-1.46.47-3.01.7-3.58,2.42l-20.19,138.3,28.49-9,5.59-41.91,14.93-1.57-8.01,52.48c6.67-3.54,21.79-4.66,27.34-8.15.66-.41,1.34-.62,1.47-1.53,4.73-45.92,12.8-91.4,23.19-136.3l-31.9,6.09-8.26,58.74-13.33,3.18,12.48-68.01ZM854,311.01l-28.98,6.75-21.01,139.24,26.87-8.12c4.98-46.4,13.53-92.28,23.12-137.86ZM924,358.01l-4.89.1-2.09,14.89,6.98-14.99ZM1021.78,401.23c-1.68.18-7.16,1.71-8.52,2.53-3.2,1.94-3.65,12.28-5.22,16.78-1.96,5.59-6.3,11.74-9.07,17.03,3.43,9.9,15.13,7.67,22.91,3.81,19.43-9.63,25.11-42.82-.1-40.15Z"/>
  <path class="st1" d="M422.01,343c8.41-11.79,16.41-28.17,31.01-33.48,21.28-7.74,33.89,5.2,43.49,22.48.79-4.82-.07-9.36,5.48-11.51,4.47-1.74,21.12-5.16,25.57-4.52,6,.86,2.87,6.71,7.77,5.06,1.36-.46,3.15-6.63,8.16-7.11,6.62-.63,15.32,10.67,21.02,14.08,1.11-2.97,1.48-5.75,4.76-7.23,2.9-1.31,17.74-4.58,21.2-4.8,2.02-.13,5.88-.35,7.56.51,2.07,1.06,1.69,4.04,2.1,4.39,2.53,2.23,27.33-9.15,31.97-3.43.75.92.63,2.91,1.12,3.33,2.57,2.21,19.91-3.95,24.54-4.53,3.01-.37,9.37-1.18,11.33,1.2,1.67,2.03,1.21,4.4,5.91,5.54.76-3.74,2.06-7.9,5.72-9.79,5.39.84,23.43-3.33,26.9-.31,1.27,1.11,1.07,3.45,1.6,3.89.69.57,2.94.05,4.39,1.11,2.41,1.76,1.52,8.23.72,10.92l-18.25,51.75c-2.54,2.52-26.46,6.54-31.05,4.44l-8.94,66.57c-5.06,3.72-25.03,11.58-30.1,8.95-2.18-1.13-1.15-5.75-6.97-5.52.02,1.34.07,2.73-.53,3.98-1.37,2.85-20.26,9.77-23.99,10.05-7.61.57-5.3-2.18-7.76-3.75-1.09-.7-2.94-.1-4.83-1.67-2.71-2.25-1.87-5.46-1.91-8.6-5.38,1.2-14.39,6.54-19.5,6.09-3.83-.34-6.73-6.31-10.98-7.84-6.14,2.5-15.19,13.42-22.09,8.83-1.41-.94-1.94-3.33-2.69-3.8-1.04-.65-2.97-.16-4.32-1.16-2.12-1.58-.41-6.07-2.89-5.1-.74.29-1.96,1.86-3.51,2.5-4.79,1.99-20.08,7.63-24.32,6.3-2.85-.9-2.18-4-2.9-4.59-.64-.53-2.61-.15-3.75-.72-5.25-2.63.97-21.41-1.54-21.5-5.07,9.18-13.06,20.23-21.77,26.24-22.92,15.8-51.11-6.12-51.74-31.23-4.91,6.72-8.46,14.17-13.96,20.53-10.07,11.64-18.31,17.33-34.53,15.48-8.41-.96-23.13-13.13-24.51-22-1.39-.28-1.27-.19-2.07.64-3.03,3.17-5.2,6.81-9,9.78-15.81,12.35-34.6,7.81-46.33-7.5-22.57-29.46-4.13-121,33.4-132.43,19.3-5.88,29.97,5.36,40.52,19.5,8.16-12.68,19.75-25.61,36.05-26.01,17.69-.43,32.27,19.92,34.46,36.03ZM383.76,313.26c-23.82,3.39-42.52,50.71-46.49,71.51-3.79,19.87-6.89,73.66,25.12,70.11,27.89-3.09,47.83-62.57,49.59-86.4,1.41-19-.63-59.15-28.23-55.22ZM460.76,313.26c-23.82,3.39-42.52,50.71-46.49,71.51-3.79,19.87-6.89,73.66,25.12,70.11,27.89-3.09,47.83-62.57,49.59-86.4,1.41-19-.63-59.15-28.23-55.22ZM704,317.01c-4.15,1.83-19.68-.22-21.51,1.98l-19.48,57.01,23.09-4.62,17.89-54.37ZM327.98,358.99c1.66-6.31,14.54-17.48,13.85-23.22s-8.96-15.77-14.8-17.31c-22.85-6.05-38.98,24.32-45.52,41.55-8.58,22.63-13.57,57.16-1.03,79s35.33,8.64,45.1-7.97l-3.59-20.05-12.44,12.09c-3.31,1.86-8.72-.56-10.98-3.16-10.35-11.89,2.16-47.56,11.45-58.4,5.01-5.85,10.41-9.71,16.52-2.55l1.44.03ZM560.85,332.16l-16.22-12.09-21.63,22.93,2.99-21.99-22.91,5.08-17.08,124.92,21.89-7.1,6.11-53.89c2.5-.18,1.71-.24,1.97,1.5,2.99,20.15,5.18,40.42,8.5,60.52,1.2,1.53,1.11.6,2.18.15,7.14-2.98,15.57-11.6,22.9-15.18l-14.58-71.44c.21-1.51,3.34-5.08,4.51-6.56,5.51-6.97,15.4-15.08,19.96-22.03.79-1.2,2.21-3.41,1.41-4.79ZM595,321.01l-23.86,5.13-17.13,124.86,21.89-7.1c3.96-41.3,10.61-82.33,19.1-122.89ZM627.99,321c-.79-.83-21.3,4.65-22.32,5.18-.72.37-1.32.61-1.49,1.51l-18.18,131.31,21.54-7.95,4.47-39.04,11,39,22.86-8.63,18.12-121.37-23.02,5.7-9.47,67.31c-5.34-23.82-2.94-48.7-3.51-73.01ZM555,405l5.99-49c-5.31,4.27-9.9,10.06-13.99,15.54,1.51,10.68,3.62,21.47,6.02,31.96.36,1.56-.66,1.74,1.98,1.5ZM335,369c-3.88.5-6.06-.08-8.7-2.9h-1.6c-6.43,1.67-15.78,26.38-17.21,32.89-.65,2.95-3.41,17.29.03,18.01,6.8-2.72,7.72-15.37,17.5-10.51,2.62,1.3.66,5.17,3.98,4.52,1.11-14.19,2.29-28.21,6.01-42Z"/>
  <path class="st1" d="M192.01,335.99l3.42-12.06c6.47-2.11,25.94-8.31,31.58-5.45,2.18,1.11,1.57,4.49,2.54,4.58,6.14-.98,27.46-8.56,31.52-3.61.71.87.57,2.64,1.2,3.27.79.79,3.26.37,4.24,2.26s.56,6.13.35,8.41c-1.79,19.4-8.68,43.08-11.71,63.28-1.44,9.62-2.8,19.32-4.04,28.96-1.03,8.02-.8,18.33-2.15,25.85-.25,1.42-.88,2.17-1.9,3.1-1.71,1.55-20.87,8.3-23.6,8.47-7.48.46-5.08-3.46-6.69-4.82-.22-.19-5.2-1.95-5.49-1.99-1.95-.28-3.58,2.3-5.83,2.72-9.43,1.77-19.52-11.32-27.52-15.39l-1.92-5.56c-11.46,22.57-35.77,41.49-59.03,20.5-14.06-12.69-14.29-31.84-15.49-49.52-4.47,7-15.72,49.37-19.93,52.08-1.45.93-2.38,1.02-4.05,1.03-3.66.02-19.78-1.36-22.84-2.28-1.9-.57-2.31-2.97-3.77-4.23-2.12-1.82-4.48-.23-4.98-5.07-1.25-12.19,14.12-30.98,12.93-46.9-1.41-18.9-8.57-40.15-9.85-59.14-.29-4.28-.94-7.57,2.47-10.5,2.36-2.02,24.68-14.77,26.98-15.05,8.32-1,5.98,3.32,7.75,4.84.74.63,3.94.41,5.2,1.24.72-.05,1.64-3.61,3.6-4.5,3.7-1.69,25.41,3.6,28.58,6.43,1.22,1.09.93,3.55,2.88,3.1,2.29-.31,8.28-8.67,11-11.07,21.71-19.19,46.32-8.22,54.54,17.02ZM156.76,315.26c-23.82,3.39-42.52,50.71-46.49,71.51-3.79,19.87-6.89,73.66,25.12,70.11,27.89-3.09,47.83-62.57,49.59-86.4,1.41-19-.63-59.15-28.23-55.22ZM222.99,323c-3.68,1.13-23.03,4.12-23.85,6.64l-16.22,105.85c-.84,6.57,9.24,9.78,13.73,13.34l21.33-14.83-2.99,18.99,22.86-8.63c2.72-40.41,10.18-80.27,18.15-119.87.1-1.63.2-1.65-1.46-1.46-2.54.3-21.47,4.96-22.09,5.93l-9.68,69.32-13.77,9.72,13.99-84.99ZM81,367v-43l-27.08,15.61,11.14,70.93-14.06,39.45,21.49,1.03,46.54-119.53c.08-2.29-.21-1.12-1.51-1.53-2.34-.74-19.69-4.61-20.47-3.92l-16.05,40.95Z"/>
  <path class="st0" d="M772,311.01l-12.48,68.01,13.33-3.18,8.26-58.74,31.9-6.09c-10.39,44.9-18.45,90.39-23.19,136.3-.13.91-.81,1.12-1.47,1.53-5.55,3.49-20.67,4.61-27.34,8.15l8.01-52.48-14.93,1.57-5.59,41.91-28.49,9,20.19-138.3c.57-1.72,2.12-1.95,3.58-2.42,8.51-2.73,19.36-3.31,28.22-5.27Z"/>
  <path class="st0" d="M998.83,351.84l-24.36,11.15c-2.8.83-.56-5.58-2.72-7.74-6.61-6.63-23.56,13.42-18.84,21.09,3.04,4.71,22.03-1.46,27.52-1.36,22.95.42,18.87,24.92,12.73,39.71-9.78,23.59-42.42,57.9-70.11,41.24l12.88-34.5,1.36-.3c8.14,7.42,32.53-.68,33.53-10.88,1.07-10.86-23.56-1.9-28.45-1.34-21.91,2.49-24.24-10.28-19.68-28.68,4.93-19.89,30.68-56.27,48.36-66.64,30.21-17.71,30.92,17.68,27.75,38.26Z"/>
  <path class="st0" d="M930,309l-1.14,35.86c-1.11,1.77-17.74,1.13-21.24,2.27-.81.26-1.24.75-1.43,1.57l-15.09,99.7-28.1,8.6,15-105-18,3-1.99-36.98,71.99-9.02Z"/>
  <path class="st0" d="M1081.01,260c.22,1.41-.14,2.66-.5,4.01-4.33,16.57-17.31,39.75-23.53,57.47-6.27,17.86-10.86,36.23-16.12,54.38l-24.91-1.32,26.12-121.46,38.94,6.93Z"/>
  <path class="st0" d="M854,311.01c-9.6,45.59-18.14,91.47-23.12,137.86l-26.87,8.12,21.01-139.24,28.98-6.75Z"/>
  <path class="st0" d="M1021.78,401.23c25.21-2.67,19.54,30.52.1,40.15-7.79,3.86-19.48,6.08-22.91-3.81,2.77-5.29,7.11-11.44,9.07-17.03,1.58-4.5,2.03-14.84,5.22-16.78,1.36-.83,6.83-2.35,8.52-2.53Z"/>
  <path class="st0" d="M627.99,321c.56,24.31-1.83,49.18,3.51,73.01l9.47-67.31,23.02-5.7-18.12,121.37-22.86,8.63-11-39-4.47,39.04-21.54,7.95,18.18-131.31c.17-.9.78-1.13,1.49-1.51,1.02-.53,21.53-6.01,22.32-5.18Z"/>
  <path class="st0" d="M383.76,313.26c27.6-3.93,29.63,36.22,28.23,55.22-1.76,23.83-21.7,83.31-49.59,86.4-32.01,3.55-28.91-50.25-25.12-70.11,3.96-20.8,22.67-68.11,46.49-71.51ZM380.72,357.2c-10.83,2.46-20.62,30.61-22.42,40.6-1.59,8.8-2.69,27.27,10.36,27.91,14.85.73,22.68-28.88,23.39-40.16.48-7.65,1.24-31.21-11.33-28.35Z"/>
  <path class="st0" d="M460.76,313.26c27.6-3.93,29.63,36.22,28.23,55.22-1.76,23.83-21.7,83.31-49.59,86.4-32.01,3.55-28.91-50.25-25.12-70.11,3.96-20.8,22.67-68.11,46.49-71.51ZM457.72,357.2c-10.83,2.46-20.62,30.61-22.42,40.6-1.59,8.8-2.69,27.27,10.36,27.91,14.85.73,22.68-28.88,23.39-40.16.48-7.65,1.24-31.21-11.33-28.35Z"/>
  <path class="st0" d="M560.85,332.16c.8,1.38-.62,3.59-1.41,4.79-4.56,6.95-14.45,15.06-19.96,22.03-1.17,1.48-4.31,5.05-4.51,6.56l14.58,71.44c-7.33,3.58-15.76,12.21-22.9,15.18-1.08.45-.99,1.38-2.18-.15-3.31-20.1-5.5-40.38-8.5-60.52-.26-1.74.53-1.68-1.97-1.5l-6.11,53.89-21.89,7.1,17.08-124.92,22.91-5.08-2.99,21.99,21.63-22.93,16.22,12.09Z"/>
  <path class="st0" d="M327.98,358.99l-1.44-.03c-6.11-7.16-11.5-3.3-16.52,2.55-9.29,10.84-21.8,46.51-11.45,58.4,2.26,2.59,7.67,5.01,10.98,3.16l12.44-12.09,3.59,20.05c-9.77,16.61-32.73,29.51-45.1,7.97s-7.55-56.37,1.03-79c6.53-17.23,22.67-47.6,45.52-41.55,5.84,1.55,14.1,11.46,14.8,17.31s-12.19,16.9-13.85,23.22Z"/>
  <path class="st0" d="M595,321.01c-8.49,40.56-15.14,81.59-19.1,122.89l-21.89,7.1,17.13-124.86,23.86-5.13Z"/>
  <path class="st0" d="M704,317.01l-17.89,54.37-23.09,4.62,19.48-57.01c1.83-2.2,17.36-.15,21.51-1.98Z"/>
  <path class="st0" d="M156.76,315.26c27.6-3.93,29.63,36.22,28.23,55.22-1.76,23.83-21.7,83.31-49.59,86.4-32.01,3.55-28.91-50.25-25.12-70.11,3.96-20.8,22.67-68.11,46.49-71.51ZM153.72,359.2c-10.83,2.46-20.62,30.61-22.42,40.6-1.59,8.8-2.69,27.27,10.36,27.91,14.85.73,22.68-28.88,23.39-40.16.48-7.65,1.24-31.21-11.33-28.35Z"/>
  <path class="st0" d="M222.99,323l-13.99,84.99,13.77-9.72,9.68-69.32c.62-.96,19.55-5.62,22.09-5.93,1.65-.2,1.56-.18,1.46,1.46-7.97,39.6-15.43,79.47-18.15,119.87l-22.86,8.63,2.99-18.99-21.33,14.83c-4.49-3.56-14.58-6.77-13.73-13.34l16.22-105.85c.82-2.52,20.17-5.51,23.85-6.64Z"/>
  <path class="st0" d="M81,367l16.05-40.95c.78-.69,18.13,3.19,20.47,3.92,1.3.41,1.59-.77,1.51,1.53l-46.54,119.53-21.49-1.03,14.06-39.45-11.14-70.93,27.08-15.61v43Z"/>
  <path class="st1" d="M380.72,357.2c12.57-2.86,11.81,20.69,11.33,28.35-.71,11.28-8.54,40.89-23.39,40.16-13.05-.64-11.95-19.11-10.36-27.91,1.8-9.99,11.59-38.13,22.42-40.6ZM369.01,419c7.15-.29,11.98-11.37,14.03-17.47,3.4-10.12,5.27-22,2.96-32.53-7.25,8.28-12.82,20.32-15.5,30.99-1.55,6.18-3.27,12.76-1.48,19.01Z"/>
  <path class="st1" d="M457.72,357.2c12.57-2.86,11.81,20.69,11.33,28.35-.71,11.28-8.54,40.89-23.39,40.16-13.05-.64-11.95-19.11-10.36-27.91,1.8-9.99,11.59-38.13,22.42-40.6ZM446.01,419c7.15-.29,11.98-11.37,14.03-17.47,3.4-10.12,5.27-22,2.96-32.53-7.25,8.28-12.82,20.32-15.5,30.99-1.55,6.18-3.27,12.76-1.48,19.01Z"/>
  <path class="st1" d="M153.72,359.2c12.57-2.86,11.81,20.69,11.33,28.35-.71,11.28-8.54,40.89-23.39,40.16-13.05-.64-11.95-19.11-10.36-27.91,1.8-9.99,11.59-38.13,22.42-40.6ZM142.01,421c7.15-.29,11.98-11.37,14.03-17.47,3.4-10.12,5.27-22,2.96-32.53-7.25,8.28-12.82,20.32-15.5,30.99-1.55,6.18-3.27,12.76-1.48,19.01Z"/>
</svg>