<?xml version="1.0" encoding="UTF-8"?>
<svg id="_레이어_1" data-name="레이어_1" xmlns="http://www.w3.org/2000/svg" version="1.1" viewBox="0 0 1166 1129">
  <!-- Generator: Adobe Illustrator 29.8.3, SVG Export Plug-In . SVG Version: 2.1.1 Build 3)  -->
  <defs>
    <style>
      .st0 {
        fill: #ecd94f;
      }

      .st1 {
        fill: #d42c2a;
      }
    </style>
  </defs>
  <path class="st0" d="M663,664c-3.82.38-6.41,2-10.49,2.07-5.05.09-10.28-2.18-14.86-2-2.01.08-12.33,2.29-13.95,3.13-3.7,1.93-10.9,15.23-14.74,19.26-5.31,5.58-8.48,3.4-15.49,1.56l-4.98-16.03-2.14,14.1c-9.74,3.8-17.65,8.42-28.4,4.45-2.85-1.99.76-19.4.55-23.52-6.85,7.89-27.91,6.48-35-.03-15.64-14.34-12.27-61.86-8.21-81.2,5.04-24.02,17.79-63.34,48.25-60.83,13.55,1.12,16.14,13.62,21.07,23.97,11.2-2.82,32.08-8.6,40.94,1.02l4.44,8.05,6-30.5c1.48-1,3.13-1.59,4.79-2.21,8.02-3.01,25.39-7.42,33.95-9.04,7.36-1.4,9.47,3.5,9.35,10.26-.32,16.96-4.1,36.61-5.07,54.01-.33,5.98.26,12.05.03,18.03-.08,2.05-2.46,21.4-.54,21.47l17.49-28.53c.28-2.12-.16-1.25-1.49-1.46-2.59-.4-11.55-.24-12.36-2.66l1.04-40.2c3.52-1.87,7.52-2.47,11.45-3.04,10.47-1.52,31.69-1.19,40.4-4.6,6.89-2.7,18.62-15.31,25.54-16.46,1.24-.21,6.87-.35,7.33.05l1.12,12.88c2.47-1.41,2.14-8.19,3.22-9.76,4.25-6.17,23.39,2.17,29.59,2.95.32,2.41,1.15,4.84,1.23,7.29.31,10.29-14.21,43.55-18.32,55.75-7.96,23.65-15.3,47.49-22.66,71.33-1.89,2.14-12.19.83-15.55.43s-8.73-1.26-11.97-2.03c-3.82-.91-2.85-6.12-2.3-9.22,1.84-10.48,11.33-27.7,11.81-37.27.29-5.75-2.13-18.51-3.03-24.98-.21-1.49.03-2.49-1.52-3.46l-31.49,50.5c-.22,1.66-.09,1.61,1.49,1.5,5.97-.41,12.16-3.11,18.49-2-1.36,3.21,1.87,4.21,1.98,4.68.42,1.7.17,5.82.06,7.85-.22,4.12-2.5,30.12-3.52,31.47-.86,1.14-22.69,1.62-26.9,2.1-11.89,1.35-25.31,7.07-36.62,1.38v-20.5ZM676,522l-36.84,9.17c-3.39,20.08-7.29,40.1-11.47,60.03-2.51,11.98-10.51,35.85-10.74,46.36-.05,2.5,6.37,22,7.62,22.31l10.44-2.35,3.15-16.34c1.65-.23,9.26-4.06,8.8-.73-.95,6.82-2.14,13.64-1.95,20.56,3.87-.81,25.2-7.41,25.9-9.67-2.27-7.79-.02-15.41.14-22.78.56-25.46.2-50.59,1.97-76.03.71-10.16,2.9-20.29,2.98-30.51ZM762,528l-19.78,13.61c2.46,9.28-.71,18.67-.2,27.89.83,15.03,5.69,31.78,6.81,47.04l-12.83,41.46,18.9.91,41.11-124.39-19.93-4.42-14.09,41.9v-44ZM563.98,571.99c1.54-6.16,12.6-17.78,12.01-23.4s-8.24-16.6-13.96-18.12c-15.74-4.18-27.46,16.35-32.89,28.17-11.4,24.77-17.24,60.44-10.27,86.99,8.26,31.46,29.57,25.57,42.93,1.64l-3.81-20.27c-4.73,6.5-12.02,19.6-20,8.51-8.78-12.21,1.96-49.88,10.57-61.44,7.73-10.37,14.08-1.14,15.42-2.07ZM667,662.5v19.5l52.56-5.94,2.44-33.07c-8.21-.62-16.34,1.53-24.47,2.04-1.47.09-4.19.67-3.52-1.52l38.48-63.52,3.51-35-48.57,5.94-1.43,34.06c.71.77,17.32-3.81,20.5-4.01,1.57-.1,1.7-.18,1.49,1.5l-29.54,47.47-.91,28.09-10.54,4.46ZM598.98,684.99c.16-.14.91-2.59,1.77-3.72,5.2-6.84,10.56-13.59,15.27-20.8l-13.11-42.99c2.87-6.53,8.1-12.11,11.47-18.61,6.64-12.79,17.94-46.4-4.87-48.88-5.14-.56-20.36,1.6-24.44,4.57-1.83,1.33-10.37,16.25-11.12,18.88-2.96,10.39-6.77,46.54-7,58.02-.15,7.27,3.25,13.58,2,20.98-.65,3.83-4.61,6.54-5.52,10.48-.73,3.17-2.8,19.96-2.45,22.57.18,1.35-.48,1.82,1.52,1.51,1.5-.23,16.85-6.37,17.34-7.17,1.17-12.34,1.56-24.93,3.29-37.22.18-1.26.41-5.44,1.86-5.62,3.67,13.87,6.33,28.27,10.52,41.99.32,1.05,1.46,7.76,3.48,6ZM568.99,577.01c-11.65-3.45-13.91,3.05-18.16,12.31-3.18,6.93-14.53,39.74-5.24,43.59l2.49-.56,5.18-9.11,10.64-1.36,5.09-44.88ZM619,611.01c-1.01-1.07-7.66,8.14-7.83,8.71-1.04,3.5,1.87,5.87,1.85,9.28,2.59.28,1.59,0,2.02-1.46,1.58-5.38,2.62-11.09,3.97-16.54Z"/>
  <path class="st0" d="M324.79,528.22c2.28,3.02,2.58,6.06,2.22,9.77,2.16-.98,1.61-6.37,3.23-7.75,1.92-1.64,9.32-1.31,12-.98,2.08.26,14.88,3.82,16.1,4.66.71.49,2.58,5.38,2.71,6.56.47,4.21-2.09,6.66-1.55,10.53l9.47-12.53c7.87-8.35,16.83-11.99,28.43-10.39,15.23,2.1,19.57,27.43,20.6,39.91l4.98-28.5c5-1.79,25.33-8.64,29.06-6.03,1.05.73.91,3.39,1.91,4.13l1.45.38c4.85-.71,21.84-6.99,25.42-4.8,2.53,4.38,2.59,9.25,2.06,14.22-1.78,16.72-6.49,35.26-8.76,52.24-3.15,23.59-4.72,47.39-8.04,70.96-.53.69-14.49,6.51-16.09,6.92-3.71.96-16.1-.7-14.02-6.51-10.63,6.25-21.7-1.75-28.78-9.7-1.24-5.66,1.36-11.33,1.77-16.82.08-1.11.75-3.72-.97-3.47-3.71,13.09-15.27,38.88-28.82,43.69-8.54,3.03-24.9.92-30.63-6.76-13.77-18.44-7.46-56.4-7.07-77.94l-21.63,68.88-29.43-2.8c-4.5-6.32,10.63-37.54,10.65-47.57.06-19.88-7.81-44.86-9.07-65-.18-2.92-.14-5.91.15-8.82.45-1.32,21.43-15.63,22.88-16.12,2.99-1.01,6.65-.7,9.75-.32ZM319,533l-22.86,15.68,9.94,71.82-12.08,42.5,18.12.42,40.95-123.83-19-5.55-12.55,39.97-1.5.99c.86-1.88-1.01-4.6-1.01-5.5v-36.5ZM386.74,533.24c-18.84,3.08-34.28,44.35-38.25,60.75-4.64,19.16-10.27,71.41,8.01,84.01,16.32,11.25,32.6-15.63,38.36-27.64,13.04-27.18,21.23-68.43,13.09-97.8-2.84-10.25-8.88-21.33-21.21-19.32ZM446.99,538c-3.4,1.22-19.96,4.12-20.83,6.66l-14.22,108.81c-1.28,7.46,6.91,10.6,11.56,14.56l18.49-14.03-1.99,17.99c.74.77,18.24-6.06,19.18-8.38,2.1-21.68,4.13-43.38,6.96-64.97,2.38-18.21,7.8-39.39,8.89-57.11.06-1.01.35-3.57-.55-3.54-4.19,2.1-17.2,3.13-19.3,6.7l-8.39,70.61c-.65,1.85-11.75,11.87-12.79,10.7l12.99-87.99ZM358.99,552.01h-1.99v1.99h1.99v-1.99ZM342.99,599v-2.99h-.98v2.99h.98Z"/>
  <path class="st0" d="M852.87,523.13c.13,2.14.99,4.26,1.12,6.38.72,11.66-16,51.82-19.91,67.06-1.15,4.46-3.76,22.29-5.56,24.44-2.43,2.92-23.31-.76-27.94-1.9l-.45-8.49,17.07-91.44c11.23-5.83,23.69,3.44,35.67,3.95ZM847,528.01l-26.01-5.01-16.99,93,16.9.91c5.49-30.55,15.87-59.74,26.09-88.89Z"/>
  <path class="st0" d="M806.74,631.24c12.8-2.2,19.18,2.36,20.25,15.27,1.33,16.14-6.37,28.42-23.53,27.53-6.59-.34-13.86-1.24-15.22-8.77-2.52-13.97,2.84-31.34,18.5-34.03ZM807.76,636.22c-16.03,2.37-23.62,35.36-4.51,32.56,16.54-2.43,23.47-35.36,4.51-32.56Z"/>
  <path class="st1" d="M676,522c-.08,10.22-2.28,20.35-2.98,30.51-1.77,25.44-1.41,50.57-1.97,76.03-.16,7.37-2.41,15-.14,22.78-.7,2.27-22.02,8.86-25.9,9.67-.19-6.92,1.01-13.74,1.95-20.56.46-3.34-7.15.5-8.8.73l-3.15,16.34-10.44,2.35c-1.25-.31-7.67-19.81-7.62-22.31.22-10.52,8.23-34.38,10.74-46.36,4.18-19.93,8.08-39.95,11.47-60.03l36.84-9.17ZM653.99,551.01c-2.5-.19-1.71-.24-1.97,1.5-3.14,21.14-6.55,42.26-9.02,63.49.34.38,5.56-1.15,5.86-2.63l5.12-62.37Z"/>
  <path class="st1" d="M598.98,684.99c-2.02,1.76-3.16-4.95-3.48-6-4.19-13.72-6.84-28.12-10.52-41.99-1.46.18-1.69,4.36-1.86,5.62-1.72,12.28-2.12,24.88-3.29,37.22-.49.8-15.85,6.94-17.34,7.17-2,.31-1.33-.16-1.52-1.51-.36-2.61,1.72-19.4,2.45-22.57.91-3.94,4.87-6.65,5.52-10.48,1.26-7.4-2.15-13.71-2-20.98.24-11.48,4.04-47.63,7-58.02.75-2.63,9.29-17.55,11.12-18.88,4.07-2.96,19.3-5.13,24.44-4.57,22.81,2.47,11.52,36.08,4.87,48.88-3.37,6.5-8.6,12.08-11.47,18.61l13.11,42.99c-4.7,7.21-10.06,13.96-15.27,20.8-.86,1.13-1.61,3.58-1.77,3.72ZM601.76,585.24c-2.17-2.17-10.15.34-11.26,2.75l-3.49,23c1.67,1.74,10.36-9.89,11.19-11.3,1.67-2.83,6.32-11.69,3.56-14.45Z"/>
  <path class="st1" d="M667,662.5l10.54-4.46.91-28.09,29.54-47.47c.22-1.68.09-1.6-1.49-1.5-3.17.2-19.79,4.78-20.5,4.01l1.43-34.06,48.57-5.94-3.51,35-38.48,63.52c-.67,2.19,2.05,1.61,3.52,1.52,8.13-.52,16.27-2.67,24.47-2.04l-2.44,33.07-52.56,5.94v-19.5Z"/>
  <path class="st1" d="M563.98,571.99c-1.34.93-7.69-8.3-15.42,2.07-8.61,11.56-19.35,49.24-10.57,61.44,7.97,11.09,15.27-2.01,20-8.51l3.81,20.27c-13.36,23.93-34.67,29.81-42.93-1.64-6.97-26.55-1.13-62.21,10.27-86.99,5.43-11.81,17.15-32.35,32.89-28.17,5.72,1.52,13.39,12.6,13.96,18.12s-10.47,17.24-12.01,23.4Z"/>
  <path class="st1" d="M762,528v44l14.09-41.9,19.93,4.42-41.11,124.39-18.9-.91,12.83-41.46c-1.12-15.26-5.98-32.01-6.81-47.04-.51-9.22,2.66-18.6.2-27.89l19.78-13.61Z"/>
  <path class="st1" d="M386.74,533.24c12.33-2.02,18.37,9.07,21.21,19.32,8.14,29.37-.05,70.62-13.09,97.8-5.76,12.01-22.04,38.89-38.36,27.64-18.28-12.6-12.65-64.85-8.01-84.01,3.97-16.4,19.41-57.66,38.25-60.75ZM384.63,578.26c-12.67,1.39-22.99,47.27-21.55,58.16,1.85,13.98,12.18,18.46,20.75,5.92,8.89-13.01,11.44-39.35,8.93-54.6-.65-3.93-3.37-10.01-8.13-9.48Z"/>
  <path class="st1" d="M446.99,538l-12.99,87.99c1.04,1.17,12.14-8.84,12.79-10.7l8.39-70.61c2.09-3.57,15.11-4.6,19.3-6.7.9-.03.61,2.53.55,3.54-1.1,17.73-6.51,38.9-8.89,57.11-2.82,21.59-4.86,43.3-6.96,64.97-.94,2.32-18.44,9.15-19.18,8.38l1.99-17.99-18.49,14.03c-4.65-3.96-12.84-7.1-11.56-14.56l14.22-108.81c.87-2.54,17.43-5.44,20.83-6.66Z"/>
  <path class="st1" d="M319,533v36.5c0,.9,1.86,3.62,1.01,5.5l1.5-.99,12.55-39.97,19,5.55-40.95,123.83-18.12-.42,12.08-42.5-9.94-71.82,22.86-15.68Z"/>
  <path class="st1" d="M847,528.01c-10.23,29.15-20.6,58.34-26.09,88.89l-16.9-.91,16.99-93,26.01,5.01Z"/>
  <path class="st1" d="M807.76,636.22c18.96-2.8,12.03,30.13-4.51,32.56-19.11,2.8-11.52-30.19,4.51-32.56Z"/>
  <path class="st0" d="M653.99,551.01l-5.12,62.37c-.31,1.47-5.53,3.01-5.86,2.63,2.47-21.23,5.88-42.35,9.02-63.49.26-1.74-.53-1.68,1.97-1.5Z"/>
  <path class="st0" d="M601.76,585.24c2.76,2.76-1.9,11.63-3.56,14.45-.83,1.41-9.52,13.04-11.19,11.3l3.49-23c1.12-2.41,9.09-4.92,11.26-2.75Z"/>
  <path class="st0" d="M384.63,578.26c4.76-.52,7.48,5.55,8.13,9.48,2.51,15.24-.04,41.59-8.93,54.6-8.57,12.54-18.9,8.06-20.75-5.92-1.44-10.89,8.88-56.76,21.55-58.16ZM374.02,643.99c2.99,2.09,10.29-12.94,11.18-15.3,3.99-10.72,5.45-25.95,3.82-37.21-.21-1.48,0-2.53-1.53-3.48-4.46-.94-13.03,24.41-14.19,28.79-2.46,9.3-5.04,18.71.72,27.2Z"/>
</svg>